<?xml version="1.0" encoding="UTF-8" standalone="no"?>
<svg
   xmlns:dc="http://purl.org/dc/elements/1.1/"
   xmlns:cc="http://creativecommons.org/ns#"
   xmlns:rdf="http://www.w3.org/1999/02/22-rdf-syntax-ns#"
   xmlns:svg="http://www.w3.org/2000/svg"
   xmlns="http://www.w3.org/2000/svg"
   id="svg7012"
   version="1.1"
   viewBox="0 0 210 297"
   height="297mm"
   width="210mm">
  <defs
     id="defs7006" />
  <metadata
     id="metadata7009">
    <rdf:RDF>
      <cc:Work
         rdf:about="">
        <dc:format>image/svg+xml</dc:format>
        <dc:type
           rdf:resource="http://purl.org/dc/dcmitype/StillImage" />
        <dc:title></dc:title>
      </cc:Work>
    </rdf:RDF>
  </metadata>
  <g
     id="layer1">
    <path
       id="path6154"
       d="M 69.429031,136.82127 V 45.182666 c 0,-0.214445 0.079,-0.45762 0.162114,-0.715155 0.06159,-0.190841 0.12107,-0.379655 0.159033,-0.565355 l 0.239092,-1.19022 -21.922616,14.158483 c -6.612904,3.520376 -7.124902,8.246373 -7.129006,9.586405 l -0.238024,0.135454 v 0.297565 2.11776 0.807511 l 10.96028,-5.147697 c 1.469306,-0.316018 3.231039,0.174422 4.633649,1.291796 4.936334,3.934902 8.657822,15.435931 8.657822,26.752236 0,10.514981 -2.537424,23.571371 -8.106833,27.390331 -0.965512,0.66184 -2.05826,1.01065 -3.159213,1.01065 -0.706949,0 -1.507271,-0.14657 -2.110586,-0.37859 l -10.875106,-5.00409 v 0.80034 4.22734 c 0,8.25972 4.663402,10.02348 5.166167,10.18663 l 22.038559,8.69576 v -0.005 l 3.034032,1.23639 -0.608447,-1.23741 c -0.443256,-0.906 -0.902924,-1.84177 -0.902924,-2.81139 z"
       style="fill:#55708f;stroke-width:1.0260514" />
    <path
       id="path6156"
       d="m 84.8199,144.87064 v 19.49496 0.318 l 0.286272,0.1404 c 0.127238,0.0873 0.30063,0.65359 0.415557,1.02808 0.455567,1.49087 1.218949,3.98624 4.688023,3.98624 1.71043,0 3.16024,-0.46789 3.97595,-1.28463 0.856762,-0.85984 1.326682,-2.1855 1.324639,-3.73274 0,-0.97171 0.135436,-4.40588 1.902304,-7.77031 1.72991,-3.29361 5.458585,-7.22034 13.397455,-7.22034 9.20778,0 12.99186,5.06768 15.76221,8.77789 1.9023,2.5487 3.27824,4.38943 5.58993,4.38943 2.10646,0 2.91706,-1.55651 4.1832,-3.9862 1.86947,-3.58604 4.19553,-8.04938 12.95184,-8.15607 0.10979,0.005 0.12707,0.007 0.21755,0.0953 0,0.0261 -0.0113,0.0577 -0.0128,0.0831 -0.0183,0.10753 -0.0348,0.2217 -0.0348,0.33551 v 3.76151 10.43083 c 0,0.10653 0.0114,0.23501 0.0267,0.3785 0.13126,1.34307 0.96243,3.04222 2.96734,3.04222 2.12804,0 3.1623,-1.06299 3.1623,-3.24947 V 143.84452 H 84.824963 v 1.02607 z m 69.73795,21.46911 c 0.0207,-0.19072 0.0339,-0.38889 0.0339,-0.60641 0,0.2225 -0.0128,0.42175 -0.0339,0.60641 z m -0.08,0.43913 c 0,-0.0165 0.0113,-0.031 0.0113,-0.0451 0,0.0113 0,0.031 -0.0113,0.0451 z"
       style="fill:#55708f;stroke-width:1.0260514" />
    <path
       id="path6158"
       d="m 96.504475,252.02326 c -4.526936,1.03834 -7.452207,3.01249 -7.452207,5.02869 0,3.10483 6.636502,5.72843 14.492982,5.72843 8.71465,0 14.1086,-2.97147 14.1086,-5.73358 0,-1.35749 -0.98808,-3.81589 -7.60303,-5.02765 l -0.60538,-0.11105 v 0.61564 3.67326 c 0,0.23605 -0.0165,0.4535 -0.0391,0.66489 -0.0183,0.1526 -0.0421,0.29859 -0.073,0.43707 0,0.0235 -0.0114,0.0506 -0.0145,0.074 -0.56533,2.37326 -2.98477,2.58567 -6.0305,2.58567 -3.487555,0 -6.156325,-0.27691 -6.156325,-3.7615 v -4.31868 z"
       style="fill:#55708f;stroke-width:1.0260514" />
    <path
       id="path6160"
       d="m 97.090755,287.22195 c 0,-4.05599 -3.260786,-7.35682 -7.268536,-7.35682 -0.209342,0 -0.415557,0.0271 -0.619737,0.0554 l -0.216503,0.0271 c -0.05025,0.007 -0.09949,0.0165 -0.162123,0.0399 l -0.08718,-0.0165 -0.08718,0.0113 c -1.662205,0.2668 -10.039912,2.11881 -11.702118,12.50242 -0.04924,0.30793 0,0.52843 0.156972,0.70697 0.833151,0.97988 5.100503,1.47647 12.682003,1.47647 h 0.108786 0.245244 c 0.181581,0 0.310893,-0.0852 0.397079,-0.1701 3.6907,-0.36222 6.553383,-3.52243 6.553383,-7.28086 z"
       style="fill:#55708f;stroke-width:1.0260514" />
    <path
       id="path6162"
       d="m 107.67858,287.39944 c 0,-4.6357 3.78408,-8.55726 8.26279,-8.55726 0.21652,0 0.37145,-10e-4 0.58383,0.0165 l 0.20317,-0.0473 c 0.13035,0.0113 0.17539,-0.0235 0.17757,-0.0235 -0.0872,-0.0271 0.2473,1.11534 0.2473,1.11534 l 0.50073,-1.64683 v -18.83401 l -0.88654,0.94399 c -1.90228,2.02542 -7.444,3.4393 -13.4786,3.4393 -5.636105,0 -10.323115,-1.21277 -13.554142,-3.50603 l -0.810589,-0.57454 v 0.99318 17.53726 c 0,0.18967 0.09233,0.31724 0.21546,0.42892 l -0.02751,0.29667 0.556124,0.007 c 4.579274,0.0563 8.447482,3.9113 8.447482,8.41665 0,2.20093 -0.87624,4.24072 -2.76008,6.41902 l -0.731569,0.84852 h 1.121465 14.339479 1.12146 l -0.73484,-0.85198 c -1.90536,-2.20498 -2.7929,-4.2468 -2.7929,-6.42208 z"
       style="fill:#55708f;stroke-width:1.0260514" />
    <path
       id="path6164"
       d="m 122.43014,281.92959 -0.14877,-0.0636 c -0.0719,-0.0183 -0.14876,-0.0676 -0.22572,-0.14676 l -0.10779,-0.0842 c -2.0952,-1.2128 -4.05085,-1.61605 -4.79474,-1.73299 l -0.0953,-0.0165 -0.21958,0.0605 c -0.1231,-0.0165 -0.2473,-0.0183 -0.37143,-0.0183 l -0.4607,0.007 c -4.00777,0 -7.26856,3.29154 -7.26856,7.33625 0,3.72458 2.85653,6.85914 6.54929,7.22648 0.0842,0.0842 0.21445,0.17319 0.40016,0.17319 h 0.24525 v 0 h 0.10666 c 7.58048,0 11.84678,-0.49662 12.67583,-1.47239 0.15605,-0.17849 0.21342,-0.4535 0.16207,-0.77468 -0.94499,-5.89977 -4.0293,-8.96459 -6.45078,-10.49547 z"
       style="fill:#55708f;stroke-width:1.0260514" />
    <path
       id="path6166"
       d="m 136.08072,287.14191 c 0,-4.0057 -3.26081,-7.26443 -7.26857,-7.26443 -0.28215,0 -0.55918,0.0235 -0.83314,0.0534 l -0.24214,-0.0235 -0.0934,0.0164 c -0.51406,0.0882 -1.88487,0.37034 -3.4927,1.10605 l -0.7767,0.35599 0.67924,0.5192 c 3.16844,2.41946 5.13334,5.88237 5.84028,10.29337 0.0768,0.48428 0,0.91728 -0.21444,1.28769 l -0.58484,0.98707 1.12556,-0.2225 c 3.39623,-0.67107 5.86081,-3.66097 5.86081,-7.11053 z"
       style="fill:#55708f;stroke-width:1.0260514" />
    <path
       id="path6168"
       d="m 146.66855,287.39944 c 0,-4.6357 3.78407,-8.55726 8.26279,-8.55726 0.2165,0 0.37142,-10e-4 0.58382,0.0165 l 0.18679,-0.0481 c 0.14258,0.0113 0.19203,-0.0235 0.19384,-0.0235 -0.0873,-0.0271 1.91051,0.23813 1.91051,0.23813 l -1.16252,-0.76944 v -18.83321 l -0.88653,0.94401 c -1.9023,2.02537 -7.44401,3.4393 -13.47821,3.4393 -5.6361,0 -10.32309,-1.21281 -13.55414,-3.50602 l -0.81059,-0.57459 v 0.99322 17.53729 c 0,0.18993 0.0924,0.31719 0.21549,0.42886 l -0.0275,0.29668 0.55611,0.007 c 4.57928,0.0565 8.44749,3.91135 8.44749,8.4167 0,2.22656 -0.86496,4.20582 -2.80317,6.41592 l -0.74698,0.85161 h 1.13278 14.38525 1.12147 l -0.73364,-0.85161 c -1.90539,-2.20498 -2.79292,-4.24684 -2.79292,-6.42206 z"
       style="fill:#55708f;stroke-width:1.0260514" />
    <path
       id="path6170"
       d="m 156.1431,279.90209 -0.0953,-0.0165 -0.21961,0.0602 c -0.12324,-0.0164 -0.24725,-0.0181 -0.37145,-0.0181 l -0.46067,0.007 c -4.00777,0 -7.26856,3.29156 -7.26856,7.33625 0,3.7246 2.85652,6.85916 6.54928,7.22648 0.0841,0.0843 0.21442,0.1732 0.40018,0.1732 h 0.24516 v 0 h 0.10678 c 7.58043,0 11.84677,-0.49664 12.67581,-1.47241 0.25245,-0.28853 0.16317,-0.89878 0.16208,-0.90496 -1.64888,-10.29441 -10.0584,-12.12894 -11.72777,-12.39267 z"
       style="fill:#55708f;stroke-width:1.0260514" />
    <path
       id="path6172"
       d="m 135.49483,252.02326 c -4.52693,1.03834 -7.45221,3.01249 -7.45221,5.02869 0,3.10483 6.63652,5.72843 14.49298,5.72843 8.71424,0 14.10821,-2.97147 14.10821,-5.73358 0,-1.35749 -0.98808,-3.81589 -7.60302,-5.02765 l -0.60539,-0.11105 v 0.61564 3.67326 c 0,0.23605 -0.0165,0.4535 -0.0391,0.66489 -0.0183,0.1526 -0.042,0.29859 -0.0728,0.43707 0,0.0235 -0.0113,0.0506 -0.0165,0.074 -0.56535,2.37326 -2.98477,2.58567 -6.0301,2.58567 -3.48756,0 -6.15632,-0.27691 -6.15632,-3.7615 v -4.31868 z"
       style="fill:#55708f;stroke-width:1.0260514" />
    <path
       id="path6174"
       d="m 155.61776,220.79846 h -1.02606 c 0,0 0.0905,-0.0235 0.0637,-0.031 -0.32321,0 -0.49253,-0.36103 -0.49253,-0.93374 0,-0.64538 0.24334,-1.08862 0.58999,-1.08862 v 0 h 0.86291 v -11.62813 c 0,-2.18654 -1.03427,-3.24952 -3.16229,-3.24952 -2.00491,0 -2.836,1.69914 -2.96735,3.04223 -0.0183,0.14348 -0.0267,0.27302 -0.0267,0.37851 v 10.43083 c 0,10.51087 -9.36681,17.57112 -18.11597,17.57112 -35.294521,0 -35.898855,-34.24241 -35.900918,-34.58611 0,-1.5237 -0.491468,-2.85966 -1.389273,-3.76152 -0.828013,-0.82905 -2.193698,-1.28461 -3.847687,-1.28461 -5.154883,0 -5.386774,5.41651 -5.386774,5.47191 v 21.30083 10.67913 c 0,3.05047 0.978854,5.57353 2.908866,7.50046 4.617224,4.60799 15.663596,4.95273 31.988586,4.95273 l 9.73621,-0.0113 c 15.09731,0 21.57067,-3.62402 24.34407,-6.66522 0.15988,-0.17648 0.2791,-0.35097 0.39712,-0.52429 0.0546,-0.0809 0.10865,-0.16208 0.16937,-0.24204 l 0.45762,-0.60639 -0.73363,-0.19696 c -2.53128,-0.68234 -4.36893,-3.47627 -4.36893,-6.64268 0,-3.79329 2.31685,-6.76991 5.2852,-6.7976 l 0.6146,0.2113 v -0.51099 l 0.0615,-0.0728 -0.0615,-0.22875 z m -1.05991,-14.28672 c 0.0207,0.18472 0.0339,0.38389 0.0339,0.60639 0,-0.21754 -0.0128,-0.41559 -0.0339,-0.60639 z m -0.08,-0.43916 c 0,0.0165 0.0113,0.0311 0.0113,0.045 0,-0.0165 -0.0113,-0.031 -0.0113,-0.045 z"
       style="fill:#55708f;stroke-width:1.0260514" />
    <path
       id="path6176"
       d="M 182.97948,39.699963 75.938302,40.212988 c -3.023769,0 -5.483222,2.459444 -5.483222,5.483217 v 0.513026 91.126089 0.51302 c 0,2.7447 2.225514,4.97022 4.970197,4.97022 h 0.513025 105.490808 0.51301 c 3.0238,0 5.48324,-2.45944 5.48324,-5.48324 l 1.19739,-91.308726 c 0,-3.023774 -2.6195,-6.326631 -5.64327,-6.326631 z"
       style="fill:#55708f;stroke-width:1.0260514" />
    <path
       id="path6178"
       d="M 171.68163,50.473499 H 86.198812 c -3.02377,0 -5.483211,2.459441 -5.483211,5.483223 v 0.513025 70.605083 0.513 c 0,2.74472 2.225503,4.97021 4.970186,4.97021 h 0.513025 84.969768 0.51305 c 3.02376,0 5.4832,-2.45945 5.4832,-5.48321 V 55.956722 c 0,-3.023782 -2.45944,-5.483223 -5.4832,-5.483223 z"
       style="fill:#4ab85f;stroke-width:1.0260514" />
    <path
       id="path6180"
       d="m 137.01134,159.5596 -0.25342,0.49148 c -1.0948,2.13113 -2.04082,3.97185 -4.5844,3.97185 -2.85959,0 -4.6008,-2.33119 -6.4436,-4.80089 -2.78265,-3.72767 -6.2466,-8.36641 -14.98035,-8.36641 -6.0069,0 -10.2322,2.24497 -12.557235,6.67239 -1.50111,2.86063 -1.817124,5.58274 -1.878694,6.37282 -0.09129,0.0936 -0.20728,0.24438 -0.20728,0.46476 v 35.91185 c 0,0.10551 0,0.19696 0.02476,0.29354 l -0.02476,0.007 v 0.10867 c 0,0.3366 0.780834,33.57753 35.249379,33.57753 7.15158,0 17.07965,-5.75 17.07965,-16.54509 v -65.83709 l -0.54688,0.0359 c -6.29277,0.41762 -9.02925,4.09701 -10.87717,7.641 z"
       style="fill:#4ab85f;stroke-width:1.0260514" />
    <path
       id="path6182"
       d="M 152.02452,9.9048925 C 150.80866,7.257682 148.48157,5.478509 146.23349,5.478509 c -0.57253,0 -1.11839,0.1179931 -1.62425,0.3498738 -1.19534,0.5499586 -2.09724,1.7442857 -2.4738,3.2772071 -0.38271,1.5606231 -0.17137,3.4475421 0.56331,5.0471181 l 11.37892,25.034623 h 0.3304 10.16099 0.79723 z"
       style="fill:#4ab85f;stroke-width:1.0260514" />
    <path
       id="path6184"
       d="m 143.56781,26.315122 c -0.69463,0 -1.36567,0.146818 -1.99465,0.435144 -1.24152,0.570489 -2.18958,1.618083 -2.66978,2.948875 -0.47608,1.323605 -0.42375,2.737504 0.14476,3.973896 l 2.40711,5.515025 h 0.33553 10.162 0.79314 l -4.36998,-9.72399 c -0.86494,-1.883831 -2.79803,-3.14895 -4.80806,-3.14895 z"
       style="fill:#4ab85f;stroke-width:1.0260514" />
    <path
       id="path6186"
       d="m 11.929521,5.3913341 c -0.610501,0 -1.193302,0.12618 -1.731978,0.3734528 C 8.9734652,6.3270646 8.0941372,7.4690772 7.7237362,8.9784 c -0.380666,1.552416 -0.180602,3.299768 0.5633,4.919907 l 26.9379558,58.798942 0.671036,-0.39811 c 0.144666,-0.08215 0.214446,-0.16211 0.427865,-0.245206 l 3.350057,-1.74225 v -0.317047 c 0,-0.125117 0.223693,-0.310894 0,-0.426839 V 66.95034 c 0,-0.406312 0.06875,-2.568202 1.438522,-5.11599 L 41.232525,61.610787 17.611795,9.6166022 C 16.451319,7.088405 14.167327,5.3913382 11.92951,5.3913382 Z"
       style="fill:#4ab85f;stroke-width:1.0260514" />
    <path
       id="path6188"
       d="M 11.082511,26.472924 C 9.8040522,25.998891 8.3963112,26.051115 7.1588952,26.620561 5.9132653,27.193098 4.9651909,28.215043 4.4891061,29.500688 4.0130182,30.785305 4.0653482,32.178787 4.6368537,33.42431 L 27.759949,83.772758 c 0.03066,0.06758 0.06875,0.129261 0.108774,0.189821 l 0.671035,1.261019 0.311906,-1.33806 c 1.044522,-4.474609 2.883207,-8.096573 5.177457,-10.194863 L 34.305129,73.438259 13.960582,29.141562 c -0.57048,-1.244576 -1.592426,-2.192548 -2.878071,-2.668638 z"
       style="fill:#4ab85f;stroke-width:1.0260514" />
    <path
       id="path6190"
       d="m 58.527027,177.57603 c 1.257939,5.20825 5.258515,28.21641 25.523034,43.22243 l 0.769538,1.63344 v -17.40897 c 0,0 -5.640209,-4.10629 -8.205333,-9.36377 -2.565137,-5.2575 -7.567135,-20.90474 -7.31062,-24.62421 0.256521,-3.71942 0.376553,-15.70984 7.695388,-27.19037 l -4.482824,-1.97411 -4.609018,-2.23065 c 0,0 -7.064364,10.01735 -7.453236,15.10656 -0.388875,5.08924 -4.029307,14.11129 -1.923849,22.82965 z"
       style="fill:#b6b6b4;stroke-width:1.0260514" />
    <path
       id="path6192"
       d="m 160.74801,142.81856 h 12.31262 c 0,0 7.6954,12.82562 7.05409,25.26651 -0.64126,12.44087 0,27.06209 -23.08615,51.04605 l -0.38478,-13.33868 c 0,0 0.50279,-1.96385 -1.02603,-1.7956 -1.5288,0.16828 1.02603,-2.30861 1.02603,-2.30861 0,0 11.54311,-14.10821 12.05612,-26.29258 0.51302,-12.18432 0.76953,-19.23842 -7.9519,-32.57709 z"
       style="fill:#b6b6b4;stroke-width:1.0260514" />
    <path
       id="path6194"
       d="m 98.158375,251.58002 v -6.15631 l 11.287065,0.8978 v 8.33667 c 0,0 1.28256,5.30052 -6.15681,5.30052 -7.438885,0 -5.130255,-5.81359 -5.130255,-8.37868 z"
       style="fill:#b6b6b4;stroke-width:1.0260514" />
    <path
       id="path6196"
       d="m 137.40536,251.87859 c 0,0 -1.7956,7.54556 4.93734,7.54556 6.73294,0 6.21994,-4.28887 6.0927,-6.9002 -0.12707,-2.61128 0,-9.15238 0,-9.15238 0,0 -10.56729,1.69095 -11.24758,2.19267 -0.68027,0.50174 0.21753,6.31435 0.21754,6.31435 z"
       style="fill:#b6b6b4;stroke-width:1.0260514" />
    <path
       id="path6198"
       d="m 38.647486,72.704962 c -5.374454,0 -9.747489,8.9759 -9.747489,20.007995 0,11.032113 4.373035,20.008413 9.747489,20.008413 5.374461,0 9.747491,-8.9763 9.747491,-20.008413 0,-11.032095 -4.37303,-20.007995 -9.747491,-20.007995 z"
       style="fill:#ffffff;stroke-width:1.0260514" />
    <path
       id="path6200"
       d="m 155.87737,233.30194 c -0.0183,-0.20714 -0.13035,-0.32848 -0.25952,-0.40532 v -7.28598 l 0.0965,-0.12836 -0.14147,-0.28503 -0.2134,-0.29435 h -0.31803 c -2.37634,0 -4.16785,2.48098 -4.16785,5.77154 0,3.07305 1.84997,5.5971 4.21093,5.74589 l 0.36732,0.0235 0.13946,-0.34049 c 0.39299,-0.96037 0.49148,-1.94128 0.28627,-2.8001 z"
       style="fill:#ffffff;stroke-width:1.0260514" />
    <path
       id="path6202"
       d="m 96.106372,224.90265 c -3.182814,0 -5.771543,2.58873 -5.771543,5.77155 0,3.18283 2.588729,5.77154 5.771543,5.77154 3.182803,0 5.771538,-2.58871 5.771538,-5.77154 0,-3.18282 -2.588735,-5.77155 -5.771538,-5.77155 z"
       style="fill:#ffffff;stroke-width:1.0260514" />
    <path
       id="path6204"
       d="m 49.249678,92.71307 c 0.202123,3.848725 -1.539076,19.83594 -10.602192,20.86301 0,0 14.229282,7.95498 15.788879,7.48301 1.559598,-0.47199 10.141493,-5.43093 10.514976,-28.34602 0.373489,-22.914814 -11.837557,-28.726365 -13.29147,-28.044044 -1.453914,0.682332 -11.81498,6.371884 -11.81498,6.371884 0,0 8.550086,5.425664 9.404787,21.67216 z"
       style="fill:#b6b6b4;stroke-width:1.0260514" />
    <path
       id="path6206"
       d="m 129.45345,258.8906 c 0,0 2.30861,-2.69337 7.43887,-2.56513 l -0.25651,-5.00196 c 0,0 -11.15833,2.05209 -7.18236,7.56709 z"
       style="fill:#2d4462;stroke-width:1.0260514" />
    <path
       id="path6208"
       d="m 149.33321,256.069 c 0,0 0.25662,6.41278 -7.18238,6.79757 0,0 15.26253,-0.25141 15.26253,-6.41282 0,-2.43689 -8.97796,-4.87373 -8.97796,-4.87373 z"
       style="fill:#2d4462;stroke-width:1.0260514" />
    <path
       id="path6210"
       d="m 90.463802,258.8906 c 0,0 2.308612,-2.69337 7.438873,-2.56513 l -0.25652,-5.00196 c 0,0 -11.158308,2.05209 -7.182353,7.56709 z"
       style="fill:#2d4462;stroke-width:1.0260514" />
    <path
       id="path6212"
       d="m 110.34324,256.069 c 0,0 0.25653,6.41278 -7.18277,6.79757 0,0 15.26293,-0.25141 15.26293,-6.41282 0,-2.43689 -8.97796,-4.87373 -8.97796,-4.87373 z"
       style="fill:#2d4462;stroke-width:1.0260514" />
    <path
       id="path6214"
       d="m 145.48551,262.86657 c 0,0 -3.71946,2.43688 -1.66734,4.36073 2.0521,1.92382 4.95891,5.08718 3.16331,7.78053 -1.7956,2.6934 -6.75448,0.42786 -5.47193,6.4128 0.90088,4.20476 -3.33467,8.29459 -6.15631,0.043 0,0 2.94991,8.2084 -2.69337,12.56913 l 4.74549,0.76956 15.26251,-0.38472 c 0,0 -7.31061,-3.71944 -5.25853,-8.97797 2.05209,-5.2585 9.49098,-6.15629 9.49098,-6.15629 l 0.38479,-19.62323 c 0,0 -9.23448,3.4629 -11.7996,3.2064 z"
       style="fill:#2d4462;stroke-width:1.0260514" />
    <path
       id="path6216"
       d="m 106.49554,262.86657 c 0,0 -3.71984,2.43688 -1.66774,4.36073 2.05251,1.92382 4.95932,5.08718 3.16372,7.78053 -1.79558,2.6934 -6.7549,0.42786 -5.47233,6.4128 0.90088,4.20476 -3.334665,8.29459 -6.156305,0.043 0,0 2.94989,8.2084 -2.693396,12.56913 l 4.745496,0.76956 15.262915,-0.38472 c 0,0 -7.31062,-3.71944 -5.2585,-8.97797 2.05209,-5.2585 9.49097,-6.15629 9.49097,-6.15629 l 0.38477,-19.62323 c 0,0 -9.23446,3.4629 -11.79958,3.2064 z"
       style="fill:#2d4462;stroke-width:1.0260514" />
    <path
       id="path6218"
       d="m 126.54665,283.90061 c 0,0 6.58315,0.85571 3.67633,-3.41982 0,0 3.24951,-0.76952 4.53207,2.30864 1.28256,3.07817 3.5912,9.1493 -4.87372,11.79956 0,0 -2.993,-8.89173 -3.67636,-9.7475 -0.68335,-0.85571 0.34169,-0.94088 0.34169,-0.94088 z"
       style="fill:#2d4462;stroke-width:1.0260514" />
    <path
       id="path6220"
       d="m 148.4354,288.60303 c 0.13547,-0.23501 3.40751,1.49904 4.78858,0.51301 1.19741,-0.85471 -0.68436,-2.82166 1.53908,-4.01802 2.08289,-1.12047 8.63628,0.51301 2.82162,-4.61723 0,0 9.57614,1.8797 10.77355,11.71342 0,0 -3.07815,3.33463 -14.87773,2.56514 0,0 -7.26857,-2.30865 -5.0451,-6.15632 z"
       style="fill:#2d4462;stroke-width:1.0260514" />
    <path
       id="path6222"
       d="m 109.36028,288.68919 c 0,0 2.18036,2.49125 4.18937,1.53911 1.62425,-0.76954 -0.40118,-3.4096 2.05211,-5.04511 2.30861,-1.5391 5.81464,3.84769 7.43887,-1.96696 l 0.94088,-0.59819 c 0,0 8.46494,9.31962 4.87374,10.85873 -3.59116,1.53906 -12.74048,2.13827 -14.79258,0.94087 -2.05211,-1.19738 -5.55709,-4.6162 -4.70239,-5.72845 z"
       style="fill:#2d4462;stroke-width:1.0260514" />
    <path
       id="path6224"
       d="m 91.574293,280.56592 c 0,0 4.617239,4.27557 -1.282563,5.04511 -3.167413,0.41247 1.19022,6.96483 -5.728443,3.50501 -2.052099,-1.02607 -5.814629,4.44591 -6.241467,0 l -1.7956,2.22346 c 0,0 0.08617,2.30858 0.427868,2.39376 0.341695,0.0855 9.576142,1.19741 9.576142,1.19741 0,0 8.551111,1.1964 9.918836,-3.76256 1.367729,-4.95889 1.025019,-10.4308 -4.874773,-10.60219 z"
       style="fill:#2d4462;stroke-width:1.0260514" />
    <path
       id="path6226"
       d="m 91.660479,242.42966 c 0,0 3.643521,1.10712 6.584176,-0.0852 3.163325,-1.28255 2.393795,1.19742 5.643295,1.28258 3.2499,0.0852 6.58458,-4.78857 11.03046,-4.78857 4.44588,0 3.33465,3.93286 7.52403,3.67633 2.81754,-0.1723 3.70815,-3.93594 9.91884,-4.61721 7.01101,-0.76957 12.65429,2.22342 13.25351,-1.53912 0.47197,-2.96938 -5.38677,-3.84768 1.88075,-10.60219 1.11431,-1.03631 2.47997,-6.2404 2.22345,-11.20035 -0.25663,-4.95993 -0.34169,-11.54308 3.84769,-11.45793 4.18936,0.0852 3.07815,8.03706 3.07815,8.03706 l 0.5982,20.26453 c 0,0 -1.96693,9.49097 -8.46496,11.71443 -6.49796,2.22344 -21.80356,3.50602 -35.14222,2.993 -13.33909,-0.51302 -21.377177,-1.19844 -21.975371,-3.67739 z"
       style="fill:#2d4462;stroke-width:1.0260514" />
    <path
       id="path6228"
       d="m 88.923999,196.04497 c 0,0 2.308624,0.89776 2.693393,3.33467 0.384782,2.43687 -2.165997,3.20948 -1.539075,5.00196 0.897794,2.56515 3.657868,2.32918 4.488967,4.74551 0.705926,2.05213 -0.783897,4.79781 1.026052,7.43889 2.372239,3.46293 4.617234,1.21892 8.080174,6.79757 0,0 -7.310625,-12.95388 -7.438882,-21.80357 0,0 -0.641292,-8.08018 -7.310629,-5.51503 z"
       style="fill:#2d4462;stroke-width:1.0260514" />
    <path
       id="path6230"
       d="m 156.63457,145.96031 c 0.0113,-0.47402 0.0113,-0.74798 0.0113,-0.74798 l -0.32425,0.005 -1.12866,-2.65644 -70.199766,0.0852 0.598195,3.59117 c 0,0 25.458781,-0.0852 29.179261,-0.3417 0,0 3.23821,-0.007 3.9975,0.51302 2.99299,2.05212 4.67263,0.0534 6.92584,1.28259 1.88075,1.02604 0.0852,5.30056 2.993,5.98496 4.00262,0.94187 4.18936,3.59118 3.50602,4.53204 -0.96654,1.32977 -2.6503,2.30862 -6.07115,-0.513 -2.05929,-1.69915 3.80561,6.5031 7.05411,5.70688 3.14177,-0.76955 5.94287,-7.33216 5.94287,-7.33216 l 8.89278,-5.04408 2.02646,1.05276 c -0.17429,4.55052 -1.12045,16.41785 1.30824,16.7318 2.65026,0.34164 5.13025,0.17138 5.13025,-4.70238 0,-4.18628 0.12616,-15.11478 0.16098,-18.11699 l 0.0113,-0.0113 z"
       style="fill:#2d4462;stroke-width:1.0260514" />
    <path
       id="path6232"
       d="m 85.782752,165.19877 c 0,0 0.897793,2.75802 3.654787,2.24499 2.757006,-0.51302 -0.46377,-4.92914 3.078162,-5.89977 3.975956,-1.08967 0.128243,-5.13029 3.975956,-7.05411 3.628113,-1.81405 6.156303,-3.01453 6.156303,-3.01453 0,0 -5.963415,5.96342 -6.605717,11.54306 -0.642313,5.57968 -2.758035,8.65782 -6.476436,7.11873 -3.718412,-1.53905 -3.783055,-4.93837 -3.783055,-4.93837 z"
       style="fill:#2d4462;stroke-width:1.0260514" />
    <path
       id="path6234"
       d="m 118.50855,141.96179 c 0,0 10.77354,-0.51302 15.04909,-3.67635 3.46909,-2.56718 6.75452,-2.13726 9.31965,-0.93985 2.56513,1.19739 4.10419,2.993 7.86674,2.82165 3.76253,-0.17138 6.92583,-4.61724 11.54307,-4.10419 4.61724,0.51301 4.95889,4.01901 10.2605,3.33464 5.3016,-0.68439 5.6433,-3.506 5.3016,-9.4058 -0.3201,-5.53042 0.51305,-75.756276 0.51305,-75.756276 0,0 -0.51305,-5.130249 -5.81465,-4.788575 -5.30161,0.341691 -44.12021,0.341691 -44.12021,0.341691 l -23.25791,-0.854704 c 0,0 6.2747,-0.685399 10.26093,-3.591175 4.10419,-2.991967 7.18236,1.710425 10.94487,1.880751 3.76253,0.170316 4.95994,-4.446909 11.45793,-3.762531 6.49799,0.684377 6.66933,3.59118 15.21942,2.73648 8.55009,-0.8547 9.23447,-5.984959 15.90379,-6.497987 6.66934,-0.513022 16.92985,0.341689 16.92985,0.341689 l 2.73648,5.301612 0.3417,89.094935 c 0,0 1.1974,8.20841 -6.84069,8.20841 -8.03809,0 -63.61518,-0.68439 -63.61518,-0.68439 z"
       style="fill:#2d4462;stroke-width:1.0260514" />
    <path
       id="path6236"
       d="m 69.429031,43.889328 c 0,0 -3.847693,5.131281 -3.506018,8.551113 0.281153,2.812404 1.795591,3.334662 1.880752,6.584167 0.1303,4.993802 -3.84769,5.130262 -3.762533,9.149304 0.08516,4.019043 3.419831,3.591187 3.334671,8.123254 -0.08518,4.53208 -2.821642,5.557099 -2.992996,9.404786 -0.171374,3.847687 -1.710423,22.743878 -1.197402,24.112638 0.513025,1.36873 3.645562,0.60639 3.847696,3.67736 0.427862,6.49798 -6.669336,4.70238 -5.301608,9.66131 2.006956,7.27774 0.598186,13.16732 -16.588173,6.66932 l 10.004002,5.72948 17.528035,6.15631 c 0,0 -1.11224,-0.51407 -1.453916,-4.1904 -0.34169,-3.67635 -0.42786,-42.238846 -0.42786,-42.238846 L 70.280652,45.51562 Z"
       style="fill:#2d4462;stroke-width:1.0260514" />
    <path
       id="path6238"
       d="m 160.74801,143.07403 c 0,0 10.9018,-0.51302 11.15832,0.38479 0.25663,0.8978 3.76665,13.12114 4.74549,23.47093 0.8978,9.49096 -3.46292,24.49693 -8.46492,31.42278 -4.66548,6.46006 -6.28455,13.5952 -4.87374,14.74952 0,0 -6.92586,6.41281 -6.5411,6.41281 0.38479,0 -0.12817,-15.39077 -1.41083,-15.51903 0,0 5.25852,-6.54106 7.95193,-11.41481 2.69337,-4.87374 4.85731,-13.07495 5.25851,-20.77752 0.64126,-12.31263 -4.61724,-26.67734 -7.82366,-28.72947 z"
       style="fill:#8e8e8e;stroke-width:1.0260514" />
    <path
       id="path6240"
       d="m 67.12103,142.30553 c 0,0 3.847693,1.66732 1.539076,6.79759 -2.308613,5.13024 -7.823642,22.0601 -1.41082,37.70737 6.412826,15.64731 17.442873,24.11223 16.416824,33.47492 0,0 2.052099,8.33668 1.539074,-11.1583 l -0.513025,-4.36071 c 0,0 -6.669336,-5.89977 -9.23446,-11.6713 -2.565125,-5.77159 -6.925851,-14.87777 -6.412822,-22.4449 0.513027,-7.56714 2.949895,-18.08416 5.515028,-22.31663 2.565125,-4.23245 3.847687,-5.002 3.847687,-5.002 l -6.925845,-1.92384 -3.462923,-1.15432 z"
       style="fill:#8e8e8e;stroke-width:1.0260514" />
    <path
       id="path6242"
       d="m 52.371232,65.992024 c 0,0 18.340671,31.166296 -8.080153,45.146166 0,0 -5.258514,2.05209 -5.130257,2.43687 0.12824,0.38478 13.851693,7.18236 13.851693,7.18236 0,0 3.206412,1.79559 6.925848,-5.8998 3.719433,-7.6954 5.130254,-17.571043 4.61723,-25.39467 -0.513024,-7.823655 -4.61723,-25.907807 -12.184361,-23.470926 z"
       style="fill:#8e8e8e;stroke-width:1.0260514" />
    <path
       id="path6244"
       d="m 155.11602,235.90809 c -2.0716,-0.13018 -3.73071,-2.41633 -3.73071,-5.23389 0,-2.89963 1.75454,-5.25853 3.91128,-5.25853 0.10754,0 0.21339,0.0165 0.32016,0.0271 v 7.79596 c 0,0.0311 0,0.0716 0,0.10338 0.0113,0.0667 0.0873,1.1163 -0.50586,2.56508 z"
       style="fill:#ffffff;stroke-width:1.0260514" />
    <path
       id="path6246"
       d="m 101.23662,154.10512 4.10462,-2.56512 v 72.33663 l -4.10462,-4.74551 z"
       style="fill:#ffffff;stroke-width:1.0260514" />
    <path
       id="path6248"
       d="m 129.12306,49.197913 6.2702,0.465828 43.35067,43.350675 -0.80955,5.426778 z"
       style="fill:#ffffff;stroke-width:1.0260514" />
    <path
       id="path6250"
       d="m 80.674448,102.32901 0.337587,-5.466791 35.271025,35.271021 -5.68329,0.55304 z"
       style="fill:#ffffff;stroke-width:1.0260514" />
    <path
       id="path6252"
       d="m 80.490166,120.98417 0.650526,-13.98918 25.138348,25.13825 -15.046115,0.6813 z"
       style="fill:#ffffff;stroke-width:1.0260514" />
    <path
       id="path6254"
       d="m 139.97048,49.447345 13.12215,-0.296508 25.26652,25.266515 0.0882,14.276487 z"
       style="fill:#ffffff;stroke-width:1.0260514" />
    <path
       id="path6256"
       d="m 107.39335,150.64219 2.05209,-0.25662 v 78.23641 l -2.05209,-1.53908 z"
       style="fill:#ffffff;stroke-width:1.0260514" />
    <path
       id="path6258"
       d="m 144.63287,178.17115 c 1.56266,-1.1584 1.1707,-4.33609 -0.87627,-7.09619 -2.04594,-2.76007 -4.97223,-4.05904 -6.53492,-2.8996 -1.56268,1.15839 -1.17071,4.33504 0.87624,7.0962 2.04596,2.76004 4.97226,4.05801 6.53495,2.89959 z"
       style="fill:#ffffff;stroke-width:1.0260514" />
    <path
       id="path6260"
       d="m 122.70614,225.72042 c -2.4143,-1.6458 -4.95583,-2.11984 -5.67611,-1.05888 -0.72029,1.05992 0.65255,3.25463 3.06892,4.9004 2.41531,1.64579 4.95583,2.11882 5.67712,1.0579 0.71825,-1.05888 -0.65461,-3.25257 -3.06993,-4.89942 z"
       style="fill:#ffffff;stroke-width:1.0260514" />
    <path
       id="path6262"
       d="m 119.49458,219.57029 c -1.46928,-0.77263 -2.92835,-0.88652 -3.25668,-0.25455 -0.32833,0.63311 0.59614,1.77196 2.06751,2.54458 1.47032,0.77162 2.92835,0.88552 3.25772,0.25326 0.32833,-0.631 -0.59718,-1.76891 -2.06855,-2.54358 z"
       style="fill:#ffffff;stroke-width:1.0260514" />
    <path
       id="path6264"
       d="m 142.67206,185.56383 c 0.72132,-0.49761 0.49047,-2.08082 -0.51507,-3.5368 -1.00553,-1.45489 -2.40404,-2.23061 -3.12535,-1.733 -0.72029,0.49769 -0.49044,2.08184 0.51506,3.53681 1.00554,1.45496 2.40509,2.23067 3.12536,1.73299 z"
       style="fill:#ffffff;stroke-width:1.0260514" />
    <path
       id="path6266"
       d="m 97.307675,58.711052 c -3.324415,-3.265922 -7.520968,-4.386374 -9.369905,-2.50254 -1.84792,1.883833 -0.650527,6.06089 2.675944,9.328861 3.327482,3.266954 7.523001,4.386376 9.371941,2.502542 1.847935,-1.882803 0.649515,-6.059861 -2.67798,-9.328863 z"
       style="fill:#ffffff;stroke-width:1.0260514" />
    <path
       id="path6268"
       d="m 155.38997,120.65175 c -2.88525,-2.83398 -6.52773,-3.80667 -8.13146,-2.17217 -1.6037,1.6345 -0.56431,5.26056 2.323,8.09658 2.8873,2.83496 6.52772,3.80663 8.13248,2.17112 1.60268,-1.63347 0.5633,-5.25851 -2.32402,-8.09553 z"
       style="fill:#ffffff;stroke-width:1.0260514" />
    <path
       id="path6270"
       d="m 164.20377,126.42327 c 0.64536,-0.65767 0.22667,-2.11469 -0.93577,-3.2536 -1.16149,-1.13892 -2.62566,-1.52881 -3.27106,-0.87111 -0.6454,0.65767 -0.22665,2.11468 0.93477,3.25359 1.16148,1.13892 2.62666,1.52881 3.27206,0.87112 z"
       style="fill:#ffffff;stroke-width:1.0260514" />
    <path
       id="path6272"
       d="m 98.936115,78.369277 c 0.86035,-0.820526 0.21506,-2.893679 -1.4413,-4.630465 -1.656447,-1.736797 -3.696657,-2.479452 -4.557,-1.658927 -0.860446,0.820539 -0.215146,2.89368 1.44119,4.630477 1.656472,1.736798 3.69666,2.479541 4.55711,1.658915 z"
       style="fill:#ffffff;stroke-width:1.0260514" />
    <path
       id="path6274"
       d="m 108.68104,63.052683 c 0.86087,-0.820526 0.21546,-2.893667 -1.44058,-4.630465 -1.65605,-1.736797 -3.69676,-2.479552 -4.5572,-1.658913 -0.86035,0.820525 -0.21507,2.893666 1.44129,4.630463 1.65686,1.736798 3.69666,2.479453 4.55649,1.658915 z"
       style="fill:#ffffff;stroke-width:1.0260514" />
    <path
       id="path6276"
       d="m 142.73056,165.65124 c 0.80954,-0.33543 0.985,-1.7658 0.39298,-3.19511 -0.59203,-1.42825 -1.72891,-2.31578 -2.53744,-1.98025 -0.80955,0.33546 -0.98603,1.7658 -0.39298,3.19512 0.59203,1.42926 1.72891,2.31579 2.53744,1.98024 z"
       style="fill:#ffffff;stroke-width:1.0260514" />
    <path
       id="path6278"
       d="m 40.057077,90.224786 c -1.04452,0 -1.89091,-1.718633 -1.89091,-3.839483 0,-0.720283 0.104665,-1.387228 0.273942,-1.962836 -0.368372,-0.22061 -0.755278,-0.345813 -1.157488,-0.345813 -2.312722,0 -4.187212,3.905156 -4.187212,8.72146 0,4.816263 1.87449,8.721426 4.187212,8.721426 2.311694,0 4.186285,-3.905163 4.186285,-8.721426 0,-1.168689 -0.111724,-2.281956 -0.312837,-3.30082 -0.30985,0.453507 -0.687556,0.72748 -1.099002,0.72748 z"
       style="fill:#4ab85f;stroke-width:1.0260514" />
    <path
       id="path6280"
       d="m 8.2076202,26.361087 c 0,0 23.7705338,42.239563 20.1793538,57.288666 l 0.8547,0.341568 c 0,0 4.275554,-10.26154 5.814632,-10.944891 1.539078,-0.68335 0,-0.854694 0,-0.854694 l -3.419828,-5.984867 c 0,0 -17.78455,-39.844757 -20.008002,-40.187457 -2.2234558,-0.342698 -3.4208558,0.341691 -3.4208558,0.341691 z"
       style="fill:#ffffff;stroke-width:1.0260514" />
    <path
       id="path6282"
       d="m 12.311828,5.8400687 c 0,0 21.375724,44.8045773 24.283556,54.3807143 1.71453,5.650472 0.341688,9.405816 -1.539078,11.970953 l 0.684381,0.854694 5.130254,-2.906806 c 0,0 -0.855727,-6.49901 1.367728,-8.892791 L 27.702597,30.293943 c 0,0 -10.089162,-29.2424579 -15.390769,-24.4538743 z"
       style="fill:#ffffff;stroke-width:1.0260514" />
    <path
       id="path6284"
       d="m 145.01557,6.0120039 c 0,0 3.07814,2.3948277 9.74749,17.6142441 6.66934,15.219422 6.66934,15.219422 6.66934,15.219422 l 4.78858,0.513027 -14.1944,-31.1242442 c 0,0 -3.59118,-4.4459035 -7.01101,-2.2224489 z"
       style="fill:#ffffff;stroke-width:1.0260514" />
    <path
       id="path6286"
       d="m 143.30514,26.702762 c 0,0 6.32765,9.234462 4.61721,11.62824 -1.71042,2.393778 0.51305,0.855731 0.51305,0.855731 l 5.30161,-0.684382 c 0,0 -5.47194,-12.141264 -6.49798,-12.141264 -1.02605,0 -3.59221,-1.197403 -3.93389,0.341692 z"
       style="fill:#ffffff;stroke-width:1.0260514" />
    <path
       id="path6288"
       d="m 96.497495,224.18441 c 0.71619,0.83725 1.14918,1.92488 1.14918,3.11204 0,2.6441 -2.14342,4.78856 -4.788577,4.78856 -1.323614,0 -2.522037,-0.53663 -3.388024,-1.40568 0,0 1.250755,-5.34982 3.046342,-5.34982 1.795583,0 3.981079,-1.1451 3.981079,-1.1451 z"
       style="fill:#4ab85f;stroke-width:1.0260514" />
    <path
       id="path6290"
       d="m 156.64381,227.29645 c 0,-2.64413 0.25663,-2.1383 -0.17138,-2.56515 -1.87151,-1.86842 -4.78858,-0.0792 -4.78858,2.56515 0,2.6441 2.14342,4.78856 4.78858,4.78856 1.02605,0 0.17138,-2.14446 0.17138,-4.78856 z"
       style="fill:#4ab85f;stroke-width:1.0260514" />
    <path
       id="path6292"
       d="m 102.29448,232.64319 c -0.53353,-0.65358 -1.34514,-1.07119 -2.25525,-1.07119 -1.605775,0 -2.907835,1.30308 -2.907835,2.90784 0,0.93371 0.44119,1.76583 1.12661,2.29731"
       style="fill:#4ab85f;stroke-width:1.0260514" />
    <path
       id="path6294"
       d="M 172.19464,48.421401 H 86.711836 c -3.87232,0 -7.022297,3.149972 -7.022297,7.022296 v 71.118093 c 0,3.87127 3.149977,7.02229 7.022297,7.02229 h 85.482804 c 3.87233,0 7.02231,-3.14997 7.02231,-7.02229 V 55.443697 c 0,-3.872324 -3.14998,-7.022296 -7.02231,-7.022296 z m 4.97019,78.140389 c 0,2.74059 -2.22959,4.97019 -4.97019,4.97019 H 86.711836 c -2.740575,0 -4.970186,-2.2296 -4.970186,-4.97019 V 55.443697 c 0,-2.740588 2.229611,-4.970198 4.970186,-4.970198 h 85.482804 c 2.7406,0 4.97019,2.22961 4.97019,4.970198 z"
       style="fill:#000000;stroke-width:1.0260514" />
    <path
       id="path6296"
       d="M 182.45517,38.160577 H 166.82636 L 153.42305,8.9724803 c -1.87257,-4.0754741 -6.11323,-6.1429708 -9.45507,-4.6079972 -1.66016,0.7623563 -2.84114,2.2696151 -3.32543,4.2447655 -0.46275,1.8889614 -0.22881,3.9954334 0.65973,5.9295694 l 4.84093,10.539601 c -1.62938,-0.637176 -3.50089,-0.643335 -5.21235,0.142642 -1.61912,0.743886 -2.8514,2.072627 -3.47009,3.743036 -0.61976,1.670415 -0.551,3.482421 0.19289,5.100504 l 1.87972,4.093946 H 76.452244 c -1.788415,0 -3.417784,0.678217 -4.6593,1.782248 0,0.002 -0.01021,10e-4 -0.01021,0.0031 L 47.399655,55.550113 c -2.355809,1.253845 -3.98723,2.663634 -5.135383,4.055987 L 19.008762,8.9704059 C 17.137246,4.8949298 12.895548,2.8274381 9.5536962,4.3624128 7.8935442,5.1247672 6.7125602,6.6320373 6.2282662,8.6071846 5.7655146,10.496146 5.9994645,12.602651 6.8880172,14.536765 L 11.728928,25.076368 C 10.100582,24.439191 8.2280362,24.433032 6.5165832,25.21901 3.1747353,26.753983 1.7054285,30.720698 3.2393742,34.063573 L 26.363497,84.413976 c 0.357085,0.77877 0.854702,1.459044 1.467252,2.040806 -0.302675,1.974141 -0.469932,4.069328 -0.469932,6.254821 0,10.053237 3.437273,18.272607 8.23509,20.756727 0.09953,0.14256 0.221636,0.26985 0.389898,0.34985 l 3.68763,1.74121 v 5.19594 c 0,9.71054 5.780774,11.59335 5.949046,11.64156 l 20.575411,8.14479 c -2.334264,2.91708 -8.041166,11.4015 -9.031307,25.54867 -0.01021,0.0113 -0.01749,0.0235 -0.02241,0.0348 -0.07694,0.19906 -0.07694,0.19906 -0.0237,0.59716 -0.06875,1.17179 -0.106713,2.37842 -0.106713,3.62502 0,2.50256 0.198007,4.94767 0.532521,7.33833 0,0.007 0,0.0114 0,0.0165 -0.001,0.0524 0.01927,0.0974 0.02553,0.14768 3.533721,24.67966 23.272895,42.87256 26.224836,45.46747 v 9.79468 c 0,3.69479 1.015798,6.50413 3.103812,8.58907 2.256292,2.25218 5.643287,3.56759 10.234864,4.33711 v 4.39152 c -5.223625,1.05578 -8.607542,3.24125 -9.149296,5.87514 -0.01444,0.0348 -0.01444,0.0716 -0.02475,0.10654 -0.01001,0.0271 -0.01332,0.0587 -0.01746,0.0873 -0.01645,0.0709 -0.0441,0.13747 -0.0441,0.2126 v 21.54709 c 0,0.0873 0.02864,0.16408 0.04924,0.24436 -2.700565,0.58178 -10.84947,3.18589 -12.519879,13.61675 -0.15083,0.94186 0.191881,1.5791 0.504821,1.9474 1.233308,1.44884 4.339169,1.87258 13.788072,1.88796 0.0255,10e-4 0.13749,10e-4 0.164158,10e-4 l 0.493528,0.001 c 0.104641,0 0.206241,-0.0183 0.303733,-0.0504 0.425809,-0.0412 0.839306,-0.12211 1.2446,-0.22251 0.02676,0.001 0.04924,0.0165 0.07588,0.0165 h 21.547608 c 0.0809,0 0.15188,-0.0271 0.22779,-0.0461 0.43812,0.11482 0.88752,0.20503 1.34925,0.25142 0.10263,0.0348 0.21238,0.0524 0.32219,0.0524 l 0.4453,-0.001 c 0.0317,0.001 0.0789,0.001 0.10979,0.001 0,0 0.038,-0.001 0.0391,-0.001 3.79227,-0.007 6.55441,-0.0801 8.59727,-0.25559 h 0.42888 3.80666 l 0.48943,0.13017 c 0.10464,0 0.20624,0.045 0.30371,0.0113 0.37656,-0.0348 0.74391,-0.10553 1.10507,-0.18759 0.0719,0.0165 0.13948,0.0444 0.21651,0.0444 h 21.54606 c 0.0809,0 0.15295,-0.0271 0.22874,-0.0461 0.43812,0.11482 0.88754,0.20505 1.34925,0.25143 0.10263,0.0348 0.21234,0.0524 0.32219,0.0524 l 0.44428,-10e-4 c 0.0328,10e-4 0.08,10e-4 0.11067,10e-4 0,0 0.0381,-10e-4 0.0391,-10e-4 9.51049,-0.0183 12.61734,-0.44119 13.85066,-1.88997 0.31398,-0.36842 0.65565,-1.00559 0.50485,-1.94746 -1.38108,-8.62606 -7.19573,-11.89914 -10.69352,-13.10373 v -21.9575 c 0,-0.001 0,-0.001 0,-0.001 0,-10e-4 0,-10e-4 0,-0.007 v -0.33544 c 0,-0.0737 -0.0267,-0.14039 -0.042,-0.20946 -0.0113,-0.0423 -0.0183,-0.0831 -0.0235,-0.12399 -0.0113,-0.0235 -0.0113,-0.0492 -0.0183,-0.0709 -0.53762,-2.63903 -3.91949,-4.82143 -9.1503,-5.87827 v -6.6601 c 2.29118,-1.05784 4.14731,-2.36403 5.54579,-3.92363 2.78575,-3.1089 2.69956,-6.13681 2.6626,-6.64676 v -8.54291 c 10e-4,-0.0412 0,-0.08 0,-0.12009 v -4.19963 c 7.33013,-7.29625 23.59919,-26.18073 23.59919,-49.98407 0,-1.23331 -0.0492,-2.41738 -0.11909,-3.57786 0.0597,-0.20635 0.0709,-0.42889 -0.0113,-0.64538 -0.0113,-0.0183 -0.0235,-0.0311 -0.033,-0.051 -0.75003,-10.51909 -4.12882,-17.94972 -6.74731,-22.23144 h 8.0966 c 3.87228,0 7.02227,-3.14995 7.02227,-7.02227 V 45.182872 c 0,-3.872318 -3.14688,-7.022295 -7.01921,-7.022295 z M 143.16559,13.683083 c -0.69463,-1.515479 -0.88342,-3.142815 -0.53148,-4.5844206 0.33241,-1.3543857 1.11018,-2.3732436 2.18959,-2.8688268 2.31271,-1.0619652 5.33545,0.5520154 6.73498,3.5993841 l 13.01035,28.3313573 h -10.16099 z m -3.6476,19.526794 c -1.06299,-2.313744 -0.044,-5.060486 2.26757,-6.12245 2.31272,-1.060935 5.0615,-0.04414 6.12347,2.268603 l 4.04265,8.804547 h -10.162 z M 49.929846,92.541312 c -0.0175,-4.384327 -0.687456,-8.414663 -1.838683,-11.76985 l 12.900544,-3.929766 c 1.44981,4.342233 2.43174,9.738252 2.450212,15.699616 z M 63.414214,94.5934 c -0.134402,5.129235 -0.816735,9.96707 -1.895114,14.00222 l -13.31302,-4.3091 c 0.930629,-2.83396 1.524714,-6.123479 1.679645,-9.69312 z M 47.349327,78.851726 c -1.582174,-3.639412 -3.792285,-6.229157 -6.342023,-7.228525 l 11.311189,-5.463728 c 0.953202,-0.180601 1.968994,0.159032 3.029928,1.004507 1.725824,1.375933 3.498839,4.085732 4.944547,7.743597 z M 8.7533742,13.683083 C 8.0577142,12.167604 7.8689192,10.540268 8.2218812,9.0986624 8.5543042,7.7442767 9.3320672,6.7254188 10.411477,6.2298356 12.723169,5.1678704 15.745918,6.781851 17.14545,9.8292197 L 40.917012,61.590461 c -1.421083,2.644139 -1.292825,4.88709 -1.243577,5.359075 v 3.018632 c 0,0.0088 0.01021,0.01645 0.01021,0.02475 l -3.325287,1.600641 c -0.280107,0.106649 -0.552014,0.249301 -0.823917,0.394001 z M 28.228856,83.561305 5.1047401,33.209877 C 4.5906859,32.089431 4.5424624,30.835594 4.9713406,29.679234 c 0.4278623,-1.156363 1.2815413,-2.076727 2.4019886,-2.591807 1.11942,-0.514052 2.374278,-0.562274 3.5306408,-0.133399 1.156359,0.427862 2.076729,1.281536 2.591805,2.401982 l 20.18859,43.956052 c -2.372236,2.170106 -4.25709,5.856712 -5.330336,10.4565 -0.03801,-0.07072 -0.09133,-0.132352 -0.125191,-0.207283 z m 10.418532,28.646025 c -5.005081,0 -9.234464,-8.92736 -9.234464,-19.494687 0,-10.567295 4.229383,-19.49497 9.234464,-19.49497 5.005077,0 9.23446,8.927675 9.23446,19.49497 0,10.567327 -4.229383,19.494687 -9.23446,19.494687 z m 8.84969,-5.99389 13.446403,4.35222 c -1.278457,3.96979 -2.970416,6.94123 -4.904523,8.26792 -1.17791,0.80851 -2.383522,0.95729 -3.613752,0.48326 l -11.561549,-5.46269 c 2.692357,-0.98606 5.012259,-3.74611 6.633421,-7.64071 z m -1.186116,24.2535 c -0.186726,-0.0615 -4.585421,-1.60167 -4.585421,-9.70952 v -4.22733 l 9.891133,4.6716 c 0.734655,0.28424 1.471357,0.42583 2.196777,0.42583 1.172779,0 2.317853,-0.36937 3.384942,-1.10097 5.700741,-3.90925 8.29768,-17.15834 8.29768,-27.812864 0,-11.449713 -3.811781,-23.123101 -8.867139,-27.153425 -1.590378,-1.267173 -3.274129,-1.745314 -4.871689,-1.379024 l -10.031704,4.826554 v -2.117773 l -0.01021,-0.141559 c -0.01021,-0.05439 -0.672063,-5.491426 6.718582,-9.426342 l 21.13238,-13.522343 c -0.08926,0.447359 -0.138521,0.909085 -0.138521,1.382096 v 91.63842 c 0,1.10504 0.2637,2.14853 0.721314,3.07915 l -1.859206,-0.73667 c 0,0 0,-0.001 0,-0.001 z m 21.899018,10.87204 6.142969,2.43176 c 0.124111,0.0492 0.252431,0.0719 0.377596,0.0719 0.161093,0 0.315013,-0.0481 0.456597,-0.11909 0.340639,0.0625 0.690537,0.0985 1.046576,0.10879 -0.910117,1.07118 -2.060315,2.63796 -3.203341,4.78139 -4.837829,0.48328 -8.011409,-2.02235 -8.043215,-2.04799 -0.05747,-0.0472 -0.124137,-0.0667 -0.187766,-0.0995 1.433387,-2.61644 2.750837,-4.33817 3.410586,-5.12719 z m -4.351486,6.94842 c 0.717209,0.53148 3.607598,2.45227 7.908805,2.45227 0.07493,0 0.154931,-0.007 0.2319,-0.007 -0.76954,1.72784 -1.497008,3.74099 -2.103405,6.0619 -3.637353,1.22306 -8.60652,-1.09068 -8.6568,-1.11533 -0.05232,-0.0235 -0.107729,-0.0235 -0.161093,-0.0399 0.818788,-2.85347 1.794563,-5.31804 2.780599,-7.35064 z m -3.317224,9.32785 c 0.768512,0.3428 3.788182,1.59241 6.968944,1.59241 0.619731,0 1.243573,-0.0554 1.860229,-0.16646 -0.46788,2.25835 -0.816735,4.76706 -0.982961,7.55277 -0.01021,10e-4 -0.01257,0 -0.01927,10e-4 -2.95503,1.00142 -7.33114,-0.20817 -9.1021,-0.78493 0.238024,-2.98889 0.680267,-5.73769 1.275382,-8.19609 z m -1.474438,12.7343 c 0,-0.83314 0.04002,-1.62422 0.07287,-2.4225 1.519584,0.46377 4.050852,1.09785 6.552365,1.09785 0.889589,0 1.773017,-0.0828 2.606171,-0.27997 -0.01332,0.5274 -0.02241,1.05885 -0.02241,1.60473 0,1.43343 0.08312,2.84014 0.224686,4.22121 -2.523062,1.79045 -7.098224,2.09414 -9.013862,2.13522 -0.263706,-2.07674 -0.419657,-4.19452 -0.419657,-6.35643 z m 0.707978,8.40234 c 2.02953,-0.0594 6.108086,-0.38704 9.012836,-1.95052 0.363212,2.34861 0.904975,4.60491 1.574986,6.75448 -3.580918,2.92527 -7.920089,3.21462 -8.628064,3.24029 -0.826998,-2.58564 -1.499062,-5.26981 -1.959758,-8.04425 z m 5.822841,17.4911 c -1.175853,-2.35889 -2.257312,-4.83888 -3.184864,-7.43269 1.578068,-0.13236 5.270824,-0.70901 8.641408,-3.18898 0.91626,2.55179 2.186518,4.92912 3.324406,7.10027 -3.603494,3.73382 -8.026804,3.67734 -8.026804,3.67734 0,0 -0.514049,0.28619 -0.754146,-0.15588 z m 5.18156,8.88767 c -1.437497,-2.14347 -2.848318,-4.46027 -4.168846,-6.92485 1.494955,-0.0852 5.240045,-0.61048 8.54085,-3.70303 1.309244,2.31071 2.654401,4.34228 3.895924,6.05477 -3.334673,4.12063 -7.968321,4.50436 -8.026808,4.50845 -0.08616,0.007 -0.161093,0.0399 -0.241124,0.065 z m 13.014438,15.41129 c -1.30001,-1.22204 -3.249505,-3.1541 -5.503736,-5.70384 1.309243,-0.45353 3.612717,-1.53703 5.503736,-3.85381 z m 0,-13.55311 c -2.053129,5.06563 -6.71653,6.08962 -6.934063,6.13374 -0.01444,0.001 -0.02375,0.0113 -0.03806,0.0164 -1.527783,-1.81303 -3.14484,-3.86927 -4.7619,-6.14815 1.664254,-0.30053 5.298528,-1.32255 8.255606,-4.73414 1.607826,2.07364 2.903729,3.4824 3.477301,4.08162 v 0.65053 z m 0,-3.74099 c -1.795599,-2.11365 -4.690081,-5.8485 -7.341405,-10.72841 -0.02676,-0.0716 -0.06155,-0.14275 -0.1118,-0.2113 -3.204346,-5.95314 -6.013683,-13.56334 -6.013683,-21.9575 0,-17.45106 7.278809,-25.14953 8.726572,-26.50597 h 4.740354 v 20.52105 c 0,2.42455 1.393383,7.01096 6.669336,7.01096 1.937184,0 3.48037,-0.54381 4.617225,-1.58524 v 25.91397 c -1.136855,-1.04144 -2.680041,-1.58524 -4.617225,-1.58524 -5.275953,0 -6.669336,4.58645 -6.669336,7.01102 z m 84.162371,-32.8983 c 0,8.33873 -2.74465,15.86176 -5.90593,21.78205 -0.14458,0.15185 -0.23996,0.32227 -0.26578,0.50279 -2.40095,4.39662 -4.98659,7.84623 -6.79552,10.02554 -0.58794,-0.21859 -1.26101,-0.33236 -2.01929,-0.33236 -0.9809,0 -1.80995,0.2831 -2.48098,0.74901 v -33.3138 c 0.67209,0.46788 1.49907,0.75614 2.48098,0.75614 2.98786,0 4.70139,-1.74524 4.70139,-4.78855 v -21.88671 h 1.56165 c 1.45185,1.34826 8.72345,8.98002 8.72345,26.506 z m -5.8967,-26.50597 h 9.8665 c 0.49045,0.73978 1.02399,1.60783 1.57703,2.61538 -0.0698,0.0335 -0.14348,0.0577 -0.20609,0.10677 -0.033,0.0261 -3.20848,2.5323 -8.04322,2.04904 -1.13891,-2.13727 -2.28398,-3.69996 -3.19409,-4.77117 z m -6.44156,21.88877 c 0,1.91765 -0.7921,2.73647 -2.64927,2.73647 -2.03568,0 -2.48099,-2.09934 -2.48099,-2.90786 v -10.43082 -3.76252 c 0,-0.27499 -0.10979,-0.53663 -0.30473,-0.72954 -0.19488,-0.19277 -0.42889,-0.2791 -0.73362,-0.2965 -9.1606,0.1098 -11.69083,4.96298 -13.53773,8.50596 -1.24461,2.38865 -1.97618,3.63532 -3.72149,3.63532 -1.97514,0 -3.20026,-1.51243 -5.19489,-4.18324 -2.83088,-3.79126 -6.70935,-8.9841 -16.18084,-8.9841 -8.19865,0 -12.059695,4.07652 -13.855285,7.4953 -1.824317,3.47423 -1.963859,6.98023 -1.962827,8.00935 0,1.41083 -0.41556,2.60722 -1.175866,3.36958 -0.75106,0.75209 -1.880745,1.13378 -3.356219,1.13378 -4.455114,0 -4.614146,-4.45407 -4.617224,-4.95892 V 143.8436 H 155.6188 v 21.88875 z m -58.545985,-1.66636 c 0.078,-1.26716 0.40017,-3.81995 1.70223,-6.30093 2.229605,-4.24582 6.279425,-6.39744 12.039165,-6.39744 8.44339,0 11.68057,4.33505 14.53608,8.16016 1.92281,2.57543 3.73893,5.00715 6.83966,5.00715 3.07095,0 4.32684,-2.40915 5.5417,-4.7383 1.70529,-3.27107 3.62708,-6.95767 10.70479,-7.36706 v 2.70057 10.43082 52.1583 c 0,10.46063 -9.75774,16.0321 -16.80159,16.0321 -33.869435,0 -34.582545,-32.64794 -34.586665,-33.06864 0.0544,-0.12523 0.0852,-0.26178 0.0852,-0.40635 v -35.91176 c 0,-0.1064 -0.0306,-0.20216 -0.0605,-0.29862 z m 0.0606,88.45592 v 3.6743 c 0,4.27453 3.854875,4.27453 6.669325,4.27453 2.81497,0 6.66985,0 6.66985,-4.27453 v -3.67326 c 4.27966,0.93986 7.17723,2.73136 7.18235,4.52282 v 0.007 c -0.0113,2.46662 -5.69253,5.21232 -13.8522,5.21232 -8.163269,0 -13.851689,-2.7488 -13.851689,-5.2154 0,-1.78635 2.904746,-3.58811 7.182364,-4.52897 z M 103.813,250.4924 c 1.39439,0 2.95758,-0.20322 4.60644,-0.75109 v 2.93864 c -4.18782,1.63752 -7.88161,0.54892 -9.234965,0.0235 v -2.94888 c 1.087615,0.35718 2.686195,0.73981 4.628525,0.73981 z m -4.628525,-2.92018 v -1.23842 c 2.705695,0.33971 5.776675,0.53457 9.234965,0.64026 v 0.57666 c -4.18782,1.63653 -7.88161,0.54787 -9.234965,0.0235 z m 4.628525,8.05039 c 1.39439,0 2.95758,-0.20319 4.60644,-0.75103 v 1.32463 c 0,1.80688 -0.86291,2.22241 -4.61774,2.22241 -3.75431,0 -4.617225,-0.41553 -4.617225,-2.22241 v -1.31233 c 1.087615,0.35599 2.686195,0.73873 4.628525,0.73873 z m 23.12257,22.86866 c -0.98604,0.20402 -2.69443,0.67411 -4.55567,1.70735 -0.95935,-0.52942 -1.87665,-0.91113 -2.67388,-1.1851 v -21.95747 c 0,-0.001 0,-0.001 0,-0.001 0,-10e-4 0,-10e-4 0,-0.007 v -0.3357 c 0,-0.0736 -0.0267,-0.14038 -0.0421,-0.20948 -0.0113,-0.0421 -0.0183,-0.0831 -0.0248,-0.12398 -0.0113,-0.0235 -0.0113,-0.0492 -0.0182,-0.0709 -0.53765,-2.63899 -3.91953,-4.82141 -9.15033,-5.87825 v -3.39934 c 2.85036,0.0594 5.93571,0.0748 9.27756,0.0748 1.4847,0 3.02171,-0.001 4.60594,-0.007 l 5.09845,-0.007 c 2.36506,0 4.58849,-0.0852 6.66932,-0.25559 v 3.59322 c -5.22361,1.05583 -8.60752,3.24129 -9.14929,5.87521 -0.0146,0.031 -0.0146,0.0716 -0.0243,0.10652 0,0.0271 -0.0128,0.0587 -0.0182,0.0873 -0.0165,0.071 -0.0431,0.13727 -0.0431,0.21259 v 21.54706 c 0,0.0843 0.0287,0.15825 0.0472,0.23501 z m -36.632597,15.26045 c -0.0554,0.001 -0.108786,-0.1049 -0.162124,-0.1049 h -0.245231 c -0.001,0 -0.10778,0 -0.108786,0 -3.673265,0 -11.315288,0.10792 -12.291066,-1.04039 -0.03178,-0.0348 -0.07487,0.0399 -0.04209,-0.16517 1.592438,-9.94653 9.597686,-11.74318 11.27734,-12.012 0.103634,0.0183 0.209279,0.007 0.317061,-10e-4 0.254464,-0.0271 0.512006,-0.0638 0.774674,-0.0638 3.724555,0 6.755524,2.99812 6.755524,6.7237 -0.001,3.52552 -2.757008,6.41693 -6.275336,6.66627 z m 5.441145,-0.1049 c 1.774047,-1.61807 2.885257,-3.9431 2.885257,-6.49797 0,-4.81935 -3.891813,-8.743 -8.69783,-8.80147 0,-0.031 0.01846,-0.0596 0.01846,-0.0916 V 260.7175 c 2.68004,2.18449 7.75694,3.60041 13.851705,3.60041 6.09527,0 11.17216,-1.41592 13.8522,-3.60041 v 17.73529 c -0.394,-0.0769 -0.63205,-0.10552 -0.64744,-0.10652 -0.10351,-0.0113 -0.20828,-10e-4 -0.30983,0.0235 -0.22778,-0.0183 -0.45763,-0.031 -0.69054,-0.031 -4.8563,0 -8.80764,3.95133 -8.80764,8.80766 0,2.55486 1.11123,4.87986 2.88527,6.49795 z m 32.587912,-1.04039 c -0.97681,1.14815 -8.61885,1.04039 -12.29005,1.04039 -0.0299,0 -0.0812,0 -0.10666,0 -0.001,0 0,0 0,0 h -0.24521 c -0.0533,0 -0.10665,0.10553 -0.16207,0.10264 -3.51834,-0.24827 -6.27431,-3.07815 -6.27431,-6.60465 0,-3.72561 3.03096,-6.75962 6.75552,-6.75962 0.26265,0 0.52021,0.0113 0.77468,0.0399 0.0975,0.0113 0.19698,-0.0113 0.29343,-0.031 0.69874,0.10978 2.57539,0.49657 4.61724,1.67858 0.13327,0.13527 0.28727,0.24205 0.46582,0.28735 2.60515,1.64685 5.35394,4.62342 6.21787,10.01841 0.033,0.20503 -0.0113,0.1928 -0.0421,0.22875 z m 1.7884,1.14094 c 0.22469,-0.37964 0.394,-0.91728 0.27908,-1.63037 -0.85264,-5.32212 -3.39313,-8.60245 -6.03524,-10.62067 1.51756,-0.6946 2.81242,-0.9727 3.36548,-1.0671 0.10067,0.0183 0.20315,0.0235 0.30778,0.0113 0.25448,-0.0271 0.51201,-0.0505 0.77467,-0.0505 3.72457,0 6.75552,3.02582 6.75552,6.75141 0,3.24338 -2.33426,5.99216 -5.4473,6.60676 z m 4.569,-0.10026 c 1.7997,-1.60168 2.9304,-3.92055 2.9304,-6.49796 0,-4.81937 -3.8918,-8.743 -8.69782,-8.80149 0,-0.031 0.0185,-0.0596 0.0185,-0.0916 v -17.53843 c 2.68006,2.18447 7.75694,3.60039 13.8517,3.60039 6.09476,0 11.17164,-1.41592 13.85168,-3.60039 v 17.73529 c -0.394,-0.077 -0.63306,-0.10551 -0.64845,-0.10664 -0.10263,-0.0113 -0.20816,-9.9e-4 -0.30986,0.0235 -0.22771,-0.0183 -0.45659,-0.031 -0.68949,-0.031 -4.85631,0 -8.80763,3.95132 -8.80763,8.80766 0,2.55484 1.11121,4.87988 2.88525,6.49795 z m 32.67462,-1.26931 c 0.0332,0.20504 -0.0114,0.1928 -0.042,0.23007 -0.9768,1.14818 -8.61985,1.04042 -12.29107,1.04042 -0.0307,0 -0.0809,0 -0.10577,0 -0.001,0 0,0 0,0 h -0.24515 c -0.0533,0 -0.1069,0.10552 -0.16207,0.10263 -3.51835,-0.24829 -6.27432,-3.07815 -6.27432,-6.60466 0,-3.72559 3.03094,-6.75966 6.75551,-6.75966 0.26268,0 0.52023,0.0113 0.77468,0.0399 0.0974,0.0113 0.19489,-0.0113 0.29345,-0.031 1.63244,0.25636 9.70132,1.99258 11.3009,11.98323 z m -10.72018,-35.33206 v 0.007 c -0.0113,2.46663 -5.69252,5.21234 -13.85169,5.21234 -8.16327,0 -13.85168,-2.7488 -13.85168,-5.21542 0,-1.78636 2.90474,-3.58809 7.18234,-4.52896 v 3.67425 c 0,4.27453 3.85488,4.27453 6.66934,4.27453 2.81447,0 6.66931,0 6.66931,-4.27453 v -3.67327 c 4.27969,0.93989 7.17727,2.73135 7.18238,4.52282 z m -13.84144,-6.55335 c 1.39441,0 2.95812,-0.20324 4.60698,-0.75112 v 2.93865 c -4.18732,1.63754 -7.88111,0.54996 -9.23447,0.0235 v -2.94889 c 1.08762,0.35717 2.68519,0.7398 4.62749,0.7398 z m -4.62749,-2.92019 v -0.93781 c 3.54295,-0.40629 6.61702,-1.08861 9.23447,-2.03154 v 2.94783 c -4.18732,1.63654 -7.88111,0.54895 -9.23447,0.0235 z m 4.62749,8.05039 c 1.39441,0 2.95812,-0.20321 4.60698,-0.75103 v 1.32463 c 0,1.80688 -0.8629,2.22241 -4.61723,2.22241 -3.75432,0 -4.61724,-0.41553 -4.61724,-2.22241 v -1.31234 c 1.08762,0.35599 2.68519,0.73874 4.62749,0.73874 z m 10.61451,-17.0827 c -2.70263,2.96427 -9.05283,6.49798 -23.96343,6.49798 l -5.10153,0.007 c -18.75109,0.0388 -31.141171,0.0573 -36.003614,-4.7968 -1.683762,-1.68064 -2.502542,-4.01492 -2.502542,-7.13719 v -10.67914 -21.30083 c 0,-0.20216 0.05226,-4.95889 4.617224,-4.95889 1.475462,0 2.605146,0.38158 3.356213,1.13376 0.760307,0.76238 1.177919,1.95873 1.175856,3.39828 0,0.35098 0.997324,35.1002 36.638753,35.1002 9.10518,0 18.85369,-7.26651 18.85369,-18.08416 v -10.43083 c 0,-0.80851 0.44633,-2.90782 2.48099,-2.90782 1.85717,0 2.64928,0.81878 2.64928,2.73647 v 4.67368 c 0,0.007 -0.001,0.0183 0,0.0271 v 6.5503 c -0.18575,-0.16408 -0.40529,-0.26251 -0.6413,-0.26251 -0.66179,0 -1.19842,0.74698 -1.19842,1.66733 0,0.92036 0.53663,1.66734 1.19842,1.66734 0.23606,0 0.45557,-0.0985 0.6413,-0.26252 v 2.21418 c -0.10678,-0.007 -0.21337,-0.0271 -0.3212,-0.0271 -3.28848,0 -5.96236,3.27928 -5.96236,7.3106 0,3.49271 2.00798,6.41697 4.68393,7.13725 -0.1816,0.23997 -0.37763,0.48428 -0.60126,0.72949 z m 1.69813,-2.63287 c -2.07161,-0.13017 -3.7297,-2.41634 -3.7297,-5.23384 0,-2.89967 1.75454,-5.25852 3.91128,-5.25852 0.10754,0 0.21234,0.0165 0.32016,0.0271 v 7.79591 c 0,0.031 0,0.0716 0,0.10337 0.0113,0.0667 0.0863,1.11637 -0.50687,2.56514 z m 2.55486,-18.50585 v -3.66711 c 0.90907,0.54793 1.74428,0.90192 2.35274,1.11326 -0.83109,0.93679 -1.62015,1.78842 -2.35274,2.55385 z m 3.82307,-4.24987 c -0.0261,-0.007 -0.045,-0.0235 -0.0719,-0.031 -0.0183,-10e-4 -1.851,-0.39297 -3.75127,-1.8828 v -4.12166 c 0,-1.36465 -0.36218,-2.45227 -1.01165,-3.25463 0.40118,-0.48637 0.83109,-1.02094 1.29486,-1.62327 2.98579,3.45578 6.66627,4.46746 8.31308,4.75885 -1.62013,2.28092 -3.24131,4.34122 -4.7732,6.15327 z m 6.05166,-8.00937 c -0.0922,-0.031 -0.18157,-0.0698 -0.28524,-0.076 -0.0481,-0.001 -4.68084,-0.35408 -8.04013,-4.53003 1.23434,-1.71145 2.56818,-3.74101 3.87231,-6.04346 3.3439,3.15617 7.15568,3.6466 8.62499,3.71739 -1.32052,2.47074 -2.73237,4.78758 -4.17193,6.93204 z m 5.18358,-8.88873 c -0.12311,-0.0524 -0.25844,-0.0809 -0.40016,-0.0809 0,0 -0.0113,0 -0.0113,0 -0.0534,0 -4.56283,0.14275 -8.18993,-3.59117 1.11736,-2.14133 2.167,-4.47767 3.07096,-6.98122 3.39931,2.51278 7.13621,3.08531 8.70194,3.21256 -0.92446,2.59796 -2.00181,5.08204 -3.17357,7.44088 z m 3.85181,-9.45606 c -0.62384,-0.0182 -5.05433,-0.28 -8.68449,-3.26183 0.67307,-2.14957 1.22202,-4.39869 1.58935,-6.74013 2.91092,1.57192 7.00791,1.89924 9.03539,1.95668 -0.45658,2.77653 -1.11941,5.46272 -1.94025,8.04528 z m 2.63696,-16.44761 c 0,2.16084 -0.14258,4.28275 -0.40119,6.3564 -1.90641,-0.0388 -6.51849,-0.33544 -9.04976,-2.14857 0.14257,-1.38004 0.24307,-2.77753 0.24307,-4.20883 0,-0.54589 -0.0113,-1.07839 -0.0235,-1.60478 0.83314,0.19696 1.71554,0.28 2.60619,0.28 2.51279,0 5.05634,-0.64027 6.57287,-1.10506 0.0318,0.79416 0.0514,1.60268 0.0514,2.4307 z m -0.18368,-4.54129 c -1.75764,0.57357 -6.14299,1.7925 -9.11751,0.78802 -0.0114,-0.001 -0.0128,0 -0.0207,-0.001 -0.16626,-2.78577 -0.51405,-5.29445 -0.98193,-7.5528 0.61666,0.11105 1.24049,0.16646 1.86022,0.16646 3.18588,0 6.21275,-1.25589 6.97202,-1.59447 0.59409,2.46352 1.05173,5.19181 1.28771,8.19504 z m -4.59569,-17.53223 c 0.99013,2.03671 1.97205,4.49 2.78983,7.35679 -0.0615,0.0165 -0.12524,0.0182 -0.18472,0.045 -0.0492,0.0235 -5.01946,2.34046 -8.65579,1.11637 -0.60534,-2.32192 -1.33284,-4.33609 -2.10441,-6.06294 0.077,10e-4 0.1568,0.007 0.23291,0.007 4.33613,0 7.23369,-1.95052 7.92218,-2.46357 z m 12.98774,-11.45484 c 0,2.74059 -2.22959,4.9702 -4.97018,4.9702 H 76.451226 c -2.740588,0 -4.970197,-2.22961 -4.970197,-4.9702 V 45.182872 c 0,-2.740584 2.229609,-4.970195 4.970197,-4.970195 H 182.45517 c 2.74059,0 4.97019,2.229611 4.97019,4.970195 z"
       style="fill:#000000;stroke-width:1.0260514" />
    <path
       id="path6298"
       stroke-miterlimit="10"
       d="m 137.98198,182.26923 v 14.12253 l -10.21434,7.06233 -10.21741,-7.06233 v -14.12253 l 10.21741,-7.0634 z"
       style="fill:none;stroke:#000000;stroke-width:2.0521028;stroke-linejoin:round;stroke-miterlimit:10" />
    <path
       id="path6300"
       stroke-miterlimit="10"
       d="m 127.76764,181.83004 v 21.62405"
       style="fill:none;stroke:#000000;stroke-width:2.0521028;stroke-linecap:round;stroke-linejoin:round;stroke-miterlimit:10" />
    <path
       id="path6302"
       stroke-miterlimit="10"
       d="m 133.11645,185.69618 -5.34983,3.69896"
       style="fill:none;stroke:#000000;stroke-width:2.0521028;stroke-linecap:round;stroke-linejoin:round;stroke-miterlimit:10" />
    <path
       id="path6304"
       stroke-miterlimit="10"
       d="m 133.11645,192.06184 -5.34983,3.6979"
       style="fill:none;stroke:#000000;stroke-width:2.0521028;stroke-linecap:round;stroke-linejoin:round;stroke-miterlimit:10" />
    <path
       id="path6306"
       stroke-miterlimit="10"
       d="m 122.41577,185.69618 5.34984,3.69896"
       style="fill:none;stroke:#000000;stroke-width:2.0521028;stroke-linecap:round;stroke-linejoin:round;stroke-miterlimit:10" />
    <path
       id="path6308"
       stroke-miterlimit="10"
       d="m 122.41577,192.06184 5.34984,3.6979"
       style="fill:none;stroke:#000000;stroke-width:2.0521028;stroke-linecap:round;stroke-linejoin:round;stroke-miterlimit:10" />
    <path
       id="path6310"
       d="m 128.83986,63.440429 1.19639,0.691466 24.1122,13.920447 1.19637,0.691441 v 1.383019 27.843958 1.38006 l -1.19637,0.69153 -24.1122,13.92251 -1.19639,0.69052 -1.19944,-0.69052 -24.1117,-13.92251 -1.19729,-0.69153 v -1.38006 -27.843958 -1.383019 l 1.19729,-0.691441 24.1117,-13.920447 z"
       style="fill:#2a3747;stroke-width:1.0260514" />
    <path
       id="path6312"
       d="M 108.78263,81.60524 128.0888,70.459034 c 0.46171,-0.265331 1.03426,-0.265331 1.496,0 l 19.30821,11.146206 c 0.46276,0.26812 0.74698,0.761636 0.74698,1.294986 v 22.293954 c 0,0.53466 -0.28422,1.0282 -0.74698,1.29496 l -19.30821,11.14601 c -0.23088,0.13435 -0.48841,0.19903 -0.74697,0.19903 -0.2586,0 -0.51713,-0.0646 -0.74903,-0.19903 l -19.30617,-11.14601 c -0.46378,-0.26676 -0.74595,-0.76162 -0.74595,-1.29496 V 82.900226 c 0,-0.534782 0.28217,-1.026866 0.74595,-1.294986 z"
       style="fill:#4ab657;stroke-width:1.0260514" />
    <path
       id="path6314"
       d="M 102.03388,77.539819 127.939,62.581426 c 0.55714,-0.321684 1.23844,-0.321684 1.79559,0 l 25.90882,14.958393 c 0.55405,0.318883 0.89678,0.911436 0.89678,1.553445 v 29.916886 c 0,0.6413 -0.34273,1.23436 -0.89678,1.55551 l -25.90882,14.95572 c -0.27601,0.16098 -0.58895,0.24204 -0.89676,0.24204 -0.31193,0 -0.62077,-0.0809 -0.89781,-0.24204 l -25.90481,-14.95572 c -0.55807,-0.32013 -0.90181,-0.91421 -0.90181,-1.55551 V 79.093264 c 0,-0.642009 0.34227,-1.234538 0.90048,-1.553445 z m 2.6903,30.434011 24.11365,13.92146 24.11322,-13.92146 V 80.129778 L 128.83783,66.208 104.72418,80.129778 Z"
       style="fill:#4ab657;stroke-width:1.0260514" />
    <g
       transform="matrix(0.52347058,0,0,0.52347058,111.95045,77.036266)"
       id="Layer_1-9">
      <path
         id="path1436-7"
         d="M 0,25.6 C 0,16.639 0,12.159 1.744,8.736 3.278,5.726 5.726,3.278 8.736,1.744 12.159,0 16.639,0 25.6,0 h 12.8 c 8.961,0 13.441,0 16.864,1.744 3.01,1.534 5.458,3.982 6.992,6.992 C 64,12.159 64,16.639 64,25.6 v 12.8 c 0,8.961 0,13.441 -1.744,16.864 -1.534,3.01 -3.982,5.458 -6.992,6.992 C 51.841,64 47.361,64 38.4,64 H 25.6 C 16.639,64 12.159,64 8.736,62.256 5.726,60.722 3.278,58.274 1.744,55.264 0,51.841 0,47.361 0,38.4 Z"
         style="fill:#292e3a" />
      <path
         id="path1438-5"
         d="m 15.538,9.74 c -0.006,-0.409 -0.009,-0.594 0.046,-0.613 0.045,-0.016 0.131,0.083 0.287,0.264 0.917,1.065 4.276,4.967 16.36,5.113 0.122,-0.003 0.243,-0.004 0.365,-0.004 5.769,0 10.908,2.7 14.221,6.905 -1.665,-0.621 -3.493,-0.495 -5.11,0.168 -2.716,1.115 -4.957,3.79 -4.957,7.134 0,1.22 0.155,2.189 0.449,3.012 0.295,0.828 0.717,1.471 1.202,2.05 0.341,0.408 0.733,0.805 1.125,1.201 v 0 c 0.143,0.145 0.287,0.291 0.428,0.436 0.541,0.56 1.104,1.184 1.667,1.995 1.026,1.476 1.534,2.715 1.621,4.084 0.089,1.391 -0.251,3.001 -1.089,5.232 -0.159,0.423 -0.092,0.849 0.114,1.176 -2.797,1.773 -6.114,2.799 -9.671,2.799 -9.994,0 -18.096,-8.102 -18.096,-18.096 0,-4.031 1.318,-7.753 3.545,-10.761 -1.589,-0.883 -2.862,-1.102 -3.675,-1.242 -0.64,-0.11 -0.995,-0.171 -0.995,-0.468 0,-0.94 5.238,-1.774 5.238,-1.774 0,0 -3.069,-1.204 -3.069,-2.143 0,-0.94 3.512,-0.591 3.512,-0.591 0,0 -3.512,-0.887 -3.512,-5.248 0,-0.251 -0.003,-0.459 -0.006,-0.629 z m 32.244,13.01 c 0,0.001 0,0.001 0,0.001 -4.077,-2.825 -10.282,0.7 -10.282,5.957 v -10e-4 c 0,-5.257 6.205,-8.781 10.282,-5.957 z m -4.927,24.23 c 0.668,-1.78 1.048,-3.228 1.132,-4.517 -0.084,1.289 -0.463,2.737 -1.132,4.517 -0.019,0.051 -0.031,0.102 -0.036,0.151 0.005,-0.049 0.017,-0.1 0.036,-0.151 z"
         style="fill:#73bed0" />
      <path
         id="path1440-3"
         d="m 30.132,29.88 c 0.318,0.113 0.477,0.169 0.602,0.15 0.108,-0.017 0.211,-0.071 0.286,-0.151 0.087,-0.091 0.117,-0.205 0.178,-0.431 0.1,-0.368 0.154,-0.765 0.154,-1.179 0,-1.924 -1.17,-3.484 -2.614,-3.484 -1.443,0 -2.613,1.56 -2.613,3.484 0,0.381 0.046,0.748 0.131,1.092 0.056,0.225 0.084,0.338 0.167,0.431 0.072,0.081 0.172,0.137 0.278,0.157 0.123,0.024 0.282,-0.026 0.601,-0.124 0.42,-0.13 0.868,-0.2 1.331,-0.2 0.525,0 1.03,0.09 1.499,0.255 z"
         style="fill:#292e3a" />
      <path
         id="path1442-8"
         d="M 42.237,36.973 C 39.856,33.543 37.5,33.331 37.5,28.708 c 0,-5.983 8.036,-9.721 11.826,-4.413 1.627,2.279 2.174,5.795 2.174,8.545 0,6.142 -3.104,11.562 -7.843,14.811 -0.453,0.309 -0.994,-0.158 -0.802,-0.671 1.702,-4.534 1.531,-6.912 -0.618,-10.007 z"
         style="fill:#ce6469" />
    </g>
  </g>
</svg>
