<svg xmlns="http://www.w3.org/2000/svg" fill="none" viewBox="0 0 794 1123">
  <path fill="#2A3747" d="M752.508 740.7V355.612l-15.759-9.111-317.707-183.415-15.794-9.111-15.778 9.111L69.764 346.501l-15.758 9.111v403.292l15.758 9.093L387.47 951.448l15.778 9.093 15.794-9.093 317.707-183.451 15.759-9.093V740.7Z"/>
  <path fill="#4AB657" d="M667.484 393.324 413.1 246.462a19.738 19.738 0 0 0-19.707 0L138.992 393.324a19.693 19.693 0 0 0-9.853 17.063V704.13a19.67 19.67 0 0 0 9.853 17.062l254.401 146.862c3.043 1.776 6.432 2.627 9.837 2.627 3.405 0 6.809-.851 9.87-2.627l254.384-146.862c6.105-3.514 9.818-10.016 9.818-17.062V410.387c0-7.047-3.713-13.531-9.818-17.063Z"/>
  <path fill="#4AB657" d="M756.419 339.69 415.075 142.6a23.594 23.594 0 0 0-23.657 0L50.038 339.69c-7.3 4.203-11.81 12.028-11.81 20.469v394.18c0 8.459 4.51 16.266 11.81 20.504l341.38 197.055a23.563 23.563 0 0 0 11.812 3.187c4.112 0 8.187-1.068 11.827-3.187l341.344-197.055c7.336-4.238 11.865-12.063 11.865-20.504v-394.18c.018-8.441-4.511-16.248-11.847-20.469ZM720.973 740.7 403.248 924.115 85.54 740.7V373.816l317.708-183.433 317.725 183.433V740.7Z"/>
  <path fill="#2A3747" d="M326.669 749.039c-19.904 0-39.283-10.335-49.941-28.786-7.671-13.323-9.73-28.826-5.733-43.683 3.997-14.857 13.525-27.252 26.807-34.963l151.075-87.205c13.323-7.671 28.827-9.73 43.684-5.733 14.857 3.996 27.252 13.484 34.963 26.807 15.866 27.494 6.419 62.74-21.075 78.646l-151.075 87.206c-9.044 5.208-18.935 7.711-28.665 7.711h-.04Zm150.914-165.973c-3.674 0-7.308.969-10.578 2.867L315.93 673.138a21.016 21.016 0 0 0-9.892 12.879c-1.453 5.491-.726 11.183 2.1 16.109 5.854 10.133 18.854 13.605 28.987 7.751l151.076-87.205c10.133-5.854 13.605-18.854 7.751-28.988a21.011 21.011 0 0 0-12.879-9.891 21.432 21.432 0 0 0-5.531-.727h.041Zm-149.137-8.72c-19.904 0-39.283-10.336-49.941-28.786-15.867-27.494-6.419-62.74 21.074-78.646l151.076-87.165c13.282-7.712 28.826-9.73 43.683-5.774 14.857 3.997 27.252 13.525 34.963 26.808 15.866 27.494 6.419 62.739-21.075 78.646l-151.075 87.205c-9.043 5.209-18.935 7.712-28.665 7.712h-.04ZM479.4 408.333c-3.674 0-7.307.969-10.578 2.866l-151.075 87.246c-10.133 5.854-13.605 18.854-7.751 28.987 5.854 10.134 18.854 13.606 28.987 7.752l151.075-87.205c10.134-5.854 13.606-18.854 7.752-28.988a21.014 21.014 0 0 0-12.879-9.891 21.432 21.432 0 0 0-5.531-.727v-.04Z"/>
  <path fill="#2A3747" d="M478.228 661.753c-9.165 0-18.895-2.301-28.746-7.55-.202-.121-.444-.242-.646-.363l-149.581-87.286-.606-.364c-31.208-19.944-33.509-54.382-19.661-78.121 13.848-23.699 44.975-38.637 77.677-21.317.202.121.444.242.646.364l57.774 33.751c8.68 5.047 11.587 16.19 6.5 24.87-5.047 8.68-16.19 11.587-24.87 6.5l-57.451-33.55c-17.885-9.286-27.251 4.764-28.947 7.671-1.696 2.907-9.326 18.006 7.55 28.988l148.895 86.922c17.885 9.286 27.251-4.764 28.947-7.67 1.696-2.948 9.407-18.168-7.832-29.15-8.479-5.41-10.941-16.633-5.531-25.071 5.41-8.438 16.633-10.941 25.071-5.531 31.208 19.904 33.51 54.342 19.662 78.081-9.649 16.553-27.736 28.826-48.892 28.866l.041-.04Z"/>
</svg>
