<?xml version="1.0" encoding="UTF-8" standalone="no"?>
<svg
   xmlns:dc="http://purl.org/dc/elements/1.1/"
   xmlns:cc="http://creativecommons.org/ns#"
   xmlns:rdf="http://www.w3.org/1999/02/22-rdf-syntax-ns#"
   xmlns:svg="http://www.w3.org/2000/svg"
   xmlns="http://www.w3.org/2000/svg"
   xmlns:sodipodi="http://sodipodi.sourceforge.net/DTD/sodipodi-0.dtd"
   xmlns:inkscape="http://www.inkscape.org/namespaces/inkscape"
   width="210mm"
   height="297mm"
   viewBox="0 0 210 297"
   version="1.1"
   id="svg8"
   inkscape:version="0.92.5 (2060ec1f9f, 2020-04-08)"
   sodipodi:docname="sher-logo.svg">
  <defs
     id="defs2" />
  <sodipodi:namedview
     id="base"
     pagecolor="#ffffff"
     bordercolor="#666666"
     borderopacity="1.0"
     inkscape:pageopacity="0.0"
     inkscape:pageshadow="2"
     inkscape:zoom="0.49497475"
     inkscape:cx="-205.68864"
     inkscape:cy="381.22952"
     inkscape:document-units="mm"
     inkscape:current-layer="layer1"
     showgrid="false"
     inkscape:window-width="2560"
     inkscape:window-height="1380"
     inkscape:window-x="0"
     inkscape:window-y="0"
     inkscape:window-maximized="1" />
  <metadata
     id="metadata5">
    <rdf:RDF>
      <cc:Work
         rdf:about="">
        <dc:format>image/svg+xml</dc:format>
        <dc:type
           rdf:resource="http://purl.org/dc/dcmitype/StillImage" />
        <dc:title></dc:title>
      </cc:Work>
    </rdf:RDF>
  </metadata>
  <g
     inkscape:label="Layer 1"
     inkscape:groupmode="layer"
     id="layer1">
    <g
       id="g3828"
       transform="matrix(4.7924692,0,0,4.7924692,-4815.4658,-1681.9186)">
      <polygon
         id="polygon3826"
         points="1046.343,391.843 1046.343,371.588 1046.343,370.583 1045.473,370.08 1027.933,359.954 1027.061,359.451 1026.19,359.954 1008.65,370.08 1007.78,370.583 1007.78,371.588 1007.78,391.843 1007.78,392.848 1008.65,393.35 1026.19,403.478 1027.061,403.98 1027.933,403.478 1045.473,393.35 1046.343,392.848 "
         style="fill:#2a3747" />
    </g>
    <g
       id="g3832"
       transform="matrix(4.7924692,0,0,4.7924692,-4815.4658,-1681.9186)">
      <path
         id="path3830"
         d="m 1041.649,372.665 -14.044,-8.108 c -0.336,-0.194 -0.752,-0.194 -1.088,0 l -14.045,8.108 c -0.337,0.195 -0.544,0.553 -0.544,0.942 v 16.217 c 0,0.389 0.207,0.748 0.544,0.942 l 14.045,8.108 c 0.168,0.098 0.355,0.145 0.543,0.145 0.188,0 0.376,-0.047 0.545,-0.145 l 14.044,-8.108 c 0.337,-0.194 0.542,-0.553 0.542,-0.942 v -16.217 c 0,-0.389 -0.205,-0.747 -0.542,-0.942 z"
         inkscape:connector-curvature="0"
         style="fill:#4ab657" />
    </g>
    <g
       id="g3836"
       transform="matrix(4.7924692,0,0,4.7924692,-4815.4658,-1681.9186)">
      <path
         id="path3834"
         d="m 1046.559,369.704 -18.845,-10.881 c -0.405,-0.234 -0.901,-0.234 -1.306,0 l -18.847,10.881 c -0.403,0.232 -0.652,0.664 -0.652,1.13 v 21.762 c 0,0.467 0.249,0.898 0.652,1.132 l 18.847,10.879 c 0.201,0.117 0.428,0.176 0.652,0.176 0.227,0 0.452,-0.059 0.653,-0.176 l 18.845,-10.879 c 0.405,-0.234 0.655,-0.666 0.655,-1.132 v -21.762 c 10e-4,-0.466 -0.249,-0.897 -0.654,-1.13 z m -1.957,22.139 -17.541,10.126 -17.54,-10.126 v -20.255 l 17.54,-10.127 17.541,10.127 z"
         inkscape:connector-curvature="0"
         style="fill:#4ab657" />
    </g>
    <g
       id="g928"
       stroke-miterlimit="1.5"
       transform="matrix(0.26458333,0,0,0.26458333,47.525808,71.973322)"
       style="fill-rule:evenodd;stroke-linecap:square;stroke-linejoin:miter;stroke-miterlimit:1.5">
      <g
         id="g926"
         transform="matrix(0.86861,0.188418,-0.253824,1.17013,-59.1243,-195.055)">
        <path
           id="path911"
           d="m 474.655,152.871 c 0,0 -155.39,38.117 12.589,121.95 124.699,62.234 128.909,115.601 100.126,167.945 -44.714,81.312 -210.726,85.179 -210.726,85.179 0,0 156.005,-39.336 -7.386,-123.883 -71.901,-37.206 -160.147,-84.621 -99.902,-171.796 56.185,-81.302 205.299,-79.395 205.299,-79.395 z"
           inkscape:connector-curvature="0"
           style="fill:#4c91bc;stroke:none;stroke-width:0;stroke-linecap:square" />
        <clipPath
           id="_clip1">
          <path
             id="path913"
             d="m 474.655,152.871 c 0,0 -155.39,38.117 12.589,121.95 124.699,62.234 128.909,115.601 100.126,167.945 -44.714,81.312 -210.726,85.179 -210.726,85.179 0,0 156.005,-39.336 -7.386,-123.883 -71.901,-37.206 -160.147,-84.621 -99.902,-171.796 56.185,-81.302 205.299,-79.395 205.299,-79.395 z"
             inkscape:connector-curvature="0" />
        </clipPath>
        <g
           id="g924"
           clip-path="url(#_clip1)">
          <g
             id="g918"
             transform="matrix(1.09953,-0.17705,0.238509,0.816201,85.8323,150.7)">
            <path
               id="path916"
               d="m 334.624,74.207 c 0,0 -123.705,-22.995 -142.099,34.905 -24.913,78.423 127.638,151.347 78.996,277.284 -42.498,110.029 -113.639,109.014 -113.639,109.014 0,0 138.257,24.276 192.168,-76.12 47.487,-88.435 7.837,-125.093 -76.771,-233.249 C 192.757,83.106 332.4,77.434 334.624,74.207 Z"
               inkscape:connector-curvature="0"
               style="fill:#1c3e72" />
          </g>
          <g
             id="g922"
             transform="matrix(1.09953,-0.17705,0.238509,0.816201,111.531,148.736)">
            <path
               id="path920"
               d="m 334.624,74.207 c 0,0 -123.705,-22.995 -142.099,34.905 -24.913,78.423 146.452,160.842 113.506,283.174 -25.179,93.494 -185.149,101.124 -185.149,101.124 0,0 179.257,32.276 229.168,-74.12 47.487,-88.435 7.837,-125.093 -76.771,-233.249 C 192.757,83.106 332.4,77.434 334.624,74.207 Z"
               inkscape:connector-curvature="0"
               style="fill:#535c9c;stroke:none;stroke-width:0" />
          </g>
        </g>
      </g>
    </g>
  </g>
  <style
     id="style3875">
  #outline {
		stroke: #111;
		stroke-width: 31.66235665441778;
		fill: none;
  }
  .dot {
		fill: #111;
  }
  .point {
		fill: #111;
  }
  /*.point:nth-child(odd) {
		fill: rgb(165, 24, 201);
  }*/
  .ray {
		stroke: #111;
		stroke-width: 31.66235665441778;
  }
  /*.ray:nth-child(even) {
		stroke: rgb(165, 24, 201);
  }*/
  #background {
		fill: #FCFCFC;
		stroke: none;
  }
  #pupil {
		fill: rgb(165, 24, 201);
  }
</style>
</svg>
