<?xml version="1.0" encoding="UTF-8" standalone="no"?>
<svg
   xmlns:dc="http://purl.org/dc/elements/1.1/"
   xmlns:cc="http://creativecommons.org/ns#"
   xmlns:rdf="http://www.w3.org/1999/02/22-rdf-syntax-ns#"
   xmlns:svg="http://www.w3.org/2000/svg"
   xmlns="http://www.w3.org/2000/svg"
   xmlns:sodipodi="http://sodipodi.sourceforge.net/DTD/sodipodi-0.dtd"
   xmlns:inkscape="http://www.inkscape.org/namespaces/inkscape"
   width="210mm"
   height="297mm"
   viewBox="0 0 210 297"
   version="1.1"
   id="svg8"
   inkscape:version="0.92.5 (2060ec1f9f, 2020-04-08)"
   sodipodi:docname="socket-logo.svg">
  <defs
     id="defs2" />
  <sodipodi:namedview
     id="base"
     pagecolor="#ffffff"
     bordercolor="#666666"
     borderopacity="1.0"
     inkscape:pageopacity="0.0"
     inkscape:pageshadow="2"
     inkscape:zoom="2.8"
     inkscape:cx="289.98405"
     inkscape:cy="559.9055"
     inkscape:document-units="mm"
     inkscape:current-layer="Ultralight-S"
     showgrid="false"
     inkscape:window-width="2560"
     inkscape:window-height="1380"
     inkscape:window-x="0"
     inkscape:window-y="0"
     inkscape:window-maximized="1" />
  <metadata
     id="metadata5">
    <rdf:RDF>
      <cc:Work
         rdf:about="">
        <dc:format>image/svg+xml</dc:format>
        <dc:type
           rdf:resource="http://purl.org/dc/dcmitype/StillImage" />
        <dc:title></dc:title>
      </cc:Work>
    </rdf:RDF>
  </metadata>
  <g
     inkscape:label="Layer 1"
     inkscape:groupmode="layer"
     id="layer1">
    <g
       id="g3828"
       transform="matrix(4.7924692,0,0,4.7924692,-4815.4658,-1681.9186)">
      <polygon
         id="polygon3826"
         points="1046.343,391.843 1046.343,371.588 1046.343,370.583 1045.473,370.08 1027.933,359.954 1027.061,359.451 1026.19,359.954 1008.65,370.08 1007.78,370.583 1007.78,371.588 1007.78,391.843 1007.78,392.848 1008.65,393.35 1026.19,403.478 1027.061,403.98 1027.933,403.478 1045.473,393.35 1046.343,392.848 "
         style="fill:#2a3747" />
    </g>
    <g
       id="g3832"
       transform="matrix(4.7924692,0,0,4.7924692,-4815.4658,-1681.9186)">
      <path
         id="path3830"
         d="m 1041.649,372.665 -14.044,-8.108 c -0.336,-0.194 -0.752,-0.194 -1.088,0 l -14.045,8.108 c -0.337,0.195 -0.544,0.553 -0.544,0.942 v 16.217 c 0,0.389 0.207,0.748 0.544,0.942 l 14.045,8.108 c 0.168,0.098 0.355,0.145 0.543,0.145 0.188,0 0.376,-0.047 0.545,-0.145 l 14.044,-8.108 c 0.337,-0.194 0.542,-0.553 0.542,-0.942 v -16.217 c 0,-0.389 -0.205,-0.747 -0.542,-0.942 z"
         inkscape:connector-curvature="0"
         style="fill:#4ab657" />
    </g>
    <g
       id="g3836"
       transform="matrix(4.7924692,0,0,4.7924692,-4815.4658,-1681.9186)">
      <path
         id="path3834"
         d="m 1046.559,369.704 -18.845,-10.881 c -0.405,-0.234 -0.901,-0.234 -1.306,0 l -18.847,10.881 c -0.403,0.232 -0.652,0.664 -0.652,1.13 v 21.762 c 0,0.467 0.249,0.898 0.652,1.132 l 18.847,10.879 c 0.201,0.117 0.428,0.176 0.652,0.176 0.227,0 0.452,-0.059 0.653,-0.176 l 18.845,-10.879 c 0.405,-0.234 0.655,-0.666 0.655,-1.132 v -21.762 c 10e-4,-0.466 -0.249,-0.897 -0.654,-1.13 z m -1.957,22.139 -17.541,10.126 -17.54,-10.126 v -20.255 l 17.54,-10.127 17.541,10.127 z"
         inkscape:connector-curvature="0"
         style="fill:#4ab657" />
    </g>
    <g
       id="Ultralight-S"
       transform="matrix(0.55, 0, 0, 0.55, 36, 71)">
      <path
         fill="var(--tonic-primary)"
         d="M78.23,172.69l-35.33,22.16c-1.1,.72-2.18,1.14-3.41,.49-1.12-.59-1.38-1.73-1.4-3.04l-3.41-100.55c-.03-1.43,0-2.37,.53-3.35,.52-.98,1.22-1.43,2.42-2.2L122.81,32.65c1.1-.72,2.18-1.14,3.3-.54,1.23,.65,1.49,1.79,1.51,3.1l1.38,42.84,6.01-4.03-1.4-39.03c-.11-4.61-.97-7.6-4.1-9.26-3.03-1.61-5.98-.64-9.85,1.86L34.94,80.59c-2.53,1.64-4.3,2.89-5.33,4.83-1.09,2.05-1.13,4.21-1.07,7.23l3.56,99.87c.1,4.61,.96,7.59,3.99,9.2,3.14,1.66,6.09,.7,9.97-1.79l32.4-20.28-.24-6.96Z"
         id="path982"
         style="fill:#2a3747;fill-opacity:1" />
      <path
         fill="var(--tonic-primary)"
         d="M125.9,195.27l-37.64,23.65c-1.1,.71-2.18,1.14-3.3,.54s-1.38-1.73-1.4-3.04l-3.42-100.56c-.02-1.43,.01-2.37,.53-3.35s1.22-1.43,2.42-2.21l85.2-53.52c1.1-.72,2.18-1.14,3.3-.54s1.37,1.72,1.4,3.04l1.62,45.01,5.94-3.59-1.47-41.59c-.21-4.67-.96-7.59-4.1-9.26-3.03-1.61-5.98-.64-9.86,1.85l-84.7,53.02c-2.64,1.58-4.41,2.83-5.44,4.77-1.09,2.05-1.13,4.21-.96,7.29l3.56,99.86c.11,4.61,.97,7.6,3.99,9.21,3.14,1.66,5.98,.64,9.96-1.8l34.72-21.77-.35-7.01Z"
         id="path984"
         style="fill:#2a3747;fill-opacity:1" />
      <path
         fill="var(--tonic-primary)"
         d="M122.12,134.52c-1.09,2.05-1.13,4.21-1.07,7.23l3.56,99.86c.11,4.61,.97,7.6,3.99,9.21s6.09,.7,9.96-1.8l84.7-53.02c2.54-1.63,4.3-2.89,5.39-4.94,1.03-1.94,1.08-4.1,1.01-7.12l-3.56-99.86c-.1-4.61-.97-7.6-4.1-9.26s-5.98-.64-9.86,1.85l-84.7,53.02c-2.53,1.64-4.3,2.89-5.33,4.83Zm5.59,2.96c.52-.98,1.22-1.43,2.42-2.21l85.2-53.52c1.1-.72,2.18-1.14,3.3-.54,1.23,.65,1.48,1.78,1.51,3.1l3.41,100.55c.03,1.43,.05,2.26-.47,3.24s-1.28,1.54-2.48,2.31l-85.19,53.53c-1.1,.71-2.18,1.14-3.41,.49-1.12-.6-1.38-1.73-1.4-3.04l-3.42-100.56c-.02-1.43,.01-2.37,.53-3.35Z"
         id="path986"
         style="fill:#2a3747;fill-opacity:1" />
      <path
         fill="var(--tonic-primary)"
         d="M168.07,188.54c-1.26,0-2.28-1.02-2.28-2.28v-32.57c0-1.26,1.02-2.28,2.28-2.28s2.28,1.02,2.28,2.28v32.57c0,1.26-1.02,2.28-2.28,2.28Z"
         id="path988"
         style="fill:#2a3747;fill-opacity:1" />
      <path
         fill="var(--tonic-primary)"
         d="M193.02,173.82c-1.26,0-2.28-1.02-2.28-2.28v-32.44c0-1.26,1.02-2.28,2.28-2.28s2.28,1.02,2.28,2.28v32.44c0,1.26-1.02,2.28-2.28,2.28Z"
         id="path990"
         style="fill-opacity:1;fill:#2a3747" />
    </g>
  </g>
  <style
     id="style3875">
  #outline {
		stroke: #111;
		stroke-width: 31.66235665441778;
		fill: none;
  }
  .dot {
		fill: #111;
  }
  .point {
		fill: #111;
  }
  /*.point:nth-child(odd) {
		fill: rgb(165, 24, 201);
  }*/
  .ray {
		stroke: #111;
		stroke-width: 31.66235665441778;
  }
  /*.ray:nth-child(even) {
		stroke: rgb(165, 24, 201);
  }*/
  #background {
		fill: #FCFCFC;
		stroke: none;
  }
  #pupil {
		fill: rgb(165, 24, 201);
  }
</style>
</svg>
