<svg xmlns:dc="http://purl.org/dc/elements/1.1/" xmlns:cc="http://creativecommons.org/ns#" xmlns:rdf="http://www.w3.org/1999/02/22-rdf-syntax-ns#" xmlns:svg="http://www.w3.org/2000/svg" xmlns="http://www.w3.org/2000/svg" xmlns:sodipodi="http://sodipodi.sourceforge.net/DTD/sodipodi-0.dtd" xmlns:inkscape="http://www.inkscape.org/namespaces/inkscape" width="210mm" height="297mm" viewBox="0 0 210 297" version="1.1" id="svg8" inkscape:version="0.92.5 (2060ec1f9f, 2020-04-08)" sodipodi:docname="hop-logo.svg">
  <defs id="defs2"/>
  <sodipodi:namedview id="base" pagecolor="#ffffff" bordercolor="#666666" borderopacity="1.0" inkscape:pageopacity="0.0" inkscape:pageshadow="2" inkscape:zoom="0.49497475" inkscape:cx="-305.76595" inkscape:cy="611.55318" inkscape:document-units="mm" inkscape:current-layer="layer1" showgrid="false" inkscape:window-width="2560" inkscape:window-height="1380" inkscape:window-x="0" inkscape:window-y="0" inkscape:window-maximized="1"/>
  <metadata id="metadata5">
    <rdf:RDF>
      <cc:Work rdf:about="">
        <dc:format>image/svg+xml</dc:format>
        <dc:type rdf:resource="http://purl.org/dc/dcmitype/StillImage"/>
        <dc:title/>
      </cc:Work>
    </rdf:RDF>
  </metadata>
  <g inkscape:label="Layer 1" inkscape:groupmode="layer" id="layer1">
    <g id="g3828" transform="matrix(4.7924692,0,0,4.7924692,-4815.4658,-1681.9186)">
      <polygon id="polygon3826" points="1046.343,391.843 1046.343,371.588 1046.343,370.583 1045.473,370.08 1027.933,359.954 1027.061,359.451 1026.19,359.954 1008.65,370.08 1007.78,370.583 1007.78,371.588 1007.78,391.843 1007.78,392.848 1008.65,393.35 1026.19,403.478 1027.061,403.98 1027.933,403.478 1045.473,393.35 1046.343,392.848 " style="fill:#2a3747"/>
    </g>
    <path style="fill:#4ab657;stroke-width:4.79246902" inkscape:connector-curvature="0" d="M 176.60495,104.06693 109.29951,65.209594 c -1.61027,-0.929739 -3.60393,-0.929739 -5.2142,0 L 36.775076,104.06693 c -1.615062,0.93454 -2.607103,2.65024 -2.607103,4.51451 v 77.71947 c 0,1.86427 0.992041,3.58477 2.607103,4.51451 l 67.310234,38.85734 c 0.80513,0.46966 1.70132,0.69491 2.60231,0.69491 0.90098,0 1.80196,-0.22525 2.61189,-0.69491 l 67.30544,-38.85734 c 1.61506,-0.92974 2.59752,-2.65024 2.59752,-4.51451 v -77.71947 c 0,-1.86427 -0.98246,-3.57997 -2.59752,-4.51451 z" id="path3830"/>
    <g id="g3836" transform="matrix(4.7924692,0,0,4.7924692,-4815.4658,-1681.9186)" style="&#10;">
      <path id="path3834" d="m 1046.559,369.704 -18.845,-10.881 c -0.405,-0.234 -0.901,-0.234 -1.306,0 l -18.847,10.881 c -0.403,0.232 -0.652,0.664 -0.652,1.13 v 21.762 c 0,0.467 0.249,0.898 0.652,1.132 l 18.847,10.879 c 0.201,0.117 0.428,0.176 0.652,0.176 0.227,0 0.452,-0.059 0.653,-0.176 l 18.845,-10.879 c 0.405,-0.234 0.655,-0.666 0.655,-1.132 v -21.762 c 10e-4,-0.466 -0.249,-0.897 -0.654,-1.13 z m -1.957,22.139 -17.541,10.126 -17.54,-10.126 v -20.255 l 17.54,-10.127 17.541,10.127 z" inkscape:connector-curvature="0" style="fill:#4ab657"/>
    </g>
    
    <g xmlns="http://www.w3.org/2000/svg" transform="matrix(2,0,0,2,24,42)">
<style type="text/css">
	.st0{fill:#FFFEFE;}
	.st1{fill:#B22826;}
	.st2{fill:#FFF;}
</style>
	<path class="st1" d="M11.6,53.2c10-10,20-20,29.9-29.9c9.9,10,20,20,30.1,30.1c-9.9,9.9-20,19.8-30.2,29.9   C31.4,73.3,21.5,63.2,11.6,53.2z M51,59.7c0-0.3,0-0.4,0-0.6c0.4-2.2-0.8-4.3-2.7-4.8c-2.2-0.6-4.5,0.5-5.4,2.6   c-0.9,2.3-0.2,4.3,1.4,6c4.3,4.6,11.7,3.1,14.3-2.8c1.7-3.9,0.7-8.3-2.5-11.7c-3.2-3.3-6.4-6.6-9.6-10c-1.6-1.7-3.2-3.4-4.7-5.2   c-0.2,0-0.5,0-0.7,0C36,38.5,30.9,43.7,25.9,49c-2.1,2.3-3.1,5.1-2.7,8.2c0.4,3.6,2.4,6.2,5.7,7.7c3,1.3,5.8,0.7,8.3-1.2   c1.9-1.4,2.9-3.2,2.7-5.6c-0.2-2-1.8-3.7-3.8-4c-1.9-0.3-3.7,0.6-4.4,2.5c-0.3,0.9-0.3,1.9-0.4,2.8c-1.5-0.5-2.5-2.1-1.8-3.8   c0.6-1.4,1.4-2.9,2.5-4c2.8-3,5.8-5.8,8.7-8.7c0.2-0.2,0.5-0.4,0.7-0.6c2.7,2.8,5.4,5.7,8.1,8.4c1.4,1.4,2.7,2.8,3.3,4.7   C53.5,57.4,52.9,58.8,51,59.7z"/>
	</g>
  </g>
  <style id="style3875">
  #outline {
		stroke: #111;
		stroke-width: 31.66235665441778;
		fill: none;
  }
  .dot {
		fill: #111;
  }
  .point {
		fill: #111;
  }
  /*.point:nth-child(odd) {
		fill: rgb(165, 24, 201);
  }*/
  .ray {
		stroke: #111;
		stroke-width: 31.66235665441778;
  }
  /*.ray:nth-child(even) {
		stroke: rgb(165, 24, 201);
  }*/
  #background {
		fill: #FCFCFC;
		stroke: none;
  }
  #pupil {
		fill: rgb(165, 24, 201);
  }
</style>
</svg>