<?xml version="1.0" encoding="UTF-8" standalone="no"?>
<svg
   xmlns:dc="http://purl.org/dc/elements/1.1/"
   xmlns:cc="http://creativecommons.org/ns#"
   xmlns:rdf="http://www.w3.org/1999/02/22-rdf-syntax-ns#"
   xmlns:svg="http://www.w3.org/2000/svg"
   xmlns="http://www.w3.org/2000/svg"
   xmlns:sodipodi="http://sodipodi.sourceforge.net/DTD/sodipodi-0.dtd"
   xmlns:inkscape="http://www.inkscape.org/namespaces/inkscape"
   width="210mm"
   height="297mm"
   viewBox="0 0 210 297"
   version="1.1"
   id="svg8"
   inkscape:version="0.92.5 (2060ec1f9f, 2020-04-08)"
   sodipodi:docname="hyperpubee-logo.svg">
  <defs
     id="defs2" />
  <sodipodi:namedview
     id="base"
     pagecolor="#ffffff"
     bordercolor="#666666"
     borderopacity="1.0"
     inkscape:pageopacity="0.0"
     inkscape:pageshadow="2"
     inkscape:zoom="0.7"
     inkscape:cx="-14.214295"
     inkscape:cy="538.38289"
     inkscape:document-units="mm"
     inkscape:current-layer="layer1"
     showgrid="false"
     inkscape:window-width="2560"
     inkscape:window-height="1380"
     inkscape:window-x="0"
     inkscape:window-y="0"
     inkscape:window-maximized="1" />
  <metadata
     id="metadata5">
    <rdf:RDF>
      <cc:Work
         rdf:about="">
        <dc:format>image/svg+xml</dc:format>
        <dc:type
           rdf:resource="http://purl.org/dc/dcmitype/StillImage" />
        <dc:title></dc:title>
      </cc:Work>
    </rdf:RDF>
  </metadata>
  <g
     inkscape:label="Layer 1"
     inkscape:groupmode="layer"
     id="layer1">
    <g
       id="g3828"
       transform="matrix(4.7924692,0,0,4.7924692,-4815.4658,-1681.9186)">
      <polygon
         id="polygon3826"
         points="1046.343,391.843 1046.343,371.588 1046.343,370.583 1045.473,370.08 1027.933,359.954 1027.061,359.451 1026.19,359.954 1008.65,370.08 1007.78,370.583 1007.78,371.588 1007.78,391.843 1007.78,392.848 1008.65,393.35 1026.19,403.478 1027.061,403.98 1027.933,403.478 1045.473,393.35 1046.343,392.848 "
         style="fill:#2a3747" />
    </g>
    <path
       style="fill:#4ab657;stroke-width:4.79246902"
       inkscape:connector-curvature="0"
       d="M 176.60495,104.06693 109.29951,65.209594 c -1.61027,-0.929739 -3.60393,-0.929739 -5.2142,0 L 36.775076,104.06693 c -1.615062,0.93454 -2.607103,2.65024 -2.607103,4.51451 v 77.71947 c 0,1.86427 0.992041,3.58477 2.607103,4.51451 l 67.310234,38.85734 c 0.80513,0.46966 1.70132,0.69491 2.60231,0.69491 0.90098,0 1.80196,-0.22525 2.61189,-0.69491 l 67.30544,-38.85734 c 1.61506,-0.92974 2.59752,-2.65024 2.59752,-4.51451 v -77.71947 c 0,-1.86427 -0.98246,-3.57997 -2.59752,-4.51451 z"
       id="path3830" />
    <g
       id="g3836"
       transform="matrix(4.7924692,0,0,4.7924692,-4815.4658,-1681.9186)">
      <path
         id="path3834"
         d="m 1046.559,369.704 -18.845,-10.881 c -0.405,-0.234 -0.901,-0.234 -1.306,0 l -18.847,10.881 c -0.403,0.232 -0.652,0.664 -0.652,1.13 v 21.762 c 0,0.467 0.249,0.898 0.652,1.132 l 18.847,10.879 c 0.201,0.117 0.428,0.176 0.652,0.176 0.227,0 0.452,-0.059 0.653,-0.176 l 18.845,-10.879 c 0.405,-0.234 0.655,-0.666 0.655,-1.132 v -21.762 c 10e-4,-0.466 -0.249,-0.897 -0.654,-1.13 z m -1.957,22.139 -17.541,10.126 -17.54,-10.126 v -20.255 l 17.54,-10.127 17.541,10.127 z"
         inkscape:connector-curvature="0"
         style="fill:#4ab657" />
    </g>
    <g
       id="id3"
       transform="matrix(0.00663307,0,0,0.00740107,38.074655,35.552042)">
      <rect
         class="BoundingBox"
         x="3540"
         y="8112"
         width="13971"
         height="13971"
         id="rect2864"
         style="fill:none;stroke:none" />
      <path
         d="M 10525,22082 H 3540 V 8112 h 13970 v 13970 z"
         id="path2866"
         inkscape:connector-curvature="0"
         style="fill:#ffffff;stroke:none" />
    </g>
    <rect
       style="fill:none;stroke:none;stroke-width:0.00700655"
       id="rect2871"
       height="87.273407"
       width="85.805351"
       y="98.957008"
       x="64.560364"
       class="BoundingBox" />
    <path
       style="fill:#ffffff;stroke:none;stroke-width:0.00700655"
       inkscape:connector-curvature="0"
       id="path2873"
       d="m 150.00761,142.5937 c 0,7.58609 -1.96338,15.04637 -5.69781,21.61853 -3.73441,6.57214 -9.1072,12.02673 -15.57444,15.82348 -6.46723,3.79674 -13.80341,5.79503 -21.27223,5.79503 -7.468797,0 -14.804969,-1.99829 -21.272208,-5.79503 -6.46724,-3.79675 -11.840023,-9.25134 -15.574446,-15.82348 -3.734416,-6.57216 -5.697803,-14.03244 -5.697803,-21.61853 0,-7.5935 1.963387,-15.05377 5.697803,-21.62592 3.734423,-6.57216 9.107206,-12.02674 15.574446,-15.82349 6.467239,-3.79675 13.803411,-5.795034 21.272208,-5.795034 7.46882,0 14.805,1.998284 21.27223,5.795034 6.46724,3.79675 11.84003,9.25133 15.57444,15.82349 3.73443,6.57215 5.69781,14.03242 5.69781,21.61852 z" />
    <path
       style="fill:none;stroke:#1c1c1c;stroke-width:0.74269462;stroke-linejoin:round"
       inkscape:connector-curvature="0"
       id="path2875"
       d="m 150.00761,142.5937 c 0,7.58609 -1.96338,15.04637 -5.69781,21.61853 -3.73441,6.57214 -9.1072,12.02673 -15.57444,15.82348 -6.46723,3.79674 -13.80341,5.79503 -21.27223,5.79503 -7.468797,0 -14.804969,-1.99829 -21.272208,-5.79503 -6.46724,-3.79675 -11.840023,-9.25134 -15.574446,-15.82348 -3.734416,-6.57216 -5.697803,-14.03244 -5.697803,-21.61853 0,-7.5935 1.963387,-15.05377 5.697803,-21.62592 3.734423,-6.57216 9.107206,-12.02674 15.574446,-15.82349 6.467239,-3.79675 13.803411,-5.795034 21.272208,-5.795034 7.46882,0 14.805,1.998284 21.27223,5.795034 6.46724,3.79675 11.84003,9.25133 15.57444,15.82349 3.73443,6.57215 5.69781,14.03242 5.69781,21.61852 z" />
    <g
       transform="matrix(0.00663307,0,0,0.00740107,38.074655,35.552042)"
       id="g2935"
       class="com.sun.star.drawing.LineShape">
      <g
         id="id5">
        <rect
           style="fill:none;stroke:none"
           id="rect2880"
           height="29"
           width="11586"
           y="9876"
           x="4669"
           class="BoundingBox" />
        <path
           style="fill:none;stroke:#1c1c1c;stroke-width:28;stroke-linejoin:round"
           inkscape:connector-curvature="0"
           id="path2882"
           d="m 4683,9890 h 308" />
        <path
           style="fill:none;stroke:#1c1c1c;stroke-width:28;stroke-linejoin:round"
           inkscape:connector-curvature="0"
           id="path2884"
           d="m 5131,9890 h 308" />
        <path
           style="fill:none;stroke:#1c1c1c;stroke-width:28;stroke-linejoin:round"
           inkscape:connector-curvature="0"
           id="path2886"
           d="m 5579,9890 h 308" />
        <path
           style="fill:none;stroke:#1c1c1c;stroke-width:28;stroke-linejoin:round"
           inkscape:connector-curvature="0"
           id="path2888"
           d="m 6027,9890 h 308" />
        <path
           style="fill:none;stroke:#1c1c1c;stroke-width:28;stroke-linejoin:round"
           inkscape:connector-curvature="0"
           id="path2890"
           d="m 6475,9890 h 308" />
        <path
           style="fill:none;stroke:#1c1c1c;stroke-width:28;stroke-linejoin:round"
           inkscape:connector-curvature="0"
           id="path2892"
           d="m 6923,9890 h 308" />
        <path
           style="fill:none;stroke:#1c1c1c;stroke-width:28;stroke-linejoin:round"
           inkscape:connector-curvature="0"
           id="path2894"
           d="m 7371,9890 h 308" />
        <path
           style="fill:none;stroke:#1c1c1c;stroke-width:28;stroke-linejoin:round"
           inkscape:connector-curvature="0"
           id="path2896"
           d="m 7819,9890 h 308" />
        <path
           style="fill:none;stroke:#1c1c1c;stroke-width:28;stroke-linejoin:round"
           inkscape:connector-curvature="0"
           id="path2898"
           d="m 8267,9890 h 308" />
        <path
           style="fill:none;stroke:#1c1c1c;stroke-width:28;stroke-linejoin:round"
           inkscape:connector-curvature="0"
           id="path2900"
           d="m 8715,9890 h 308" />
        <path
           style="fill:none;stroke:#1c1c1c;stroke-width:28;stroke-linejoin:round"
           inkscape:connector-curvature="0"
           id="path2902"
           d="m 9163,9890 h 308" />
        <path
           style="fill:none;stroke:#1c1c1c;stroke-width:28;stroke-linejoin:round"
           inkscape:connector-curvature="0"
           id="path2904"
           d="m 9611,9890 h 308" />
        <path
           style="fill:none;stroke:#1c1c1c;stroke-width:28;stroke-linejoin:round"
           inkscape:connector-curvature="0"
           id="path2906"
           d="m 10059,9890 h 308" />
        <path
           style="fill:none;stroke:#1c1c1c;stroke-width:28;stroke-linejoin:round"
           inkscape:connector-curvature="0"
           id="path2908"
           d="m 10507,9890 h 308" />
        <path
           style="fill:none;stroke:#1c1c1c;stroke-width:28;stroke-linejoin:round"
           inkscape:connector-curvature="0"
           id="path2910"
           d="m 10955,9890 h 308" />
        <path
           style="fill:none;stroke:#1c1c1c;stroke-width:28;stroke-linejoin:round"
           inkscape:connector-curvature="0"
           id="path2912"
           d="m 11403,9890 h 308" />
        <path
           style="fill:none;stroke:#1c1c1c;stroke-width:28;stroke-linejoin:round"
           inkscape:connector-curvature="0"
           id="path2914"
           d="m 11851,9890 h 308" />
        <path
           style="fill:none;stroke:#1c1c1c;stroke-width:28;stroke-linejoin:round"
           inkscape:connector-curvature="0"
           id="path2916"
           d="m 12299,9890 h 308" />
        <path
           style="fill:none;stroke:#1c1c1c;stroke-width:28;stroke-linejoin:round"
           inkscape:connector-curvature="0"
           id="path2918"
           d="m 12747,9890 h 308" />
        <path
           style="fill:none;stroke:#1c1c1c;stroke-width:28;stroke-linejoin:round"
           inkscape:connector-curvature="0"
           id="path2920"
           d="m 13195,9890 h 308" />
        <path
           style="fill:none;stroke:#1c1c1c;stroke-width:28;stroke-linejoin:round"
           inkscape:connector-curvature="0"
           id="path2922"
           d="m 13643,9890 h 308" />
        <path
           style="fill:none;stroke:#1c1c1c;stroke-width:28;stroke-linejoin:round"
           inkscape:connector-curvature="0"
           id="path2924"
           d="m 14091,9890 h 308" />
        <path
           style="fill:none;stroke:#1c1c1c;stroke-width:28;stroke-linejoin:round"
           inkscape:connector-curvature="0"
           id="path2926"
           d="m 14539,9890 h 308" />
        <path
           style="fill:none;stroke:#1c1c1c;stroke-width:28;stroke-linejoin:round"
           inkscape:connector-curvature="0"
           id="path2928"
           d="m 14987,9890 h 308" />
        <path
           style="fill:none;stroke:#1c1c1c;stroke-width:28;stroke-linejoin:round"
           inkscape:connector-curvature="0"
           id="path2930"
           d="m 15435,9890 h 308" />
        <path
           style="fill:none;stroke:#1c1c1c;stroke-width:28;stroke-linejoin:round"
           inkscape:connector-curvature="0"
           id="path2932"
           d="m 15883,9890 h 308" />
      </g>
    </g>
    <g
       transform="matrix(0.00663307,0,0,0.00740107,38.074655,35.552042)"
       id="g2942"
       class="com.sun.star.drawing.OpenBezierShape">
      <g
         id="id6">
        <rect
           style="fill:none;stroke:none"
           id="rect2937"
           height="4349"
           width="9681"
           y="17749"
           x="5685"
           class="BoundingBox" />
        <path
           style="fill:none;stroke:#1c1c1c;stroke-width:28;stroke-linejoin:round"
           inkscape:connector-curvature="0"
           id="path2939"
           d="m 5699,22082 c 4826,-9716 9652,0 9652,0" />
      </g>
    </g>
    <g
       transform="matrix(0.00663307,0,0,0.00740107,38.074655,35.552042)"
       id="id7">
      <rect
         class="BoundingBox"
         x="5191"
         y="10271"
         width="10796"
         height="8637"
         id="rect2944"
         style="fill:none;stroke:none" />
      <text
         class="TextShape"
         id="text2952">
        <tspan
           class="TextParagraph"
           font-size="7938px"
           font-style="italic"
           font-weight="400"
           id="tspan2950"
           style="font-style:italic;font-weight:400;font-size:7938px;font-family:FreeSerif, serif">
          <tspan
             class="TextPosition"
             x="7803"
             y="16746"
             id="tspan2948">
            <tspan
               id="tspan2946"
               style="fill:#000000;stroke:none">D</tspan>
          </tspan>
        </tspan>
      </text>
    </g>
    <g
       transform="matrix(0.00663307,0,0,0.00740107,38.074655,35.552042)"
       id="g2968"
       class="com.sun.star.drawing.TextShape">
      <g
         id="id8">
        <rect
           style="fill:none;stroke:none"
           id="rect2957"
           height="1416"
           width="3234"
           y="18399"
           x="8689"
           class="BoundingBox" />
        <text
           id="text2965"
           class="TextShape">
          <tspan
             style="font-style:italic;font-weight:400;font-size:1164px;font-family:FreeSerif, serif"
             id="tspan2963"
             font-weight="400"
             font-style="italic"
             font-size="1164px"
             class="TextParagraph">
            <tspan
               id="tspan2961"
               y="19455"
               x="8939"
               class="TextPosition">
              <tspan
                 style="fill:#000000;stroke:none"
                 id="tspan2959">Reads</tspan>
            </tspan>
          </tspan>
        </text>
      </g>
    </g>
  </g>
  <style
     id="style3875">
  #outline {
		stroke: #111;
		stroke-width: 31.66235665441778;
		fill: none;
  }
  .dot {
		fill: #111;
  }
  .point {
		fill: #111;
  }
  /*.point:nth-child(odd) {
		fill: rgb(165, 24, 201);
  }*/
  .ray {
		stroke: #111;
		stroke-width: 31.66235665441778;
  }
  /*.ray:nth-child(even) {
		stroke: rgb(165, 24, 201);
  }*/
  #background {
		fill: #FCFCFC;
		stroke: none;
  }
  #pupil {
		fill: rgb(165, 24, 201);
  }
</style>
</svg>
