<?xml version="1.0" encoding="UTF-8" standalone="no"?>
<svg
   xmlns:dc="http://purl.org/dc/elements/1.1/"
   xmlns:cc="http://creativecommons.org/ns#"
   xmlns:rdf="http://www.w3.org/1999/02/22-rdf-syntax-ns#"
   xmlns:svg="http://www.w3.org/2000/svg"
   xmlns="http://www.w3.org/2000/svg"
   xmlns:sodipodi="http://sodipodi.sourceforge.net/DTD/sodipodi-0.dtd"
   xmlns:inkscape="http://www.inkscape.org/namespaces/inkscape"
   fill="none"
   viewBox="0 0 794 1123"
   version="1.1"
   id="svg4295"
   sodipodi:docname="meet-hans.svg"
   inkscape:version="0.92.5 (2060ec1f9f, 2020-04-08)">
  <metadata
     id="metadata4301">
    <rdf:RDF>
      <cc:Work
         rdf:about="">
        <dc:format>image/svg+xml</dc:format>
        <dc:type
           rdf:resource="http://purl.org/dc/dcmitype/StillImage" />
        <dc:title></dc:title>
      </cc:Work>
    </rdf:RDF>
  </metadata>
  <defs
     id="defs4299" />
  <sodipodi:namedview
     pagecolor="#ffffff"
     bordercolor="#666666"
     borderopacity="1"
     objecttolerance="10"
     gridtolerance="10"
     guidetolerance="10"
     inkscape:pageopacity="0"
     inkscape:pageshadow="2"
     inkscape:window-width="2560"
     inkscape:window-height="1380"
     id="namedview4297"
     showgrid="false"
     inkscape:zoom="0.99739815"
     inkscape:cx="397"
     inkscape:cy="561.5"
     inkscape:window-x="0"
     inkscape:window-y="0"
     inkscape:window-maximized="1"
     inkscape:current-layer="svg4295" />
  <path
     fill="#4AB85F"
     d="m536.504 192.261 37.887-95.266-4.019-2.028-96.328 154.948 1.979 1.179a204.95 204.95 0 0 1 34.305 25.616l2.177 2.014 39.25-76.035-14.212-7.606a2.251 2.251 0 0 1-1.039-2.822Zm-182.313 30.032 2.619-.185-14.79-65.878-9.615 3.604a2.277 2.277 0 0 1-1.929-.159 2.23 2.23 0 0 1-1.097-1.58l-11.575-68.932-4.485.366-.506 139.841 2.841-.745a210.986 210.986 0 0 1 38.537-6.332Zm15.884 84.464H215.687c-2.642 0-64.732 1.242-64.732 109.239 0 126.469 58.106 130.123 64.732 130.123h154.388c27.387 0 48.843-23.074 48.843-52.533V353.265c0-27.382-20.083-46.508-48.843-46.508Zm-154.388 4.516c-.082 0-.217 0-.398.005.185-.005.316-.005.398-.005Zm-.488.009c-.176.005-.37.014-.619.027.249-.009.443-.018.619-.027Zm-1.219.081c-.122.009-.226.014-.357.028a5.37 5.37 0 0 1 .357-.028Z"
     id="path4241" />
  <path
     fill="#55708F"
     d="m399.051 543.784-1.142-1.631-1.761.926c-9.814 5.158-18.102 7.556-26.073 7.556h-78.831l2.809 4.128c22.301 28.886 50.063 50.808 80.276 62.464l.493 1.152h.42c.645 0 1.142-1.215 1.504-1.459 27.002-.957 52.167-7.47 74.798-17.419l3.721-1.635-3.355-2.294c-21.177-14.484-38.962-31.908-52.859-51.788Zm-24.871 11.083a31.94 31.94 0 0 1-4.105.284c1.355 0 2.732-.162 4.105-.284Z"
     id="path4243" />
  <path
     fill="#55708F"
     d="M489.223 292.549c5.46-4.471 11.426-6.693 18.232-6.788l5.537-.081-4.01-3.816c-12.668-12.059-27.419-22.631-43.835-31.42l-1.138-.605-1.102.668c-24.271 14.728-45.407 34.369-61.114 56.792l-1.288 1.838 1.83 1.301c13.607 9.665 21.1 24.876 21.1 42.828v140.32c0 17.808-7.683 33.737-21.087 43.699l-1.761 1.315 1.26 1.797c14.673 20.901 34.215 39.54 56.516 53.902l1.084.7 1.156-.583c15.925-8.034 30.124-17.46 42.21-28.019l3.662-3.197-4.805-.737c-5.275-.808-10.071-2.926-14.262-6.304-23.932-19.298-27.161-77.544-27.161-131.979.004-72.599 9.488-115.657 28.976-131.631Z"
     id="path4245" />
  <path
     fill="#55708F"
     d="m293.29 298.678-2.525 3.563h79.31c10.46 0 18.941 1.68 25.928 5.131l1.743.858 1.111-1.595c15.97-22.938 35.882-42.462 57.582-56.466l3.424-2.209-3.685-1.73c-20.125-9.448-42.557-15.454-66.67-17.857l-.365-.036-.357.081c-36.162 8.188-68.29 31.831-95.496 70.26Z"
     id="path4247" />
  <path
     fill="#55708F"
     d="m285.44 302.241.66-1.093c13.255-21.967 37.489-51.77 77.657-69.009l10.943-4.697-11.905.366c-19.583.601-35.146 2.674-49.11 6.562a30.008 30.008 0 0 0-3.721 1.531c-.425.204-.736.371-1.161.484-39.608 12.121-70.115 32.471-93.274 62.216l-2.841 3.64h72.752Zm.985 249.225-.677-.831h-68.331l3.595 3.807c34.874 36.979 81.961 59.452 132.588 63.277l10.916.827-9.697-5.077c-27.969-14.646-52.429-42.398-68.394-62.003Z"
     id="path4249" />
  <path
     fill="#fff"
     d="M603.832 337.837c-5.695-20.811-15.874-31.609-32.043-33.967l-1.341-.144a50.955 50.955 0 0 0-5.88-.357c-37.919 0-45.538 46.224-45.542 120.81-.005 35.913.456 65.075 6.273 86.342 6.431 23.516 18.91 34.468 39.26 34.468 2.087 0 4.195-.167 6.431-.524l4.561-1.061c28.674-8.766 34.546-54.006 34.546-119.225 0-35.922-.452-65.088-6.265-86.342Z"
     id="path4251" />
  <path
     fill="#B6B6B4"
     d="m236.764 569.454 30.864 24.085s-37.639 59.466-48.175 120.435c-10.537 60.97-22.586 228.072 100.862 270.976l12.044-8.278s-2.253-45.917 12.045-43.659c14.299 2.258 13.545 30.86 14.299 42.905.754 12.045 34.626 8.278 23.335 54.952 0 0 36.885 27.09 23.336 42.15-13.549 15.05-38.389-21.83-38.389-21.83l-8.278 3.76 2.259 34.63-16.562 9.03-12.794-15.06 1.504-30.11-6.02-.75-25.594 24.84-14.303-2.26-3.762-16.56 27.097-25.59-8.278-9.04s-72.26-28.598-97.854-78.277c-25.594-49.679-41.4-126.455-32.368-196.457 9.033-70.002 39.888-160.323 64.732-179.892Zm242.374 16.557 33.122-25.594s97.85 82.797 118.927 146.024c21.078 63.228 11.286 141.508 1.504 166.348-9.782 24.839-60.215 103.874-60.215 103.874l2.258 13.549s35.376 15.048 35.376 21.078c0 6.02-.75 22.58-12.795 18.06l-34.626-15.05-.75 6.78s15.049 38.38.75 40.64c-14.298 2.26-18.815-6.02-26.343-36.13l-6.775 2.26s-19.573 37.63-32.368 29.36c-12.794-8.28-1.499-33.12 8.283-45.17 0 0-17.311-23.332-6.774-41.397l10.536-18.065s-15.807-39.143 0-44.409c15.807-5.266 24.09 19.574 27.852 32.368l9.032 6.02s63.224-85.809 54.945-153.553c-8.278-67.743-19.569-118.172-121.939-206.993Z"
     id="path4253" />
  <path
     fill="#B6B6B4"
     d="M460.242 424.18s2.059 138.78 46.228 139.015l55.46-14.818s-30.105 2.258-39.892-39.892c-9.787-42.15-4.521-165.598 3.762-179.896 8.283-14.299 35.381-28.602 35.381-28.602l-53.726-14.221s-22.301-.077-29.076 24.762c-6.774 24.84-18.137 113.652-18.137 113.652Z"
     id="path4255" />
  <path
     fill="#55708F"
     d="m576.992 178.043-18.819 120.435-35.376-8.283-8.278-14.298 39.892-75.273-12.795-9.786 48.171-121.94-12.795 109.145ZM315.049 61.375s18.065 91.079 18.065 93.337c0 2.258 7.271-1.481 8.906 1.518 1.635 2.998 17.437 66.226 17.437 66.226l27.852 3.013L318.061 48.58l-3.012 12.795Z"
     id="path4257" />
  <path
     fill="#fff"
     d="M345.529 1030.49c7.483 0 13.549-6.07 13.549-13.55s-6.066-13.55-13.549-13.55-13.549 6.07-13.549 13.55 6.066 13.55 13.549 13.55Zm189.683-31.616c7.483 0 13.549-6.066 13.549-13.549s-6.066-13.549-13.549-13.549c-7.482 0-13.548 6.066-13.548 13.549s6.066 13.549 13.548 13.549Z"
     id="path4259" />
  <path
     fill="#2D4462"
     d="M354.187 226.969s31.979.858 54.195 19.569c14.298 12.044-6.774 21.077 5.266 31.613 14.023 12.276 29.193-1.129 35.38 12.795 12.041 27.098-30.846 32.413-24.821 60.265 6.025 27.852-.759 94.065-.759 111.38 0 17.315 25.576 45.14 3.749 69.225-14.299 15.78 13.743 34.789-11.291 45.917-27.097 12.045-44.408-23.335-67.744 8.279-13.883 18.814-42.155 22.581-75.272 4.516 0 0 35.38 34.626 111.402 26.343 76.022-8.283 117.428-46.666 122.694-53.441 0 0-33.877-1.504-39.897-59.466-6.02-57.961-3.008-150.54 3.766-170.109 6.775-19.569 15.807-45.163 39.893-45.163h7.528s-27.852-37.634-82.047-51.937c-54.195-14.303-82.042-9.786-82.042-9.786Z"
     id="path4261" />
  <path
     fill="#2D4462"
     d="m558.169 296.406-39.892-7.244-4.517-9.502h3.762l59.466-108.765-18.819 125.511ZM349.291 130.998l-5.076 22.392 16.742 72.07h26.348s-36.135-96.345-35.381-94.087c.754 2.258-2.633-.375-2.633-.375Z"
     id="path4263" />
  <path
     fill="#8E8E8E"
     d="M471.609 507.731s28.606-16.561 29.356-109.145c.75-92.583 27.847-106.132 34.622-105.378 6.774.755 17.315 3.013 17.315 3.013s-34.631 9.787-35.38 98.603c-.75 88.817 2.262 148.283 37.638 152.799l-48.175 15.807s-34.621-.75-35.376-55.699Zm25.965 93.713s21.041-6.075 34.815 2.068c17.501 10.351 62.921 66.312 80.729 114.225 31.613 85.055-3.013 206.245-58.712 225.059v9.787s17.311 16.561 18.065 24.085c.754 7.524 15.807-16.561 15.807-16.561s49.679-71.506 54.195-142.262c4.516-70.756-14.298-125.706-24.085-138.5-9.787-12.795-51.187-79.03-106.886-115.16l-34.627 24.085 18.066 12.045"
     id="path4265" />
  <path
     fill="#8E8E8E"
     d="M535.777 948.631s37.259 54.759-9.597 50.244c0 0-26.533-11.856-25.969-20.324.565-8.467-3.951 14.678 3.952 27.099 7.904 12.42 29.92 20.89 41.775 16.37 11.856-4.52 27.098-18.06 29.356-29.92 2.258-11.855-5.645-28.791-10.161-33.307-4.517-4.516-19.759-12.984-21.453-12.984-1.693 0-7.903 2.822-7.903 2.822Zm41.21 46.856s18.914 20.893 17.216 31.053c-1.698 10.16 16.796 2.82 17.925-8.47 1.129-11.29-17.852-22.583-17.852-22.583l-17.289-7.339v7.339Z"
     id="path4267" />
  <path
     fill="#8E8E8E"
     d="M548.196 1054.2s5.646-22.58 2.258-31.62c-3.387-9.03 6.775-3.95 6.775-3.95s10.161 15.25 10.726 16.94c.564 1.69 1.694 23.14 1.694 23.14l-15.807 4.52-5.646-9.03Zm-41.775-38.95s5.081 33.3-10.726 38.95c-15.807 5.64 5.081 5.64 10.726 3.95 5.645-1.69 16.372-22.58 16.372-22.58l5.645-15.81-22.017-4.51Zm5.645-105.571c1.129 1.693 3.388 37.259 3.388 37.259l20.887-2.823-6.21-31.049-14.113-9.033-3.952 5.646ZM236.01 575.475s11.29 6.209-9.597 58.711c-20.888 52.502-35.95 121.885-32.743 171.053 3.387 51.937 12.699 128.316 66.05 165.973 19.194 13.549 20.888 29.918 16.936 41.208l31.614 14.68s4.516-36.694 12.984-40.646c8.468-3.951-8.468-5.645-8.468-5.645s-46.856-22.017-54.195-32.178c-7.339-10.162-44.034-71.696-45.727-125.891-1.694-54.195 6.774-134.923 29.92-176.699 23.146-41.775 24.275-53.066 24.275-53.066l-31.049-17.5Zm107.261 363.559s13.549 14.113-5.645 33.872l-2.258 5.645 24.275.565-2.259-31.614-9.032-14.678-5.081 6.21Z"
     id="path4269" />
  <path
     fill="#8E8E8E"
     d="M350.046 980.81s29.92 43.47 0 50.24c-29.921 6.78-36.131-3.38-38.953-7.9l12.419 23.15 21.453 7.33 17.5-3.38 15.807-14.68 6.775-22.02-4.517-19.191-20.887-15.243-9.597 1.694Zm-54.195 91.45s15.242-20.88 12.419-34.43l2.258-5.08 14.114 16.37-12.42 18.06-12.984 11.86-3.387-6.78Zm42.339-15.8s22.017 21.45 6.775 38.95l14.113-6.21 2.258-35.57-20.887 1.7-2.259 1.13Zm42.34-17.5s16.372 23.71 10.162 31.61c-6.21 7.9 6.21 7.34 6.21 7.34s11.855-14.11 11.29-15.81c-.564-1.69-3.951-16.37-3.951-16.37l-19.194-13.55-4.517 6.78Z"
     id="path4271" />
  <path
     fill="#4AB85F"
     d="M583.853 415.843c-8.098-.727-14.47-7.456-14.47-15.748 0-8.278 6.345-14.994 14.424-15.743-.636-23.444-3.789-39.202-16.935-39.202-19.886 0-16.95 35.891-16.95 80.164s-3.595 80.164 16.95 80.164c20.53 0 16.944-35.891 16.944-80.164 0-3.211 0-6.359.046-9.471h-.009Zm-2.736 129.767c2.904-2.601 1.061-9.394-4.115-15.171-5.177-5.778-11.727-8.352-14.63-5.751-2.904 2.602-1.062 9.394 4.115 15.172 5.176 5.777 11.726 8.352 14.63 5.75Zm-40.647-54.195c2.904-2.601 1.061-9.394-4.115-15.172-5.177-5.777-11.727-8.352-14.63-5.75-2.904 2.601-1.061 9.394 4.115 15.171 5.176 5.778 11.726 8.353 14.63 5.751Zm25.289-158.103c2.22-1.989.968-7.009-2.797-11.211s-8.617-5.996-10.837-4.007c-2.22 1.989-.967 7.008 2.797 11.21 3.765 4.202 8.617 5.997 10.837 4.008Zm23.969 7.732c2.902-2.599 1.265-9.162-3.658-14.658-4.923-5.496-11.266-7.844-14.168-5.244-2.902 2.599-1.264 9.162 3.658 14.658 4.923 5.496 11.266 7.844 14.168 5.244Zm-36.845 196.975c4.637-4.155 1.697-15-6.567-24.223-8.264-9.224-18.722-13.333-23.359-9.179-4.637 4.155-1.697 15 6.567 24.223 8.264 9.224 18.722 13.333 23.359 9.179Z"
     id="path4273" />
  <path
     fill="#fff"
     d="M217.949 542.358s-30.697-19.271-38.388-69.248c-7.529-48.925-15.053-115.919 22.581-142.262 12.239-8.568 82.793-4.774 104.629-5.271 33.118-.754 112.906-.754 112.152 25.594 0 0-1.508-48.175-32.368-49.679-30.86-1.504-150.541-.754-150.541-.754s-43.658 1.504-51.937 12.044c-8.278 10.541-35.375 42.905-35.375 89.572 0 46.666 9.027 115.164 34.621 129.467 25.594 14.303 34.626 10.537 34.626 10.537Z"
     id="path4275" />
  <path
     fill="#fff"
     d="M401.289 386.576c5.856-4.313 4.209-16.492-3.679-27.203-7.888-10.711-19.03-15.897-24.886-11.584-5.857 4.313-4.21 16.492 3.678 27.203 7.888 10.711 19.03 15.897 24.887 11.584Zm-3.982 29.514c2.14-2.336-.62-8.348-6.165-13.428-5.544-5.081-11.774-7.307-13.914-4.971-2.14 2.336.62 8.348 6.164 13.428 5.545 5.081 11.775 7.306 13.915 4.971ZM232.368 518.862c4.161-4.54.597-14.578-7.961-22.421-8.558-7.842-18.868-10.52-23.028-5.98-4.161 4.54-.596 14.578 7.961 22.421 8.558 7.842 18.868 10.52 23.028 5.98Zm31.854 9.21c1.65-1.8-1.155-7.054-6.265-11.735-5.109-4.681-10.588-7.015-12.238-5.215-1.649 1.801 1.155 7.055 6.265 11.736 5.109 4.68 10.589 7.015 12.238 5.214Zm95.6-166.594c2.009-2.192.378-6.955-3.642-10.639-4.02-3.684-8.908-4.893-10.916-2.701-2.009 2.193-.378 6.956 3.642 10.639 4.02 3.684 8.907 4.893 10.916 2.701Zm133.619-98.379s15.807-57.958 38.388-103.874l-59.465 88.067 21.077 15.807ZM311.287 122.345s14.303 101.616 24.839 102.37l-26.348 6.02 1.509-108.39Z"
     id="path4277" />
  <path
     fill="#000"
     d="M328.593 442.245c8.107 0 13.549-6.065 13.549-13.549v-63.227c0-7.484-5.442-13.549-13.549-13.549-8.106 0-13.549 6.065-13.549 13.549v63.227c0 7.484 5.443 13.549 13.549 13.549Zm-99.358-13.549v-63.227c0-7.484-5.442-13.549-13.549-13.549-8.106 0-13.548 6.065-13.548 13.549v63.227c0 7.484 5.442 13.549 13.548 13.549 8.107 0 13.549-6.065 13.549-13.549Zm35.571 79.328c1.287 1.622 3.247 1.965 5.311 1.965h.235c2.149 0 4.132-.565 5.351-2.34l24.609-35.226a6.776 6.776 0 0 0-1.747-9.421c-3.085-2.114-7.299-1.342-9.421 1.738l-19.42 28.245-21.818-27.558c-2.331-2.931-6.59-3.5-9.516-1.174-2.931 2.325-3.428 6.435-1.102 9.366l27.518 34.405Zm63.033 507.036c0 9.96 8.106 18.07 18.069 18.07s18.07-8.11 18.07-18.07c0-9.97-8.107-18.074-18.07-18.074-9.963 0-18.069 8.104-18.069 18.074Zm27.107 0c0 4.98-4.052 9.03-9.038 9.03-4.986 0-9.037-4.05-9.037-9.03 0-4.99 4.051-9.04 9.037-9.04 4.986 0 9.038 4.05 9.038 9.04Zm180.279-12.79c1.834 0 3.658-.28 5.42-.84a17.969 17.969 0 0 0 10.608-8.883 17.954 17.954 0 0 0 1.216-13.779c-2.381-7.569-9.309-12.65-17.23-12.65-1.834 0-3.663.28-5.424.836a17.941 17.941 0 0 0-10.604 8.879 17.974 17.974 0 0 0-1.22 13.779c2.385 7.569 9.308 12.658 17.234 12.658Zm-8.012-22.255a8.953 8.953 0 0 1 5.302-4.44 8.993 8.993 0 0 1 2.719-.42 8.995 8.995 0 0 1 8.613 6.327 8.959 8.959 0 0 1-.606 6.888 8.979 8.979 0 0 1-5.306 4.444c-.885.28-1.793.42-2.714.42a8.999 8.999 0 0 1-8.617-6.327 9.013 9.013 0 0 1 .609-6.892Z"
     id="path4279" />
  <path
     fill="#000"
     d="m605.86 999.055-27.364-14.271c0-1.793-.045-3.591-.248-5.384 57.709-77.905 80.299-155.192 67.017-229.765-18.097-101.58-98.744-168.312-123.733-186.824 11.991-2.719 36.862-8.468 50.501-11.62a42.58 42.58 0 0 0 6.193-1.432c1.756-.406 2.88-.668 3.169-.736l-.085-.37c32.495-13.418 35.565-68.349 35.574-124.464 0-62.401-.045-121.469-45.04-127.106-1.879-.442-5.176-1.224-9.403-2.217L601.023 49.29a4.524 4.524 0 0 0-2.89-4.937 4.512 4.512 0 0 0-5.41 1.852L469.311 244.704a211.406 211.406 0 0 0-79.762-24.239L315.483 29.59c-.786-2.024-2.9-3.067-5.036-2.665-2.132.397-3.681 2.538-3.69 4.706l-.718 197.401c-39.824 12.357-75.16 36.324-101.426 69.867l.47.37c-19.953 4.932-60.897 25.838-60.897 114.483 0 95.532 34.431 132.769 66.068 136.549 6.119 7.154 12.704 13.802 19.659 19.98-3.902 5.126-17.64 24.18-31.519 55.695-14.768 33.533-32.373 88.035-32.373 157.256 0 136.391 42.652 212.639 138.126 246.798l-20.4 20.39c-7.19 7.19-7.312 18.77-.271 25.82 3.636 3.63 8.274 5.44 12.885 5.44 4.484 0 8.942-1.72 12.402-5.18l19.84-19.84v26.52c0 10.17 8.102 18.45 18.065 18.45 10.13 0 18.065-7.77 18.065-17.7v-26.52l19.09 19.09c3.459 3.46 7.912 5.18 12.401 5.18 4.611 0 9.254-1.81 12.885-5.44 7.046-7.05 6.919-18.63-.271-25.82l-21.831-21.82a43.047 43.047 0 0 0 2.195-13.54c0-17.116-10.017-31.898-24.469-38.916v-28.078c0-10.17-8.103-18.444-18.065-18.444-10.13 0-18.065 7.772-18.065 17.69v28.1a43.09 43.09 0 0 0-7.665 4.358c-69.776-19.862-103.734-84.914-103.734-198.81 0-92.082 45.691-170.34 53.161-182.516 29.943 15.88 63.797 24.447 98.888 24.447 38.863 0 76.118-10.437 108.413-29.862 17.758 12.533 96.766 72.857 114.578 165.043 11.575 59.939-4.742 121.736-48.442 183.694a44.705 44.705 0 0 0-2.308-.406l-8.4-26.723c-1.445-4.598-4.593-8.409-8.861-10.74-4.353-2.38-9.294-2.881-13.905-1.436-4.598 1.445-8.369 4.507-10.618 8.622-2.294 4.2-2.759 9.055-1.31 13.67l8.428 26.809c-12.556 10.965-18.196 28.714-12.89 45.61a43.538 43.538 0 0 0 6.481 12.758l-13.892 26.64c-4.697 9.01-1.337 20.09 7.493 24.71 2.786 1.45 5.735 2.14 8.612 2.14 6.386 0 12.425-3.41 15.586-9.48l12.97-24.87 7.954 25.29c2.488 7.9 9.723 12.99 17.459 12.99 1.762 0 3.546-.26 5.307-.81 9.66-3.04 14.899-12.83 11.927-22.3l-7.948-25.29 23.927 12.48c2.57 1.34 5.347 2.02 8.138 2.02 1.865 0 3.735-.31 5.555-.92 4.444-1.5 8.125-4.67 10.351-8.94 2.236-4.29 2.597-9.24 1.026-13.94-1.554-4.61-4.756-8.37-9.024-10.595ZM583.085 891.69c5.365 4.904 15.901 12.772 29.428 14.045-3.681 7.8-7.813 15.613-12.244 23.44-13.779-1.73-24.098-11.395-28.064-15.676a307.406 307.406 0 0 0 10.88-21.809Zm-.213-189.688c6.368-1.842 19.38-6.688 30.928-17.609 4.065 8.084 7.826 16.512 11.132 25.318l-.839-.862c-13.265 12.835-27.852 13.811-32.504 13.761a237.207 237.207 0 0 0-8.717-20.608Zm-15.73-28.082c6.856-2.249 19.208-7.718 28.914-19.926a292.475 292.475 0 0 1 13.349 22.031c-11.728 12.067-26.167 16.57-30.683 17.731a266.597 266.597 0 0 0-11.58-19.836Zm-5.225-7.863a308.409 308.409 0 0 0-12.925-17.419c6.426-2.836 18.019-9.574 25.453-23.394a330.408 330.408 0 0 1 16.191 20.888c-9.769 13.797-24.058 18.661-28.719 19.925Zm65.825 51.671a234.587 234.587 0 0 1 7.989 30.327c-12.827 9.037-29.455 6.318-35.371 4.927a214.027 214.027 0 0 0-5.7-21.448c7.239-.479 20.513-2.972 33.082-13.806Zm-14.335 45.844c7.33 0 15.92-1.363 23.922-5.853a228.779 228.779 0 0 1 2.435 28.697l-.474-1.161c-15.694 6.472-29.776 1.983-34.753-.059a210.458 210.458 0 0 0-2.416-22.631 65.278 65.278 0 0 0 11.286 1.007Zm-8.586 31.352c4.223 1.373 10.207 2.769 17.334 2.769 5.374 0 11.39-.881 17.699-3.076a237.435 237.435 0 0 1-1.991 27.486c-16.124 8.807-31.144-1.648-34.211-4.028a209.38 209.38 0 0 0 1.169-23.151Zm-2.438 33.213c5.623 3.365 13.531 6.431 22.301 6.431 3.735 0 7.628-.646 11.562-1.969-1.595 9.087-3.722 18.21-6.359 27.364l-.095-.303c-17.803 5.772-31.438-8.35-32.011-8.955l-.113.108c1.969-7.574 3.55-15.134 4.715-22.676Zm-7.434 32.124c4.914 3.925 14.281 9.832 26.181 9.832a35.7 35.7 0 0 0 5.745-.47 303.145 303.145 0 0 1-10.415 27.233c-14.908.086-26.492-10.843-29.572-14.054 3.08-7.524 5.776-15.039 8.061-22.541Zm.483 77.242c-3.532 5.916-7.303 11.837-11.263 17.762-15.442-1.197-25.761-11.327-28.692-14.578 4.286-6.337 8.315-12.677 12.045-19.009 5.225 5.189 14.976 13.101 27.91 15.825Zm-16.918 26.135c-1.016 1.45-2.109 2.9-3.148 4.35a42.865 42.865 0 0 0-2.894-5.849 48.368 48.368 0 0 0 6.042 1.499Zm-10.5-345.823c-7.009 15.919-21.077 22.062-25.038 23.511a338.189 338.189 0 0 0-14.655-16.163c6.846-3.36 17.437-10.406 24.166-23.72a359.317 359.317 0 0 1 15.527 16.372Zm-191.797-4.119c-.334-.258-.659-.529-1.074-.687-31.149-12.017-58.378-33.574-79.302-62.378h74.234a58.21 58.21 0 0 0 27.125-6.684c14.429 20.639 32.729 38.758 53.446 52.921-23.201 10.198-48.383 15.956-74.429 16.828Zm28.611-74.6c14.014-10.423 23.123-26.917 23.123-45.515v-140.32c0-18.535-9.05-34.631-23.182-44.67 15.834-22.595 36.41-41.916 59.877-56.16 15.631 8.364 30.151 18.77 43.063 31.063-7.326.104-13.956 2.538-19.773 7.303-20.097 16.47-29.87 60.097-29.879 133.378 0 54.981 3.319 113.864 27.964 133.736 4.553 3.667 9.683 5.916 15.324 6.774-12.605 11.015-26.447 20.269-41.184 27.703-21.543-13.865-40.538-32.214-55.333-53.292Zm-15.545-309.608c23.006 2.29 45.303 8.536 65.933 18.219-22.735 14.673-42.683 33.931-58.21 56.227-8.008-3.956-17.139-6.209-26.931-6.209h-74.943c19.186-27.08 49.964-58.224 94.151-68.237ZM498.486 554.7l40.249-10.166a37.696 37.696 0 0 0 6.495 3.568c-13.829 3.188-27.446 6.313-31.303 7.149-5.812 1.255-10.911 1.066-15.441-.551Zm-9.872-6.824c-5.817-6.3-10.08-15.925-13.206-27.617l43.501-7.298c2.7 9.633 6.512 17.875 11.851 24.27l-42.146 10.645Zm-15.284-36.428c-2.294-11.147-3.779-23.62-4.714-36.627l44.521-1.893c.646 11.187 1.757 21.719 3.672 31.23l-43.479 7.29Zm-6.218-82.752h45.14c0 12.031.059 23.882.47 35.209l-44.671 1.897c-.655-12.366-.894-24.953-.939-37.106Zm45.149-9.032h-45.127c.077-12.885.47-24.804 1.179-35.756l44.679 3.776c-.515 10.383-.691 21.136-.731 31.98Zm1.269-41.003-44.553-3.763c1.115-13.07 2.714-24.654 4.819-34.648l43.902 6.453c-2.059 9.796-3.36 20.586-4.168 31.958Zm6.318-40.773-43.93-6.459c2.602-9.741 5.786-17.663 9.534-23.787l43.831 8.139c-4.002 6.196-7.082 13.67-9.435 22.107Zm15.866-30.097-43.984-8.17c.641-.623 1.265-1.287 1.933-1.833 5.772-4.729 12.433-6.246 20.346-4.67 6.295 1.26 19.934 4.376 32.35 7.258a37.613 37.613 0 0 0-10.645 7.415Zm65.942 30.643c5.74 20.983 6.192 49.995 6.187 85.746 0 65.572-5.831 108.774-32.951 117.066-1.255.289-2.737.632-4.412 1.021a38.394 38.394 0 0 1-5.921.465c-19.442 0-30.878-10.117-37.083-32.806-5.74-20.978-6.196-49.995-6.192-85.746.005-73.191 7.244-118.552 43.284-118.552 1.965 0 3.821.131 5.623.339.691.167 1.196.284 1.233.293l.045-.158c15.319 2.24 24.763 12.465 30.196 32.332h-.009Zm-79.387-52.795.158-.149c-1.229-1.319-2.534-2.57-3.798-3.857l40.172-77.806a4.517 4.517 0 0 0-1.883-6.056l-12.623-6.752 41.852-105.225-32.522 206.994c-10.473-2.438-22.834-5.288-31.356-7.149Zm50.022-189.475-37.887 95.266a4.518 4.518 0 0 0 2.069 5.65l12.257 6.557-36.871 71.42a206.349 206.349 0 0 0-34.685-25.9l95.117-152.993Zm-203.047 123.28c-2.028 0-4.037.113-6.051.167l-15.139-67.396a4.525 4.525 0 0 0-2.258-2.985 4.553 4.553 0 0 0-3.735-.258l-6.91 2.593-13.756-81.894 58.196 150.035a213.187 213.187 0 0 0-10.347-.262Zm-53.671-129.91 11.575 68.932a4.531 4.531 0 0 0 2.2 3.166 4.503 4.503 0 0 0 3.843.316l7.19-2.697 13.648 60.785a212.974 212.974 0 0 0-38.957 6.399l.501-136.901Zm-6.106 147.876c1.061-.28 2.001-.47 4.95-1.472 15.572-4.332 31.822-6.775 48.455-7.285-36.6 15.707-62.352 44.67-78.701 69.072h-66.858c24.613-28.746 56.494-49.399 92.154-60.315ZM153.213 413.738c0-105.603 59.927-106.976 62.474-106.981h154.388c27.387 0 48.844 20.427 48.844 46.509v140.32c0 26.926-21.457 48.017-48.844 48.017H215.687c-6.395 0-62.474-3.586-62.474-127.865Zm69.438 136.897h62.022c18.39 27.057 42.01 48.392 69.099 62.573-50.348-3.798-97.05-26.009-131.121-62.573Zm27.847 65.156a422.092 422.092 0 0 0-9.019 19.064c-7.032-.949-20.296-3.988-30.923-13.468 3.772-8.003 7.457-15.044 10.853-21.073 10.55 10.975 23.101 14.425 29.089 15.477Zm-43.853 14.163c10.808 8.726 23.119 12.149 31.14 13.495a425.4 425.4 0 0 0-8.725 22.73c-4.792-.655-19.429-3.419-31.465-13.567a364.895 364.895 0 0 1 9.05-22.658Zm29.433 292.424c-3.446 4.281-13.766 15.445-29.288 18.467-4.724-8.437-8.865-17.505-12.501-27.175 1.124.086 2.244.159 3.319.159 13.892 0 23.774-6.581 29.225-11.494 2.773 7.09 5.853 13.77 9.245 20.043Zm4.828 8.251c4.164 6.68 8.734 12.831 13.707 18.467-3.356 6.07-11.332 17.735-25.256 23.051a164.9 164.9 0 0 1-17.703-23.146c14.181-3.69 24.148-12.695 29.252-18.372Zm-49.955-26.465c-2.759-8.455-5.148-17.37-7.172-26.746 2.326.28 4.589.47 6.716.47 12.325 0 21.303-4.29 26.529-7.727a241.853 241.853 0 0 0 6.422 22.811c-3.265 3.659-14.606 14.403-32.495 11.192Zm17.424-108.616c-5.221 2.303-17.514 6.453-33.113 3.522a645.033 645.033 0 0 1-.217-15.843c0-4.426.09-8.784.23-13.092 6.572 1.851 12.718 2.542 18.124 2.542 6.07 0 11.164-.835 14.949-1.729a294.46 294.46 0 0 0-.181 10.021c-.004 4.954.086 9.791.208 14.579Zm-22.337 13.594c9.606 0 17.455-2.078 22.676-4.002.384 8.423.984 16.548 1.784 24.397-2.489 1.26-14.615 6.698-33.285 3.929a499.449 499.449 0 0 1-1.667-25.183c3.672.583 7.19.859 10.492.859Zm1.418 34.156c11.286 0 19.555-2.534 24.112-4.372.944 7.439 2.069 14.629 3.41 21.529-3.049 2.611-14.515 10.957-33.068 7.588a368.003 368.003 0 0 1-3.771-25.386c3.265.388 6.417.641 9.317.641Zm21.362-81.817c-5.506 1.622-18.142 4.137-33.132-.655a392.634 392.634 0 0 1 2.281-25.485c7.827 3.5 15.477 4.656 22.044 4.656 4.25 0 8.034-.469 11.141-1.056-1.016 7.375-1.824 14.89-2.334 22.54Zm-29.591-35.57a384.553 384.553 0 0 1 5.244-28.168c11.999 8.193 25.227 9.787 32.458 9.954a355.788 355.788 0 0 0-4.304 21.642c-6.341 1.608-19.899 3.6-33.398-3.428Zm39.924-27.251c-5.609.068-20.445-.804-32.395-10.505a377.03 377.03 0 0 1 7.709-26.469c11.973 8.996 25.21 12.135 31.641 13.187a394.028 394.028 0 0 0-6.955 23.787Zm90.406 292.984a89.502 89.502 0 0 0 1.445-5.506c.71.24 1.414.493 2.137.723a43.907 43.907 0 0 0-3.582 4.783Zm-6.634 28.326c-1.933-.73-3.83-1.49-5.713-2.25a80.939 80.939 0 0 0 6.119-10.25c-.442 2.47-.708 4.99-.708 7.59.004 1.66.117 3.29.302 4.91Zm-14.244-5.9c-8.59-3.88-16.656-8.17-24.203-12.89 11.173-9.094 16.552-21.121 18.837-27.886 6.007 3.681 12.393 6.897 19.136 9.665-1.229 5.718-4.9 19.251-13.77 31.111Zm13.688 56.04c-3.436 3.43-8.933 3.31-12.514-.27-3.46-3.46-3.338-9.43.271-13.04l19.018-19.01c3.211 5.17 7.447 9.65 12.478 13.07l-19.253 19.25Zm44.291 22.48c-4.895 0-9.032-4.31-9.032-9.42v-25.64c2.683.52 5.446.81 8.283.81 3.369 0 6.634-.42 9.782-1.15v26.74c0 4.85-3.97 8.66-9.033 8.66Zm55.785-35.79c3.609 3.61 3.726 9.58.271 13.05-3.577 3.58-9.073 3.7-12.514.26l-19.569-19.57c4.986-3.48 9.177-8 12.325-13.21l19.487 19.47Zm-22.283-41.74c0 18.88-15.364 34.25-34.251 34.25-18.887 0-34.252-15.37-34.252-34.25 0-18.891 15.365-34.255 34.252-34.255s34.251 15.369 34.251 34.255Zm-42.534-67.748c0-4.855 3.97-8.658 9.032-8.658 4.896 0 9.033 4.313 9.033 9.412v24.867c-3.148-.732-6.413-1.156-9.782-1.156-2.837 0-5.6.293-8.283.817v-25.282Zm-62.153 20.743c-1.395 4.855-6.368 18.919-18.968 27.866-7.334-5.14-14.145-10.736-20.423-16.823 12.781-6.016 20.748-16.196 24.989-23.142 4.503 4.413 9.312 8.428 14.402 12.099Zm-20.964-359.977.054-.841c-.176-.013-16.557-1.291-28.371-15.102 4.94-8.134 8.779-13.526 10.622-15.996 8.12 6.602 16.692 12.586 25.679 17.866-1.571 2.574-4.398 7.366-7.984 14.073Zm257.571-40.976c2.2 1.549 5.618 4.046 9.886 7.379-6.584 12.975-19.063 19.528-24.925 21.99-4.399-3.564-8.211-6.477-11.173-8.644a206.611 206.611 0 0 0 26.212-20.725Zm-7.352 35.786c7.321-3.685 17.771-10.685 24.415-22.626a355.137 355.137 0 0 1 16.48 14.56c-6.4 14.963-19.041 21.421-24.113 23.485a353.148 353.148 0 0 0-16.782-15.419Zm2.285 319.16c-.709-2.253-.488-4.607.618-6.63 1.125-2.055 3.04-3.595 5.398-4.335 2.253-.709 4.687-.443 6.869.745 2.172 1.188 3.843 3.202 4.57 5.523l7.483 23.801c-3.278.253-6.534.754-9.7 1.748a43.368 43.368 0 0 0-7.655 3.26l-7.583-24.112Zm17.943 29.469a34.212 34.212 0 0 1 10.275-1.586c15.025 0 28.154 9.643 32.666 23.991 2.741 8.73 1.928 18.002-2.303 26.108-4.237 8.12-11.373 14.1-20.098 16.84a34.37 34.37 0 0 1-10.284 1.59c-15.021 0-28.15-9.65-32.661-23.994-5.659-18.02 4.39-37.286 22.405-42.949Zm-14.75 98.253c-2.245 4.3-7.52 5.83-12.013 3.5-4.341-2.27-6.016-8-3.663-12.53l12.392-23.75c4.575 3.96 9.977 6.91 15.862 8.66l-12.578 24.12Zm48.992 8.15c-4.674 1.47-9.913-1.4-11.44-6.26l-7.718-24.55c2.76-.31 5.501-.79 8.175-1.63 3.184-1 6.178-2.38 8.987-4.03l8.012 25.5c1.454 4.64-1.188 9.46-6.016 10.97Zm46.649-38.5c-1.143 2.19-2.995 3.81-5.217 4.56-2.19.73-4.547.54-6.638-.56l-24.528-12.79c1.544-2 2.944-4.13 4.141-6.42 1.653-3.17 2.845-6.492 3.667-9.879l24.406 12.729c2.159 1.12 3.843 3.11 4.629 5.46.795 2.36.628 4.81-.46 6.9Z"
     id="path4281" />
  <path
     fill="#2A3747"
     d="M524.342 1033.19V932.634l-3.929-2.271-79.216-45.732-3.938-2.272-3.934 2.272-79.215 45.732-3.929 2.271v100.556l3.929 2.27 79.215 45.74 3.934 2.26 3.938-2.26 79.216-45.74 3.929-2.27Z"
     id="path4283" />
  <path
     fill="#4AB657"
     d="m503.142 942.037-63.426-36.618a4.923 4.923 0 0 0-4.914 0l-63.431 36.618a4.909 4.909 0 0 0-2.457 4.254v73.239c0 1.76.935 3.38 2.457 4.26l63.431 36.61c.758.45 1.603.66 2.452.66.85 0 1.698-.21 2.462-.66l63.426-36.61a4.907 4.907 0 0 0 2.448-4.26v-73.239a4.9 4.9 0 0 0-2.448-4.254Z"
     id="path4285" />
  <path
     fill="#4AB657"
     d="m525.317 928.665-85.109-49.142a5.883 5.883 0 0 0-5.899 0l-85.117 49.142a5.891 5.891 0 0 0-2.945 5.103v98.282a5.9 5.9 0 0 0 2.945 5.11l85.117 49.14c.908.52 1.934.79 2.946.79 1.025 0 2.041-.27 2.948-.79l85.109-49.14a5.894 5.894 0 0 0 2.959-5.11v-98.282a5.879 5.879 0 0 0-2.954-5.103Zm-8.838 99.985-79.22 45.73-79.215-45.73v-91.477l79.215-45.736 79.22 45.736v91.477Z"
     id="path4287" />
  <g
     id="id3"
     transform="matrix(0.00604575,0,0,0.00674574,375.69202,881.24355)">
    <rect
       class="BoundingBox"
       x="3540"
       y="8112"
       width="13971"
       height="13971"
       id="rect2864"
       style="fill:none;stroke:none" />
    <path
       d="M 10525,22082 H 3540 V 8112 h 13970 v 13970 z"
       id="path2866"
       inkscape:connector-curvature="0"
       style="fill:#ffffff;stroke:none" />
  </g>
  <rect
     style="fill:none;stroke:none;stroke-width:0.00638615"
     id="rect2871"
     height="79.545792"
     width="78.20771"
     y="939.0343"
     x="399.83252"
     class="BoundingBox" />
  <path
     style="fill:#ffffff;stroke:none;stroke-width:0.00638615"
     inkscape:connector-curvature="0"
     id="path2873"
     d="m 477.71386,978.80721 c 0,6.91438 -1.78953,13.71409 -5.1933,19.70429 -3.40374,5.9902 -8.30079,10.9619 -14.19539,14.4224 -5.8946,3.4606 -12.58119,5.282 -19.38868,5.282 -6.80747,0 -13.49406,-1.8214 -19.38866,-5.282 -5.8946,-3.4605 -10.79165,-8.4322 -14.19541,-14.4224 -3.40375,-5.9902 -5.19328,-12.78991 -5.19328,-19.70429 0,-6.92113 1.78953,-13.72083 5.19328,-19.71105 3.40376,-5.99023 8.30081,-10.96184 14.19541,-14.4224 5.8946,-3.46057 12.58119,-5.28191 19.38866,-5.28191 6.80749,0 13.49408,1.82134 19.38868,5.28191 5.8946,3.46056 10.79165,8.43217 14.19539,14.4224 3.40377,5.99022 5.1933,12.78992 5.1933,19.70431 z" />
  <path
     style="fill:none;stroke:#1c1c1c;stroke-width:0.67693275;stroke-linejoin:round"
     inkscape:connector-curvature="0"
     id="path2875"
     d="m 477.71386,978.80721 c 0,6.91438 -1.78953,13.71409 -5.1933,19.70429 -3.40374,5.9902 -8.30079,10.9619 -14.19539,14.4224 -5.8946,3.4606 -12.58119,5.282 -19.38868,5.282 -6.80747,0 -13.49406,-1.8214 -19.38866,-5.282 -5.8946,-3.4605 -10.79165,-8.4322 -14.19541,-14.4224 -3.40375,-5.9902 -5.19328,-12.78991 -5.19328,-19.70429 0,-6.92113 1.78953,-13.72083 5.19328,-19.71105 3.40376,-5.99023 8.30081,-10.96184 14.19541,-14.4224 5.8946,-3.46057 12.58119,-5.28191 19.38866,-5.28191 6.80749,0 13.49408,1.82134 19.38868,5.28191 5.8946,3.46056 10.79165,8.43217 14.19539,14.4224 3.40377,5.99022 5.1933,12.78992 5.1933,19.70431 z" />
  <g
     transform="matrix(0.00604575,0,0,0.00674574,375.69202,881.24355)"
     id="g2935"
     class="com.sun.star.drawing.LineShape">
    <g
       id="id5">
      <rect
         style="fill:none;stroke:none"
         id="rect2880"
         height="29"
         width="11586"
         y="9876"
         x="4669"
         class="BoundingBox" />
      <path
         style="fill:none;stroke:#1c1c1c;stroke-width:28;stroke-linejoin:round"
         inkscape:connector-curvature="0"
         id="path2882"
         d="m 4683,9890 h 308" />
      <path
         style="fill:none;stroke:#1c1c1c;stroke-width:28;stroke-linejoin:round"
         inkscape:connector-curvature="0"
         id="path2884"
         d="m 5131,9890 h 308" />
      <path
         style="fill:none;stroke:#1c1c1c;stroke-width:28;stroke-linejoin:round"
         inkscape:connector-curvature="0"
         id="path2886"
         d="m 5579,9890 h 308" />
      <path
         style="fill:none;stroke:#1c1c1c;stroke-width:28;stroke-linejoin:round"
         inkscape:connector-curvature="0"
         id="path2888"
         d="m 6027,9890 h 308" />
      <path
         style="fill:none;stroke:#1c1c1c;stroke-width:28;stroke-linejoin:round"
         inkscape:connector-curvature="0"
         id="path2890"
         d="m 6475,9890 h 308" />
      <path
         style="fill:none;stroke:#1c1c1c;stroke-width:28;stroke-linejoin:round"
         inkscape:connector-curvature="0"
         id="path2892"
         d="m 6923,9890 h 308" />
      <path
         style="fill:none;stroke:#1c1c1c;stroke-width:28;stroke-linejoin:round"
         inkscape:connector-curvature="0"
         id="path2894"
         d="m 7371,9890 h 308" />
      <path
         style="fill:none;stroke:#1c1c1c;stroke-width:28;stroke-linejoin:round"
         inkscape:connector-curvature="0"
         id="path2896"
         d="m 7819,9890 h 308" />
      <path
         style="fill:none;stroke:#1c1c1c;stroke-width:28;stroke-linejoin:round"
         inkscape:connector-curvature="0"
         id="path2898"
         d="m 8267,9890 h 308" />
      <path
         style="fill:none;stroke:#1c1c1c;stroke-width:28;stroke-linejoin:round"
         inkscape:connector-curvature="0"
         id="path2900"
         d="m 8715,9890 h 308" />
      <path
         style="fill:none;stroke:#1c1c1c;stroke-width:28;stroke-linejoin:round"
         inkscape:connector-curvature="0"
         id="path2902"
         d="m 9163,9890 h 308" />
      <path
         style="fill:none;stroke:#1c1c1c;stroke-width:28;stroke-linejoin:round"
         inkscape:connector-curvature="0"
         id="path2904"
         d="m 9611,9890 h 308" />
      <path
         style="fill:none;stroke:#1c1c1c;stroke-width:28;stroke-linejoin:round"
         inkscape:connector-curvature="0"
         id="path2906"
         d="m 10059,9890 h 308" />
      <path
         style="fill:none;stroke:#1c1c1c;stroke-width:28;stroke-linejoin:round"
         inkscape:connector-curvature="0"
         id="path2908"
         d="m 10507,9890 h 308" />
      <path
         style="fill:none;stroke:#1c1c1c;stroke-width:28;stroke-linejoin:round"
         inkscape:connector-curvature="0"
         id="path2910"
         d="m 10955,9890 h 308" />
      <path
         style="fill:none;stroke:#1c1c1c;stroke-width:28;stroke-linejoin:round"
         inkscape:connector-curvature="0"
         id="path2912"
         d="m 11403,9890 h 308" />
      <path
         style="fill:none;stroke:#1c1c1c;stroke-width:28;stroke-linejoin:round"
         inkscape:connector-curvature="0"
         id="path2914"
         d="m 11851,9890 h 308" />
      <path
         style="fill:none;stroke:#1c1c1c;stroke-width:28;stroke-linejoin:round"
         inkscape:connector-curvature="0"
         id="path2916"
         d="m 12299,9890 h 308" />
      <path
         style="fill:none;stroke:#1c1c1c;stroke-width:28;stroke-linejoin:round"
         inkscape:connector-curvature="0"
         id="path2918"
         d="m 12747,9890 h 308" />
      <path
         style="fill:none;stroke:#1c1c1c;stroke-width:28;stroke-linejoin:round"
         inkscape:connector-curvature="0"
         id="path2920"
         d="m 13195,9890 h 308" />
      <path
         style="fill:none;stroke:#1c1c1c;stroke-width:28;stroke-linejoin:round"
         inkscape:connector-curvature="0"
         id="path2922"
         d="m 13643,9890 h 308" />
      <path
         style="fill:none;stroke:#1c1c1c;stroke-width:28;stroke-linejoin:round"
         inkscape:connector-curvature="0"
         id="path2924"
         d="m 14091,9890 h 308" />
      <path
         style="fill:none;stroke:#1c1c1c;stroke-width:28;stroke-linejoin:round"
         inkscape:connector-curvature="0"
         id="path2926"
         d="m 14539,9890 h 308" />
      <path
         style="fill:none;stroke:#1c1c1c;stroke-width:28;stroke-linejoin:round"
         inkscape:connector-curvature="0"
         id="path2928"
         d="m 14987,9890 h 308" />
      <path
         style="fill:none;stroke:#1c1c1c;stroke-width:28;stroke-linejoin:round"
         inkscape:connector-curvature="0"
         id="path2930"
         d="m 15435,9890 h 308" />
      <path
         style="fill:none;stroke:#1c1c1c;stroke-width:28;stroke-linejoin:round"
         inkscape:connector-curvature="0"
         id="path2932"
         d="m 15883,9890 h 308" />
    </g>
  </g>
  <g
     transform="matrix(0.00604575,0,0,0.00674574,375.69202,881.24355)"
     id="g2942"
     class="com.sun.star.drawing.OpenBezierShape">
    <g
       id="id6">
      <rect
         style="fill:none;stroke:none"
         id="rect2937"
         height="4349"
         width="9681"
         y="17749"
         x="5685"
         class="BoundingBox" />
      <path
         style="fill:none;stroke:#1c1c1c;stroke-width:28;stroke-linejoin:round"
         inkscape:connector-curvature="0"
         id="path2939"
         d="m 5699,22082 c 4826,-9716 9652,0 9652,0" />
    </g>
  </g>
  <g
     transform="matrix(0.00604575,0,0,0.00674574,375.69202,881.24355)"
     id="id7">
    <rect
       class="BoundingBox"
       x="5191"
       y="10271"
       width="10796"
       height="8637"
       id="rect2944"
       style="fill:none;stroke:none" />
    <text
       class="TextShape"
       id="text2952">
      <tspan
         class="TextParagraph"
         font-size="7938px"
         font-style="italic"
         font-weight="400"
         id="tspan2950"
         style="font-style:italic;font-weight:400;font-size:7938px;font-family:FreeSerif, serif">
        <tspan
           class="TextPosition"
           x="7803"
           y="16746"
           id="tspan2948">
          <tspan
             id="tspan2946"
             style="fill:#000000;stroke:none">D</tspan>
        </tspan>
      </tspan>
    </text>
  </g>
  <g
     transform="matrix(0.00604575,0,0,0.00674574,375.69202,881.24355)"
     id="g2968"
     class="com.sun.star.drawing.TextShape">
    <g
       id="id8">
      <rect
         style="fill:none;stroke:none"
         id="rect2957"
         height="1416"
         width="3234"
         y="18399"
         x="8689"
         class="BoundingBox" />
      <text
         id="text2965"
         class="TextShape">
        <tspan
           style="font-style:italic;font-weight:400;font-size:1164px;font-family:FreeSerif, serif"
           id="tspan2963"
           font-weight="400"
           font-style="italic"
           font-size="1164px"
           class="TextParagraph">
          <tspan
             id="tspan2961"
             y="19455"
             x="8939"
             class="TextPosition">
            <tspan
               style="fill:#000000;stroke:none"
               id="tspan2959">Reads</tspan>
          </tspan>
        </tspan>
      </text>
    </g>
  </g>
</svg>
