<?xml version="1.0" encoding="UTF-8" standalone="no"?>
<!-- Created with Inkscape (http://www.inkscape.org/) -->

<svg
   xmlns:dc="http://purl.org/dc/elements/1.1/"
   xmlns:cc="http://creativecommons.org/ns#"
   xmlns:rdf="http://www.w3.org/1999/02/22-rdf-syntax-ns#"
   xmlns:svg="http://www.w3.org/2000/svg"
   xmlns="http://www.w3.org/2000/svg"
   xmlns:sodipodi="http://sodipodi.sourceforge.net/DTD/sodipodi-0.dtd"
   xmlns:inkscape="http://www.inkscape.org/namespaces/inkscape"
   width="210mm"
   height="297mm"
   viewBox="0 0 210 297"
   version="1.1"
   id="svg8"
   inkscape:version="0.92.5 (2060ec1f9f, 2020-04-08)"
   sodipodi:docname="cabal-logo.svg">
  <defs
     id="defs2" />
  <sodipodi:namedview
     id="base"
     pagecolor="#ffffff"
     bordercolor="#666666"
     borderopacity="1.0"
     inkscape:pageopacity="0.0"
     inkscape:pageshadow="2"
     inkscape:zoom="2.8"
     inkscape:cx="289.98405"
     inkscape:cy="274.19121"
     inkscape:document-units="mm"
     inkscape:current-layer="layer1"
     showgrid="false"
     inkscape:window-width="2560"
     inkscape:window-height="1380"
     inkscape:window-x="0"
     inkscape:window-y="0"
     inkscape:window-maximized="1" />
  <metadata
     id="metadata5">
    <rdf:RDF>
      <cc:Work
         rdf:about="">
        <dc:format>image/svg+xml</dc:format>
        <dc:type
           rdf:resource="http://purl.org/dc/dcmitype/StillImage" />
        <dc:title></dc:title>
      </cc:Work>
    </rdf:RDF>
  </metadata>
  <g
     inkscape:label="Layer 1"
     inkscape:groupmode="layer"
     id="layer1">
    <g
       id="g3828"
       transform="matrix(4.7924692,0,0,4.7924692,-4815.4658,-1681.9186)">
      <polygon
         id="polygon3826"
         points="1046.343,391.843 1046.343,371.588 1046.343,370.583 1045.473,370.08 1027.933,359.954 1027.061,359.451 1026.19,359.954 1008.65,370.08 1007.78,370.583 1007.78,371.588 1007.78,391.843 1007.78,392.848 1008.65,393.35 1026.19,403.478 1027.061,403.98 1027.933,403.478 1045.473,393.35 1046.343,392.848 "
         style="fill:#2a3747" />
    </g>
    <g
       id="g3832"
       transform="matrix(4.7924692,0,0,4.7924692,-4815.4658,-1681.9186)">
      <path
         id="path3830"
         d="m 1041.649,372.665 -14.044,-8.108 c -0.336,-0.194 -0.752,-0.194 -1.088,0 l -14.045,8.108 c -0.337,0.195 -0.544,0.553 -0.544,0.942 v 16.217 c 0,0.389 0.207,0.748 0.544,0.942 l 14.045,8.108 c 0.168,0.098 0.355,0.145 0.543,0.145 0.188,0 0.376,-0.047 0.545,-0.145 l 14.044,-8.108 c 0.337,-0.194 0.542,-0.553 0.542,-0.942 v -16.217 c 0,-0.389 -0.205,-0.747 -0.542,-0.942 z"
         inkscape:connector-curvature="0"
         style="fill:#4ab657" />
    </g>
    <g
       id="g3836"
       transform="matrix(4.7924692,0,0,4.7924692,-4815.4658,-1681.9186)">
      <path
         id="path3834"
         d="m 1046.559,369.704 -18.845,-10.881 c -0.405,-0.234 -0.901,-0.234 -1.306,0 l -18.847,10.881 c -0.403,0.232 -0.652,0.664 -0.652,1.13 v 21.762 c 0,0.467 0.249,0.898 0.652,1.132 l 18.847,10.879 c 0.201,0.117 0.428,0.176 0.652,0.176 0.227,0 0.452,-0.059 0.653,-0.176 l 18.845,-10.879 c 0.405,-0.234 0.655,-0.666 0.655,-1.132 v -21.762 c 10e-4,-0.466 -0.249,-0.897 -0.654,-1.13 z m -1.957,22.139 -17.541,10.126 -17.54,-10.126 v -20.255 l 17.54,-10.127 17.541,10.127 z"
         inkscape:connector-curvature="0"
         style="fill:#4ab657" />
    </g>
    <g
       id="g3848"
       transform="matrix(1.1949276,0,0,1.1949276,-1111.5721,-196.0604)" />
    <rect
       style="opacity:1;fill:#4ab657;fill-opacity:1;stroke:none;stroke-width:1.06115842"
       id="rect1924"
       width="3.6003587"
       height="1.705433"
       x="105.0611"
       y="216.38103" />
    <rect
       style="opacity:1;fill:#4ab657;fill-opacity:1;stroke:none;stroke-width:1.06115842"
       id="rect1926"
       width="8.5271654"
       height="1.1369553"
       x="97.29155"
       y="206.14839" />
    <path
       id="path1907-3"
       style="fill:#2a3747;fill-opacity:1;stroke:none;stroke-width:0.59789497"
       d="m 61.175083,94.99193 v 0 l 45.477787,127.33906 45.47818,-127.33906 -45.47818,21.22324 z"
       inkscape:connector-curvature="0" />
  </g>
  <style
     id="style3875">
  #outline {
		stroke: #111;
		stroke-width: 31.66235665441778;
		fill: none;
  }
  .dot {
		fill: #111;
  }
  .point {
		fill: #111;
  }
  /*.point:nth-child(odd) {
		fill: rgb(165, 24, 201);
  }*/
  .ray {
		stroke: #111;
		stroke-width: 31.66235665441778;
  }
  /*.ray:nth-child(even) {
		stroke: rgb(165, 24, 201);
  }*/
  #background {
		fill: #FCFCFC;
		stroke: none;
  }
  #pupil {
		fill: rgb(165, 24, 201);
  }
</style>
</svg>
