<svg xmlns:dc="http://purl.org/dc/elements/1.1/" xmlns:cc="http://creativecommons.org/ns#" xmlns:rdf="http://www.w3.org/1999/02/22-rdf-syntax-ns#" xmlns:svg="http://www.w3.org/2000/svg" xmlns="http://www.w3.org/2000/svg" xmlns:sodipodi="http://sodipodi.sourceforge.net/DTD/sodipodi-0.dtd" xmlns:inkscape="http://www.inkscape.org/namespaces/inkscape" width="210mm" height="297mm" viewBox="0 0 210 297" version="1.1" id="svg8" inkscape:version="0.92.5 (2060ec1f9f, 2020-04-08)" sodipodi:docname="meet-cabal.svg">
  <defs id="defs2"/>
  <sodipodi:namedview id="base" pagecolor="#ffffff" bordercolor="#666666" borderopacity="1.0" inkscape:pageopacity="0.0" inkscape:pageshadow="2" inkscape:zoom="0.49497475" inkscape:cx="441.8043" inkscape:cy="136.23615" inkscape:document-units="mm" inkscape:current-layer="layer1" showgrid="false" inkscape:window-width="2560" inkscape:window-height="1380" inkscape:window-x="0" inkscape:window-y="0" inkscape:window-maximized="1"/>
  <metadata id="metadata5">
    <rdf:rdf>
      <cc:work rdf:about="">
        <dc:format>image/svg+xml</dc:format>
        <dc:type rdf:resource="http://purl.org/dc/dcmitype/StillImage"/>
        <dc:title/>
      </cc:work>
    </rdf:rdf>
  </metadata>
  <g inkscape:label="Layer 1" inkscape:groupmode="layer" id="layer1">
    <g id="LAB2_FILL" transform="matrix(1.1949276,0,0,1.1949276,-1111.5721,-196.0604)">
      <g id="g3719">
        <path id="path3713" d="m 1049.036,206.648 8.389,-21.094 -0.89,-0.449 -21.329,34.309 0.438,0.261 c 2.727,1.623 5.282,3.531 7.596,5.672 l 0.482,0.446 8.691,-16.836 -3.147,-1.684 c -0.225,-0.119 -0.324,-0.388 -0.23,-0.625 z" inkscape:connector-curvature="0" style="fill:#4ab85f"/>
        <path id="path3715" d="m 1008.668,213.298 0.58,-0.041 -3.275,-14.587 -2.129,0.798 c -0.141,0.051 -0.296,0.041 -0.427,-0.035 -0.13,-0.075 -0.219,-0.202 -0.243,-0.35 l -2.563,-15.263 -0.993,0.081 -0.112,30.964 0.629,-0.165 c 2.785,-0.729 5.656,-1.2 8.533,-1.402 z" inkscape:connector-curvature="0" style="fill:#4ab85f"/>
        <path id="path3717" d="M 1012.185,232 H 978 c -0.585,0 -14.333,0.275 -14.333,24.188 0,28.003 12.866,28.812 14.333,28.812 h 34.185 c 6.064,0 10.815,-5.109 10.815,-11.632 v -31.07 C 1023,236.235 1018.553,232 1012.185,232 Z M 978,233 c -0.018,0 -0.048,0 -0.088,0.001 C 977.953,233 977.982,233 978,233 Z m -0.108,0.002 c -0.039,10e-4 -0.082,0.003 -0.137,0.006 0.055,-0.002 0.098,-0.004 0.137,-0.006 z m -0.27,0.018 c -0.027,0.002 -0.05,0.003 -0.079,0.006 0.03,-0.003 0.052,-0.005 0.079,-0.006 z" inkscape:connector-curvature="0" style="fill:#4ab85f"/>
      </g>
      <g id="g3731">
        <path id="path3721" d="m 1018.601,284.483 -0.253,-0.361 -0.39,0.205 c -2.173,1.142 -4.008,1.673 -5.773,1.673 H 994.73 l 0.622,0.914 c 4.938,6.396 11.085,11.25 17.775,13.831 l 0.109,0.255 h 0.093 c 0.143,0 0.253,-0.269 0.333,-0.323 5.979,-0.212 11.551,-1.654 16.562,-3.857 l 0.824,-0.362 -0.743,-0.508 c -4.689,-3.207 -8.627,-7.065 -11.704,-11.467 z m -5.507,2.454 c -0.301,0.039 -0.604,0.063 -0.909,0.063 0.3,0 0.605,-0.036 0.909,-0.063 z" inkscape:connector-curvature="0" style="fill:#55708f"/>
        <path id="path3723" d="m 1038.567,228.854 c 1.209,-0.99 2.53,-1.482 4.037,-1.503 l 1.226,-0.018 -0.888,-0.845 c -2.805,-2.67 -6.071,-5.011 -9.706,-6.957 l -0.252,-0.134 -0.244,0.148 c -5.374,3.261 -10.054,7.61 -13.532,12.575 l -0.285,0.407 0.405,0.288 c 3.013,2.14 4.672,5.508 4.672,9.483 v 31.07 c 0,3.943 -1.701,7.47 -4.669,9.676 l -0.39,0.291 0.279,0.398 c 3.249,4.628 7.576,8.755 12.514,11.935 l 0.24,0.155 0.256,-0.129 c 3.526,-1.779 6.67,-3.866 9.346,-6.204 l 0.811,-0.708 -1.064,-0.163 c -1.168,-0.179 -2.23,-0.648 -3.158,-1.396 -5.299,-4.273 -6.014,-17.17 -6.014,-29.223 10e-4,-16.075 2.101,-25.609 6.416,-29.146 z" inkscape:connector-curvature="0" style="fill:#55708f"/>
        <path id="path3725" d="M 995.183,230.211 994.624,231 h 0.967 16.594 c 2.316,0 4.194,0.372 5.741,1.136 l 0.386,0.19 0.246,-0.353 c 3.536,-5.079 7.945,-9.402 12.75,-12.503 l 0.758,-0.489 -0.816,-0.383 c -4.456,-2.092 -9.423,-3.422 -14.762,-3.954 l -0.081,-0.008 -0.079,0.018 c -8.007,1.813 -15.121,7.048 -21.145,15.557 z" inkscape:connector-curvature="0" style="fill:#55708f"/>
        <path id="path3727" d="m 993.445,231 0.146,-0.242 c 2.935,-4.864 8.301,-11.463 17.195,-15.28 l 2.423,-1.04 -2.636,0.081 c -4.336,0.133 -7.782,0.592 -10.874,1.453 -0.398,0.135 -0.642,0.251 -0.824,0.339 -0.094,0.045 -0.163,0.082 -0.257,0.107 -8.77,2.684 -15.525,7.19 -20.653,13.776 L 977.336,231 h 1.023 14.804 z" inkscape:connector-curvature="0" style="fill:#55708f"/>
        <path id="path3729" d="M 993.663,286.184 993.513,286 h -15.13 l 0.796,0.843 c 7.722,8.188 18.148,13.164 29.358,14.011 l 2.417,0.183 -2.147,-1.124 c -6.193,-3.243 -11.609,-9.388 -15.144,-13.729 z" inkscape:connector-curvature="0" style="fill:#55708f"/>
      </g>
      <path id="path3733" d="m 1063.944,238.882 c -1.261,-4.608 -3.515,-6.999 -7.095,-7.521 l -0.297,-0.032 c -0.459,-0.053 -0.885,-0.079 -1.302,-0.079 -8.396,0 -10.083,10.235 -10.084,26.75 -10e-4,7.952 0.101,14.409 1.389,19.118 1.424,5.207 4.187,7.632 8.693,7.632 0.462,0 0.929,-0.037 1.424,-0.116 l 1.01,-0.235 c 6.349,-1.941 7.649,-11.958 7.649,-26.399 0,-7.954 -0.1,-14.412 -1.387,-19.118 z" inkscape:connector-curvature="0" style="fill:#ffffff"/>
      <path id="path3735" d="m 982.667,290.167 6.834,5.333 c 0,0 -8.334,13.167 -10.667,26.667 -2.333,13.5 -5.001,50.5 22.333,60 l 2.667,-1.833 c 0,0 -0.499,-10.167 2.667,-9.667 3.166,0.5 2.999,6.833 3.166,9.5 0.167,2.667 7.667,1.833 5.167,12.167 0,0 8.167,6 5.167,9.333 -3,3.333 -8.5,-4.833 -8.5,-4.833 l -1.833,0.833 0.5,7.667 -3.667,2 -2.833,-3.334 0.333,-6.667 -1.333,-0.167 -5.667,5.5 -3.167,-0.5 -0.833,-3.667 6,-5.667 -1.833,-2 c 0,0 -16,-6.333 -21.667,-17.333 -5.667,-11 -9.167,-28 -7.167,-43.5 2,-15.5 8.832,-35.499 14.333,-39.832 z" inkscape:connector-curvature="0" style="fill:#b6b6b4"/>
      <path id="path3737" d="m 1036.334,293.833 7.334,-5.667 c 0,0 21.666,18.333 26.333,32.333 4.667,14 2.499,31.333 0.333,36.833 -2.166,5.5 -13.333,23 -13.333,23 l 0.5,3 c 0,0 7.833,3.333 7.833,4.667 0,1.334 -0.166,5 -2.833,4 l -7.667,-3.333 -0.166,1.5 c 0,0 3.332,8.5 0.166,9 -3.166,0.5 -4.166,-1.333 -5.833,-8 l -1.5,0.5 c 0,0 -4.334,8.333 -7.167,6.5 -2.833,-1.833 -0.332,-7.333 1.834,-10 0,0 -3.833,-5.167 -1.5,-9.167 2.333,-4 2.333,-4 2.333,-4 0,0 -3.5,-8.667 0,-9.833 3.5,-1.166 5.334,4.334 6.167,7.167 l 2,1.333 c 0,0 13.999,-19 12.166,-34 -1.833,-15 -4.333,-26.166 -27,-45.833 z" inkscape:connector-curvature="0" style="fill:#b6b6b4"/>
      <path id="path3739" d="m 1032.15,258 c 0,0 0.456,30.729 10.236,30.781 l 12.28,-3.281 c 0,0 -6.666,0.5 -8.833,-8.833 -2.167,-9.333 -1.001,-36.667 0.833,-39.833 1.834,-3.166 7.834,-6.333 7.834,-6.333 l -11.896,-3.149 c 0,0 -4.938,-0.017 -6.438,5.483 -1.5,5.5 -4.016,25.165 -4.016,25.165 z" inkscape:connector-curvature="0" style="fill:#b6b6b4"/>
      <polygon id="polygon3741" points="1058.001,203.5 1053.834,230.167 1046.001,228.333 1044.168,225.167 1053.001,208.5 1050.168,206.333 1060.834,179.333 " style="fill:#55708f"/>
      <path id="path3743" d="m 1000.001,177.667 c 0,0 4,20.167 4,20.667 0,0.5 1.61,-0.328 1.972,0.336 0.362,0.664 3.861,14.664 3.861,14.664 l 6.167,0.667 -15.333,-39.167 z" inkscape:connector-curvature="0" style="fill:#55708f"/>
      <circle id="circle3745" r="3" cy="389.25" cx="1006.75" style="fill:#ffffff"/>
      <circle id="circle3747" r="3" cy="382.25" cx="1048.75" style="fill:#ffffff"/>
    </g>
    <g id="LAB2_Shade" transform="matrix(1.1949276,0,0,1.1949276,-1111.5721,-196.0604)">
      <path id="path3750" d="m 1008.667,214.333 c 0,0 7.081,0.19 12,4.333 3.166,2.667 -1.5,4.667 1.166,7 3.105,2.718 6.464,-0.25 7.834,2.833 2.666,6 -6.83,7.177 -5.496,13.344 1.334,6.167 -0.168,20.828 -0.168,24.662 0,3.834 5.663,9.995 0.83,15.328 -3.166,3.494 3.043,7.703 -2.5,10.167 -6,2.667 -9.833,-5.167 -15,1.833 -3.074,4.166 -9.334,5 -16.667,1 0,0 7.834,7.667 24.667,5.833 16.833,-1.834 26.001,-10.333 27.167,-11.833 0,0 -7.501,-0.333 -8.834,-13.167 -1.333,-12.834 -0.666,-33.333 0.834,-37.666 1.5,-4.333 3.5,-10 8.833,-10 H 1045 c 0,0 -6.167,-8.333 -18.167,-11.5 -12,-3.167 -18.166,-2.167 -18.166,-2.167 z" inkscape:connector-curvature="0" style="fill:#2d4462"/>
      <polygon id="polygon3752" points="1053.833,229.708 1045,228.104 1044,226 1044.833,226 1058,201.917 " style="fill:#2d4462"/>
      <path id="path3754" d="m 1007.583,193.083 -1.124,4.958 3.707,15.958 H 1016 c 0,0 -8.001,-21.333 -7.834,-20.833 0.167,0.5 -0.583,-0.083 -0.583,-0.083 z" inkscape:connector-curvature="0" style="fill:#2d4462"/>
      <path id="path3756" d="m 1034.667,276.5 c 0,0 6.334,-3.667 6.5,-24.167 0.166,-20.5 6.166,-23.5 7.666,-23.333 1.5,0.167 3.834,0.667 3.834,0.667 0,0 -7.668,2.167 -7.834,21.833 -0.166,19.666 0.501,32.833 8.334,33.833 l -10.667,3.5 c 0,0 -7.666,-0.166 -7.833,-12.333 z" inkscape:connector-curvature="0" style="fill:#8e8e8e"/>
      <path id="path3758" d="m 1040.416,297.25 c 0,0 4.659,-1.345 7.709,0.458 C 1052,300 1062.057,312.391 1066,323 c 7,18.833 -0.667,45.667 -13,49.833 V 375 c 0,0 3.833,3.667 4,5.333 0.167,1.666 3.5,-3.667 3.5,-3.667 0,0 11,-15.833 12,-31.5 1,-15.667 -3.166,-27.834 -5.333,-30.667 C 1065,311.666 1055.833,297 1043.5,289 l -7.667,5.333 4,2.667" inkscape:connector-curvature="0" style="fill:#8e8e8e"/>
      <path id="path3760" d="m 1048.875,374.125 c 0,0 8.25,12.125 -2.125,11.125 0,0 -5.875,-2.625 -5.75,-4.5 0.125,-1.875 -0.875,3.25 0.875,6 1.75,2.75 6.625,4.625 9.25,3.625 2.625,-1 6,-4 6.5,-6.625 0.5,-2.625 -1.25,-6.375 -2.25,-7.375 -1,-1 -4.375,-2.875 -4.75,-2.875 -0.375,0 -1.75,0.625 -1.75,0.625 z" inkscape:connector-curvature="0" style="fill:#8e8e8e"/>
      <path id="path3762" d="m 1058,384.5 c 0,0 4.188,4.625 3.812,6.875 -0.376,2.25 3.719,0.625 3.969,-1.875 0.25,-2.5 -3.953,-5 -3.953,-5 L 1058,382.875 Z" inkscape:connector-curvature="0" style="fill:#8e8e8e"/>
      <path id="path3764" d="m 1051.625,397.5 c 0,0 1.25,-5 0.5,-7 -0.75,-2 1.5,-0.875 1.5,-0.875 0,0 2.25,3.375 2.375,3.75 0.125,0.375 0.375,5.125 0.375,5.125 l -3.5,1 z" inkscape:connector-curvature="0" style="fill:#8e8e8e"/>
      <path id="path3766" d="m 1042.375,388.875 c 0,0 1.125,7.375 -2.375,8.625 -3.5,1.25 1.125,1.25 2.375,0.875 1.25,-0.375 3.625,-5 3.625,-5 l 1.25,-3.5 z" inkscape:connector-curvature="0" style="fill:#8e8e8e"/>
      <path id="path3768" d="m 1043.625,365.5 c 0.25,0.375 0.75,8.25 0.75,8.25 l 4.625,-0.625 -1.375,-6.875 -3.125,-2 z" inkscape:connector-curvature="0" style="fill:#8e8e8e"/>
      <path id="path3770" d="m 982.5,291.5 c 0,0 2.5,1.375 -2.125,13 -4.625,11.625 -7.96,26.988 -7.25,37.875 0.75,11.5 2.812,28.412 14.625,36.75 4.25,3 4.625,6.625 3.75,9.125 l 7,3.25 c 0,0 1,-8.125 2.875,-9 1.875,-0.875 -1.875,-1.25 -1.875,-1.25 0,0 -10.375,-4.875 -12,-7.125 -1.625,-2.25 -9.75,-15.875 -10.125,-27.875 -0.375,-12 1.5,-29.875 6.625,-39.125 5.125,-9.25 5.375,-11.75 5.375,-11.75 z" inkscape:connector-curvature="0" style="fill:#8e8e8e"/>
      <path id="path3772" d="m 1006.25,372 c 0,0 3,3.125 -1.25,7.5 l -0.5,1.25 5.375,0.125 -0.5,-7 -2,-3.25 z" inkscape:connector-curvature="0" style="fill:#8e8e8e"/>
      <path id="path3774" d="m 1007.75,381.25 c 0,0 6.625,9.625 0,11.125 -6.625,1.5 -8,-0.75 -8.625,-1.75 l 2.75,5.125 4.75,1.625 3.875,-0.75 3.5,-3.25 1.5,-4.875 -1,-4.25 -4.625,-3.375 z" inkscape:connector-curvature="0" style="fill:#8e8e8e"/>
      <path id="path3776" d="m 995.75,401.5 c 0,0 3.375,-4.625 2.75,-7.625 l 0.5,-1.125 3.125,3.625 -2.75,4 L 996.5,403 Z" inkscape:connector-curvature="0" style="fill:#8e8e8e"/>
      <path id="path3778" d="m 1005.125,398 c 0,0 4.875,4.75 1.5,8.625 l 3.125,-1.375 0.5,-7.875 -4.625,0.375 z" inkscape:connector-curvature="0" style="fill:#8e8e8e"/>
      <path id="path3780" d="m 1014.5,394.125 c 0,0 3.625,5.25 2.25,7 -1.375,1.75 1.375,1.625 1.375,1.625 0,0 2.625,-3.125 2.5,-3.5 -0.125,-0.375 -0.875,-3.625 -0.875,-3.625 l -4.25,-3 z" inkscape:connector-curvature="0" style="fill:#8e8e8e"/>
    </g>
    <g id="DEETS" transform="matrix(1.1949276,0,0,1.1949276,-1111.5721,-196.0604)">
      <path id="path3783" d="m 1059.52,256.154 c -1.793,-0.161 -3.204,-1.651 -3.204,-3.487 0,-1.833 1.405,-3.32 3.194,-3.486 -0.141,-5.191 -0.839,-8.68 -3.75,-8.68 -4.403,0 -3.753,7.947 -3.753,17.75 0,9.803 -0.796,17.75 3.753,17.75 4.546,0 3.752,-7.947 3.752,-17.75 0,-0.711 0,-1.408 0.01,-2.097 z" inkscape:connector-curvature="0" style="fill:#4ab85f"/>
      <ellipse id="ellipse3785" ry="3.1099999" rx="1.563" cy="282.56" cx="1056.823" transform="matrix(0.7448,-0.6673,0.6673,0.7448,81.1649,777.3384)" style="fill:#4ab85f"/>
      <ellipse id="ellipse3787" ry="3.1099999" rx="1.563" cy="270.56" cx="1047.823" transform="matrix(0.7448,-0.6673,0.6673,0.7448,86.8756,768.2701)" style="fill:#4ab85f"/>
      <ellipse id="ellipse3789" ry="2.2620001" rx="1.1950001" cy="236.174" cx="1053.9821" transform="matrix(0.7448,-0.6673,0.6673,0.7448,111.3995,763.6149)" style="fill:#4ab85f"/>
      <ellipse id="ellipse3791" ry="2.9579999" rx="1.562" cy="237.382" cx="1058.824" transform="matrix(0.7449,-0.6672,0.6672,0.7449,111.7482,767.0101)" style="fill:#4ab85f"/>
      <ellipse id="ellipse3793" ry="4.9650002" rx="2.4960001" cy="279.564" cx="1049.368" transform="matrix(0.7448,-0.6673,0.6673,0.7448,81.2272,771.5325)" style="fill:#4ab85f"/>
      <path id="path3795" d="m 978.501,284.167 c 0,0 -6.797,-4.267 -8.5,-15.333 -1.667,-10.833 -3.333,-25.667 5,-31.5 2.71,-1.897 18.332,-1.057 23.167,-1.167 7.333,-0.167 25,-0.167 24.833,5.667 0,0 -0.334,-10.667 -7.167,-11 -6.833,-0.333 -33.333,-0.167 -33.333,-0.167 0,0 -9.667,0.333 -11.5,2.667 -1.833,2.334 -7.833,9.5 -7.833,19.833 0,10.333 1.999,25.5 7.666,28.667 5.667,3.167 7.667,2.333 7.667,2.333 z" inkscape:connector-curvature="0" style="fill:#ffffff"/>
      <ellipse id="ellipse3797" ry="5.3330002" rx="2.9159999" cy="245.33299" cx="1015.917" transform="matrix(0.8052,-0.593,0.593,0.8052,52.4351,650.2762)" style="fill:#ffffff"/>
      <ellipse id="ellipse3799" ry="3.0150001" rx="1.27" cy="254.17599" cx="1015.965" transform="matrix(0.6756,-0.7373,0.7373,0.6756,142.2019,831.5214)" style="fill:#ffffff"/>
      <ellipse id="ellipse3801" ry="4.6539998" rx="2.4690001" cy="275.79999" cx="978.31" transform="matrix(0.6756,-0.7372,0.7372,0.6756,113.9968,810.7001)" style="fill:#ffffff"/>
      <ellipse id="ellipse3803" ry="2.7780001" rx="0.97899997" cy="279.16599" cx="986.68597" transform="matrix(0.6755,-0.7374,0.7374,0.6755,114.3349,818.1332)" style="fill:#ffffff"/>
      <ellipse id="ellipse3805" ry="2.1860001" rx="1.192" cy="242.67599" cx="1008.298" transform="matrix(0.6756,-0.7373,0.7373,0.6756,148.1718,822.1057)" style="fill:#ffffff"/>
      <path id="path3807" d="m 1039.501,222.333 c 0,0 3.5,-12.833 8.5,-23 l -13.167,19.5 z" inkscape:connector-curvature="0" style="fill:#ffffff"/>
      <path id="path3809" d="m 999.168,191.167 c 0,0 3.167,22.5 5.5,22.667 l -5.834,1.333 z" inkscape:connector-curvature="0" style="fill:#ffffff"/>
    </g>
    <g id="g3824" transform="matrix(1.1949276,0,0,1.1949276,-1111.5721,-196.0604)">
      <path inkscape:connector-curvature="0" d="m 1003,262 c 1.795,0 3,-1.343 3,-3 v -14 c 0,-1.657 -1.205,-3 -3,-3 -1.795,0 -3,1.343 -3,3 v 14 c 0,1.657 1.205,3 3,3 z" id="path3812"/>
      <path inkscape:connector-curvature="0" d="m 981,259 v -14 c 0,-1.657 -1.205,-3 -3,-3 -1.795,0 -3,1.343 -3,3 v 14 c 0,1.657 1.205,3 3,3 1.795,0 3,-1.343 3,-3 z" id="path3814"/>
      <path inkscape:connector-curvature="0" d="m 988.876,276.565 c 0.285,0.359 0.719,0.435 1.176,0.435 0.017,0 0.034,0 0.052,0 0.476,0 0.915,-0.125 1.185,-0.518 l 5.449,-7.8 c 0.469,-0.683 0.296,-1.617 -0.387,-2.086 -0.683,-0.468 -1.616,-0.297 -2.086,0.385 l -4.3,6.254 -4.831,-6.102 c -0.516,-0.649 -1.459,-0.775 -2.107,-0.26 -0.649,0.515 -0.759,1.425 -0.244,2.074 z" id="path3816"/>
      <path inkscape:connector-curvature="0" d="m 1002.833,388.833 c 0,2.207 1.795,4.001 4.001,4.001 2.206,0 4.001,-1.795 4.001,-4.001 0,-2.206 -1.795,-4.001 -4.001,-4.001 -2.206,0 -4.001,1.795 -4.001,4.001 z m 6.002,0 c 0,1.104 -0.897,2.001 -2.001,2.001 -1.104,0 -2.001,-0.898 -2.001,-2.001 0,-1.103 0.897,-2.001 2.001,-2.001 1.104,0 2.001,0.898 2.001,2.001 z" id="path3818"/>
      <path inkscape:connector-curvature="0" d="m 1048.753,386.001 c 0.406,0 0.81,-0.062 1.2,-0.185 1.021,-0.321 1.854,-1.02 2.349,-1.967 0.494,-0.948 0.59,-2.032 0.269,-3.051 -0.527,-1.676 -2.061,-2.801 -3.815,-2.801 -0.406,0 -0.811,0.062 -1.201,0.185 -1.02,0.32 -1.854,1.019 -2.348,1.966 -0.494,0.947 -0.59,2.031 -0.27,3.051 0.528,1.676 2.061,2.802 3.816,2.802 z m -1.774,-4.927 c 0.247,-0.474 0.663,-0.823 1.174,-0.983 0.196,-0.062 0.398,-0.093 0.602,-0.093 0.877,0 1.644,0.563 1.907,1.401 0.161,0.51 0.113,1.052 -0.134,1.525 -0.247,0.474 -0.665,0.824 -1.175,0.984 -0.196,0.062 -0.397,0.093 -0.601,0.093 -0.877,0 -1.645,-0.563 -1.908,-1.401 -0.159,-0.511 -0.112,-1.053 0.135,-1.526 z" id="path3820"/>
      <path inkscape:connector-curvature="0" d="m 1064.393,385.29 -6.059,-3.16 c 0,-0.397 -0.01,-0.795 -0.055,-1.192 12.778,-17.25 17.78,-34.363 14.839,-50.875 -4.007,-22.492 -21.864,-37.268 -27.397,-41.367 2.655,-0.602 8.162,-1.875 11.182,-2.573 0.479,-0.074 0.936,-0.181 1.371,-0.317 0.389,-0.09 0.638,-0.148 0.702,-0.163 l -0.019,-0.082 c 7.195,-2.971 7.875,-15.134 7.877,-27.559 0,-13.817 -0.01,-26.896 -9.973,-28.144 -0.416,-0.098 -1.146,-0.271 -2.082,-0.491 l 8.543,-54.376 c 0.073,-0.47 -0.194,-0.927 -0.64,-1.093 -0.446,-0.166 -0.946,0.005 -1.198,0.41 l -27.326,43.952 c -5.427,-2.92 -11.435,-4.765 -17.661,-5.367 l -16.4,-42.264 c -0.174,-0.448 -0.642,-0.679 -1.115,-0.59 -0.472,0.088 -0.815,0.562 -0.817,1.042 l -0.159,43.709 c -8.818,2.736 -16.642,8.043 -22.458,15.47 l 0.104,0.082 c -4.418,1.092 -13.484,5.721 -13.484,25.349 0,21.153 7.624,29.398 14.629,30.235 1.355,1.584 2.813,3.056 4.353,4.424 -0.864,1.135 -3.906,5.354 -6.979,12.332 -3.27,7.425 -7.168,19.493 -7.168,34.82 0,30.2 9.444,47.083 30.584,54.646 l -4.517,4.516 c -1.592,1.592 -1.619,4.156 -0.06,5.716 0.805,0.804 1.832,1.206 2.853,1.206 0.993,0 1.98,-0.382 2.746,-1.147 l 4.393,-4.393 v 5.872 c 0,2.252 1.794,4.084 4,4.084 2.243,0 4,-1.721 4,-3.918 v -5.872 l 4.227,4.227 c 0.766,0.766 1.752,1.147 2.746,1.147 1.021,0 2.049,-0.402 2.853,-1.206 1.56,-1.561 1.532,-4.125 -0.06,-5.716 l -4.834,-4.833 c 0.312,-0.943 0.486,-1.949 0.486,-2.996 0,-3.791 -2.218,-7.064 -5.418,-8.618 V 374 c 0,-2.252 -1.794,-4.084 -4,-4.084 -2.243,0 -4,1.721 -4,3.917 v 6.222 c -0.602,0.264 -1.168,0.589 -1.697,0.965 -15.45,-4.398 -22.969,-18.802 -22.969,-44.021 0,-20.389 10.117,-37.717 11.771,-40.413 6.63,3.516 14.126,5.413 21.896,5.413 8.605,0 16.854,-2.311 24.005,-6.612 3.932,2.775 21.426,16.132 25.37,36.544 2.563,13.272 -1.05,26.955 -10.726,40.674 -0.17,-0.034 -0.339,-0.065 -0.511,-0.09 l -1.86,-5.917 c -0.32,-1.018 -1.017,-1.862 -1.962,-2.378 -0.964,-0.527 -2.058,-0.638 -3.079,-0.318 -1.018,0.32 -1.853,0.998 -2.351,1.909 -0.508,0.93 -0.611,2.005 -0.29,3.027 l 1.866,5.936 c -2.78,2.428 -4.029,6.358 -2.854,10.099 0.327,1.039 0.818,1.987 1.435,2.825 l -3.076,5.898 c -1.04,1.996 -0.296,4.45 1.659,5.471 0.617,0.322 1.27,0.475 1.907,0.475 1.414,0 2.751,-0.756 3.451,-2.099 l 2.872,-5.508 1.761,5.601 c 0.551,1.75 2.153,2.877 3.866,2.877 0.39,0 0.785,-0.058 1.175,-0.181 2.139,-0.672 3.299,-2.841 2.641,-4.938 l -1.76,-5.599 5.298,2.763 c 0.569,0.297 1.184,0.447 1.802,0.447 0.413,0 0.827,-0.067 1.23,-0.203 0.984,-0.331 1.799,-1.034 2.292,-1.979 0.495,-0.95 0.575,-2.046 0.227,-3.088 -0.344,-1.019 -1.053,-1.853 -1.998,-2.345 z m -5.043,-23.773 c 1.188,1.086 3.521,2.828 6.516,3.11 -0.815,1.727 -1.73,3.457 -2.711,5.19 -3.051,-0.383 -5.336,-2.523 -6.214,-3.471 0.886,-1.611 1.684,-3.221 2.409,-4.829 z m -0.047,-42.001 c 1.41,-0.408 4.291,-1.481 6.848,-3.899 0.9,1.79 1.733,3.656 2.465,5.606 l -0.186,-0.191 c -2.937,2.842 -6.167,3.058 -7.197,3.047 -0.581,-1.573 -1.225,-3.097 -1.93,-4.563 z m -3.483,-6.218 c 1.518,-0.498 4.253,-1.709 6.402,-4.412 1.031,1.544 2.022,3.171 2.956,4.878 -2.597,2.672 -5.794,3.669 -6.794,3.926 -0.804,-1.528 -1.665,-2.991 -2.564,-4.392 z m -1.157,-1.741 c -0.933,-1.353 -1.891,-2.642 -2.862,-3.857 1.423,-0.628 3.99,-2.12 5.636,-5.18 1.207,1.435 2.411,2.978 3.585,4.625 -2.163,3.055 -5.327,4.132 -6.359,4.412 z m 14.575,11.441 c 0.723,2.149 1.32,4.39 1.769,6.715 -2.84,2.001 -6.522,1.399 -7.832,1.091 -0.343,-1.628 -0.767,-3.211 -1.262,-4.749 1.603,-0.106 4.542,-0.658 7.325,-3.057 z m -3.174,10.151 c 1.623,0 3.525,-0.302 5.297,-1.296 0.313,2.107 0.493,4.226 0.539,6.354 l -0.105,-0.257 c -3.475,1.433 -6.593,0.439 -7.695,-0.013 -0.087,-1.675 -0.266,-3.346 -0.535,-5.011 0.677,0.119 1.532,0.223 2.499,0.223 z m -1.901,6.942 c 0.935,0.304 2.26,0.613 3.838,0.613 1.19,0 2.522,-0.195 3.919,-0.681 -0.028,2.021 -0.175,4.049 -0.441,6.086 -3.57,1.95 -6.896,-0.365 -7.575,-0.892 0.182,-1.713 0.267,-3.421 0.259,-5.126 z m -0.54,7.354 c 1.245,0.745 2.996,1.424 4.938,1.424 0.827,0 1.689,-0.143 2.56,-0.436 -0.353,2.012 -0.824,4.032 -1.408,6.059 l -0.021,-0.067 c -3.942,1.278 -6.961,-1.849 -7.088,-1.983 l -0.025,0.024 c 0.436,-1.677 0.786,-3.351 1.044,-5.021 z m -1.646,7.113 c 1.088,0.869 3.162,2.177 5.797,2.177 0.411,0 0.836,-0.033 1.272,-0.104 -0.656,2.004 -1.424,4.015 -2.306,6.03 -3.301,0.019 -5.866,-2.401 -6.548,-3.112 0.682,-1.666 1.279,-3.33 1.785,-4.991 z m 0.107,17.103 c -0.782,1.31 -1.617,2.621 -2.494,3.933 -3.419,-0.265 -5.704,-2.508 -6.353,-3.228 0.949,-1.403 1.841,-2.807 2.667,-4.209 1.157,1.149 3.316,2.901 6.18,3.504 z m -3.746,5.787 c -0.225,0.321 -0.467,0.642 -0.697,0.963 -0.182,-0.453 -0.398,-0.884 -0.641,-1.295 0.424,0.135 0.87,0.247 1.338,0.332 z m -2.325,-76.573 c -1.552,3.525 -4.667,4.885 -5.544,5.206 -1.089,-1.284 -2.179,-2.475 -3.245,-3.579 1.516,-0.744 3.861,-2.304 5.351,-5.252 1.113,1.102 2.268,2.311 3.438,3.625 z m -42.468,-0.912 c -0.074,-0.057 -0.146,-0.117 -0.238,-0.152 -6.897,-2.661 -12.926,-7.434 -17.559,-13.812 h 16.437 c 2.17,0 4.213,-0.539 6.006,-1.48 3.195,4.57 7.247,8.582 11.834,11.718 -5.137,2.258 -10.713,3.533 -16.48,3.726 z m 6.335,-16.518 c 3.103,-2.308 5.12,-5.96 5.12,-10.078 v -31.07 c 0,-4.104 -2.004,-7.668 -5.133,-9.891 3.506,-5.003 8.062,-9.281 13.258,-12.435 3.461,1.852 6.676,4.156 9.535,6.878 -1.622,0.023 -3.09,0.562 -4.378,1.617 -4.45,3.647 -6.614,13.307 -6.616,29.533 0,12.174 0.735,25.212 6.192,29.612 1.008,0.812 2.144,1.31 3.393,1.5 -2.791,2.439 -5.856,4.488 -9.119,6.134 -4.77,-3.07 -8.976,-7.133 -12.252,-11.8 z m -3.442,-68.554 c 5.094,0.507 10.031,1.89 14.599,4.034 -5.034,3.249 -9.451,7.513 -12.889,12.45 -1.773,-0.876 -3.795,-1.375 -5.963,-1.375 h -16.594 c 4.248,-5.996 11.063,-12.892 20.847,-15.109 z m 24.18,72.009 8.912,-2.251 c 0.444,0.305 0.923,0.569 1.438,0.79 -3.062,0.706 -6.077,1.398 -6.931,1.583 -1.287,0.278 -2.416,0.236 -3.419,-0.122 z m -2.186,-1.511 c -1.288,-1.395 -2.232,-3.526 -2.924,-6.115 l 9.632,-1.616 c 0.598,2.133 1.442,3.958 2.624,5.374 z m -3.384,-8.066 c -0.508,-2.468 -0.837,-5.23 -1.044,-8.11 l 9.858,-0.419 c 0.143,2.477 0.389,4.809 0.813,6.915 z M 1033.671,259 h 9.995 c 0,2.664 0.013,5.288 0.104,7.796 l -9.891,0.42 c -0.145,-2.738 -0.198,-5.525 -0.208,-8.216 z m 9.997,-2 h -9.992 c 0.017,-2.853 0.104,-5.492 0.261,-7.917 l 9.893,0.836 c -0.114,2.299 -0.153,4.68 -0.162,7.081 z m 0.281,-9.079 -9.865,-0.833 c 0.247,-2.894 0.601,-5.459 1.067,-7.672 l 9.721,1.429 c -0.456,2.169 -0.744,4.558 -0.923,7.076 z m 1.399,-9.028 -9.727,-1.43 c 0.576,-2.157 1.281,-3.911 2.111,-5.267 l 9.705,1.802 c -0.886,1.372 -1.568,3.027 -2.089,4.895 z m 3.513,-6.664 -9.739,-1.809 c 0.142,-0.138 0.28,-0.285 0.428,-0.406 1.278,-1.047 2.753,-1.383 4.505,-1.034 1.394,0.279 4.414,0.969 7.163,1.607 -0.883,0.411 -1.667,0.96 -2.357,1.642 z m 14.601,6.785 c 1.271,4.646 1.371,11.07 1.37,18.986 0,14.519 -1.291,24.085 -7.296,25.921 -0.278,0.064 -0.606,0.14 -0.977,0.226 -0.417,0.065 -0.853,0.103 -1.311,0.103 -4.305,0 -6.837,-2.24 -8.211,-7.264 -1.271,-4.645 -1.372,-11.07 -1.371,-18.986 10e-4,-16.206 1.604,-26.25 9.584,-26.25 0.435,0 0.846,0.029 1.245,0.075 0.153,0.037 0.265,0.063 0.273,0.065 l 0.01,-0.035 c 3.392,0.496 5.483,2.76 6.686,7.159 z m -17.578,-11.69 0.035,-0.033 c -0.272,-0.292 -0.561,-0.569 -0.841,-0.854 l 8.895,-17.228 c 0.251,-0.486 0.065,-1.083 -0.417,-1.341 l -2.795,-1.495 9.267,-23.299 -7.201,45.833 c -2.319,-0.54 -5.056,-1.171 -6.943,-1.583 z m 11.076,-41.954 -8.389,21.094 c -0.188,0.473 0.01,1.011 0.458,1.251 l 2.714,1.452 -8.164,15.814 c -2.358,-2.183 -4.934,-4.101 -7.68,-5.735 z m -44.959,27.297 c -0.449,0 -0.894,0.025 -1.34,0.037 l -3.352,-14.923 c -0.063,-0.282 -0.246,-0.523 -0.5,-0.661 -0.253,-0.136 -0.554,-0.158 -0.827,-0.057 l -1.53,0.574 -3.046,-18.133 12.886,33.221 c -0.761,-0.037 -1.525,-0.058 -2.291,-0.058 z m -11.884,-28.765 2.563,15.263 c 0.05,0.295 0.229,0.552 0.487,0.701 0.258,0.15 0.568,0.175 0.851,0.07 l 1.592,-0.597 3.022,13.459 c -2.946,0.207 -5.83,0.686 -8.626,1.417 z m -1.352,32.743 c 0.235,-0.062 0.443,-0.104 1.096,-0.326 3.448,-0.959 7.046,-1.5 10.729,-1.613 -8.104,3.478 -13.806,9.891 -17.426,15.294 H 978.36 c 5.45,-6.365 12.509,-10.938 20.405,-13.355 z m -34.598,39.043 c 0,-23.383 13.269,-23.687 13.833,-23.688 h 34.185 c 6.064,0 10.815,4.523 10.815,10.298 v 31.07 c 0,5.962 -4.751,10.632 -10.815,10.632 H 978 c -1.416,0 -13.833,-0.794 -13.833,-28.312 z M 979.542,286 h 13.733 c 4.072,5.991 9.302,10.715 15.3,13.855 -11.148,-0.841 -21.489,-5.759 -29.033,-13.855 z m 6.166,14.427 c -0.618,1.225 -1.297,2.641 -1.997,4.221 -1.557,-0.21 -4.494,-0.883 -6.847,-2.982 0.835,-1.772 1.651,-3.331 2.403,-4.666 2.336,2.43 5.115,3.194 6.441,3.427 z m -9.71,3.136 c 2.393,1.932 5.119,2.69 6.895,2.988 -0.648,1.553 -1.301,3.238 -1.932,5.033 -1.061,-0.145 -4.302,-0.757 -6.967,-3.004 0.652,-1.805 1.328,-3.476 2.004,-5.017 z m 6.517,64.749 c -0.763,0.948 -3.048,3.42 -6.485,4.089 -1.046,-1.868 -1.963,-3.876 -2.768,-6.017 0.249,0.019 0.497,0.035 0.735,0.035 3.076,0 5.264,-1.457 6.471,-2.545 0.614,1.57 1.296,3.049 2.047,4.438 z m 1.069,1.827 c 0.922,1.479 1.934,2.841 3.035,4.089 -0.743,1.344 -2.509,3.927 -5.592,5.104 -1.441,-1.574 -2.749,-3.277 -3.92,-5.125 3.14,-0.817 5.347,-2.811 6.477,-4.068 z m -11.061,-5.86 c -0.611,-1.872 -1.14,-3.846 -1.588,-5.922 0.515,0.062 1.016,0.104 1.487,0.104 2.729,0 4.717,-0.95 5.874,-1.711 0.408,1.772 0.885,3.453 1.422,5.051 -0.723,0.81 -3.234,3.189 -7.195,2.478 z m 3.858,-24.05 c -1.156,0.51 -3.878,1.429 -7.332,0.78 -0.028,-1.15 -0.048,-2.314 -0.048,-3.508 0,-0.98 0.02,-1.945 0.051,-2.899 1.455,0.41 2.816,0.563 4.013,0.563 1.344,0 2.472,-0.185 3.31,-0.383 -0.025,0.735 -0.04,1.475 -0.04,2.219 -0.001,1.097 0.019,2.168 0.046,3.228 z m -4.946,3.01 c 2.127,0 3.865,-0.46 5.021,-0.886 0.085,1.865 0.218,3.664 0.395,5.402 -0.551,0.279 -3.236,1.483 -7.37,0.87 -0.165,-1.797 -0.29,-3.652 -0.369,-5.576 0.813,0.129 1.592,0.19 2.323,0.19 z m 0.314,7.563 c 2.499,0 4.33,-0.561 5.339,-0.968 0.209,1.647 0.458,3.239 0.755,4.767 -0.675,0.578 -3.214,2.426 -7.322,1.68 -0.332,-1.801 -0.614,-3.669 -0.835,-5.621 0.723,0.086 1.421,0.142 2.063,0.142 z m 4.73,-18.116 c -1.219,0.359 -4.017,0.916 -7.336,-0.145 0.11,-1.941 0.282,-3.821 0.505,-5.643 1.733,0.775 3.427,1.031 4.881,1.031 0.941,0 1.779,-0.104 2.467,-0.234 -0.225,1.633 -0.404,3.297 -0.517,4.991 z m -6.552,-7.876 c 0.321,-2.174 0.715,-4.252 1.161,-6.237 2.657,1.814 5.586,2.167 7.187,2.204 -0.36,1.553 -0.679,3.154 -0.953,4.792 -1.404,0.356 -4.406,0.797 -7.395,-0.759 z m 8.84,-6.034 c -1.242,0.015 -4.527,-0.178 -7.173,-2.326 0.522,-2.069 1.098,-4.025 1.707,-5.861 2.651,1.992 5.582,2.687 7.006,2.92 -0.547,1.676 -1.067,3.434 -1.54,5.267 z m 20.018,64.873 c 0.138,-0.467 0.242,-0.877 0.32,-1.219 0.157,0.053 0.313,0.109 0.473,0.16 -0.288,0.335 -0.553,0.688 -0.793,1.059 z m -1.469,6.271 c -0.428,-0.161 -0.848,-0.328 -1.265,-0.497 0.53,-0.753 0.979,-1.521 1.355,-2.27 -0.098,0.547 -0.157,1.106 -0.157,1.68 10e-4,0.368 0.026,0.729 0.067,1.087 z m -3.154,-1.306 c -1.902,-0.859 -3.688,-1.808 -5.359,-2.853 2.474,-2.014 3.665,-4.677 4.171,-6.175 1.33,0.815 2.744,1.527 4.237,2.14 -0.272,1.266 -1.085,4.263 -3.049,6.888 z m 3.031,12.409 c -0.761,0.76 -1.978,0.734 -2.771,-0.059 -0.766,-0.767 -0.739,-2.089 0.06,-2.888 l 4.211,-4.21 c 0.711,1.146 1.649,2.137 2.763,2.895 z M 1007,406 c -1.084,0 -2,-0.954 -2,-2.084 v -5.679 c 0.594,0.116 1.206,0.181 1.834,0.181 0.746,0 1.469,-0.094 2.166,-0.256 v 5.921 c 0,1.074 -0.879,1.917 -2,1.917 z m 12.352,-7.923 c 0.799,0.799 0.825,2.121 0.06,2.888 -0.792,0.794 -2.009,0.819 -2.771,0.059 l -4.333,-4.334 c 1.104,-0.771 2.032,-1.771 2.729,-2.926 z m -4.934,-9.244 c 0,4.182 -3.402,7.584 -7.584,7.584 -4.182,0 -7.584,-3.402 -7.584,-7.584 0,-4.182 3.402,-7.584 7.584,-7.584 4.182,0 7.584,3.403 7.584,7.584 z m -9.418,-15 c 0,-1.075 0.879,-1.917 2,-1.917 1.084,0 2,0.955 2,2.084 v 5.506 c -0.697,-0.162 -1.42,-0.256 -2.166,-0.256 -0.628,0 -1.24,0.065 -1.834,0.181 z m -13.762,4.593 c -0.309,1.075 -1.41,4.189 -4.2,6.17 -1.624,-1.138 -3.132,-2.377 -4.522,-3.725 2.83,-1.332 4.594,-3.586 5.533,-5.124 0.997,0.977 2.062,1.866 3.189,2.679 z m -4.642,-79.707 0.012,-0.186 c -0.039,-0.003 -3.666,-0.286 -6.282,-3.344 1.094,-1.801 1.944,-2.995 2.352,-3.542 1.798,1.462 3.696,2.787 5.686,3.956 -0.348,0.57 -0.974,1.631 -1.768,3.116 z m 57.032,-9.073 c 0.487,0.343 1.244,0.896 2.189,1.634 -1.458,2.873 -4.221,4.324 -5.519,4.869 -0.974,-0.789 -1.818,-1.434 -2.474,-1.914 2.043,-1.361 3.983,-2.894 5.804,-4.589 z M 1042,297.57 c 1.621,-0.816 3.935,-2.366 5.406,-5.01 1.088,0.901 2.321,1.977 3.649,3.224 -1.417,3.313 -4.216,4.743 -5.339,5.2 -1.318,-1.292 -2.573,-2.43 -3.716,-3.414 z m 0.506,70.669 c -0.157,-0.499 -0.108,-1.02 0.137,-1.468 0.249,-0.455 0.673,-0.796 1.195,-0.96 0.499,-0.157 1.038,-0.098 1.521,0.165 0.481,0.263 0.851,0.709 1.012,1.223 l 1.657,5.27 c -0.726,0.056 -1.447,0.167 -2.148,0.387 -0.599,0.188 -1.163,0.434 -1.695,0.722 z m 3.973,6.525 c 0.741,-0.233 1.507,-0.351 2.275,-0.351 3.327,0 6.234,2.135 7.233,5.312 0.607,1.933 0.427,3.986 -0.51,5.782 -0.938,1.796 -2.518,3.12 -4.45,3.727 -0.742,0.233 -1.508,0.352 -2.277,0.352 -3.326,0 -6.233,-2.135 -7.232,-5.312 -1.253,-3.99 0.972,-8.256 4.961,-9.51 z m -3.266,21.755 c -0.497,0.953 -1.665,1.292 -2.66,0.775 -0.961,-0.502 -1.332,-1.772 -0.811,-2.773 l 2.744,-5.259 c 1.013,0.876 2.209,1.529 3.512,1.917 z m 10.848,1.806 c -1.035,0.324 -2.195,-0.311 -2.533,-1.388 l -1.709,-5.434 c 0.611,-0.069 1.218,-0.175 1.81,-0.361 0.705,-0.222 1.368,-0.527 1.99,-0.893 l 1.774,5.646 c 0.322,1.027 -0.263,2.094 -1.332,2.43 z m 10.329,-8.525 c -0.253,0.485 -0.663,0.843 -1.155,1.008 -0.485,0.163 -1.007,0.12 -1.47,-0.122 l -5.431,-2.832 c 0.342,-0.444 0.652,-0.916 0.917,-1.423 0.366,-0.702 0.63,-1.437 0.812,-2.187 l 5.404,2.818 c 0.478,0.249 0.851,0.69 1.025,1.21 0.176,0.522 0.139,1.065 -0.102,1.528 z" id="path3822"/>
    </g>
    <g id="g3828" transform="matrix(1.1949276,0,0,1.1949276,-1111.5721,-196.0604)">
      <polygon id="polygon3826" points="1046.343,392.848 1046.343,391.843 1046.343,371.588 1046.343,370.583 1045.473,370.08 1027.933,359.954 1027.061,359.451 1026.19,359.954 1008.65,370.08 1007.78,370.583 1007.78,371.588 1007.78,391.843 1007.78,392.848 1008.65,393.35 1026.19,403.478 1027.061,403.98 1027.933,403.478 1045.473,393.35 " style="fill:#2a3747"/>
    </g>
    <g xmlns="http://www.w3.org/2000/svg" id="g3832" transform="matrix(1.1949276,0,0,1.1949276,-1111.5721,-196.0604)">
      <path xmlns:inkscape="http://www.inkscape.org/namespaces/inkscape" id="path3830" d="m 1041.649,372.665 -14.044,-8.108 c -0.336,-0.194 -0.752,-0.194 -1.088,0 l -14.045,8.108 c -0.337,0.195 -0.544,0.553 -0.544,0.942 v 16.217 c 0,0.389 0.207,0.748 0.544,0.942 l 14.045,8.108 c 0.168,0.098 0.355,0.145 0.543,0.145 0.188,0 0.376,-0.047 0.545,-0.145 l 14.044,-8.108 c 0.337,-0.194 0.542,-0.553 0.542,-0.942 v -16.217 c 0,-0.389 -0.205,-0.747 -0.542,-0.942 z" inkscape:connector-curvature="0" style="fill:#4ab657"/>
    </g>
<g xmlns="http://www.w3.org/2000/svg" transform="matrix(.06, 0, 0, .06, 102, 243)" fill-rule="evenodd" stroke-linecap="square" stroke-linejoin="miter" stroke-miterlimit="1.5" style="&#10;"><g transform="matrix(0.86861,0.188418,-0.253824,1.17013,-59.1243,-195.055)"><path fill="#4C91BC" stroke="none" stroke-width="0" stroke-linecap="square" d="M474.655,152.871C474.655,152.871 319.265,190.988 487.244,274.821C611.943,337.055 616.153,390.422 587.37,442.766C542.656,524.078 376.644,527.945 376.644,527.945C376.644,527.945 532.649,488.609 369.258,404.062C297.357,366.856 209.111,319.441 269.356,232.266C325.541,150.964 474.655,152.871 474.655,152.871Z"/><clipPath id="_clip1"><path d="M474.655,152.871C474.655,152.871 319.265,190.988 487.244,274.821C611.943,337.055 616.153,390.422 587.37,442.766C542.656,524.078 376.644,527.945 376.644,527.945C376.644,527.945 532.649,488.609 369.258,404.062C297.357,366.856 209.111,319.441 269.356,232.266C325.541,150.964 474.655,152.871 474.655,152.871Z"/></clipPath><g clip-path="url(#_clip1)"><g transform="matrix(1.09953,-0.17705,0.238509,0.816201,85.8323,150.7)"><path fill="#1C3E72" d="M334.624,74.207C334.624,74.207 210.919,51.212 192.525,109.112C167.612,187.535 320.163,260.459 271.521,386.396C229.023,496.425 157.882,495.41 157.882,495.41C157.882,495.41 296.139,519.686 350.05,419.29C397.537,330.855 357.887,294.197 273.279,186.041C192.757,83.106 332.4,77.434 334.624,74.207Z"/></g><g transform="matrix(1.09953,-0.17705,0.238509,0.816201,111.531,148.736)" style="&#10;"><path fill="#535C9C" stroke="none" stroke-width="0" d="M334.624,74.207C334.624,74.207 210.919,51.212 192.525,109.112C167.612,187.535 338.977,269.954 306.031,392.286C280.852,485.78 120.882,493.41 120.882,493.41C120.882,493.41 300.139,525.686 350.05,419.29C397.537,330.855 357.887,294.197 273.279,186.041C192.757,83.106 332.4,77.434 334.624,74.207Z"/></g></g></g></g>
    <g id="g3836" transform="matrix(1.1949276,0,0,1.1949276,-1111.5721,-196.0604)">
      <path id="path3834" d="m 1046.559,369.704 -18.845,-10.881 c -0.405,-0.234 -0.901,-0.234 -1.306,0 l -18.847,10.881 c -0.403,0.232 -0.652,0.664 -0.652,1.13 v 21.762 c 0,0.467 0.249,0.898 0.652,1.132 l 18.847,10.879 c 0.201,0.117 0.428,0.176 0.652,0.176 0.227,0 0.452,-0.059 0.653,-0.176 l 18.845,-10.879 c 0.405,-0.234 0.655,-0.666 0.655,-1.132 v -21.762 c 10e-4,-0.466 -0.249,-0.897 -0.654,-1.13 z m -1.957,22.139 -17.541,10.126 -17.54,-10.126 v -20.255 l 17.54,-10.127 17.541,10.127 z" inkscape:connector-curvature="0" style="fill:#4ab657"/>
    </g>
    
    
    
    
  </g>
  <style id="style3875">
  #outline {
		stroke: #111;
		stroke-width: 31.66235665441778;
		fill: none;
  }
  .dot {
		fill: #111;
  }
  .point {
		fill: #111;
  }
  /*.point:nth-child(odd) {
		fill: rgb(165, 24, 201);
  }*/
  .ray {
		stroke: #111;
		stroke-width: 31.66235665441778;
  }
  /*.ray:nth-child(even) {
		stroke: rgb(165, 24, 201);
  }*/
  #background {
		fill: #FCFCFC;
		stroke: none;
  }
  #pupil {
		fill: rgb(165, 24, 201);
  }
</style>
</svg>