<svg
  xmlns:i="http://ns.adobe.com/AdobeIllustrator/10.0/" xmlns:rdf="http://www.w3.org/1999/02/22-rdf-syntax-ns#"
  xmlns:svg="http://www.w3.org/2000/svg" xmlns="http://www.w3.org/2000/svg"  xmlns:inkscape="http://www.inkscape.org/namespaces/inkscape"
  width="300mm" height="300mm" viewBox="0 0 300 300" version="1.1" id="svg8">
  <g inkscape:label="Layer 1" inkscape:groupmode="layer" id="layer1" style="display:inline">
    <g id="layer1-35" inkscape:label="Layer 1" transform="matrix(3.7978752,0,0,3.7978752,-333.19059,-842.03444)">
      <g transform="translate(0.13619441,4.2333428)" inkscape:label="Layer 1" id="layer1-3">
        <switch id="switch3863" transform="matrix(1.1949276,0,0,1.1949276,-1111.7083,-200.29374)">
          <g id="g3861" i:extraneous="self">
            <g id="LAB2_OUTLINE_FINAL">
              <g id="g3858">
                <g id="g3828">
                  <polygon id="polygon3826" points="1027.933,403.478 1045.473,393.35 1046.343,392.848 1046.343,391.843 1046.343,371.588 1046.343,370.583 1045.473,370.08 1027.933,359.954 1027.061,359.451 1026.19,359.954 1008.65,370.08 1007.78,370.583 1007.78,371.588 1007.78,391.843 1007.78,392.848 1008.65,393.35 1026.19,403.478 1027.061,403.98 " style="fill:#2a3747"/>
                </g>
                <g id="g3832">
                  <path id="path3830" d="m 1041.649,372.665 -14.044,-8.108 c -0.336,-0.194 -0.752,-0.194 -1.088,0 l -14.045,8.108 c -0.337,0.195 -0.544,0.553 -0.544,0.942 v 16.217 c 0,0.389 0.207,0.748 0.544,0.942 l 14.045,8.108 c 0.168,0.098 0.355,0.145 0.543,0.145 0.188,0 0.376,-0.047 0.545,-0.145 l 14.044,-8.108 c 0.337,-0.194 0.542,-0.553 0.542,-0.942 v -16.217 c 0,-0.389 -0.205,-0.747 -0.542,-0.942 z" inkscape:connector-curvature="0" style="fill:#4ab657"/>
                </g>
                <g id="g3836">
                  <path id="path3834" d="m 1046.559,369.704 -18.845,-10.881 c -0.405,-0.234 -0.901,-0.234 -1.306,0 l -18.847,10.881 c -0.403,0.232 -0.652,0.664 -0.652,1.13 v 21.762 c 0,0.467 0.249,0.898 0.652,1.132 l 18.847,10.879 c 0.201,0.117 0.428,0.176 0.652,0.176 0.227,0 0.452,-0.059 0.653,-0.176 l 18.845,-10.879 c 0.405,-0.234 0.655,-0.666 0.655,-1.132 v -21.762 c 10e-4,-0.466 -0.249,-0.897 -0.654,-1.13 z m -1.957,22.139 -17.541,10.126 -17.54,-10.126 v -20.255 l 17.54,-10.127 17.541,10.127 z" inkscape:connector-curvature="0" style="fill:#4ab657"/>
                </g>
                <g id="g3840">
                  <path id="path3838" d="m 1027.062,400.607 c -0.361,0 -0.654,-0.293 -0.654,-0.654 v -28.076 c 0,-0.36 0.293,-0.653 0.654,-0.653 0.36,0 0.651,0.292 0.651,0.653 v 28.076 c 10e-4,0.361 -0.29,0.654 -0.651,0.654 z" inkscape:connector-curvature="0" style="fill:#2a3747"/>
                </g>
                <g id="g3844">
                  <path id="path3842" d="m 1027.062,382.454 c -0.227,0 -0.447,-0.119 -0.567,-0.33 -0.179,-0.312 -0.071,-0.711 0.242,-0.89 l 10.124,-5.79 c 0.313,-0.18 0.713,-0.071 0.893,0.242 0.179,0.313 0.07,0.712 -0.242,0.892 l -10.125,5.79 c -0.103,0.059 -0.214,0.086 -0.325,0.086 z" inkscape:connector-curvature="0" style="fill:#2a3747"/>
                </g>
                <g id="g3848">
                  <path id="path3846" d="m 1027.062,391.179 c -0.225,0 -0.443,-0.115 -0.564,-0.323 -0.182,-0.312 -0.077,-0.712 0.234,-0.894 l 10.124,-5.919 c 0.312,-0.181 0.711,-0.077 0.894,0.234 0.183,0.311 0.077,0.711 -0.233,0.893 l -10.125,5.918 c -0.104,0.061 -0.219,0.091 -0.33,0.091 z" inkscape:connector-curvature="0" style="fill:#2a3747"/>
                </g>
                <g id="g3852">
                  <path id="path3850" d="m 1027.06,382.454 c -0.112,0 -0.227,-0.029 -0.331,-0.091 l -9.77,-5.79 c -0.311,-0.183 -0.413,-0.584 -0.229,-0.894 0.184,-0.31 0.584,-0.414 0.896,-0.228 l 9.769,5.79 c 0.311,0.184 0.412,0.583 0.229,0.895 -0.123,0.203 -0.34,0.318 -0.564,0.318 z" inkscape:connector-curvature="0" style="fill:#2a3747"/>
                </g>
                <g id="g3856">
                  <path id="path3854" d="m 1027.06,391.179 c -0.115,0 -0.231,-0.03 -0.337,-0.095 l -9.769,-5.919 c -0.31,-0.187 -0.408,-0.588 -0.221,-0.896 0.187,-0.309 0.587,-0.406 0.896,-0.22 l 9.769,5.919 c 0.31,0.187 0.407,0.588 0.221,0.897 -0.122,0.203 -0.338,0.314 -0.559,0.314 z" inkscape:connector-curvature="0" style="fill:#2a3747"/>
                </g>
              </g>
            </g>
          </g>
        </switch>
      </g>

    </g>
  </g>
  <style id="style3875">
  #outline {
		stroke: #111;
		stroke-width: 31.66235665441778;
		fill: none;
  }
  .dot {
		fill: #111;
  }
  .point {
		fill: #111;
  }
  /*.point:nth-child(odd) {
		fill: rgb(165, 24, 201);
  }*/
  .ray {
		stroke: #111;
		stroke-width: 31.66235665441778;
  }
  /*.ray:nth-child(even) {
		stroke: rgb(165, 24, 201);
  }*/
  #background {
		fill: #FCFCFC;
		stroke: none;
  }
  #pupil {
		fill: rgb(165, 24, 201);
  }
</style>
</svg>