<svg fill="none" height="383" viewBox="0 0 872 383" width="872" xmlns="http://www.w3.org/2000/svg"><rect fill="#4ab657" height="30" rx="4" width="476" x="195" y="159"/><path d="m155.662 139.437-.87.503-17.54 10.126-.87.503v1.006 20.254 1.004l.87.503 17.54 10.128.87.502.873-.502 17.539-10.128.871-.503v-1.004-20.254-1.006l-.871-.503-17.539-10.126z" fill="#2a3747"/><path d="m170.25 152.65-14.044-8.108c-.336-.193-.752-.193-1.088 0l-14.045 8.108c-.337.195-.544.554-.544.942v16.217c0 .389.207.748.544.942l14.045 8.108c.168.098.355.145.543.145s.376-.047.545-.145l14.044-8.108c.337-.194.542-.554.542-.942v-16.217c0-.389-.205-.747-.542-.942z" fill="#4ab657"/><path d="m175.16 149.69-18.844-10.881c-.405-.234-.901-.234-1.306 0l-18.847 10.881c-.403.232-.652.663-.652 1.13v21.762c0 .467.249.898.652 1.132l18.847 10.879c.201.117.428.176.652.176.227 0 .452-.059.653-.176l18.844-10.879c.406-.233.656-.665.656-1.132v-21.762c.001-.467-.249-.898-.655-1.13zm-1.957 22.138-17.541 10.127-17.54-10.127v-20.254l17.54-10.127 17.541 10.127z" fill="#4ab657"/><path d="m155.664 180.593c-.361 0-.654-.293-.654-.653v-28.075c0-.361.293-.653.654-.653.36 0 .651.292.651.653v28.075c.001.36-.29.653-.651.653z" fill="#2a3747"/><path d="m155.663 162.439c-.227 0-.447-.118-.567-.329-.179-.312-.071-.711.242-.891l10.124-5.789c.313-.18.713-.07.893.242.179.312.07.711-.242.891l-10.125 5.79c-.103.059-.214.086-.325.086z" fill="#2a3747"/><path d="m155.663 171.164c-.225 0-.443-.115-.564-.323-.182-.312-.077-.712.234-.894l10.124-5.919c.312-.181.711-.077.894.234s.077.711-.233.893l-10.125 5.919c-.104.061-.219.09-.33.09z" fill="#2a3747"/><path d="m155.661 162.44c-.112 0-.227-.029-.331-.091l-9.77-5.791c-.311-.183-.413-.584-.229-.894s.584-.413.896-.228l9.769 5.789c.311.184.412.584.229.895-.122.206-.339.32-.564.32z" fill="#2a3747"/><path d="m155.66 171.165c-.115 0-.231-.031-.337-.096l-9.769-5.918c-.31-.188-.408-.588-.221-.896.187-.309.587-.406.896-.221l9.769 5.919c.31.187.407.589.221.897-.121.204-.337.315-.559.315z" fill="#2a3747"/><path d="m119.999 179.633.15-.441c.853-1.111 1.426-2.56 1.703-3.818l.259-1.178-1.017.648c-2.211 1.412-4.148 2.546-5.757 3.369l-1.88.963 2.113.229c1.141-.01 2.521.228 4.183.228z" fill="#88559d"/><path d="m124.992 135.295c-.897-1.6-8.472-13.053-10.775-16.53-.152-.224-.305-.455-.458-.691-.149-.23-.084-.541.145-.69.225-.146.546-.078.691.14l.454.684c2.714 4.007 4.514 5.065 5.544 5.247.813.142 1.286-.219 1.584-.444.765-.574.938-2.634-1.071-5.417-2.146-2.972-6.613-9.157-5.511-28.321 1.069-18.583-.565-37.323-.582-37.511-.023-.262.163-.499.503-.544.231 0 .435.167.484.396.009.042.927 4.23 3.573 7.631.959 1.234 2.504 1.812 3.448 1.32.422-.219 1.713-1.22.595-4.868l-.132-.428c-.818-2.65-1.093-3.543-3.633-18.384-2.661-15.556-16.29-16.344-18.995-16.344-.261 0-.429.007-.511.01-.236 0-.4432-.167-.4912-.397-3.086-14.74098-12.183-17.80296-14.897-18.38996-2.458-.53-4.824-.20401-5.46.66699-.254.347-.526.94199-.375 1.80499.215 1.229 1.345 3.28002 5.5 6.06698.193.13.272.382.187.599-.074.189-.265.307-.544.311-.082-.013-8.502-1.32695-18.502-1.32695-11.411 0-20.219 1.63395-26.14 4.83595-3.512 1.5-12.418 6.103-11.466 9.356.186.634.564 1.075 1.158 1.347.461.211 1.05.318 1.751.318 1.89 0 4.246-.765 5.822-1.48.241-.112.543.003.657.24.117.244.015.542-.232.665-.084.043-8.44 4.535-10.055 23.343-.317 3.691-.483 6.855-.63 9.646-.634 12.06-.952 18.113-11.357 35.32-1.616 2.672-2.315 5.032-1.917 6.477.156.567.475.973.976 1.24.275.146.601.221.966.221 2.269 0 6.068-2.869 8.468-6.395.117-.171.326-.255.536-.203.203.052.354.227.375.435.028.276.469 7.083-18.14201 34.63-.043.054-4.355 5.471-2.009 7.727.598.575 1.39901.878 2.31601.878.17 0 .33298-.01.48398-.026 1.631-.182 3.33602-1.221 4.70102-2.881.372-.526.612-.837.676-.919.16-.203.474-.25.685-.098.219.158.274.457.126.681-.191.29-.393.569-.623.859-2.703 3.866-11.506 17.9-11.295 36.194.19 16.438.004 21.717-.065 23.704l-.00602.173c-.018.51-.027.787-.013 1.017.243 4.041 1.48602 4.48 2.95502 4.612l.147.008c1.845 0 3.62299-3.612 4.21399-6.974.054-.369.092-.607.107-.698.04-.239.25301-.409.56601-.414.268.04.458.291.423.56-.024.18-.05101.362-.08401.561-.309 2.176-1.276 9.967-.763 18.854.663 11.475 3.45801 20.061 8.30801 25.521 1.251 1.409 3.863 3.374 5.275 3.374.202 0 .385-.037.544-.11.508-.235 1.279-1.201.729-5.026-.037-.255.131-.5.382-.558.251-.059.51.09.589.333.535 1.653 1.481 3.894 2.389 5.172l.787 1.107 4.565-52.032.015-.165-.087-.141c-.539-.877-.958-1.792-1.209-2.646-1.71-5.814-.371-18.54 2.147-40.532 1.045-9.13 3.13-15.125 6.207-17.818l2.826-5.186-5.637-20.224c-.056-.142-.131-.287-.174-.493l-.096-.177c.004-.041-.121-.082-.124-.083l.134-.11c.004-.677.5-1.433 1.16-2.128 1.627-1.715 6.447-4.646 20.26-4.386l1.222.023-.855-.873c-3.222-3.289-5.222-6.396-6.127-7.955l-.322-.554-.459.446c-2.97 2.884-6.069 5.553-9.256 7.97-.012.011-1.28 1.212-2.934 1.087-.859-.056-1.65-.486-2.289-1.243-.602-.714-.87-1.495-.796-2.322.076-.845.502-1.711 1.304-2.649l.508-.594-.752-.212c-.668-.188-1.241-.61-1.704-1.254-.499-.694-.662-1.463-.471-2.225.51-2.034 3.368-3.456 3.491-3.516.243-.12.549-.014.667.229.122.247.02.547-.227.669-.026.013-2.569 1.287-2.961 2.863-.12.48-.017.937.313 1.396.387.539.862.851 1.412.927 1.219.163 2.486-.818 2.535-.858.327-.259.553-.104.698.073.176.213.149.52-.057.694l-.474.396c-1.252 1.036-3.146 2.601-3.285 4.15-.05.559.134 1.079.563 1.587.463.549.995.849 1.579.89.946.062 1.92-.568 2.254-.869 28.979-21.955 38.916-55.583 39.013-55.92.045-.159.166-.284.322-.336.124-.041.306-.026.422.034.257.134.341.377.544 1.061.411 1.381 1.267 4.255 3.817 4.255 2.859 0 5.493-7.582 6.267-10.503.06-.226.248-.365.487-.371.229.001.426.157.482.378.009.036.925 3.604 3.032 4.843.72.423 1.508.521 2.353.295.818-.22 1.454-.745 1.9442-1.606 1.894-3.331.657-9.904.643-9.968l-.036-.106c-.031-.066-.046-.137-.046-.211 0-.266.207-.5.532-.525.326 0 .458.21.588.955.083.473.792 4.722.004 8.153l-.069.299.236.197c1.472 1.229 4.865 4.711 4.583 10.488-.333 6.844-2.278 12.408-2.347 12.609l-.148.275.064.199c.25.77.418 1.55.497 2.32l.022.211.167.131c2.74 2.15 3.012 10.615 2.658 13.621-2.046 17.375-11.2122 25.15-16.4942 28.238l-.757.442.766.426c3.81 2.119 6.053 4.112 6.153 5.467.105 1.427-3.566 8.239-9.822 18.222l-.331.528.588.208c2.229.791 7.486 4.313 8.149 19.896l.833 14.151c0 .018-.012.071-.028.141l-.045.198 1.008 1.716.264-1.282c.543-2.641 1.414-4.682 2.5882-6.066.253-.3.519-.585.795-.884 1.046-1.126 2.034-2.189 2.343-4.042.433-2.596 1.736-4.085 3.577-4.085.479 0 1.214.202 1.838.77l.279.253.32-.198c.099-.061.185-.091.278-.091h.001l4.395.248c.134.008.256.066.344.165.089.101.134.229.127.362l-.166 2.92 4.294.244.151-2.682c.008-.131.068-.257.161-.34l.486-.244-.111-.396c-1.57-5.636-6.876-15.027-9.498-19.263-.134-.235-.054-.539.178-.678.232-.135.521-.093.724.235.214.324 1.568 2.191 7.196 7.153 2.458 2.166 4.756 2.78 6.121 1.676 1.203-.974 1.478-3.018.614-4.559z" fill="#88559d"/><path d="m119.157 199.864-.018-.459-.987-.047c-4.471-.223-9.539-.475-13.974-.475-4.4531 0-7.802-.949-9.955-2.821l-.888-.772 3.176 61.494.763-.616c9.471-7.65 11.594-31.709 11.614-31.95.021-.237.206-.429.509-.46.21 0 .397.139.465.346 1.62 4.962 3.144 6.523 4.139 6.961.702.305 1.378.109 2.006-.176 2.361-1.077.426-9.436-.935-13.724-.103-.282-.2-.579-.291-.892-.075-.26.073-.536.332-.617.256-.078.538.067.622.317.085.252.182.547.295.898 1.251 3.372 3.19 3.736 3.966 3.736.221 0 .435-.027.634-.082.499-.137 1.11-.371 1.407-.986.275-.57.394-1.741-.61-4.085-1.745-4.067-2.197-13.7-2.27-15.59z" fill="#88559d"/><path d="m44.9687 356.533c-2.691 0-5.029-.353-7.815-1.178l-.642-.19v.67 6.578.298l.261.142c.183.1.386.299.62.529.843.831 2.117 2.086 5.535 2.086 4.559 0 6.583-2.342 6.583-3.232v-6.015l-.57.08c-.988.139-2.585.232-3.972.232zm3.542 5.684v-4.856l.001 4.854s-.001.001-.001.002z" fill="#fff"/><path d="m63.9578 231.124-.823 55.816 7.951-.147.175-55.834z" fill="#fff"/><path d="m33.4457 190.696.073.092c.053.052.09.106.114.166l.051.097c1.44 2.131 4.941 5.707 12.21 5.707 1.724 0 3.579-.206 5.514-.613 12.609-2.655 48.333-13.33 49.8483-13.783l.435-.131-.087-.445c-.335-1.706-1.28-6.139-2.8133-10.421-1-2.792-2.125-5.147-3.254-6.812l-.209-.309-6.186 1.951c-.075-.064-.18-.098-.328-.098-.109 0-.334.033-.449.321l-41.545 11.946c-.261.076-.545-.081-.622-.341-.078-.264.075-.542.339-.62l2.987-.876 2.989-42.761c.019-.264.239-.464.533-.464.275.02.483.259.464.535l-2.963 42.392 12.646-3.707.431-.22-.113-.462c1.216-32.146 1.534-38.656 1.722-39.899l.471-3.272-.353.748c.207-4.465.529-13.484.708-18.786l.018-.504-.528.058c-.565.011-1.148.139-1.743.172-.767.042-1.557.277-2.406.277h-.001-.14l-.12-.07c-.078.047-.14-.037-.194.023-.058-.064-.125-.03-.208-.079l-.116.126h-.134c-9.332 0-17.18-1.442-20.994-3.342l-1.005-.693 5.088 18.317c.035.125.02.256-.042.371l-1.945 3.604 1.003-.164c.253-.042.51-.062.763-.062.717 0 1.17.167 1.172.168.256.101.383.392.283.648-.098.249-.371.387-.649.283-.114-.042-1.272-.518-2.988.559-1.862 1.165-5.204 5.024-6.665 17.783-2.431 21.224-3.836 34.518-2.184 40.137.238.807.626 1.656 1.122 2.453zm27.526-79.062c-.016 0-.031 0-.046 0-.004 0-.008-.009-.012-.009.021.001.036.009.058.009z" fill="#fff"/><path d="m77.1898 125.997.099.266.279.051c2.092.385 3.109 2.315 3.109 5.902 0 4.958.061 27.254.078 33.826l.004 1.315 7.589-2.227-.004-.378c-.069-6.966-2.322-31.478-2.581-34.281-.012-.122.023-.294.075-.377 4.029-6.371 10.444-17.148 10.507-18.999-.101-1.354-4.136-3.908-6.823-5.294l-.219-.113-.224.105c-2.797 1.323-4.811 1.672-5.485 1.672-3.174 0-6.287-.423-9.253-1.258l-.667-.188.032.692c.122 2.661.732 11.91 3.484 19.286z" fill="#fff"/><path d="m87.5539 130.967-.757-.301.0739.811c.383 4.177 2.2991 25.383 2.4621 32.708l.015.652 6.348-1.862-.768-13.054c-.625-14.711-5.365-18.156-7.374-18.954z" fill="#fff"/><path d="m37.9447 104.605c.649 1.266 4.0861 4.231 21.9301 4.417l.5279.005-.503-10.5836-.494-.015c-14.563-.49-19.432 2.3866-21 4.0396-.685.721-.895 1.245-.895 1.437v.073l.2731.533z" fill="#fff"/><path d="m54.0122 295.634h.003.418.014c.182 0 .322-.074.439-.149 1.187-.044 2.393-.179 3.67-.321.974-.108 1.974-.22 3.002-.293l.458-.033 1.485-100.66-.638.17c-4.863 1.294-8.648 2.229-11.25 2.777-2.017.424-3.956.641-5.764.642-6.014 0-9.595-2.377-11.54-4.371l-.761-.778-8.653 98.625-.028.333.286.172c2.12 1.164 8.726 3.901 24.24 3.901 1.489-.001 3.043-.015 4.619-.015z" fill="#fff"/><path d="m77.1257 375.057c-2.424 1.782-6.6959 2.064-6.8459 2.074l-36.7691.002v.5 4h36.957c.045 0 4.537-.058 6.63-2.122.611-.603.935-1.497.933-2.623l-.179-2.364z" fill="#fff"/><path d="m112.251 371.12c-2.487 1.828-6.709 2.135-6.723 2.137l-26.5573.13.139 4.247h.484 25.8743c.045 0 4.536-.058 6.63-2.122.625-.615.997-1.629.997-2.729l-.084-2.222z" fill="#fff"/><path d="m72.4757 351.255-.965-.169v.595 6.732.298l.261.142c.183.1.3861.299.6201.529.843.831 2.1169 2.086 5.5349 2.086 4.559 0 6.583-2.342 6.583-3.232v-6.517l-.576.088c-.973.149-2.632.216-3.845.216-3.242 0-5.665-.426-7.613-.768zm11.035 6.962v-5.349l.001 5.346c0 .001-.001.002-.001.003z" fill="#fff"/><path d="m97.3276 292.05-5.104-98.865-.02-.117c-.075-.251-.101-.415-.105-.454-.009-.065.004-.141.04-.235l.038-.099-.316-6.125-.607.178c-2.976.87-6.354 1.853-9.884 2.866l-.357.103-1.329 104.146.491.016c.769.023 1.94.048 3.332.048 4.419 0 10.342-.231 13.469-1.335z" fill="#fff"/><path d="m130.053 180.411-.072-.417-.423.002c-4.757.022-11.247.317-15.125.494-1.812.083-3.122.143-3.493.146-.047-.014-.167-.104-.238-.156-.11-.083-.218-.16-.318-.212l-.104-.054-.116-.002c-.114-.002-.281-.077-.443-.149-.17-.076-.363-.162-.645-.211-2.363-.107-4.756-.71-6.347-1.197l-.824-.252.19.841c.417 1.842.635 3.087.658 3.222.042.249-.108.491-.349.564-.117.035-3.7883 1.137-9.1793 2.722l-.378.111.362 7.013.029.144c.524 1.463 2.641 4.864 10.9393 4.864 4.484 0 9.57.254 14.058.478 3.135.156 6.689.333 8.939.333.971 0 1.643-.032 2.052-.099l.356-.057.058-.356c.378-2.323 1.07-13.955.413-17.772zm-19.142 1.222h.002s-.001 0-.002 0z" fill="#fff"/><path d="m137.122 164.077c-.424-.521-1.219-.855-2.238-.943-.247-.021-.876-.057-1.766-.105l-.499-.021-.998-.068-.501-.026c-6.326-.335-18.401-.915-20.49-1.016l-.356-.016c-.943 0-1.982-.111-2.535-.936-.623-.929-.405-2.499.726-5.252.754-1.837.843-3.271.257-4.145-.442-.659-1.149-.833-1.461-.833-1.321 0-2.241 1.153-2.59 3.249-.357 2.148-1.495 3.373-2.596 4.56-.26.279-.519.559-.766.85-1.278 1.506-2.1748 3.971-2.6638 7.327-.033.227-.062.375-.076.423-.007.021-.044.073-.079.123l-.164.232.116.26c.449 1.007.8829 2.092 1.2899 3.228.6499 1.815 1.2619 3.837 1.8169 6.009l.066.26.253.088c.716.251 1.853.615 3.205.933l1.2.282-.665-1.038c-.507-.793-.765-1.653-.765-2.56 0-2.771 2.43-5.026 5.417-5.026s5.417 2.275 5.417 5.073c0 .38-.051.815-.135 1.164l-.271 1.118 1.002-.564c3.882-2.185 8.648-5.356 11.649-7.53l1.263-.915-1.559.01c-2.802.018-6.384.143-10.087.353l-.196.009c-.222 0-.493-.378-.5-.697-.007-.32.268-.735.485-.74l.124-.002c1.968-.036 8.75-.154 13.391-.154 5.886 0 6.465-.854 6.586-1.886.049-.407-.055-.769-.307-1.078zm-19.758 5.557c-.007 0-.014 0-.021 0-.013 0-.024-.007-.037-.008.019.001.038.008.058.008z" fill="#986537"/><path d="m82.1786 59.6833.465 1.252.471-1.25c1.646-4.367 5.873-7.302 10.521-7.302 3.858 0 7.4064 1.958 9.4924 5.238l.604.949.3-1.084c.675-2.438 1.524-6.231 1.73-10.46.226-4.63-2.178-7.706-3.631-9.126l-.488-.477-.308.609c-.635 1.255-1.5164 2.019-2.6944 2.335-1.113.299-2.165.164-3.125-.402-.922-.544-1.744-1.485-2.441-2.797l-.5401-1.016-.375 1.088c-1.096 3.182-3.3839 8.519-6.3989 8.519-1.83 0-3.174-1.012-4.109-3.093l-.51-1.135-.4171 1.173c-.792 2.225-2.1709 5.805-4.2489 10.23l-.207.439.4339.219c2.55 1.287 4.4951 3.45 5.4761 6.091z" fill="#986537"/><path d="m105.655 65.5777-.63-1.73-.331 1.812c-.977 5.345-5.6266 9.224-11.0566 9.224-.728 0-1.466-.074-2.195-.218l-1.055-.21.52.942c.846 1.532.843 2.753.693 3.507-.315 1.578-1.464 2.515-2.398 2.718-.336.073-.692.11-1.058.11-4.288 0-9.118-4.874-9.322-5.082-.193-.197-.19-.514.006-.707.19-.188.519-.185.708.006 1.626 1.655 5.514 4.785 8.585 4.785.303 0 .595-.03.869-.09.63-.137 1.415-.862 1.63-1.937.327-1.636-.641-3.523-2.871-5.508-2.124-1.313-3.773-3.319-4.643-5.649l-.468-1.255-.468 1.255c-1.638 4.385-5.87 7.332-10.532 7.332-2.235 0-4.399-.66-6.258-1.908l-.403-.271-.282.396c-3.607 5.046-7.543 9.733-11.7 13.929l-.263.265.179.327c1.722 3.147 11.294 18.8463 30.686 18.8463 1.292 0 3.263-.589 5.273-1.577l.132-.095c.069-.069.158-.113.265-.132l.146-.05c4.467-2.34 15.0906-9.7803 17.2696-28.2883.331-2.835-.008-7.946-1.028-10.747z" fill="#986537"/><path d="m72.6791 106.024-.009-.358-.326-.139c-3.742-1.314-7.283-3.365-10.525-5.9985l-.864-.801.45 9.9075h.479c1.482 0 3.04.177 4.746.133.142 0 .252.28.32.348.097.098.149.232.145.369-.337 10.093-.558 16.051-.715 19.318l-.015.317.281.148c2.034 1.076 3.813 1.621 5.29 1.621.785 0 1.483-.157 2.076-.465 1.679-.871 2.22-2.74 2.375-3.503l.029-.144-.052-.139c-3.297-8.595-3.655-19.41-3.685-20.614z" fill="#986537"/><path d="m53.3228 296.284c-1.562.045-3.175.067-4.586.067-4.725 0-7.9541-.242-11.6851-.558l-.541-.045v.544 57.423.36l.3421.235c2.688.895 5.4459 1.45 8.4289 1.45 1.556 0 3.173-.127 4.927-.127h.003l.018-.211.341-.29c1.253-.18 2.5-.422 3.706-.719l.3861-.095-.8331-58.05zm-2.828 58.35c.014-.002.025-.005.039-.007-.002.003-.005.004-.008.007z" fill="#55708f"/><path d="m88.5128 294.302-.5161.021c-1.279.052-2.633.076-4.024.076-2.448 0-4.307-.076-4.819-.1-.271-.014-.479-.235-.476-.506l.9381-73.51-15.4921-.47-.1549 10.493 10.9479-.332c.232 0 .459.243.468.501.003.115-.0309.203-.1049.271-.087.078-.2211.124-.3741.129l-2.647.06-.372 118.569-.001.4.391.089c1.563.355 4.745.952 8.491.952 2.824 0 5.471-.337 7.869-1l.37-.101z" fill="#55708f"/><path d="m80.0077 189.588-.646.185c-5.462 1.559-10.338 2.917-14.492 4.038l-.364.098-.368 24.905 15.49.471z" fill="#000"/><path d="m79.511 167.278c0-4.221.042-29.713.042-35.06 0-2.664-.476-4.28-1.66-4.801l-.52-.229-.161.545c-.342 1.157-1.092 2.716-2.723 3.571-1.88.984-4.422.732-7.516-.748l-.666-.318-.052.735c-.044.661-.085 1.036-.122 1.255l-.063.492.024.007c-.234 3.617-1.114 25.094-1.629 38.71l-.089.694 15.135-4.478z" fill="#000"/><path d="m65.8617 364.443c-8.969-1.047-13.332-1.34-14.791-1.417l-.286-.016-.158.239c-.638.968-2.621 3.218-7.231 3.218-4.741 0-6.598-2.235-7.177-3.196l-.217-.236-.271-.009c-.035-.001-.075-.001-.103-.006-.066-.019-.207-.038-.356-.038-.293 0-.535.07-.722.212-.574.434-.897 1.148-.994 2.101-.027.179-.044.374-.044.59v10.748h36.957.136l.117-.068c.484-.283 1.322-.536 2.209-.803 2.11-.635 4.735-1.426 4.961-3.407l.007-.062-.008-.062c-.211-1.522-1.694-6.58-12.029-7.788z" fill="#000"/><path d="m100.87 360.444c-8.9522-1.045-13.3422-1.339-14.8142-1.417l-.2861-.016-.1579.239c-.638.968-2.6221 3.218-7.2471 3.218-4.006 0-5.9459-1.601-6.7449-2.555l-.25-.299-.3511.17c-.056.027-.283.072-.435.046l-.397-.02-.171.329c-.13.197-.399.644-.474 1.389-.02.109-.031.228-.031.356v1.75c0 .181.087.306.203.419l-.021.183.411.115c7.048 1.972 8.441 6.096 8.7 7.313l.09.218c.002.07.004.157.006.263l.011.489h.4901 26.0672.134l.116-.066c.494-.285 1.358-.521 2.274-.771 2.14-.585 4.803-1.312 4.916-3.446-.169-1.546-1.535-6.68-12.038-7.907z" fill="#000"/><path d="m35.0299 60.3218c.818-1.109 2.244-1.771 3.814-1.771 1.375 0 2.673.641 3.592 1.766l1.347 5.576c.538 2.548 1.147 4.989 1.708 7.073l.799 3.307c-.348.652-1.405 2.25-3.409 2.25-.313 0-.645-.039-.983-.115-2.604-.585-5.836-8.272-7.264-12.986-.651-2.104-.514-3.868.396-5.1z" fill="#986537"/><path d="m93.6357 53.3838c-5.652 0-10.25 4.598-10.25 10.25 0 2.734 1.068 5.307 3.007 7.246l.1541.094c.668.466 1.273.938 1.927 1.501 1.572.922 3.3569 1.409 5.1619 1.409 1.857 0 3.688-.515 5.293-1.488l2.2003-1.334-2.5403.413c-.244.04-.49.077-.7449.077-2.527 0-4.5831-2.056-4.5831-4.583 0-.233.021-.469.065-.711.444.299.9681.462 1.5191.462 1.517 0 2.75-1.234 2.75-2.75 0-.55-.163-1.075-.462-1.519.242-.043.479-.065.711-.065 2.4092 0 4.4092 1.894 4.5542 4.311l.157 2.62.817-2.494c.34-1.039.513-2.111.513-3.187.001-5.654-4.5973-10.252-10.2493-10.252z" fill="#fff"/><path d="m76.2888 54.5093-.454-.231-.223.457c-2.862 5.858-6.15 11.489-9.773 16.735l-.289.419.424.282c1.685 1.12 3.643 1.712 5.662 1.712 1.857 0 3.688-.515 5.293-1.488l2.2-1.334-2.54.413c-.244.04-.49.077-.745.077-2.527 0-4.583-2.056-4.583-4.583 0-.233.021-.469.065-.711.444.299.968.462 1.519.462 1.517 0 2.75-1.234 2.75-2.75 0-.55-.163-1.075-.462-1.519.242-.043.479-.065.711-.065 2.409 0 4.409 1.894 4.554 4.311l.157 2.62.817-2.494c.34-1.039.513-2.111.513-3.187.001-3.867-2.144-7.363-5.596-9.126z" fill="#fff"/><path d="m110.261 170.884c-2.436 0-4.417 1.813-4.417 4.042 0 1.877 1.399 3.491 3.494 3.937.149.004.297.007.444.007.446 0 .869-.022 1.257-.065.342-.038.763-.148 1.39-.375 1.387-.721 2.249-2.063 2.249-3.503 0-2.23-1.981-4.043-4.417-4.043z" fill="#fff"/><path d="m118.583 161.282.141-2.501-4.294-.244-.144 2.536z" fill="#88559d"/><path d="m110.421 151.477-.509 8.985 3.396.192.145-2.617c-.002-.042-.008-.083-.017-.057l.38-6.312z" fill="#fff"/><path d="m118.786 157.765-4.293-.245.136-2.395 4.293.245z" fill="#fff"/><path d="m119.932 152.162.051.58c.027.307.043.602.029.863l-.237.735 11.617.742.697.118.005-1.723.066-.527z" fill="#fff"/><path d="m119.781 157.839.136-2.394 11.019.624-.135 2.395z" fill="#fff"/><path d="m119.586 161.25 12.092.685.108-1.919-.034-.602-.512.079-11.518-.656z" fill="#fff"/><path d="m149.1 158.651-5.037-4.492-.451 7.977z" fill="#4ab85f"/><path d="m139.834 158.202c-.015.264-.233.432-.526.432h-.002c-.133 0-.255-.021-.344-.121s-.134-.184-.127-.316l.273-4.831-2.989-.147-.27 4.853c-.015.264-.233.563-.526.563h-.002c-.133 0-.255-.159-.344-.259s-.134-.321-.127-.454l.271-4.806-1.51-.086-.644.01.125.633-.41 8.319 9.907.562.507-8.995-2.989-.18z" fill="#4ab85f"/><path d="m130.386 179.634s5.25-6.25 7.375-5.5 7.5 4.125 7.875 4 9.25-13.625 11.25-11.5-4 11.625-4 11.625-3.5 5.375-2.5 5.875 12.25-12.375 13.5-12.75 4.5-.25 3.75 1.875-.25 3.375-.25 3.375 2-2.25 3.125-1 1.625 3.375 1.625 3.375l-1 1.75 2.875-.125 1.25 2.75-2.25 1.75-10 2.875-5.125 1.75-18.625.625s-8.875.875-8.375 1 .875-10.25-.5-11.75z" fill="#986537"/><path d="m55.3857 85.1338s10.875 18.2502 32 19.8752c0 0-2.375 3.125-9.625 1.625s-12.625-5.125-16.375-7.7502c-3.75-2.625-9.25-11.5-9.25-11.5z" fill="#73401f"/><path d="m72.2607 106.009s-6.188 10.375.688 24.125l-.9059 1.375-5.5321-2.375v-19.5l-5.75-.5-.375-10.6252s11.375 7.0002 11.875 7.5002z" fill="#73401f"/><path d="m36.0107 69.6338s4.75 10.625 10.125 4.25l1.5 3s-5.75 5.125-8.125 1.75-3.5-9-3.5-9z" fill="#73401f"/><path d="m98.7607 167.509s4.6253 5.25 8.5003 4.25c0 0-3.75 3.25-1.375 5.375s.875 2 .875 2l-5.125-1.375z" fill="#73401f"/><path d="m114.011 171.634s4-2.5 5-3.125 10-.25 10-.25l-9.125 6.875-4.125 2.125z" fill="#73401f"/><path d="m120.761 166.759s11.125-1.25 10.875-3.5 4.875 0 4.875 0l2.25 2.375-4.5 1.875-8.25.125-5.125.125z" fill="#73401f"/><path d="m76.5107 54.2588 1.5.125s3.062-3.5 4.688-10.75l-1.6559-2.375-4.5321 11.125z" fill="#73401f"/><path d="m86.3857 45.8838s4.625 2.25 8-7.25l-1.75-2.75-4.625 8.375z" fill="#73401f"/><path d="m97.1357 40.6338s3.3753 3.5 6.2503-1.25l-1.75-2.125-2.7503 2.5z" fill="#73401f"/><path d="m40.2607 106.259s10.25-8.1254 17.75-7.8754l2.375.125.375 10.6254s-19.625-.375-20.5-2.875z" fill="#b6b6b4"/><path d="m77.0105 126.259s-4.75-18.375-3.375-20.375c0 0 10.625 2.25 11.625 1.25s6.5 3.875 6.625 6.625c.122 2.69-7.375 15.5-6.5 16.5 0 0 3.625 26.875 3.5 34.875 0 0-4 1.75-3.875 1.375s-.125-32-2.25-35.5c-1.494-2.46-4.375-4.25-4.375-4.25z" fill="#b6b6b4"/><path d="m87.5107 134.259s4.125 6.75 4.5 18.375 0 12.125 0 12.125l4.125-1.5s-.75-21.75-2.25-24.875-6.625-8-6.625-8z" fill="#b6b6b4"/><path d="m53.1357 110.009s8.5 1.125 8.375 9.875c-.098 6.875-.625 52.625-5.375 54.875l7.5-1.625 1.75-39.25 1.125-24.25-11.125-.25z" fill="#b6b6b4"/><path d="m52.3857 133.259s-3.375 1.625-4 15-2.125 29.75-2.125 29.75l3.875-1.625 2.875-39.5z" fill="#b6b6b4"/><path d="m34.3857 192.009c.375.25 7.5 3.375 16.625.875 4.769-1.307 40.75-10.75 43.375-12.625s4.25-6.125 3-11.125l2 2 3.1253 11.625-44.1253 12.25s-16.125 4.5-19.875.875-4.125-3.875-4.125-3.875z" fill="#b6b6b4"/><path d="m36.5107 195.884s2.875 5.25 9.75 5.125c8.343-.151 12.625-2.5 12.625.625s-1.288 65.873-1.5 70.125c-.75 15-3.75 23.375-8.5 23.375l13.75.125.625-27.125.75-74.5-17 3.25s-7.75-.125-9.875-2z" fill="#b6b6b4"/><path d="m71.8857 231.384-7.875-1.125-.625 52.375 7.5.375z" fill="#b6b6b4"/><path d="m81.3857 192.259s7.072-1.249 7.125 1c.438 18.5 2.103 52.496 2.25 57.875.625 22.875 1.125 42-5.25 42.375l12.25-1.5-2.875-45.625-2.5-60.75-11.125 2.625z" fill="#b6b6b4"/><path d="m124.011 194.884c-1.061.122-19.938-.031-24.3123-.656-4.059-.58-3.062-4.719-3.328-6.189 2.923-.892 6.9603-2.165 8.2653-2.779 2.125-1 3.875-4.75 5.875-4.875l-8.875-2.625.25 4.625-9.5003 3.25.745 3.354c-.187.825-.333 1.922-.37 3.396-.125 5 10.7503 6.25 10.7503 6.25h26.75l-.125-13.5c-.875 3.249-2.875 9.374-6.125 9.749z" fill="#b6b6b4"/><path d="m118.511 157.634.5 3.667-6.5.333.917-1.333.583-2.667z" fill="#65367c"/><path d="m120.511 179.634-6.333-.5 7.666-4.5z" fill="#65367c"/><path d="m109.761 38.8838c-.5-3.125-2.625-7.75-7.375-9.125l-.458 7.208s3.25 3.083 3.333 4.25.5 11.917.5 11.917l-1.833 6.333.417 4.25 1.08.668c.387 1.253 1.155 4.058 1.753 8.249.833 5.833-3.833 18-6 21.833-2.1673 3.833-11.1673 10.6672-11.1673 10.6672 3.167 1.5 6.667 6.167 6.667 6.167l-9.417 19.083s2.25 1.417 5.417 5.917 3.1661 26.333 3.1661 26.333l1.8329 4.667.5-1.167c.333-3.167 3.5003-8.167 3.5003-8.167s2.167-2 2.333-4 4.167-3.999 6.167-2.666c0 0-2.667-9.75-6.333-18.417-3.195-7.551-1.538-8.475-.731-8.95 2.064-1.216 4.147 1.2 6.231-.133 2.01-1.286 1.75-2.5-.417-7-1.216-2.526-3.874-5.899-1.917-7.667 1.626-.982 3.75 2.667 5.417 1.75 1.813-.998.59-2.212-.333-7.25-1.108-6.0462-.173-12.0622.083-18.1672.188-4.493.352-9.234-.129-13.744-.336-3.147-.37-5.256-1.37-8.755-.478-1.673-1.778-3-1.796-4.797-.02-1.951.807-4.047 1.085-5.987.615-4.287.49-8.953-.206-13.3z" fill="#65367c"/><path d="m83.0105 41.5089s2.625 3.5 5.25-3.875 5-5.375 3.375-1-2.375 9.5-6.125 8.625-2.5-3.75-2.5-3.75z" fill="#65367c"/><path d="m93.8858 35.7589c.25.375 5.25 2.75 5.375-3.75s1.5002-6.25 2.0002-3.25.5 12.625-3.7502 11.375c-4.25-1.25-3.625-4.375-3.625-4.375z" fill="#65367c"/><path d="m38.3858 100.884s1.375-3.7502.25-3.8752 1 1 4-1.5 9.5-8.125 9.5-8.125l7.875 9.875s-4.875.625-7.75.625-12.625 1-13.875 3.0002z" fill="#65367c"/><path d="m39.1357 91.6336s.361 2.606 4.5-1.25c5.5-5.125 21.067-20.695 27-34.5 6.5-15.125 11.5-21.375 10.375-16.25s-4.75 14-8.375 20.25-19.375 29.25-30 35.625c0 0-3.5 3.25-5.125.25s1.625-4.125 1.625-4.125z" fill="#65367c"/><path d="m36.5113 87.6336s1.375.625 3.75-.25 3.25.5.875 2.125c-1.502 1.028-4.375.375-4.375.375s-1-1.25-.25-2.25z" fill="#65367c"/><path d="m43.3861 53.8839s1-3.5 1.75-.5 3.625 15.125 4.75 19.75c.648 2.664 2.375 6.875-.875 6.5s-2.25-5.75-2.25-5.75-4.125-15.875-3.375-20z" fill="#65367c"/><path d="m36.5114 104.384s-2.375 2 0 10 3.922 10.174 1.125 13.125c-9.125 9.625-5.5 32-5 24.125 0 0 2.25-12.5 4.25-16.5s5.625-7.75 5.625-7.75l.125-4.25z" fill="#65367c"/><path d="m30.5106 185.509s-4.25 18.75-4.625 33.875c-.102 4.1-.502 12.388-4.75 14.125-2.75 1.125-4.936-3.392-7-4.375-2.779-1.322-2.705 1.484-.625 5.5 3.625 7 7.75 9.125 9.875 8.25s.875-4.125.875-4.125l4.125 4.875 5-52-2-3.625z" fill="#65367c"/><path d="m1.88561 197.009s2.375 3 4-1 3.75-5.875 3.125-1.875-2 9.375-5.125 8.25-2-5.375-2-5.375z" fill="#65367c"/><path d="m4.26123 135.884c1.625.25 2.75 1 5.375-1.125 2.06097-1.668 7.74997-5.75 3.74997.25-2.829 4.244-5.49997 5.125-7.74997 4s-1.375-3.125-1.375-3.125z" fill="#65367c"/><path d="m13.2607 98.5084s1.25 1.7496 5.125-1.375c3.875-3.125 8.125-6.5 5.75-2s-6.375 7.3746-8.875 7.1246-1.875-3.2496-2-3.7496z" fill="#65367c"/><path d="m81.2607 1.759s10.161 3.3 13 11.25c2.5 7 6.5003 12 6.2503 7.75s-1.0003-4-2.2503-7.5-7.5-13.125003-17.5-11.625" fill="#65367c"/><path d="m117.136 55.884s5 5 2.125-10.625c0 0-1.375-18.25 2.875 2.5 1.122 5.476 2.75 12.125 2.75 12.125l-4 1.25z" fill="#65367c"/><path d="m92.8857 196.009 3.375 60.875s7.7503-2.5 7.2503-19.75-.75-20.375 1.75-20.875 2.5 3.625 5.375 2.625-2.444-9.601.5-10.375c2.375-.625 1.359 3.689 4.5 2.875 3.375-.875-.375-12.5-.375-12.5s-17.7503-.875-19.2503-2.375-3.125-.5-3.125-.5z" fill="#65367c"/><path d="m131.261 185.009-.375 6.375 8.375-1 13.25-.75h5.375l5-2.188s7.625-1.438 8-1.438 4.376-2.626 4.376-2.626l-1.248-2.751s-1.368-1.378-5.746.998c-8.758 4.754-1.484-6.556-3.633-4.746-7.125 6-12.594 7.484-14.219 7.234s-2.32.224-5.844 1.109c-10.562 2.656-13.438-3.094-13.438-3.094z" fill="#73401f"/><path d="m88.7614 293.884-9.375-.125.75-68.75-1-1.625c-.25 4.25-15 3.625-15 3.625s-.875 3.75-.5 3.75 8.25.625 8.25.625 4.25-1.875 4.25 4.375-.5 51.375-.625 56.875c-.097 4.256-.25 5.125 3.375 5.125s6-.125 6.125 4.875c.116 4.625.394 36.605.375 37-.125 2.625-1.5 11.625-7.875 11.25 0 0 11.625.375 11.75-1.625s-.5-55.375-.5-55.375z" fill="#2d4462"/><path d="m37.1357 298.384c.375.125 12.75.125 13.125 4.625.147 1.762.708 14 .625 23.5-.125 14.25.25 29.25-6.875 28.875 0 0 10.875 1.875 11-1.375s-1.375-58.375-1-58.125-17.125-.5-17.125-.5z" fill="#2d4462"/><path d="m39.6363 356.259s4.38 1.625 4.5 4.625c.125 3.125-2.125 3.875-4.375 3.5s.125 2.125 4 1.375 6.625-1.875 6.75-5-.375-5-.375-5z" fill="#b6b6b4"/><path d="m74.1363 352.009s4.88 1.875 5 4.875c.125 3.125-2.125 3.875-4.375 3.5s.125 2.125 4 1.375 6.625-1.875 6.75-5-.375-5-.375-5z" fill="#b6b6b4"/><path d="m79.5723 376.759s22.4057-.75 21.9057-3.375c0 0 5.578-.562 7.578-1.438s4.453-.938 4.453-.938v3.626s-2.875 3.625-16.1248 3c-13.25-.625-16.1239.375-17.8119-.875z" fill="#b6b6b4"/><path d="m34.6357 380.634s23.25 1.5 26.5-3l6.75-.75 7.75-1.5 3.125-1.25s1.5 5-3.25 6.25-21.875 1-21.875 1z" fill="#b6b6b4"/><path d="m130.386 179.634s5.25-6.25 7.375-5.5 7.5 4.125 7.875 4 9.25-13.625 11.25-11.5-4 11.625-4 11.625-3.5 5.375-2.5 5.875 12.25-12.375 13.5-12.75 4.5-.25 3.75 1.875-.25 3.375-.25 3.375 2-2.25 3.125-1 1.625 3.375 1.625 3.375l-1 1.75 2.875-.125 1.25 2.75-2.25 1.75-10 2.875-5.125 1.75-18.625.625s-8.875.875-8.375 1 .875-10.25-.5-11.75z" fill="#986537"/><path d="m131.261 185.009-.375 6.375 8.375-1 13.25-.75h5.375l5-2.188s7.625-1.438 8-1.438 4.376-2.626 4.376-2.626l-1.248-2.751s-1.368-1.378-5.746.998c-8.758 4.754-1.484-6.556-3.633-4.746-7.125 6-12.594 7.484-14.219 7.234s-2.32.224-5.844 1.109c-10.562 2.656-13.438-3.094-13.438-3.094z" fill="#73401f"/><path d="m162.428 188.134s8.333-2.668 10.083-3.084 3.07-1.496 2.667-3c-.917-3.416-4.583-.999-4.583-.999" stroke="#000" stroke-linecap="round" stroke-linejoin="round" stroke-miterlimit="10" stroke-width="2"/><path d="m41.4575 80.3598c.483.108.961.164 1.421.164 2.009 0 3.374-.996 4.23-1.964.108.345.18.568.201.633.137.423.529.692.951.692.102 0 .206-.016.309-.049.525-.17.813-.734.643-1.26-.021-.063-.876-2.723-1.87-6.463l-1.532-6.346c-.862-4.017-1.549-8.292-1.549-11.716 0-.552-.448-1-1-1s-1 .448-1 1c0 1.132.071 2.346.193 3.604-1.069-.715-2.313-1.104-3.61-1.104-2.203 0-4.23.966-5.424 2.583-.907 1.23-1.766 3.422-.7 6.873 3.828 12.653 7.95 14.176 8.737 14.353zm-6.428-20.038c.818-1.109 2.244-1.771 3.814-1.771 1.375 0 2.673.641 3.592 1.766l1.347 5.576c.538 2.548 1.147 4.989 1.708 7.073l.799 3.307c-.348.652-1.405 2.25-3.409 2.25-.313 0-.645-.039-.983-.115-2.604-.585-5.836-8.272-7.264-12.986-.651-2.104-.514-3.868.396-5.1z" fill="#000"/><path d="m37.2232 65.1927c.538-.117.88-.65.764-1.188-.108-.502-.133-1.413.156-1.77.044-.055.148-.183.533-.183.701 0 1 1.203 1.318 2.776.097.478.191.937.304 1.331.08.278.186.716.308 1.25-.749-.464-1.359-.64-1.417-.656-.531-.144-1.074.166-1.223.696-.148.529.162 1.08.689 1.232.09.026 2.208.661 2.8 3.03.026.103.071.195.124.281.101.492.196.959.281 1.374.143.7.261 1.281.337 1.642.099.471.515.794.978.794.068 0 .138-.007.207-.021.541-.114.886-.644.772-1.185-.076-.359-.193-.935-.334-1.629-.499-2.445-1.252-6.141-1.599-7.356-.1-.349-.181-.755-.266-1.178-.353-1.744-.886-4.38-3.279-4.38-1.112 0-1.753.507-2.094.933-1.001 1.247-.598 3.229-.548 3.45.119.536.649.874 1.189.757z" fill="#000"/><path d="m63.5209 89.9385c.07.5.497.86.988.86.045 0 .09-.003.136-.009.546-.074.929-.577.856-1.124-.021-.163-.31-2.643 1.224-4.908 1.441 1.884 8.223 9.94 18.797 9.94 3.031 0 6.373-.662 9.989-2.322.502-.23.722-.824.492-1.326s-.824-.722-1.326-.492c-16.103 7.388-25.979-6.435-26.569-7.292.877-.718 2.027-1.342 3.574-1.749.534-.141.853-.688.713-1.222-.141-.534-.687-.855-1.222-.713-8.675 2.285-7.663 10.277-7.652 10.357z" fill="#000"/><path d="m104.844 169.468c.782 0 1.417-.635 1.417-1.417 0-.783-.635-1.417-1.417-1.417-.783 0-1.417.634-1.417 1.417 0 .782.634 1.417 1.417 1.417z" fill="#000"/><path d="m118.844 173.468c.782 0 1.417-.635 1.417-1.417 0-.783-.635-1.417-1.417-1.417-.783 0-1.417.634-1.417 1.417 0 .782.634 1.417 1.417 1.417z" fill="#000"/><path d="m172.633 176.02c-.682-.876-1.519-1.361-2.491-1.441-.557-.048-1.121.047-1.69.242.185-.49.272-.986.243-1.486-.06-.994-.558-1.929-1.442-2.703-2.024-1.768-4.58-.012-5.651 1.167l-9.77 10.854c-.338.397-.876.808-1.126.899.01-.056.026-.116.044-.16.456-.564 1.218-1.684 2.728-3.901 1.445-2.121 3.468-5.162 4.896-7.602.758-1.294.987-2.761.631-4.024-.26-.922-.801-1.643-1.523-2.029-2.5-1.335-4.603.861-5.399 2.258l-9.965 13.703c-.325.446-.225 1.072.221 1.396.448.325 1.073.227 1.397-.221l10-13.75c.024-.033.046-.068.066-.104.013-.022 1.291-2.297 2.737-1.519.232.124.435.426.542.808.209.743.051 1.645-.434 2.473-2.714 4.634-7.566 11.438-7.614 11.504-.037.052-.071.107-.098.165-.45.977-.322 2.256.794 2.813 1.622.814 3.306-1.035 3.607-1.393l9.747-10.829c.018-.02 1.797-1.924 2.852-1.003.479.419.736.862.763 1.316.031.515-.226 1.079-.764 1.678-1.397 1.552-10.952 12.273-12.266 13.748-.364-.008-.746-.017-1.142-.026-6.221-.145-11.978-.205-14.078.695-2.189.939-5.574.901-6.719.858.163-3.926.169-8.136-.215-10.385.012-.015.03-.02.042-.034 1.685-2.223 4.689-5.121 5.953-4.803.537.144 1.082-.183 1.219-.718.138-.535-.185-1.08-.719-1.218-2.957-.771-6.925 4.073-7.935 5.385-3.095 0-5.707 0-7.915.003 1.2-2.074 1.365-3.924 1.364-4.781 3.407-2.269 6.271-4.375 6.918-4.858.15-.112.243-.363.31-.363h.091c4.992 0 7.757-.533 8.076-3.237.062-.531-.021-1.067-.221-1.531l4.528.229c.019.001.283-.006.283-.006v-.004-.002s-.01-.024.095-.06c.034-.012-.05-.029-.017-.045.039-.018.023-.029.061-.054l6.643-4.236 5.836.361c.021.001.034.002.056.002.523 0 .961-.408.994-.938.034-.551-.388-1.025-.939-1.06l-5.97-.369-5.983-5.333c-.033-.029-.073-.04-.108-.063-.058-.04-.114-.077-.18-.104s-.131-.04-.2-.053c-.042-.008-.078-.029-.122-.031l-22.451-1.272c-.958-3.793-3.485-8.958-5.735-13.115.541.492 1.131 1.022 1.775 1.589 4.394 3.874 7.097 2.493 8.056 1.718 1.775-1.435 2.205-4.271.978-6.458-.559-.997-3.509-5.517-6.254-9.691.096.024.191.045.286.062 1.447.257 2.358-.431 2.778-.748 1.484-1.113 1.69-4.036-.789-7.468-2.045-2.832-6.301-8.725-5.229-27.3569.695-12.078.253-24.2251-.15-31.3571.416.723.896 1.4561 1.445 2.1631 1.444 1.856 3.683 2.5839 5.326 1.7309.875-.455 2.756-2.011 1.337-6.638l-.133-.432c-.796-2.581-1.065-3.451-3.587-18.194-2.727-15.936-16.581-17.4529-20.181-17.5749-3.4325-14.94605-12.9865-18.134051-15.8745-18.759051-3.138-.678-5.944-.178004-6.987 1.244991-.603.823-.831 1.87099-.642 2.95099.264 1.508 1.313 3.09501 3.129 4.73801-8.513-.987-29.461-2.53601-41.822 4.14896-2.3.979-13.699 6.116-12.235 11.117.307 1.047.988 1.838 1.972 2.289 1.236.565 2.803.535 4.284.276-2.756 3.327-6.213 9.709-7.209 21.319-.319 3.715-.486 6.892-.633 9.695-.621 11.81-.933 17.738-11.143 34.623-1.075 1.777-2.773 5.133-2.081 7.651.264.958.857 1.708 1.715 2.166 2.381 1.27 5.894-.746 8.661-3.441-1.538 4.372-5.704 13.254-16.967 29.929-.213.263-5.177005 6.47-1.833 9.684 1.027.987 2.45201 1.434 4.00601 1.261.456-.051.91397-.153 1.36697-.303-3.674 6.411-8.9309756 18.156-8.7639756 32.667.1889996 16.402.0050046 21.656-.0639954 23.634-.02400001.699-.03402881 1.05-.01702881 1.331.24099981 4.019 1.49400981 5.762 4.32500981 6.019 1.263.107 2.37201-.58 3.28501-1.699-.705 10.245-.44102 28.396 8.64 38.617.044.051 4.621 4.999 7.573 3.627.699-.324 1.191-.921 1.479-1.799.621 1.124 1.361 2.134 2.164 2.598l-4.13 47.073c-.029.335.111.661.374.87.186.148 2.998 2.273 11.789 3.468v58.333c0 .05.014.097.021.145-.001.033-.018.065-.018.102v6.853c-.437-.011-1.005.074-1.556.467-.958.684-1.444 2.006-1.444 3.932v15.748c0 .553.448 1 1 1h36.978c.061.001.129.002.205.002 1.438 0 5.328-.26 7.457-2.357.484-.478.846-1.03 1.087-1.645h26.2505c.061.001.13.002.206.002 1.438 0 5.328-.207 7.457-2.306.958-.944 1.444-2.132 1.444-3.564l-.172-4.75c-.003-.082-.031-.153-.052-.229-.301-2.083-2.163-7.508-13.327-8.812-8.4275-.984-12.7665-1.245-14.5325-1.315v-5.651c1.091-.196 2.194-.454 3.296-.796.422-.131.708-.523.704-.965l-.495-55.529c3.228-.211 6.394-.647 8.249-1.509.37-.172.599-.55.578-.957l-1.761-34.089c8.4575-5.497 11.7395-22.11 12.8305-29.833 1.064 2.197 2.215 3.551 3.484 4.107 1.446.634 2.654.079 3.279-.206 2.635-1.202 2.138-6.319 1.151-10.693 1.188.642 2.373.661 3.198.436.428-.117 1.73-.473 2.363-1.781.606-1.256.417-2.998-.582-5.327-1.507-3.518-2.045-12.145-2.148-14.885 2.873.135 4.936.21 6.408.21 2.994 0 3.599-.182 3.878-.906.205-.531.497-3.416.69-6.88.26.011.621.021 1.055.021 1.696 0 4.486-.154 6.551-1.039 1.874-.802 8.989-.633 13.242-.534 1.851.043 3.224.076 3.952.039.731.147 3.531.528 5.98-1.583 2.38-2.053 8.506-7.102 8.542-7.131.217-.167 2.126-1.688 2.38-3.673.112-.892-.131-1.751-.703-2.486zm-28.129-20.798 3.769 3.361-4.106 2.608zm-13.66 11.318c-5.365 0-13.439.155-13.521.156-.552.012-.991.447-.979 1 .011.545.457.938 1 .938h.021c.065 0 5.399-.083 10.264-.113-3.031 2.195-7.776 5.473-11.6 7.625.095-.393.148-.8.148-1.22 0-3.056-2.654-5.542-5.917-5.542s-5.916 2.486-5.916 5.542c0 1.037.311 2.006.844 2.837-1.412-.331-2.571-.71-3.154-.914-.471-1.84-1.081-3.955-1.832-6.052-.4505-1.26-.8895-2.335-1.3035-3.262.056-.079.113-.157.145-.253.017-.051.055-.228.096-.508.476-3.262 1.3325-5.643 2.5505-7.076.242-.285.496-.559.75-.833 1.097-1.182 2.342-2.521 2.724-4.817.176-1.058.682-2.831 2.096-2.831.165 0 .711.112 1.046.611.482.719.375 2.024-.303 3.676-1.218 2.966-1.416 4.623-.68 5.721.689 1.027 1.928 1.159 2.974 1.157.177.009 13.902.666 20.797 1.03l1.996.108c.882.049 1.506.087 1.75.108.87.075 1.561.352 1.894.762.168.206.233.429.2.704-.068.579-.171 1.446-6.09 1.446zm-9.479 8.727c-.202.919-.647 2.118-1.611 3.373-1.664.004-3.046.01-4.188.02 1.805-.925 3.833-2.138 5.799-3.393zm-7.188-.341c0 1.312-.803 2.448-1.979 3.06-.459.162-.88.284-1.214.321-.525.059-1.074.072-1.631.056-1.722-.373-3.008-1.768-3.008-3.437 0-1.953 1.757-3.542 3.917-3.542s3.915 1.589 3.915 3.542zm-62.8725 20.729c-9.588 2.018-14.846-1.391-17.207-4.885-.051-.13-.13-.242-.228-.339-.5-.803-.852-1.602-1.066-2.33-1.625-5.525-.223-18.775 2.201-39.938 1.437-12.55 4.647-16.298 6.433-17.416 1.409-.883 2.483-.537 2.554-.512.511.191 1.082-.061 1.283-.57.202-.514-.05-1.094-.564-1.297-.053-.021-.938-.34-2.199-.134l1.462-2.71c.123-.228.153-.494.083-.743l-4.788-17.235c4.552 2.266 13.466 2.891 21.213 2.951.136.08.282.136.443.136h.046c.156 0 .297-.053.425-.131 1.449.003 2.851-.012 4.162-.038-.288 8.533-.729 20.561-.857 21.412l.036-.045c-.183 1.211-.478 6.953-1.727 39.972-.003.088.022.157.041.231l-11.957 3.509 2.913-41.673c.039-.551-.377-1.029-.928-1.067-.55-.029-1.029.377-1.067.928l-2.965 42.415-2.653.778c-.53.156-.833.712-.678 1.241.156.53.71.834 1.241.679l41.829-12.277c.015.024.028.041.043.067h.014c.205 0 .396-.097.554-.247l5.723-1.68c.593.875 1.835 2.961 3.198 6.764 1.499 4.185 2.4375 8.563 2.7935 10.38-5.6945 1.704-38.0175 11.322-49.8065 13.804zm28.195-5.402-.364 28.516-14.489-.439.354-24.036c4.613-1.245 9.651-2.657 14.499-4.041zm-8.989 160.588v7.464c-.269.021-.554.097-.826.274-.79.516-1.174 1.597-1.174 3.306v1.394c-.768-.15-1.587-.28-2.467-.383-8.428-.984-12.767-1.287-14.533-1.379v-4.998c2.292-.376 3.838-.83 4.004-.879.429-.128.721-.54.715-.988l-.768-57.936c2.226-.09 4.596-.227 7.125-.418.516-.039.917-.465.924-.982l.099-6.705 6.97-.199-.194 61.97c0 .166.051.318.125.459zm-33 2.874v-57.423c3.136.339 6.917.56 11.477.56 1.416 0 2.908-.022 4.475-.067l.757 57.145c-.757.187-2.061.476-3.688.709-.007 0-.013-.004-.021-.004-.034 0-.062.016-.096.02-3.559.499-8.612.723-12.904-.94zm12 3.081v5.439c-.335.602-1.822 2.732-6.083 2.732-4.257 0-5.625-2.012-5.917-2.555v-6.578c2.61.889 5.385 1.198 7.958 1.198 1.434.001 2.799-.095 4.042-.236zm14.131-70.366.809-54.816 6.308-.143-.172 54.831zm33.453-222.463c0 1.243-1.007 2.25-2.25 2.25-.732 0-1.376-.3549-1.787-.8959-.179.519-.296 1.0659-.296 1.6459 0 2.808 2.276 5.083 5.083 5.083.283 0 .556-.039.826-.083-1.472.893-3.191 1.416-5.034 1.416-1.791 0-3.465-.494-4.909-1.34-.548-.482-1.17-.976-1.894-1.48-.027-.019-.059-.022-.086-.038-1.766-1.766-2.86-4.204-2.86-6.892 0-5.376 4.374-9.75 9.75-9.75s9.7505 4.374 9.7505 9.75c0 1.059-.175 2.076-.488 3.031-.16-2.664-2.35-4.781-5.0535-4.781-.58 0-1.127.1181-1.646.2961.539.412.894 1.0569.894 1.7879zm-3.459-12.083c-5.026 0-9.313 3.178-10.988 7.625-1.011-2.721-3.017-4.999-5.719-6.364 2.062-4.392 3.455-7.992 4.267-10.275.729 1.622 2.042 3.388 4.565 3.388 3.276 0 5.652-5.314 6.872-8.856.593 1.115 1.451 2.298 2.629 2.993 1.079.636 2.258.79 3.508.454 1.4325-.384 2.3825-1.352 3.0105-2.592 1.354 1.324 3.7 4.2791 3.482 8.7451-.21 4.312-1.109 8.1719-1.713 10.3519-2.087-3.282-5.7455-5.47-9.9135-5.47zm-12.25 11.75c0 1.059-.175 2.076-.488 3.031-.16-2.664-2.349-4.781-5.053-4.781-.58 0-1.127.118-1.646.296.542.411.896 1.055.896 1.787 0 1.243-1.007 2.25-2.25 2.25-.732 0-1.376-.3549-1.787-.8959-.179.519-.296 1.0659-.296 1.6459 0 2.808 2.276 5.083 5.083 5.083.283 0 .556-.039.826-.083-1.472.893-3.191 1.416-5.034 1.416-1.933 0-3.787-.566-5.385-1.628 4.163-6.028 7.387-11.8369 9.811-16.7999 3.283 1.678 5.323 4.9809 5.323 8.6789zm-9.75 11.75c5.038 0 9.333-3.193 11-7.657.92 2.464 2.64 4.535 4.849 5.899 1.975 1.768 2.934 3.527 2.643 4.985-.184.919-.839 1.4581-1.246 1.5461-3.047.666-7.524-3.0641-8.991-4.5571-.388-.395-1.021-.399-1.414-.013-.394.387-.4 1.02-.013 1.414.227.231 5.188 5.231 9.679 5.231.393 0 .783-.0389 1.165-.1219 1.088-.236 2.422-1.31 2.782-3.108.171-.858.163-2.2021-.746-3.8471.742.147 1.508.228 2.293.228 5.756 0 10.5485-4.163 11.5485-9.634 1.02 2.799 1.314 7.842 1 10.518-1.927 16.369-10.7105 24.606-17.0045 27.904-.201.035-.384.124-.532.271-2.16 1.061-3.98 1.526-5.053 1.526-19.294 0-28.842-16.019-30.247-18.586 4.518-4.561 8.414-9.321 11.751-13.99 1.936 1.3 4.189 1.992 6.536 1.992zm16.208 89.375-6.587 1.933c-.015-5.587-.08-29.336-.08-34.474 0-3.832-1.172-5.962-3.519-6.394-2.726-7.306-3.332-16.492-3.453-19.132 2.846.801 5.972 1.276 9.389 1.276.919 0 3.05-.468 5.699-1.72 3.472 1.791 6.49 4.045 6.553 4.887-.051 1.438-5.343 10.65-10.431 18.695-.118.187-.171.47-.15.69.026.275 2.507 26.981 2.579 34.239zm-.474-33.328c1.862.74 6.443 4.031 7.06 18.511l.745 12.664-5.34 1.567c-.16-7.131-1.983-27.474-2.465-32.742zm-20.066-22.668c-.194-.195-.451-.315-.735-.295-1.654.042-3.208.061-4.686.064l-.379-8.515c2.901 2.355 6.449 4.547 10.675 6.032.024.982.371 12.049 3.717 20.775-.125.619-.605 2.375-2.115 3.158-1.562.811-3.949.407-6.902-1.155.149-3.094.363-8.774.715-19.325.009-.277-.096-.544-.29-.739zm-.669 23.546c.038-.228.077-.617.124-1.303 1.93.923 3.659 1.389 5.17 1.389 1.034 0 1.966-.216 2.793-.649 1.839-.963 2.635-2.737 2.97-3.872.663.292 1.486 1.225 1.486 4.344 0 5.347.07 30.84.082 35.061l-14.232 4.178c.582-15.382 1.486-38.051 1.633-39.143zm-6.754-23.786c-15.246-.159-20.615-2.437-21.491-4.145l-.129-.463c.003-.171.13-.573.632-1.102 1.28-1.349 5.826-4.375 20.559-3.885zm53.0725 49.546-.117 2.059-2.397-.136.453-7.987 2.397.136-.13 2.307c-.007.038-.028.073-.03.112l-.191 3.394c-.004.038.012.076.015.115zm5.244 1.183-.085 1.507c-1.185-.058-2.297-.111-3.298-.16l.087-1.534zm-3.184-2.183.078-1.397 3.296.188-.08 1.397zm20.28 1.878c.019.001.037.002.056.002.526 0 .968-.411.999-.943l.242-4.307 1.989.113-.244 4.344c-.031.552.39 1.024.941 1.055.019.001.038.002.057.002.526 0 .968-.411.999-.943l.245-4.345 1.989.113-.45 7.987-8.913-.505.387-7.824c.004-.066 0-.121-.009-.168l1.01.058-.242 4.307c-.03.552.392 1.024.944 1.054zm-14.813-6.249 11.119.718c-.001.012-.006.018-.007.03l-.002 1.174c-.026-.004-.046-.018-.073-.02l-11.069-.717c.026-.08.06-.158.064-.247.015-.287-.002-.606-.032-.938zm-.096 3.274 10.021.568-.079 1.396-10.021-.568zm-.19 3.392 11.018.625c.019.001.039.002.058.002.006 0 .012-.003.019-.004l-.081 1.42-11.093-.628zm-94.8155 77.712c-.16-.494-.673-.783-1.178-.666-.506.117-.838.603-.764 1.116.552 3.832-.272 4.422-.443 4.501-.986.453-3.857-1.589-5.236-3.142-11.334-12.758-8.01101-39.831-7.424-43.973.032-.191.06-.38.084-.566.07-.541-.306-1.038-.846-1.118-.538-.084-1.044.289-1.133.827-.015.092-.054.333-.108.707-.619 3.516-2.43099 6.689-3.81399 6.541-1.117-.101-2.27201-.206-2.50901-4.146-.014-.242-.00101-.542.01999-1.142.07-1.99.255-7.278.065-23.728-.211-18.328 8.79801-32.459 11.20501-35.901.22-.277.431-.567.63-.87.295-.448.185-1.049-.251-1.362-.435-.313-1.041-.228-1.371.196-.064.082-.31.4-.69.938-1.255 1.524-2.82802 2.503-4.34802 2.672-.678.073-1.64198.012-2.39898-.715-1.674-1.609.95-5.683 2.053-7.053 18.421-27.263 18.321-34.283 18.25-34.994-.042-.418-.342-.765-.749-.869-.41-.105-.837.0591-1.073.4061-2.646 3.888-7.079 6.9229-8.786 6.0139-.378-.202-.609-.498-.729-.931-.355-1.293.341-3.568 1.863-6.085 10.47-17.313 10.791-23.409 11.429-35.553.146-2.788.312-5.947.628-9.629 1.588-18.504 9.708-22.9019 9.785-22.9409.487-.244.69-.8331.455-1.3251s-.822-.706-1.316-.479c-2.344 1.065-5.583 1.8831-7.157 1.1621-.46-.211-.741-.5391-.886-1.0331-.716-2.445 6.059-6.5689 11.182-8.7559 14.938-8.07405 44.073-3.5231 44.366-3.4761.464.075.917-.184 1.089-.621s.017-.935-.374-1.19695c-4.22-2.831-5.123-4.81102-5.286-5.73902-.121-.69.088-1.154.285-1.423.394-.538 2.24-1.05899 4.951-.47299 2.64.571 11.488 3.558 14.513 18.00396.101.481.539.817 1.0295.793.655-.033 16.135-.612 18.963 15.919 2.545 14.872 2.824 15.772 3.649 18.447l.131.428c.799 2.605.344 3.917-.348 4.277-.666.346-1.903-.003-2.822-1.184-2.572-3.307-3.471-7.3869-3.48-7.4279-.111-.517-.61-.8631-1.127-.7791-.522.079-.894.5501-.847 1.0771.017.187 1.648 18.8919.581 37.4379-1.113 19.342 3.424 25.624 5.604 28.643 1.833 2.538 1.688 4.339 1.176 4.724-.269.203-.604.458-1.197.352-.784-.138-2.476-.988-5.217-5.035-.247-.373-.405-.61-.45-.679-.305-.458-.922-.584-1.382-.283-.46.302-.59.919-.29 1.381.156.24.31.473.463.7 1.995 3.011 9.848 14.88 10.753 16.494.738 1.315.513 3.112-.491 3.924-1.173.948-3.22.326-5.477-1.663-5.658-4.988-6.953-6.818-7.109-7.054-.015-.024-.027-.043-.035-.056-.287-.464-.893-.611-1.362-.333-.468.279-.628.882-.357 1.355.008.015.022.039.044.072 2.381 3.847 7.826 13.399 9.408 19.076-.076.038-.156.071-.221.129-.198.177-.318.425-.334.689l-.122 2.183-3.296-.188.137-2.421c.015-.265-.075-.524-.251-.723-.177-.198-.425-.317-.69-.332l-4.395-.248c-.21-.011-.4.061-.569.165-.672-.61-1.517-.899-2.176-.899-2.11 0-3.593 1.642-4.07 4.503-.284 1.704-1.178 2.668-2.215 3.784-.275.297-.549.592-.811.9-1.5625 1.841-2.3175 4.443-2.6965 6.289-.087-.149-.17-.29-.249-.42.021-.092.045-.183.04-.281l-.833-14.151c-.667-15.682-5.946-19.438-8.481-20.337 3.584-5.719 10.056-16.377 9.896-18.524-.152-2.06-3.917-4.481-6.409-5.867 6.518-3.811 14.7925-12.094 16.7375-28.611.291-2.474.276-11.623-2.845-14.073-.086-.838-.267-1.647-.52-2.424.021-.041.05-.076.066-.12.084-.237 2.053-5.884 2.389-12.784.296-6.091-3.394-9.753-4.763-10.896.795-3.46.127-7.6309 0-8.3519-.095-.541-.242-1.4431-1.194-1.3631-.517.045-.918.502-.918 1.021 0 .15.034.293.094.421.219 1.027 1.029 6.771-.5885 9.617-.42.739-.957 1.188-1.639 1.371-.719.193-1.364.113-1.971-.243-1.6-.94-2.563-3.591-2.8-4.533-.111-.442-.507-.754-.963-.757-.478.012-.857.302-.974.743-1.114 4.207-3.645 10.131-5.783 10.131-1.913 0-2.735-1.873-3.338-3.897-.208-.701-.334-1.123-.792-1.361-.24-.125-.555-.15-.811-.065-.312.104-.553.355-.645.672-.097.336-10.012 33.824-38.834 55.66-.261.233-1.115.8251-1.917.7691-.451-.032-.854-.2651-1.232-.7131-.344-.407-.486-.795-.448-1.22.121-1.342 1.99-2.887 3.106-3.811l.475-.396c.417-.354.47-.975.123-1.396-.348-.422-.971-.486-1.397-.145-.312.249-1.305.869-2.155.752-.414-.057-.765-.293-1.073-.723-.315-.439-.291-.756-.234-.983.278-1.118 2.086-2.233 2.698-2.536.494-.245.698-.844.454-1.339s-.842-.6999-1.337-.4559c-.326.16-3.199 1.6269-3.754 3.8419-.228.909-.038 1.821.55 2.639.528.734 1.204 1.227 1.975 1.444-.741.866-1.325 1.852-1.422 2.929-.086.964.22 1.8691.912 2.6891.729.864 1.641 1.3539 2.638 1.4189.08.005.158.0081.236.0081 1.682 0 2.994-1.152 3.077-1.233 3.333-2.524 6.409-5.2061 9.257-7.9721.882 1.52 2.924 4.7081 6.203 8.0541-13.876-.259-18.874 2.6879-20.632 4.5419-.768.809-1.162 1.671-1.167 2.469-.003.025-.001.049-.003.074.001.052-.012.106-.007.158.005.056.022.107.03.162.002.008 0 .016.002.024l.009.031c.035.206.09.405.166.599l5.551 19.982-2.628 4.87c-3.17 2.776-5.315 8.857-6.378 18.138-2.525 22.056-3.87 34.822-2.132 40.729.254.864.676 1.813 1.262 2.768l-4.447 50.679c-.864-1.225-1.803-3.45-2.317-5.039zm.015 54.202 8.558-97.536c2.417 2.479 6.245 4.523 11.897 4.523 1.773-.001 3.725-.201 5.867-.652 2.813-.593 6.783-1.587 11.276-2.782l-1.468 99.541c-2.364.169-4.584.288-6.67.364-.125-.062-.261-.102-.406-.102-.005 0-.009 0-.014 0-.16 0-.305.053-.438.128-19.569.622-26.88-2.539-28.602-3.484zm9.117 74.607c0-1.667.415-2.159.593-2.294.214-.161.485-.097.518-.088.077.024.155.021.232.026.657 1.092 2.639 3.438 7.574 3.438 4.75 0 6.858-2.269 7.633-3.442 1.436.076 5.785.368 14.751 1.415 9.983 1.167 11.391 5.688 11.585 7.108-.274 2.41-5.221 3.474-6.93 3.585h-35.956zm42.236 13.02c-1.73 1.707-5.488 1.751-6.279 1.729h-35.957v-3l36.019-.002c.253-.016 4.482-.309 7.017-2.171l.048 1.341c0 .853-.277 1.541-.848 2.103zm35.8485-6.103c0 .854-.278 1.541-.849 2.104-1.731 1.706-5.486 1.751-6.279 1.729h-25.8735l-.106-3 26.0425-.002c.253-.016 4.482-.309 7.017-2.171zm-11.784-11.861c10.239 1.196 11.458 5.923 11.599 7.213-.139 2.479-5.209 3.368-6.943 3.48h-26.0665c-.021-.109-.059-.219-.107-.324-.416-1.955-2.097-5.689-8.805-7.565.004-.038.022-.071.022-.11v-1.749c0-.985.149-1.406.231-1.563.213.04.43.005.62-.087.98 1.17 3.04 2.733 7.066 2.733 4.75 0 6.858-2.269 7.633-3.442 1.435.075 5.784.367 14.7505 1.414zm-28.3005-2.528v-6.732c1.641.349 4.576.842 8.08.842 1.246 0 2.565-.068 3.92-.222v5.935c-.335.602-1.822 2.732-6.083 2.732-4.257 0-5.625-2.012-5.917-2.555zm-.123-8.906.371-118.082 2.16-.049c.552-.018.985-.364.967-.916s-.503-1.022-1.032-.981l-10.375.313.14-9.462 14.493.439-.932 73.018c-.007.539.415.986.953 1.012.213.01 2.188.101 4.843.101 1.236 0 2.622-.021 4.044-.077l.487 54.643c-6.858 1.895-13.88.55-16.119.041zm7.802-56.545 1.317-103.283c3.531-1.014 6.909-1.996 9.886-2.867l.278 5.388c-.057.149-.091.309-.069.479.005.043.034.236.122.532l5.085 98.493c-4.121 1.454-13.57 1.354-16.619 1.258zm40.7765-77.309c.979 2.284.808 3.28.62 3.67-.166.343-.491.559-1.089.722-.978.267-2.829-.191-4-3.346-.106-.333-.204-.63-.29-.884-.173-.515-.729-.798-1.246-.635-.52.162-.813.71-.662 1.232.094.324.195.632.301.924 1.875 5.914 2.804 12.364 1.197 13.098-.571.26-1.019.424-1.599.172-.736-.323-2.217-1.617-3.862-6.657-.148-.451-.584-.743-1.066-.683-.473.055-.842.435-.882.909-.021.25-2.153 24.11-11.4295 31.604l-3.064-59.34c1.76 1.53 4.854 2.944 10.2825 2.944 4.434 0 9.507.253 13.983.476.172.009.328.017.496.024.096 2.478.569 11.709 2.31 15.77zm8.18-17.55c-1.426.23-6.431-.019-10.887-.24-4.5-.225-9.599-.479-14.083-.479-8.1055 0-10.0325-3.317-10.4685-4.533l-.342-6.619c5.393-1.585 9.0645-2.688 9.1815-2.723.483-.146.783-.629.698-1.127-.019-.11-.24-1.378-.663-3.248 1.574.481 4.035 1.107 6.471 1.218.356.069.726.104 1.102.111.228.117.496.171.755.171h.003c1.307 0 11.722-.354 18.647-.387.642 3.73-.019 15.43-.414 17.856zm41.789-18.831c-.489.762-1.196 1.315-1.228 1.341-.062.051-6.203 5.113-8.6 7.18-1.967 1.697-4.249 1.147-4.341 1.125-.108-.029-.22-.038-.332-.03-.027.002-.067.003-.099.005 1.542-1.73 4.173-4.683 6.505-7.296.029-.021.064-.03.091-.055.332-.301.664-.607.996-.913 2.127-1.96 4.526-4.205 6.05-4.057.253.021.64.113 1.078.677.177.226.646.83-.12 2.023z" fill="#000"/><path d="m83.3407 75.6338c1.98 0 3.5901 1.61 3.5901 3.58 0 1.98-1.6101 3.59-3.5901 3.59-1.97 0-3.58-1.61-3.58-3.59 0-1.97 1.61-3.58 3.58-3.58zm1.5901 3.58c0-.87-.7101-1.58-1.5901-1.58-.87 0-1.58.71-1.58 1.58 0 .88.71 1.59 1.58 1.59.88 0 1.5901-.71 1.5901-1.59z" fill="#000"/><path d="m83.3407 77.6338c.88 0 1.5901.71 1.5901 1.58 0 .88-.7101 1.59-1.5901 1.59-.87 0-1.58-.71-1.58-1.59 0-.87.71-1.58 1.58-1.58z" fill="#b6b6b4"/><path d="m222.136 149.664c0-3.285-.309-5.941-.928-7.968-.597-2.027-1.419-3.573-2.464-4.64-1.045-1.088-2.229-1.824-3.552-2.208s-2.699-.576-4.128-.576h-3.264v31.232h3.296c1.493 0 2.901-.235 4.224-.704 1.344-.469 2.528-1.28 3.552-2.432 1.024-1.173 1.824-2.784 2.4-4.832.576-2.069.864-4.693.864-7.872zm9.152 0c0 3.627-.395 6.731-1.184 9.312-.768 2.581-1.835 4.725-3.2 6.432-1.365 1.685-2.944 3.008-4.736 3.968-1.771.96-3.669 1.643-5.696 2.048-2.005.384-4.043.576-6.112.576h-11.328v-44.256h10.56c2.752 0 5.419.299 8 .896 2.581.576 4.896 1.643 6.944 3.2 2.069 1.557 3.712 3.776 4.928 6.656 1.216 2.859 1.824 6.581 1.824 11.168zm18.823-15.456v12.128h15.68v6.368h-15.68v12.864h19.04v6.432h-27.808v-44.256h27.584l-.896 6.464zm58.695-6.464 2.496 44.256h-7.808l-.832-20.384c-.064-1.707-.107-3.285-.128-4.736 0-1.472.011-2.859.032-4.16.021-1.323.053-2.592.096-3.808.064-1.216.139-2.411.224-3.584l-5.856 28.992h-7.104l-6.272-28.992c.085 1.131.16 2.315.224 3.552s.107 2.528.128 3.872c.043 1.344.064 2.763.064 4.256.021 1.493 0 3.051-.064 4.672l-.608 20.32h-7.68l2.496-44.256h9.728l5.696 29.216 5.44-29.216zm41.575 22.112c0 4.608-.651 8.651-1.952 12.128-1.28 3.456-3.2 6.155-5.76 8.096-2.56 1.92-5.728 2.88-9.504 2.88-3.755 0-6.923-.939-9.504-2.816-2.56-1.899-4.491-4.565-5.792-8-1.28-3.456-1.92-7.541-1.92-12.256 0-4.608.64-8.64 1.92-12.096 1.301-3.477 3.232-6.176 5.792-8.096 2.581-1.941 5.749-2.912 9.504-2.912 3.776 0 6.944.939 9.504 2.816s4.48 4.544 5.76 8c1.301 3.456 1.952 7.541 1.952 12.256zm-9.024 0c0-5.589-.64-9.728-1.92-12.416-1.259-2.709-3.349-4.064-6.272-4.064s-5.024 1.355-6.304 4.064c-1.259 2.709-1.888 6.859-1.888 12.448 0 5.611.651 9.76 1.952 12.448 1.301 2.667 3.381 4 6.24 4 2.965 0 5.067-1.355 6.304-4.064 1.259-2.709 1.888-6.848 1.888-12.416zm87.566 9.44c0 2.688-.693 5.056-2.08 7.104-1.365 2.048-3.339 3.659-5.92 4.832-2.581 1.152-5.707 1.728-9.376 1.728-3.84 0-7.136-.565-9.888-1.696-2.752-1.152-5.056-2.624-6.912-4.416l4.608-5.152c1.6 1.429 3.392 2.549 5.376 3.36s4.213 1.216 6.688 1.216c1.579 0 2.997-.245 4.256-.736 1.28-.491 2.283-1.205 3.008-2.144.747-.96 1.12-2.133 1.12-3.52 0-1.216-.256-2.24-.768-3.072s-1.397-1.579-2.656-2.24c-1.237-.661-2.965-1.323-5.184-1.984-3.264-1.003-5.952-2.101-8.064-3.296-2.112-1.216-3.68-2.645-4.704-4.288-1.024-1.664-1.536-3.627-1.536-5.888 0-2.539.704-4.725 2.112-6.56 1.408-1.856 3.307-3.275 5.696-4.256 2.411-1.003 5.099-1.504 8.064-1.504 3.285 0 6.176.48 8.672 1.44 2.496.939 4.693 2.283 6.592 4.032l-4.384 4.96c-1.515-1.301-3.157-2.261-4.928-2.88-1.749-.619-3.531-.928-5.344-.928-1.429 0-2.709.192-3.84.576-1.109.384-1.984.949-2.624 1.696s-.96 1.696-.96 2.848c0 1.045.288 1.941.864 2.688.597.725 1.611 1.408 3.04 2.048 1.429.619 3.392 1.323 5.888 2.112 2.624.789 4.917 1.739 6.88 2.848 1.984 1.109 3.531 2.549 4.64 4.32 1.109 1.749 1.664 4 1.664 6.752zm19.463-25.088v12.128h15.68v6.368h-15.68v12.864h19.04v6.432h-27.808v-44.256h27.584l-.896 6.464zm59.847 25.088c0 2.688-.693 5.056-2.08 7.104-1.365 2.048-3.339 3.659-5.92 4.832-2.581 1.152-5.707 1.728-9.376 1.728-3.84 0-7.136-.565-9.888-1.696-2.752-1.152-5.056-2.624-6.912-4.416l4.608-5.152c1.6 1.429 3.392 2.549 5.376 3.36s4.213 1.216 6.688 1.216c1.579 0 2.997-.245 4.256-.736 1.28-.491 2.283-1.205 3.008-2.144.747-.96 1.12-2.133 1.12-3.52 0-1.216-.256-2.24-.768-3.072s-1.397-1.579-2.656-2.24c-1.237-.661-2.965-1.323-5.184-1.984-3.264-1.003-5.952-2.101-8.064-3.296-2.112-1.216-3.68-2.645-4.704-4.288-1.024-1.664-1.536-3.627-1.536-5.888 0-2.539.704-4.725 2.112-6.56 1.408-1.856 3.307-3.275 5.696-4.256 2.411-1.003 5.099-1.504 8.064-1.504 3.285 0 6.176.48 8.672 1.44 2.496.939 4.693 2.283 6.592 4.032l-4.384 4.96c-1.515-1.301-3.157-2.261-4.928-2.88-1.749-.619-3.531-.928-5.344-.928-1.429 0-2.709.192-3.84.576-1.109.384-1.984.949-2.624 1.696s-.96 1.696-.96 2.848c0 1.045.288 1.941.864 2.688.597.725 1.611 1.408 3.04 2.048 1.429.619 3.392 1.323 5.888 2.112 2.624.789 4.917 1.739 6.88 2.848 1.984 1.109 3.531 2.549 4.64 4.32 1.109 1.749 1.664 4 1.664 6.752zm39.655 0c0 2.688-.693 5.056-2.08 7.104-1.365 2.048-3.339 3.659-5.92 4.832-2.581 1.152-5.707 1.728-9.376 1.728-3.84 0-7.136-.565-9.888-1.696-2.752-1.152-5.056-2.624-6.912-4.416l4.608-5.152c1.6 1.429 3.392 2.549 5.376 3.36s4.213 1.216 6.688 1.216c1.579 0 2.997-.245 4.256-.736 1.28-.491 2.283-1.205 3.008-2.144.747-.96 1.12-2.133 1.12-3.52 0-1.216-.256-2.24-.768-3.072s-1.397-1.579-2.656-2.24c-1.237-.661-2.965-1.323-5.184-1.984-3.264-1.003-5.952-2.101-8.064-3.296-2.112-1.216-3.68-2.645-4.704-4.288-1.024-1.664-1.536-3.627-1.536-5.888 0-2.539.704-4.725 2.112-6.56 1.408-1.856 3.307-3.275 5.696-4.256 2.411-1.003 5.099-1.504 8.064-1.504 3.285 0 6.176.48 8.672 1.44 2.496.939 4.693 2.283 6.592 4.032l-4.384 4.96c-1.515-1.301-3.157-2.261-4.928-2.88-1.749-.619-3.531-.928-5.344-.928-1.429 0-2.709.192-3.84.576-1.109.384-1.984.949-2.624 1.696s-.96 1.696-.96 2.848c0 1.045.288 1.941.864 2.688.597.725 1.611 1.408 3.04 2.048 1.429.619 3.392 1.323 5.888 2.112 2.624.789 4.917 1.739 6.88 2.848 1.984 1.109 3.531 2.549 4.64 4.32 1.109 1.749 1.664 4 1.664 6.752zm36.967-31.552v6.56h-9.376v31.136h9.376v6.56h-27.52v-6.56h9.376v-31.136h-9.376v-6.56zm43.111 22.112c0 4.608-.651 8.651-1.952 12.128-1.28 3.456-3.2 6.155-5.76 8.096-2.56 1.92-5.728 2.88-9.504 2.88-3.755 0-6.923-.939-9.504-2.816-2.56-1.899-4.491-4.565-5.792-8-1.28-3.456-1.92-7.541-1.92-12.256 0-4.608.64-8.64 1.92-12.096 1.301-3.477 3.232-6.176 5.792-8.096 2.581-1.941 5.749-2.912 9.504-2.912 3.776 0 6.944.939 9.504 2.816s4.48 4.544 5.76 8c1.301 3.456 1.952 7.541 1.952 12.256zm-9.024 0c0-5.589-.64-9.728-1.92-12.416-1.259-2.709-3.349-4.064-6.272-4.064s-5.024 1.355-6.304 4.064c-1.259 2.709-1.888 6.859-1.888 12.448 0 5.611.651 9.76 1.952 12.448 1.301 2.667 3.381 4 6.24 4 2.965 0 5.067-1.355 6.304-4.064 1.259-2.709 1.888-6.848 1.888-12.416zm35.623 22.144-13.024-36.768c.107.811.235 1.856.384 3.136s.288 2.731.416 4.352c.149 1.621.267 3.339.352 5.152.107 1.813.16 3.648.16 5.504v18.624h-7.616v-44.256h11.136l12.896 36.704c-.171-1.088-.363-2.528-.576-4.32-.192-1.792-.363-3.851-.512-6.176s-.224-4.8-.224-7.424v-18.784h7.616v44.256z" fill="#333"/><path d="m319.961 238.96c0-.917-.176-1.659-.528-2.224-.341-.576-.842-.997-1.504-1.264-.661-.267-1.456-.4-2.384-.4h-2.288v8.016h2.416c.875 0 1.627-.133 2.256-.4.64-.277 1.136-.72 1.488-1.328.363-.608.544-1.408.544-2.4zm4.544-.032c0 1.717-.368 3.125-1.104 4.224-.725 1.088-1.744 1.893-3.056 2.416-1.312.512-2.826.768-4.544.768h-2.544v7.664h-4.384v-22.128h6.512c2.87 0 5.104.581 6.704 1.744 1.611 1.163 2.416 2.933 2.416 5.312zm9.716-7.536c1.589 0 2.922.283 4 .848 1.088.565 1.909 1.328 2.464 2.288.554.949.832 1.995.832 3.136 0 .939-.16 1.856-.48 2.752s-.843 1.84-1.568 2.832c-.715.992-1.664 2.096-2.848 3.312-1.184 1.205-2.646 2.581-4.384 4.128h9.792l-.464 3.312h-14.16v-3.088c1.525-1.472 2.842-2.768 3.952-3.888 1.109-1.131 2.037-2.128 2.784-2.992.757-.864 1.354-1.637 1.792-2.32.448-.693.768-1.339.96-1.936s.288-1.195.288-1.792c0-1.013-.294-1.813-.88-2.4-.576-.587-1.387-.88-2.432-.88-.928 0-1.718.181-2.368.544-.64.352-1.27.928-1.888 1.728l-2.656-2.016c.842-1.131 1.845-2.005 3.008-2.624 1.162-.629 2.581-.944 4.256-.944zm24.115 7.568c0-.917-.176-1.659-.528-2.224-.341-.576-.842-.997-1.504-1.264-.661-.267-1.456-.4-2.384-.4h-2.288v8.016h2.416c.875 0 1.627-.133 2.256-.4.64-.277 1.136-.72 1.488-1.328.363-.608.544-1.408.544-2.4zm4.544-.032c0 1.717-.368 3.125-1.104 4.224-.725 1.088-1.744 1.893-3.056 2.416-1.312.512-2.826.768-4.544.768h-2.544v7.664h-4.384v-22.128h6.512c2.87 0 5.104.581 6.704 1.744 1.611 1.163 2.416 2.933 2.416 5.312zm37.975 8.72c0 1.344-.346 2.528-1.04 3.552-.682 1.024-1.669 1.829-2.96 2.416-1.29.576-2.853.864-4.688.864-1.92 0-3.568-.283-4.944-.848-1.376-.576-2.528-1.312-3.456-2.208l2.304-2.576c.8.715 1.696 1.275 2.688 1.68s2.107.608 3.344.608c.79 0 1.499-.123 2.128-.368.64-.245 1.142-.603 1.504-1.072.374-.48.56-1.067.56-1.76 0-.608-.128-1.12-.384-1.536s-.698-.789-1.328-1.12c-.618-.331-1.482-.661-2.592-.992-1.632-.501-2.976-1.051-4.032-1.648-1.056-.608-1.84-1.323-2.352-2.144-.512-.832-.768-1.813-.768-2.944 0-1.269.352-2.363 1.056-3.28.704-.928 1.654-1.637 2.848-2.128 1.206-.501 2.55-.752 4.032-.752 1.643 0 3.088.24 4.336.72 1.248.469 2.347 1.141 3.296 2.016l-2.192 2.48c-.757-.651-1.578-1.131-2.464-1.44-.874-.309-1.765-.464-2.672-.464-.714 0-1.354.096-1.92.288-.554.192-.992.475-1.312.848s-.48.848-.48 1.424c0 .523.144.971.432 1.344.299.363.806.704 1.52 1.024.715.309 1.696.661 2.944 1.056 1.312.395 2.459.869 3.44 1.424.992.555 1.766 1.275 2.32 2.16.555.875.832 2 .832 3.376zm18.564 5.408c-.63.416-1.392.757-2.288 1.024s-1.867.4-2.912.4c-2.07 0-3.627-.533-4.672-1.6-1.046-1.077-1.568-2.507-1.568-4.288v-8.544h-3.68v-2.992h3.68v-3.728l4.224-.512v4.24h5.6l-.432 2.992h-5.168v8.528c0 .875.213 1.515.64 1.92.426.405 1.114.608 2.064.608.608 0 1.162-.069 1.664-.208.512-.149.976-.336 1.392-.56zm4.723.944v-2.928h2.384v-11.104h-2.384v-2.912h5.6l.784 3.888c.619-1.44 1.398-2.523 2.336-3.248.939-.736 2.118-1.104 3.536-1.104.544 0 1.024.043 1.44.128.427.085.832.197 1.216.336l-1.264 3.552c-.33-.085-.645-.149-.944-.192-.298-.053-.634-.08-1.008-.08-1.173 0-2.197.459-3.072 1.376-.864.907-1.536 2.139-2.016 3.696v5.664h3.376v2.928zm11.344-10.336v-4.496l.576-2.112h2.992l-.752 6.608zm11.284 3.152c.085 1.056.325 1.915.72 2.576.405.661.922 1.147 1.552 1.456.629.309 1.328.464 2.096.464.81 0 1.573-.128 2.288-.384.714-.256 1.418-.613 2.112-1.072l1.76 2.416c-.79.661-1.734 1.195-2.832 1.6-1.088.405-2.288.608-3.6.608-1.835 0-3.382-.379-4.64-1.136-1.248-.757-2.192-1.808-2.832-3.152s-.96-2.891-.96-4.64c0-1.685.314-3.205.944-4.56.629-1.355 1.536-2.427 2.72-3.216 1.184-.8 2.613-1.2 4.288-1.2 1.557 0 2.901.341 4.032 1.024 1.13.683 2.005 1.664 2.624 2.944.618 1.269.928 2.8.928 4.592 0 .288-.011.581-.032.88-.011.299-.027.565-.048.8zm3.632-7.264c-1.024 0-1.867.368-2.528 1.104-.651.725-1.035 1.877-1.152 3.456h7.136c-.022-1.429-.32-2.544-.896-3.344-.566-.811-1.419-1.216-2.56-1.216zm25.475 9.984c0 .651.096 1.125.288 1.424.192.288.502.507.928.656l-.912 2.832c-.906-.096-1.68-.32-2.32-.672-.629-.363-1.114-.901-1.456-1.616-.64.779-1.45 1.36-2.432 1.744-.97.384-1.989.576-3.056.576-1.728 0-3.098-.491-4.112-1.472-1.013-.981-1.52-2.256-1.52-3.824 0-1.803.704-3.189 2.112-4.16 1.419-.981 3.424-1.472 6.016-1.472h2.368v-.912c0-1.003-.309-1.728-.928-2.176-.618-.459-1.509-.688-2.672-.688-.544 0-1.226.075-2.048.224-.81.139-1.648.357-2.512.656l-1.008-2.896c1.078-.405 2.16-.704 3.248-.896 1.099-.192 2.096-.288 2.992-.288 2.379 0 4.144.507 5.296 1.52 1.152 1.003 1.728 2.427 1.728 4.272zm-7.584 1.888c.64 0 1.286-.181 1.936-.544.662-.363 1.179-.869 1.552-1.52v-3.296h-1.664c-1.568 0-2.704.251-3.408.752-.693.501-1.04 1.211-1.04 2.128 0 .789.224 1.403.672 1.84.448.427 1.099.64 1.952.64zm25.3-14.848c.725 0 1.344.155 1.856.464.512.299.906.805 1.184 1.52.277.704.416 1.664.416 2.88v12.56h-3.68v-12.032c0-.768-.064-1.312-.192-1.632-.118-.32-.39-.48-.816-.48-.352 0-.71.107-1.072.32-.352.203-.72.571-1.104 1.104v12.72h-3.184v-12.032c0-.768-.064-1.312-.192-1.632-.118-.32-.39-.48-.816-.48-.363 0-.72.107-1.072.32-.352.203-.72.571-1.104 1.104v12.72h-3.728v-16.944h3.152l.272 1.76c.501-.704 1.029-1.253 1.584-1.648.554-.395 1.221-.592 2-.592.64 0 1.205.16 1.696.48.501.309.858.843 1.072 1.6.49-.619 1.04-1.12 1.648-1.504s1.301-.576 2.08-.576zm16.883.48v13.952h4.464v2.992h-13.648v-2.992h4.96v-10.96h-4.8v-2.992zm-2.736-8.544c.779 0 1.408.24 1.888.72.491.48.736 1.077.736 1.792s-.245 1.317-.736 1.808c-.48.48-1.109.72-1.888.72-.778 0-1.413-.24-1.904-.72-.49-.491-.736-1.093-.736-1.808s.246-1.312.736-1.792c.491-.48 1.126-.72 1.904-.72zm12.18 25.488v-16.944h3.68l.304 2.096c.725-.853 1.541-1.493 2.448-1.92.906-.437 1.882-.656 2.928-.656 1.525 0 2.688.443 3.488 1.328.8.875 1.2 2.107 1.2 3.696v12.4h-4.224v-10.752c0-.853-.054-1.536-.16-2.048-.107-.523-.31-.896-.608-1.12-.299-.235-.731-.352-1.296-.352-.459 0-.902.101-1.328.304-.416.203-.811.475-1.184.816-.363.341-.704.72-1.024 1.136v12.016zm33.795-19.328 1.056 3.296c-.64.224-1.36.384-2.16.48-.8.085-1.717.128-2.752.128 1.035.448 1.819 1.019 2.352 1.712.544.683.816 1.552.816 2.608 0 1.099-.282 2.08-.848 2.944-.554.864-1.349 1.541-2.384 2.032-1.024.491-2.245.736-3.664.736-.437 0-.826-.021-1.168-.064-.341-.043-.672-.101-.992-.176-.213.117-.378.288-.496.512-.117.224-.176.453-.176.688 0 .32.123.597.368.832.256.224.8.336 1.632.336h2.88c1.248 0 2.342.213 3.28.64.95.416 1.686.981 2.208 1.696.534.715.8 1.536.8 2.464 0 1.707-.741 3.04-2.224 4-1.482.96-3.648 1.44-6.496 1.44-2.037 0-3.626-.208-4.768-.624-1.13-.416-1.925-1.024-2.384-1.824-.458-.789-.688-1.744-.688-2.864h3.76c0 .544.107.992.32 1.344.224.352.635.613 1.232.784.608.171 1.478.256 2.608.256 1.131 0 2.016-.091 2.656-.272.651-.181 1.11-.443 1.376-.784.267-.331.4-.72.4-1.168 0-.608-.256-1.083-.768-1.424s-1.237-.512-2.176-.512h-2.8c-1.706 0-2.949-.331-3.728-.992-.778-.672-1.168-1.445-1.168-2.32 0-.597.16-1.168.48-1.712.331-.555.8-1.024 1.408-1.408-1.045-.555-1.802-1.216-2.272-1.984-.458-.779-.688-1.717-.688-2.816 0-1.227.31-2.293.928-3.2.619-.907 1.478-1.611 2.576-2.112 1.099-.501 2.363-.752 3.792-.752 1.312.011 2.427-.069 3.344-.24.928-.171 1.744-.405 2.448-.704.715-.299 1.408-.624 2.08-.976zm-7.792 4.736c-1.002 0-1.77.293-2.304.88-.522.587-.784 1.365-.784 2.336 0 1.003.272 1.797.816 2.384s1.307.88 2.288.88c.971 0 1.707-.283 2.208-.848.512-.576.768-1.397.768-2.464s-.256-1.861-.768-2.384c-.501-.523-1.242-.784-2.224-.784z" fill="#333"/><path d="m805.997 226.59v-89.312c0-.209-.077-.446-.158-.697-.06-.186-.118-.37-.155-.551l-.233-1.16 21.366 13.799c6.445 3.431 6.944 8.037 6.948 9.343l.232.132v.29 2.064.787l-10.682-5.017c-1.432-.308-3.149.17-4.516 1.259-4.811 3.835-8.438 15.044-8.438 26.073 0 10.248 2.473 22.973 7.901 26.695.941.645 2.006.985 3.079.985.689 0 1.469-.143 2.057-.369l10.599-4.877v.78 4.12c0 8.05-4.545 9.769-5.035 9.928l-21.479 8.475-.002-.006-2.957 1.205.593-1.206c.432-.883.88-1.795.88-2.74z" fill="#55708f"/><path d="m790.997 234.435v19l.003.31-.279.137c-.124.085-.293.637-.405 1.002-.444 1.453-1.188 3.885-4.569 3.885-1.667 0-3.08-.456-3.875-1.252-.835-.838-1.293-2.13-1.291-3.638 0-.947-.132-4.294-1.854-7.573-1.686-3.21-5.32-7.037-13.057-7.037-8.974 0-12.662 4.939-15.362 8.555-1.854 2.484-3.195 4.278-5.448 4.278-2.053 0-2.843-1.517-4.077-3.885-1.822-3.495-4.089-7.845-12.623-7.949-.107.006-.124.007-.212.093.003.025.009.056.013.081.018.105.034.216.034.327v3.666 10.166c0 .104-.009.229-.026.369-.128 1.309-.938 2.965-2.892 2.965-2.074 0-3.082-1.036-3.082-3.167v-21.333h69v1zm-67.967 20.924c-.02-.186-.033-.379-.033-.591 0 .217.012.411.033.591zm.078.428c-.003-.015-.005-.029-.009-.044.003.013.005.03.009.044z" fill="#55708f"/><path d="m779.609 338.867c4.412 1.012 7.263 2.936 7.263 4.901 0 3.026-6.468 5.583-14.125 5.583-8.493 0-13.75-2.896-13.75-5.588 0-1.323.963-3.719 7.41-4.9l.59-.108v.6 3.58c0 .23.016.442.038.648.017.149.041.291.071.426.004.024.009.049.014.072.551 2.313 2.909 2.52 5.877 2.52 3.399 0 6-.27 6-3.666v-4.209z" fill="#55708f"/><path d="m779.038 373.172c0-3.953 3.178-7.17 7.084-7.17.204 0 .405.026.604.054l.211.028c.049.006.097.016.158.039l.085-.015.085.013c1.62.26 9.785 2.065 11.405 12.185.048.3 0 .515-.153.689-.812.955-4.971 1.439-12.36 1.439h-.106-.239c-.177 0-.303-.083-.387-.166-3.597-.353-6.387-3.433-6.387-7.096z" fill="#55708f"/><path d="m768.719 373.345c0-4.518-3.688-8.34-8.053-8.34-.211 0-.362-.002-.569.015l-.198-.046c-.127.013-.171-.022-.173-.022.085-.025-.241 1.087-.241 1.087l-.488-1.605v-18.355l.864.92c1.854 1.974 7.255 3.352 13.136 3.352 5.493 0 10.061-1.182 13.21-3.417l.79-.56v.968 17.092c0 .185-.09.309-.21.418l.027.289-.542.007c-4.463.055-8.233 3.812-8.233 8.203 0 2.145.854 4.133 2.69 6.256l.713.827h-1.093-13.975-1.093l.716-.83c1.857-2.149 2.722-4.139 2.722-6.259z" fill="#55708f"/><path d="m754.342 368.014.145-.062c.07-.019.145-.066.22-.143l.105-.082c2.042-1.182 3.948-1.575 4.673-1.689l.093-.015.214.059c.12-.014.241-.018.362-.018l.449.007c3.906 0 7.084 3.208 7.084 7.15 0 3.63-2.784 6.685-6.383 7.043-.082.082-.209.169-.39.169h-.239-.004-.104c-7.388 0-11.546-.484-12.354-1.435-.152-.174-.208-.442-.158-.755.921-5.75 3.927-8.737 6.287-10.229z" fill="#55708f"/><path d="m741.038 373.094c0-3.904 3.178-7.08 7.084-7.08.275 0 .545.021.812.052l.236-.021.091.016c.501.086 1.837.361 3.404 1.078l.757.347-.662.506c-3.088 2.358-5.003 5.733-5.692 10.032-.075.472-.005.894.209 1.255l.57.962-1.097-.217c-3.31-.654-5.712-3.568-5.712-6.93z" fill="#55708f"/><path d="m730.719 373.345c0-4.518-3.688-8.34-8.053-8.34-.211 0-.362-.002-.569.015l-.182-.047c-.139.013-.187-.021-.189-.021.085-.025-1.862.232-1.862.232l1.133-.75v-18.355l.864.92c1.854 1.974 7.255 3.352 13.136 3.352 5.493 0 10.061-1.182 13.21-3.417l.79-.56v.968 17.092c0 .185-.09.309-.21.418l.027.289-.542.007c-4.463.055-8.233 3.812-8.233 8.203 0 2.17.843 4.099 2.732 6.253l.728.83h-1.104-14.02-1.093l.715-.83c1.857-2.149 2.722-4.139 2.722-6.259z" fill="#55708f"/><path d="m721.485 366.038.093-.015.214.059c.12-.014.241-.018.362-.018l.449.007c3.906 0 7.084 3.208 7.084 7.15 0 3.63-2.784 6.685-6.383 7.043-.082.082-.209.169-.39.169h-.239-.004-.104c-7.388 0-11.546-.484-12.354-1.435-.246-.281-.159-.876-.158-.882 1.607-10.033 9.803-11.821 11.43-12.078z" fill="#55708f"/><path d="m741.609 338.867c4.412 1.012 7.263 2.936 7.263 4.901 0 3.026-6.468 5.583-14.125 5.583-8.493 0-13.75-2.896-13.75-5.588 0-1.323.963-3.719 7.41-4.9l.59-.108v.6 3.58c0 .23.016.442.038.648.017.149.041.291.071.426.004.024.009.049.014.072.551 2.313 2.909 2.52 5.877 2.52 3.399 0 6-.27 6-3.666v-4.209z" fill="#55708f"/><path d="m721.997 308.435h1s-.088-.021-.062-.029c.315 0 .48-.352.48-.91 0-.629-.237-1.061-.575-1.061h-.002-.841v-11.333c0-2.131 1.008-3.167 3.082-3.167 1.954 0 2.764 1.656 2.892 2.965.018.14.026.266.026.369v10.166c0 10.244 9.129 17.125 17.656 17.125 34.398 0 34.987-33.373 34.989-33.708-.002-1.485.479-2.787 1.354-3.666.807-.808 2.138-1.252 3.75-1.252 5.024 0 5.25 5.279 5.25 5.333v20.76 10.408c0 2.973-.954 5.432-2.835 7.31-4.5 4.491-15.266 4.827-31.176 4.827l-9.489-.012c-14.714 0-21.023-3.532-23.726-6.496-.156-.172-.272-.342-.387-.511-.053-.079-.106-.158-.165-.236l-.446-.591.715-.192c2.467-.665 4.258-3.388 4.258-6.474 0-3.697-2.258-6.598-5.151-6.625l-.599.206v-.498l-.06-.071.06-.223v-2.414zm1.033-13.924c-.021.18-.033.374-.033.591 0-.212.013-.405.033-.591zm.078-.428c-.003.014-.005.03-.009.044.003-.014.006-.029.009-.044z" fill="#55708f"/><path d="m695.33 131.935 104.323.5c2.947 0 5.344 2.397 5.344 5.344v.5 88.812.5c0 2.675-2.169 4.844-4.844 4.844h-.5-102.812-.5c-2.947 0-5.344-2.397-5.344-5.344l-1.167-88.99c0-2.947 2.553-6.166 5.5-6.166z" fill="#55708f"/><path d="m706.341 142.435h83.312c2.947 0 5.344 2.397 5.344 5.344v.5 68.812.5c0 2.675-2.169 4.844-4.844 4.844h-.5-82.812-.5c-2.947 0-5.344-2.397-5.344-5.344v-69.312c0-2.947 2.397-5.344 5.344-5.344z" fill="#4ab85f"/><path d="m740.131 248.751.247.479c1.067 2.077 1.989 3.871 4.468 3.871 2.787 0 4.484-2.272 6.28-4.679 2.712-3.633 6.088-8.154 14.6-8.154 5.854 0 9.972 2.188 12.238 6.503 1.463 2.788 1.771 5.441 1.831 6.211.089.091.202.238.202.453v35c0 .103 0 .192-.024.286l.024.008v.106c0 .328-.761 32.725-34.354 32.725-6.97 0-16.646-5.604-16.646-16.125v-64.166l.533.035c6.133.407 8.8 3.993 10.601 7.447z" fill="#4ab85f"/><path d="m725.499 102.896c1.185-2.58 3.453-4.314 5.644-4.314.558 0 1.09.115 1.583.341 1.165.536 2.044 1.7 2.411 3.194.373 1.521.167 3.36-.549 4.919l-11.09 24.399h-.322-9.903-.777z" fill="#4ab85f"/><path d="m733.741 118.89c.677 0 1.331.143 1.944.424 1.21.556 2.134 1.577 2.602 2.874.464 1.29.413 2.668-.141 3.873l-2.346 5.375h-.327-9.904-.773l4.259-9.477c.843-1.836 2.727-3.069 4.686-3.069z" fill="#4ab85f"/><path d="m862.037 98.4971c.595 0 1.163.123 1.688.364 1.193.548 2.05 1.6609 2.411 3.1319.371 1.513.176 3.216-.549 4.795l-26.254 57.306-.654-.388c-.141-.08-.209-.158-.417-.239l-3.265-1.698v-.309c0-.122-.218-.303 0-.416v-2.551c0-.396-.067-2.503-1.402-4.986l-.117-.218 23.021-50.674c1.131-2.464 3.357-4.1179 5.538-4.1179z" fill="#4ab85f"/><path d="m862.862 119.043c1.246-.462 2.618-.411 3.824.144 1.214.558 2.138 1.554 2.602 2.807.464 1.252.413 2.61-.144 3.824l-22.536 49.07c-.03.066-.067.126-.106.185l-.654 1.229-.304-1.304c-1.018-4.361-2.81-7.891-5.046-9.936l-.269-.246 19.828-43.172c.556-1.213 1.552-2.137 2.805-2.601z" fill="#4ab85f"/><path d="m816.622 266.31c-1.226 5.076-5.125 27.5-24.875 42.125l-.75 1.592.003-16.967s5.497-4.002 7.997-9.126 7.375-20.374 7.125-23.999-.367-15.311-7.5-26.5l4.369-1.924 4.492-2.174s6.885 9.763 7.264 14.723 3.927 13.753 1.875 22.25z" fill="#b6b6b4"/><path d="m716.996 232.435h-12s-7.5 12.5-6.875 24.625 0 26.375 22.5 49.75l.375-13s-.49-1.914 1-1.75-1-2.25-1-2.25-11.25-13.75-11.75-25.625-.75-18.75 7.75-31.75z" fill="#b6b6b4"/><path d="m777.997 338.435v-6l-11 .875v8.125s-1.25 5.166 6 5.166 5-5.666 5-8.166z" fill="#b6b6b4"/><path d="m739.747 338.726s1.75 7.354-4.812 7.354-6.062-4.18-5.938-6.725 0-8.92 0-8.92 10.299 1.648 10.962 2.137-.212 6.154-.212 6.154z" fill="#b6b6b4"/><path d="m835.997 164.102c5.238 0 9.5 8.748 9.5 19.5s-4.262 19.5-9.5 19.5-9.5-8.748-9.5-19.5 4.262-19.5 9.5-19.5z" fill="#fff"/><path d="m721.744 320.621c.017-.202.127-.32.253-.395v-7.101l-.094-.125.138-.278.208-.287h.31c2.316 0 4.062 2.418 4.062 5.625 0 2.995-1.803 5.455-4.104 5.6l-.358.022-.136-.332c-.383-.936-.479-1.892-.279-2.729z" fill="#fff"/><path d="m779.997 312.435c3.102 0 5.625 2.523 5.625 5.625s-2.523 5.625-5.625 5.625-5.625-2.523-5.625-5.625 2.523-5.625 5.625-5.625z" fill="#fff"/><path d="m825.664 183.602c-.197 3.751 1.5 19.332 10.333 20.333 0 0-13.868 7.753-15.388 7.293s-9.884-5.293-10.248-27.626 11.537-27.997 12.954-27.332 11.515 6.21 11.515 6.21-8.333 5.288-9.166 21.122z" fill="#b6b6b4"/><path d="m747.496 345.56s-2.25-2.625-7.25-2.5l.25-4.875s10.875 2 7 7.375z" fill="#2d4462"/><path d="m728.122 342.81s-.25 6.25 7 6.625c0 0-14.875-.245-14.875-6.25 0-2.375 8.75-4.75 8.75-4.75z" fill="#2d4462"/><path d="m785.496 345.56s-2.25-2.625-7.25-2.5l.25-4.875s10.875 2 7 7.375z" fill="#2d4462"/><path d="m766.122 342.81s-.25 6.25 7 6.625c0 0-14.875-.245-14.875-6.25 0-2.375 8.75-4.75 8.75-4.75z" fill="#2d4462"/><path d="m731.872 349.435s3.625 2.375 1.625 4.25-4.833 4.958-3.083 7.583 6.583.417 5.333 6.25c-.878 4.098 3.25 8.084 6 .042 0 0-2.875 8 2.625 12.25l-4.625.75-14.875-.375s7.125-3.625 5.125-8.75-9.25-6-9.25-6l-.375-19.125s9 3.375 11.5 3.125z" fill="#2d4462"/><path d="m769.872 349.435s3.625 2.375 1.625 4.25-4.833 4.958-3.083 7.583 6.583.417 5.333 6.25c-.878 4.098 3.25 8.084 6 .042 0 0-2.875 8 2.625 12.25l-4.625.75-14.875-.375s7.125-3.625 5.125-8.75-9.25-6-9.25-6l-.375-19.125s9 3.375 11.5 3.125z" fill="#2d4462"/><path d="m750.33 369.935s-6.416.834-3.583-3.333c0 0-3.167-.75-4.417 2.25s-3.5 8.917 4.75 11.5c0 0 2.917-8.666 3.583-9.5s-.333-.917-.333-.917z" fill="#2d4462"/><path d="m728.997 374.518c-.132-.229-3.321 1.461-4.667.5-1.167-.833.667-2.75-1.5-3.916-2.03-1.092-8.417.5-2.75-4.5 0 0-9.333 1.832-10.5 11.416 0 0 3 3.25 14.5 2.5 0 0 7.084-2.25 4.917-6z" fill="#2d4462"/><path d="m767.08 374.602s-2.125 2.428-4.083 1.5c-1.583-.75.391-3.323-2-4.917-2.25-1.5-5.667 3.75-7.25-1.917l-.917-.583s-8.25 9.083-4.75 10.583 12.417 2.084 14.417.917 5.416-4.499 4.583-5.583z" fill="#2d4462"/><path d="m784.414 366.685s-4.5 4.167 1.25 4.917c3.087.402-1.16 6.788 5.583 3.416 2-1 5.667 4.333 6.083 0l1.75 2.167s-.084 2.25-.417 2.333-9.333 1.167-9.333 1.167-8.334 1.166-9.667-3.667-.999-10.166 4.751-10.333z" fill="#2d4462"/><path d="m784.33 329.517s-3.551 1.079-6.417-.083c-3.083-1.25-2.333 1.167-5.5 1.25s-6.417-4.667-10.75-4.667-3.25 3.833-7.333 3.583c-2.746-.168-3.614-3.836-9.667-4.5-6.833-.75-12.333 2.167-12.917-1.5-.46-2.894 5.25-3.75-1.833-10.333-1.086-1.01-2.417-6.082-2.167-10.916s.333-11.25-3.75-11.167-3 7.833-3 7.833l-.583 19.75s1.917 9.25 8.25 11.417 21.25 3.417 34.25 2.917 20.834-1.168 21.417-3.584z" fill="#2d4462"/><path d="m786.997 284.31s-2.25.875-2.625 3.25 2.111 3.128 1.5 4.875c-.875 2.5-3.565 2.27-4.375 4.625-.688 2 .764 4.676-1 7.25-2.312 3.375-4.5 1.188-7.875 6.625 0 0 7.125-12.625 7.25-21.25 0 0 .625-7.875 7.125-5.375z" fill="#2d4462"/><path d="m721.006 235.497c-.005-.462-.009-.729-.009-.729l.316.006 1.1-2.589 68.417.083-.583 3.5s-24.812-.083-28.438-.333c0 0-3.156-.008-3.896.5-2.917 2-4.554.052-6.75 1.25-1.833 1-.083 5.166-2.917 5.833-3.901.918-4.083 3.5-3.417 4.417.942 1.296 2.583 2.25 5.917-.5 2.007-1.656-3.709 6.338-6.875 5.562-3.062-.75-5.792-7.146-5.792-7.146l-8.667-4.916-1.975 1.026c.17 4.435 1.092 16.001-1.275 16.307-2.583.333-5 .167-5-4.583 0-4.08-.123-14.731-.157-17.657l-.009-.01z" fill="#2d4462"/><path d="m790.059 254.247s-.875 2.688-3.562 2.188.452-4.804-3-5.75c-3.875-1.062-.125-5-3.875-6.875-3.536-1.768-6-2.938-6-2.938s5.812 5.812 6.438 11.25 2.688 8.438 6.312 6.938 3.687-4.813 3.687-4.813z" fill="#2d4462"/><path d="m758.164 231.6s-10.5-.5-14.667-3.583c-3.381-2.502-6.583-2.083-9.083-.916s-4 2.917-7.667 2.75-6.75-4.5-11.25-4-4.833 3.917-10 3.25-5.5-3.417-5.167-9.167c.312-5.39-.5-73.833-.5-73.833s.5-5 5.667-4.667 43 .333 43 .333l22.667-.833s-6.115-.668-10-3.5c-4-2.916-7 1.667-10.667 1.833s-4.834-4.334-11.167-3.667-6.5 3.5-14.833 2.667-9-5.833-15.5-6.333-16.5.333-16.5.333l-2.667 5.167-.333 86.833s-1.167 8 6.667 8 62-.667 62-.667z" fill="#2d4462"/><path d="m805.997 136.018s3.75 5.001 3.417 8.334c-.274 2.741-1.75 3.25-1.833 6.417-.127 4.867 3.75 5 3.667 8.917s-3.333 3.5-3.25 7.917 2.75 5.416 2.917 9.166 1.667 22.166 1.167 23.5-3.553.591-3.75 3.584c-.417 6.333 6.5 4.583 5.167 9.416-1.956 7.093-.583 12.833 16.167 6.5l-9.75 5.584-17.083 6s1.084-.501 1.417-4.084.417-41.166.417-41.166l.5-48.5z" fill="#2d4462"/><path d="m716.997 232.684s-10.625-.5-10.875.375-3.671 12.788-4.625 22.875c-.875 9.25 3.375 23.875 8.25 30.625 4.547 6.296 6.125 13.25 4.75 14.375 0 0 6.75 6.25 6.375 6.25s.125-15 1.375-15.125c0 0-5.125-6.375-7.75-11.125s-4.734-12.743-5.125-20.25c-.625-12 4.5-26 7.625-28z" fill="#8e8e8e"/><path d="m808.246 231.935s-3.75 1.625-1.5 6.625 7.625 21.5 1.375 36.75-17 23.5-16 32.625c0 0-2 8.125-1.5-10.875l.5-4.25s6.5-5.75 9-11.375 6.75-14.5 6.25-21.875-2.875-17.625-5.375-21.75-3.75-4.875-3.75-4.875l6.75-1.875 3.375-1.125z" fill="#8e8e8e"/><path d="m822.622 157.559s-17.875 30.375 7.875 44c0 0 5.125 2 5 2.375s-13.5 7-13.5 7-3.125 1.75-6.75-5.75-5-17.125-4.5-24.75 4.5-25.25 11.875-22.875z" fill="#8e8e8e"/><g fill="#fff"><path d="m722.486 323.161c2.019-.127 3.636-2.355 3.636-5.101 0-2.826-1.71-5.125-3.812-5.125-.105 0-.208.016-.312.027v7.598c0 .031-.002.07-.005.101-.007.065-.085 1.088.493 2.5z"/><path d="m774.997 243.435-4-2.5v70.5l4-4.625z"/><path d="m747.818 141.191-6.111.454-42.25 42.25.789 5.289z"/><path d="m795.037 192.974-.329-5.328-34.375 34.375 5.539.539z"/><path d="m795.217 211.155-.634-13.634-24.5 24.5 14.664.664z"/><path d="m737.247 141.435-12.789-.289-24.625 24.625-.086 13.914z"/><path d="m768.997 240.06-2-.25v76.25l2-1.5z"/><path d="m732.702 266.89c-1.523-1.129-1.14-4.226.854-6.916 1.995-2.69 4.847-3.956 6.37-2.826 1.523 1.129 1.141 4.225-.854 6.916-1.995 2.69-4.847 3.955-6.37 2.826z"/><path d="m754.072 313.232c2.353-1.604 4.83-2.066 5.532-1.032.702 1.033-.636 3.172-2.991 4.776-2.354 1.604-4.83 2.065-5.533 1.031-.7-1.032.638-3.17 2.992-4.775z"/><path d="m757.203 307.238c1.432-.753 2.854-.864 3.174-.248.32.617-.581 1.727-2.015 2.48-1.433.752-2.854.863-3.175.247-.32-.615.582-1.724 2.016-2.479z"/><path d="m734.614 274.095c-.703-.485-.478-2.028.502-3.447.979-1.418 2.343-2.174 3.046-1.689.702.485.477 2.029-.502 3.447-.98 1.418-2.344 2.174-3.046 1.689z"/><path d="m778.826 150.463c3.24-3.183 7.33-4.275 9.132-2.439 1.801 1.836.634 5.907-2.608 9.092-3.243 3.184-7.332 4.275-9.134 2.439-1.801-1.835-.633-5.906 2.61-9.092z"/><path d="m722.218 210.831c2.812-2.762 6.362-3.71 7.925-2.117s.55 5.127-2.264 7.891c-2.814 2.763-6.362 3.71-7.926 2.116-1.562-1.592-.549-5.125 2.265-7.89z"/><path d="m713.629 216.456c-.629-.641-.221-2.061.911-3.171s2.56-1.49 3.189-.849c.628.641.22 2.061-.912 3.171s-2.559 1.49-3.188.849z"/><path d="m777.239 169.622c-.838-.8-.209-2.82 1.405-4.513 1.614-1.692 3.603-2.416 4.441-1.617.839.8.21 2.821-1.404 4.513-1.615 1.693-3.603 2.417-4.442 1.617z"/><path d="m767.741 154.694c-.838-.799-.21-2.82 1.405-4.513 1.614-1.692 3.603-2.416 4.441-1.616.839.799.21 2.82-1.405 4.513-1.614 1.692-3.602 2.416-4.441 1.616z"/><path d="m734.556 254.688c-.788-.327-.96-1.721-.383-3.114.578-1.392 1.685-2.257 2.474-1.93s.96 1.721.383 3.114-1.685 2.257-2.474 1.93z"/></g><path d="m834.623 181.177c1.018 0 1.843-1.675 1.843-3.742 0-.702-.102-1.352-.267-1.913.359-.215.736-.337 1.128-.337 2.254 0 4.081 3.806 4.081 8.5s-1.827 8.5-4.081 8.5c-2.253 0-4.08-3.806-4.08-8.5 0-1.139.109-2.224.305-3.217.302.442.67.709 1.071.709z" fill="#4ab85f"/><path d="m865.664 118.934s-23.167 41.167-19.667 55.834l-.833.333s-4.167-10.001-5.667-10.667 0-.833 0-.833l3.333-5.833s17.333-38.833 19.5-39.167 3.334.333 3.334.333z" fill="#fff"/><path d="m861.664 98.9344s-20.833 43.6666-23.667 52.9996c-1.671 5.507-.333 9.167 1.5 11.667l-.667.833-5-2.833s.834-6.334-1.333-8.667l14.167-30.167s9.833-28.4996 15-23.8326z" fill="#fff"/><path d="m732.33 99.102s-3 2.334-9.5 17.167-6.5 14.833-6.5 14.833l-4.667.5 13.834-30.334s3.5-4.333 6.833-2.166z" fill="#fff"/><path d="m733.997 119.267s-6.167 9-4.5 11.333-.5.834-.5.834l-5.167-.667s5.333-11.833 6.333-11.833 3.501-1.167 3.834.333z" fill="#fff"/><path d="m779.616 311.735c-.698.816-1.12 1.876-1.12 3.033 0 2.577 2.089 4.667 4.667 4.667 1.29 0 2.458-.523 3.302-1.37 0 0-1.219-5.214-2.969-5.214s-3.88-1.116-3.88-1.116z" fill="#4ab85f"/><path d="m720.997 314.768c0-2.577-.25-2.084.167-2.5 1.824-1.821 4.667-.077 4.667 2.5s-2.089 4.667-4.667 4.667c-1 0-.167-2.09-.167-4.667z" fill="#4ab85f"/><path d="m773.966 319.979c.52-.637 1.311-1.044 2.198-1.044 1.565 0 2.834 1.27 2.834 2.834 0 .91-.43 1.721-1.098 2.239" fill="#4ab85f"/><path d="m705.841 140.435h83.312c3.774 0 6.844 3.07 6.844 6.844v69.312c0 3.773-3.07 6.844-6.844 6.844h-83.312c-3.774 0-6.844-3.07-6.844-6.844v-69.312c0-3.774 3.07-6.844 6.844-6.844zm-4.844 76.156c0 2.671 2.173 4.844 4.844 4.844h83.312c2.671 0 4.844-2.173 4.844-4.844v-69.312c0-2.671-2.173-4.844-4.844-4.844h-83.312c-2.671 0-4.844 2.173-4.844 4.844z" fill="#000"/><path d="m695.841 130.434h15.231l13.064-28.447c1.824-3.9717 5.958-5.9867 9.215-4.4907 1.618.743 2.769 2.212 3.241 4.1367.451 1.841.223 3.894-.643 5.779l-4.718 10.272c1.587-.621 3.412-.627 5.08.139 1.578.725 2.779 2.02 3.382 3.648.604 1.628.537 3.394-.188 4.971l-1.832 3.99h61.479c1.743 0 3.331.661 4.541 1.737.003.002.006.001.009.003l23.764 15.21c2.296 1.222 3.886 2.596 5.005 3.953l22.665-49.35c1.824-3.9717 5.958-5.9867 9.215-4.4907 1.618.743 2.769 2.212 3.241 4.1367.451 1.841.223 3.894-.643 5.779l-4.718 10.272c1.587-.621 3.412-.627 5.08.139 3.257 1.496 4.689 5.362 3.194 8.62l-22.537 49.072c-.348.759-.833 1.422-1.43 1.989.295 1.924.458 3.966.458 6.096 0 9.798-3.35 17.809-8.026 20.23-.097.139-.216.263-.38.341l-3.594 1.697v5.064c0 9.464-5.634 11.299-5.798 11.346l-20.053 7.938c2.275 2.843 7.837 11.112 8.802 24.9.006.013.017.021.022.034.075.194.075.194.023.582.067 1.142.104 2.318.104 3.533 0 2.439-.193 4.822-.519 7.152 0 .006.003.01.003.016.001.051-.019.095-.025.144-3.444 24.053-22.682 41.784-25.559 44.313v9.546c0 3.601-.99 6.339-3.025 8.371-2.199 2.195-5.5 3.477-9.975 4.227v4.28c5.091 1.029 8.389 3.159 8.917 5.726.014.032.014.07.024.104.005.028.013.057.017.085.016.069.043.134.043.207v21c0 .085-.028.16-.048.238 2.632.567 10.574 3.105 12.202 13.271.147.918-.187 1.539-.492 1.898-1.202 1.412-4.229 1.825-13.438 1.84-.025.002-.134.002-.16.002l-.481.002c-.102 0-.201-.018-.296-.049-.415-.04-.818-.119-1.213-.217-.026.002-.048.015-.074.015h-21c-.079 0-.148-.027-.222-.045-.427.112-.865.2-1.315.245-.1.033-.207.051-.314.051l-.434-.005c-.031.003-.077.005-.107.005 0 0-.037-.002-.038-.002-3.696-.007-6.388-.078-8.379-.249h-.418-3.71l-.477.127c-.102 0-.201.044-.296.013-.367-.036-.725-.103-1.077-.183-.07.016-.136.043-.211.043h-21c-.079 0-.148-.027-.222-.045-.427.112-.865.2-1.315.245-.1.033-.207.051-.314.051l-.434-.005c-.031.003-.077.005-.107.005 0 0-.037-.002-.038-.002-9.269-.017-12.297-.43-13.499-1.842-.306-.359-.639-.98-.492-1.898 1.346-8.407 7.013-11.597 10.422-12.771v-21.4c0-.002 0-.003 0-.005s0-.004 0-.006v-.327c0-.072.026-.137.041-.204.006-.041.017-.081.024-.121.008-.022.007-.048.017-.069.524-2.572 3.82-4.699 8.918-5.729v-6.491c-2.233-1.031-4.042-2.304-5.405-3.824-2.715-3.03-2.631-5.981-2.595-6.478v-8.326c-.001-.04-.004-.078 0-.117v-4.093c-7.144-7.111-23-25.516-23-48.715 0-1.202.047-2.356.115-3.487-.058-.201-.069-.418.012-.629.007-.02.023-.031.032-.05.731-10.252 4.024-17.494 6.576-21.667h-7.891c-3.774 0-6.844-3.07-6.844-6.844v-89.312c-.003-3.774 3.067-6.844 6.841-6.844zm38.291-23.856c.678-1.477.862-3.063.518-4.468-.324-1.32-1.082-2.3127-2.134-2.7957-2.254-1.035-5.199.538-6.563 3.5077l-12.68 27.612h9.903zm3.556 19.031c1.036-2.255.043-4.932-2.211-5.967-2.254-1.034-4.932-.043-5.967 2.211l-3.94 8.581h9.904zm87.313 57.825c.017-4.273.67-8.201 1.792-11.471l-12.573-3.83c-1.413 4.232-2.37 9.491-2.388 15.301zm-13.142 2c.131 4.999.796 9.714 1.847 13.647l12.975-4.2c-.907-2.762-1.486-5.968-1.637-9.447zm15.657-15.342c1.542-3.547 3.696-6.071 6.181-7.045l-11.024-5.325c-.929-.176-1.919.155-2.953.979-1.682 1.341-3.41 3.982-4.819 7.547zm37.616-63.514c.678-1.477.862-3.063.518-4.468-.324-1.32-1.082-2.3127-2.134-2.7957-2.253-1.035-5.199.538-6.563 3.5077l-23.168 50.447c1.385 2.577 1.26 4.763 1.212 5.223v2.942c0 .009-.005.016-.005.024l3.241 1.56c.273.104.538.243.803.384zm-18.981 68.104 22.537-49.073c.501-1.092.548-2.314.13-3.441-.417-1.127-1.249-2.024-2.341-2.526-1.091-.501-2.314-.548-3.441-.13-1.127.417-2.024 1.249-2.526 2.341l-19.676 42.84c2.312 2.115 4.149 5.708 5.195 10.191.037-.069.089-.129.122-.202zm-10.154 27.919c4.878 0 9-8.701 9-19s-4.122-19-9-19-9 8.701-9 19 4.122 19 9 19zm-8.625-5.842-13.105 4.242c1.246 3.869 2.895 6.765 4.78 8.058 1.148.788 2.323.933 3.522.471l11.268-5.324c-2.624-.961-4.885-3.651-6.465-7.447zm1.156 23.638c.182-.06 4.469-1.561 4.469-9.463v-4.12l-9.64 4.553c-.716.277-1.434.415-2.141.415-1.143 0-2.259-.36-3.299-1.073-5.556-3.81-8.087-16.723-8.087-27.107 0-11.159 3.715-22.536 8.642-26.464 1.55-1.235 3.191-1.701 4.748-1.344l9.777 4.704v-2.064l.009-.138c.008-.053.655-5.352-6.548-9.187l-20.596-13.179c.087.436.135.886.135 1.347v89.312c0 1.077-.257 2.094-.703 3.001l1.812-.718c.002 0 .003-.001.005-.002zm-21.343 10.596-5.987 2.37c-.121.048-.246.07-.368.07-.157 0-.307-.047-.445-.116-.332.061-.673.096-1.02.106.887 1.044 2.008 2.571 3.122 4.66 4.715.471 7.808-1.971 7.839-1.996.056-.046.121-.065.183-.097-1.397-2.55-2.681-4.228-3.324-4.997zm4.241 6.772c-.699.518-3.516 2.39-7.708 2.39-.073 0-.151-.007-.226-.008.75 1.684 1.459 3.646 2.05 5.908 3.545 1.192 8.388-1.063 8.437-1.087.051-.024.105-.024.157-.039-.798-2.781-1.749-5.183-2.71-7.164zm3.233 9.091c-.749.334-3.692 1.552-6.792 1.552-.604 0-1.212-.054-1.813-.162.456 2.201.796 4.646.958 7.361.006.002.012 0 .019.002 2.88.976 7.145-.203 8.871-.765-.232-2.913-.663-5.592-1.243-7.988zm1.437 12.411c0-.812-.039-1.583-.071-2.361-1.481.452-3.948 1.07-6.386 1.07-.867 0-1.728-.081-2.54-.273.013.514.022 1.032.022 1.564 0 1.397-.081 2.768-.219 4.114 2.459 1.745 6.918 2.041 8.785 2.081.257-2.024.409-4.088.409-6.195zm-.69 8.189c-1.978-.058-5.953-.377-8.784-1.901-.354 2.289-.882 4.488-1.535 6.583 3.49 2.851 7.719 3.133 8.409 3.158.806-2.52 1.461-5.136 1.91-7.84zm-5.675 17.047c1.146-2.299 2.2-4.716 3.104-7.244-1.538-.129-5.137-.691-8.422-3.108-.893 2.487-2.131 4.804-3.24 6.92 3.512 3.639 7.823 3.584 7.823 3.584s.501.279.735-.152zm-5.05 8.662c1.401-2.089 2.776-4.347 4.063-6.749-1.457-.083-5.107-.595-8.324-3.609-1.276 2.252-2.587 4.232-3.797 5.901 3.25 4.016 7.766 4.39 7.823 4.394.084.006.157.039.235.063zm-12.684 15.02c1.267-1.191 3.167-3.074 5.364-5.559-1.276-.442-3.521-1.498-5.364-3.756zm0-13.209c2.001 4.937 6.546 5.935 6.758 5.978.014.003.023.012.037.016 1.489-1.767 3.065-3.771 4.641-5.992-1.622-.293-5.164-1.289-8.046-4.614-1.567 2.021-2.83 3.394-3.389 3.978v.634zm0-3.646c1.75-2.06 4.571-5.7 7.155-10.456.026-.07.06-.139.109-.206 3.123-5.802 5.861-13.219 5.861-21.4 0-17.008-7.094-24.511-8.505-25.833h-4.62v20c0 2.363-1.358 6.833-6.5 6.833-1.888 0-3.392-.53-4.5-1.545v25.256c1.108-1.015 2.612-1.545 4.5-1.545 5.142 0 6.5 4.47 6.5 6.833zm-82.025-32.063c0 8.127 2.675 15.459 5.756 21.229.141.148.233.314.258.49 2.34 4.285 4.861 7.647 6.624 9.771.572-.213 1.229-.324 1.968-.324.956 0 1.764.276 2.418.73v-32.468c-.655.456-1.461.737-2.418.737-2.912 0-4.582-1.701-4.582-4.667v-21.331h-1.523c-1.415 1.314-8.501 8.752-8.501 25.833zm5.747-25.833h-9.617c-.478.721-.997 1.567-1.536 2.549.068.033.14.056.201.104.032.025 3.126 2.468 7.839 1.997 1.11-2.083 2.226-3.606 3.113-4.65zm6.278 21.333c0 1.869.772 2.667 2.582 2.667 1.984 0 2.418-2.046 2.418-2.834v-10.166-3.667c0-.268.107-.523.297-.711s.418-.272.715-.289c8.928.107 11.394 4.837 13.194 8.29 1.213 2.328 1.926 3.543 3.627 3.543 1.925 0 3.119-1.474 5.063-4.077 2.759-3.695 6.539-8.756 15.77-8.756 7.99 0 11.753 3.973 13.503 7.305 1.778 3.386 1.914 6.803 1.913 7.806-.002 1.375.405 2.541 1.146 3.284.732.733 1.833 1.105 3.271 1.105 4.342 0 4.497-4.341 4.5-4.833v-20h-68v21.333zm57.059-1.624c-.076-1.235-.39-3.723-1.659-6.141-2.173-4.138-6.12-6.235-11.733-6.235-8.229 0-11.384 4.225-14.167 7.953-1.874 2.51-3.644 4.88-6.666 4.88-2.993 0-4.217-2.348-5.401-4.618-1.662-3.188-3.535-6.781-10.433-7.18v2.632 10.166 50.834c0 10.195 9.51 15.625 16.375 15.625 33.009 0 33.704-31.819 33.708-32.229-.053-.122-.083-.255-.083-.396v-35c0-.104.03-.197.059-.291zm-.059 86.21v3.581c0 4.166-3.757 4.166-6.5 4.166s-6.5 0-6.5-4.166v-3.58c-4.171.916-6.995 2.662-7 4.408v.008c.005 2.404 5.548 5.08 13.5 5.08 7.956 0 13.5-2.679 13.5-5.083 0-1.741-2.831-3.497-7-4.414zm-6.511-1.978c-1.359 0-2.882-.198-4.489-.732v2.864c4.081 1.596 7.681.535 9 .021v-2.874c-1.06.348-2.618.721-4.511.721zm4.511-2.846v-1.207c-2.637.331-5.63.521-9 .624v.562c4.081 1.595 7.681.534 9 .021zm-4.511 7.846c-1.359 0-2.882-.198-4.489-.732v1.291c0 1.761.841 2.166 4.5 2.166s4.5-.405 4.5-2.166v-1.279c-1.06.347-2.618.72-4.511.72zm-22.535 22.288c.961.199 2.626.657 4.44 1.664.935-.516 1.829-.888 2.606-1.155v-21.4c0-.002 0-.003 0-.005s0-.004 0-.006v-.327c0-.072.026-.137.041-.204.006-.041.017-.081.024-.121.008-.022.007-.048.017-.069.524-2.572 3.82-4.699 8.918-5.729v-3.313c-2.778.058-5.785.073-9.042.073-1.447 0-2.945-.003-4.489-.006l-4.969-.006c-2.305 0-4.472-.083-6.5-.249v3.502c5.091 1.029 8.389 3.159 8.917 5.726.014.032.014.07.024.104.005.028.013.057.017.085.015.069.042.134.042.207v21c0 .082-.028.154-.046.229zm35.702 14.873c.054.003.106-.102.158-.102h.239.106c3.58 0 11.028.105 11.979-1.014.031-.035.073.039.041-.161-1.552-9.694-9.354-11.445-10.991-11.707-.101.019-.204.009-.309-.004-.248-.028-.499-.062-.755-.062-3.63 0-6.584 2.922-6.584 6.553.001 3.436 2.687 6.254 6.116 6.497zm-5.303-.102c-1.729-1.577-2.812-3.843-2.812-6.333 0-4.697 3.793-8.521 8.477-8.578-.003-.031-.018-.058-.018-.089v-17.093c-2.612 2.129-7.56 3.509-13.5 3.509s-10.888-1.38-13.5-3.509v17.285c.384-.075.616-.103.631-.104.101-.01.203-.001.302.024.222-.019.446-.029.673-.029 4.733 0 8.584 3.851 8.584 8.584 0 2.49-1.083 4.756-2.812 6.333zm-31.76-1.014c.952 1.119 8.4 1.014 11.978 1.014h.104.004.239c.052 0 .104.103.158.1 3.429-.242 6.115-3 6.115-6.437 0-3.631-2.954-6.588-6.584-6.588-.256 0-.507.011-.755.039-.095.012-.192-.011-.286-.031-.681.107-2.51.484-4.5 1.636-.13.132-.28.236-.454.28-2.539 1.605-5.218 4.506-6.06 9.764-.032.2.01.188.041.223zm-1.743 1.112c-.219-.37-.384-.894-.272-1.589.831-5.187 3.307-8.384 5.882-10.351-1.479-.677-2.741-.948-3.28-1.04-.098.02-.198.022-.3.01-.248-.028-.499-.049-.755-.049-3.63 0-6.584 2.949-6.584 6.58 0 3.161 2.275 5.84 5.309 6.439zm-4.453-.098c-1.754-1.561-2.856-3.821-2.856-6.333 0-4.697 3.793-8.521 8.477-8.578-.003-.031-.018-.058-.018-.089v-17.093c-2.612 2.129-7.56 3.509-13.5 3.509s-10.888-1.38-13.5-3.509v17.285c.384-.075.616-.103.631-.104.1-.01.203-.001.302.024.222-.019.446-.029.673-.029 4.733 0 8.584 3.851 8.584 8.584 0 2.49-1.083 4.756-2.812 6.333zm-31.845-1.237c-.032.2.01.188.041.224.952 1.119 8.4 1.014 11.978 1.014h.104.004.239c.052 0 .104.103.158.1 3.429-.242 6.115-3 6.115-6.437 0-3.631-2.954-6.588-6.584-6.588-.256 0-.507.011-.755.039-.095.012-.191-.011-.286-.031-1.591.25-9.455 1.942-11.014 11.679zm10.448-34.435v.008c.005 2.404 5.548 5.08 13.5 5.08 7.956 0 13.5-2.679 13.5-5.083 0-1.741-2.831-3.497-7-4.414v3.581c0 4.166-3.757 4.166-6.5 4.166s-6.5 0-6.5-4.166v-3.58c-4.171.916-6.995 2.662-7 4.408zm13.489-6.387c-1.359 0-2.882-.198-4.489-.732v2.864c4.081 1.596 7.681.536 9 .021v-2.874c-1.06.348-2.618.721-4.511.721zm4.511-2.846v-.914c-3.453-.396-6.449-1.061-9-1.98v2.873c4.081 1.595 7.681.535 9 .021zm-4.511 7.846c-1.359 0-2.882-.198-4.489-.732v1.291c0 1.761.841 2.166 4.5 2.166s4.5-.405 4.5-2.166v-1.279c-1.06.347-2.618.72-4.511.72zm-10.345-16.649c2.634 2.889 8.824 6.333 23.356 6.333l4.972.006c18.275.037 30.35.056 35.089-4.675 1.641-1.638 2.439-3.913 2.439-6.956v-10.408-20.76c0-.197-.051-4.833-4.5-4.833-1.438 0-2.539.372-3.271 1.105-.741.743-1.148 1.909-1.146 3.312 0 .342-.972 34.209-35.708 34.209-8.874 0-18.375-7.082-18.375-17.625v-10.166c0-.788-.435-2.834-2.418-2.834-1.81 0-2.582.798-2.582 2.667v4.555c0 .009.001.018 0 .025v6.384c.181-.16.395-.256.625-.256.645 0 1.168.728 1.168 1.625s-.523 1.625-1.168 1.625c-.23 0-.444-.096-.625-.256v2.158c.104-.007.208-.027.312-.027 3.205 0 5.812 3.196 5.812 7.125 0 3.404-1.958 6.254-4.566 6.956.178.234.368.472.586.711zm-1.655-2.566c2.019-.127 3.636-2.355 3.636-5.101 0-2.826-1.71-5.125-3.812-5.125-.105 0-.208.016-.312.027v7.598c0 .031-.002.07-.005.101-.007.065-.085 1.088.493 2.5zm-2.489-18.036v-3.574c-.886.534-1.7.879-2.293 1.085.81.913 1.579 1.743 2.293 2.489zm-3.726-4.142c.025-.007.044-.024.07-.029.019-.004 1.804-.383 3.656-1.835v-4.017c0-1.33.353-2.39.986-3.172-.391-.474-.81-.995-1.262-1.582-2.91 3.368-6.497 4.354-8.102 4.638 1.578 2.223 3.159 4.231 4.652 5.997zm-5.898-7.806c.089-.032.177-.068.277-.074.047-.003 4.563-.345 7.837-4.415-1.203-1.668-2.503-3.646-3.774-5.89-3.259 3.076-6.974 3.554-8.406 3.623 1.287 2.408 2.663 4.666 4.066 6.756zm-5.052-8.663c.12-.051.251-.079.389-.079h.01c.052 0 4.447.139 7.982-3.5-1.089-2.087-2.113-4.364-2.993-6.804-3.313 2.449-6.955 3.007-8.481 3.131.901 2.532 1.951 4.953 3.093 7.252zm-3.754-9.216c.608-.02 4.926-.273 8.464-3.179-.656-2.095-1.191-4.287-1.549-6.569-2.837 1.532-6.83 1.851-8.806 1.907.445 2.706 1.091 5.324 1.891 7.841zm-2.57-16.03c0 2.106.138 4.174.39 6.195 1.859-.037 6.354-.327 8.821-2.094-.139-1.345-.237-2.707-.237-4.102 0-.532.01-1.051.022-1.564-.812.192-1.672.273-2.54.273-2.449 0-4.928-.624-6.406-1.077-.031.774-.05 1.562-.05 2.369zm.179-4.426c1.713.559 5.987 1.747 8.886.768.006-.002.012 0 .019-.002.163-2.715.502-5.16.958-7.361-.601.108-1.209.162-1.813.162-3.105 0-6.055-1.224-6.795-1.554-.579 2.401-1.025 5.06-1.255 7.987zm4.478-17.087c-.964 1.985-1.921 4.376-2.718 7.17.06.016.121.017.179.044.049.024 4.893 2.281 8.437 1.088.59-2.263 1.299-4.226 2.05-5.909-.074.001-.152.008-.226.008-4.226 0-7.051-1.901-7.722-2.401zm-12.657-11.164c0 2.671 2.173 4.844 4.844 4.844h103.312c2.671 0 4.844-2.173 4.844-4.844v-89.312c0-2.671-2.173-4.844-4.844-4.844h-103.312c-2.671 0-4.844 2.173-4.844 4.844z" fill="#000"/><path d="m739.185 270.884v13.764l9.955 6.883 9.958-6.883v-13.764l-9.958-6.884z" stroke="#000" stroke-linejoin="round" stroke-miterlimit="10" stroke-width="2"/><path d="m749.14 270.456v21.075" stroke="#000" stroke-linecap="round" stroke-linejoin="round" stroke-miterlimit="10" stroke-width="2"/><path d="m743.927 274.224 5.214 3.605" stroke="#000" stroke-linecap="round" stroke-linejoin="round" stroke-miterlimit="10" stroke-width="2"/><path d="m743.927 280.428 5.214 3.604" stroke="#000" stroke-linecap="round" stroke-linejoin="round" stroke-miterlimit="10" stroke-width="2"/><path d="m754.355 274.224-5.214 3.605" stroke="#000" stroke-linecap="round" stroke-linejoin="round" stroke-miterlimit="10" stroke-width="2"/><path d="m754.355 280.428-5.214 3.604" stroke="#000" stroke-linecap="round" stroke-linejoin="round" stroke-miterlimit="10" stroke-width="2"/><path d="m748.094 155.072-1.165.674-23.501 13.567-1.165.674v1.348 27.137 1.345l1.165.674 23.501 13.569 1.165.673 1.17-.673 23.499-13.569 1.167-.674v-1.345-27.137-1.348l-1.167-.674-23.499-13.567z" fill="#2a3747"/><path d="m767.643 172.776-18.816-10.863c-.451-.259-1.008-.259-1.458 0l-18.818 10.863c-.451.261-.729.742-.729 1.262v21.728c0 .521.278 1.002.729 1.262l18.818 10.863c.225.131.476.194.727.194.252 0 .504-.063.731-.194l18.816-10.863c.452-.26.726-.742.726-1.262v-21.728c0-.521-.274-1.001-.726-1.262z" fill="#4ab657"/><path d="m774.22 168.814-25.247-14.579c-.543-.313-1.208-.313-1.75 0l-25.252 14.579c-.54.311-.873.888-.873 1.514v29.157c0 .625.333 1.203.873 1.516l25.252 14.576c.269.157.573.236.873.236.304 0 .606-.079.875-.236l25.248-14.576c.544-.312.879-.891.879-1.516v-29.157c.001-.626-.334-1.203-.878-1.514zm-2.622 29.661-23.502 13.568-23.5-13.568v-27.137l23.5-13.568 23.502 13.568z" fill="#4ab657"/><path d="m741.164 201.764c-1.782 0-3.518-.926-4.472-2.578-.687-1.193-.871-2.582-.513-3.912.358-1.331 1.211-2.441 2.4-3.131l13.529-7.809c1.193-.687 2.582-.872 3.912-.514 1.331.358 2.44 1.208 3.131 2.401 1.421 2.462.575 5.618-1.887 7.043l-13.529 7.809c-.81.466-1.696.691-2.567.691zm13.515-14.863c-.329 0-.655.086-.948.256l-13.528 7.81c-.441.253-.756.665-.886 1.153-.13.492-.065 1.001.188 1.442.524.908 1.688 1.219 2.596.695l13.529-7.81c.907-.524 1.218-1.688.694-2.596-.253-.441-.665-.755-1.154-.885-.162-.044-.329-.065-.495-.065z" fill="#2a3747"/><path d="m741.324 186.12c-1.783 0-3.518-.925-4.472-2.578-1.421-2.462-.575-5.618 1.887-7.042l13.529-7.806c1.189-.691 2.581-.871 3.912-.517 1.33.358 2.44 1.211 3.131 2.401 1.42 2.462.574 5.618-1.888 7.042l-13.529 7.81c-.809.466-1.695.69-2.567.69zm13.518-14.866c-.329 0-.655.086-.947.256l-13.529 7.813c-.908.524-1.219 1.689-.694 2.596.524.908 1.688 1.218 2.595.694l13.529-7.809c.908-.524 1.219-1.688.695-2.596-.254-.441-.666-.756-1.154-.886-.162-.043-.329-.065-.495-.065z" fill="#2a3747"/><path d="m754.737 193.948c-.821 0-1.692-.206-2.574-.676-.018-.011-.04-.022-.058-.033l-13.395-7.816c-.018-.011-.037-.022-.055-.033-2.794-1.786-3-4.87-1.76-6.996 1.24-2.122 4.027-3.46 6.956-1.909.018.011.04.022.058.033l5.173 3.022c.778.452 1.038 1.45.582 2.227-.452.778-1.449 1.038-2.227.582l-5.144-3.004c-1.602-.831-2.441.427-2.593.687s-.835 1.612.676 2.596l13.334 7.784c1.602.831 2.44-.427 2.592-.687.152-.264.843-1.627-.701-2.61-.759-.485-.98-1.49-.495-2.246.484-.755 1.489-.979 2.245-.495 2.794 1.783 3.001 4.866 1.76 6.992-.864 1.483-2.483 2.582-4.378 2.585z" fill="#2a3747"/></svg>