<svg width="183" height="285" viewBox="0 0 183 285" fill="none" xmlns="http://www.w3.org/2000/svg">
<path d="M65.1006 129.59V40.2781C65.1006 40.0691 65.1776 39.8321 65.2586 39.5811C65.3186 39.3951 65.3766 39.2111 65.4136 39.0301L65.6466 37.8701L44.2806 51.6691C37.8356 55.1001 37.3366 59.7061 37.3326 61.0121L37.1006 61.1441V61.4341V63.4981V64.2851L47.7826 59.2681C49.2146 58.9601 50.9316 59.4381 52.2986 60.5271C57.1096 64.3621 60.7366 75.5711 60.7366 86.6001C60.7366 96.8481 58.2636 109.573 52.8356 113.295C51.8946 113.94 50.8296 114.28 49.7566 114.28C49.0676 114.28 48.2876 114.137 47.6996 113.911L37.1006 109.034V109.814V113.934C37.1006 121.984 41.6456 123.703 42.1356 123.862L63.6146 132.337L63.6166 132.331L66.5736 133.536L65.9806 132.33C65.5486 131.447 65.1006 130.535 65.1006 129.59Z" fill="#55708F"/>
<path d="M80.1007 137.435V156.435L80.0977 156.745L80.3767 156.882C80.5007 156.967 80.6697 157.519 80.7817 157.884C81.2257 159.337 81.9697 161.769 85.3507 161.769C87.0177 161.769 88.4307 161.313 89.2257 160.517C90.0607 159.679 90.5187 158.387 90.5167 156.879C90.5167 155.932 90.6487 152.585 92.3707 149.306C94.0567 146.096 97.6907 142.269 105.428 142.269C114.402 142.269 118.09 147.208 120.79 150.824C122.644 153.308 123.985 155.102 126.238 155.102C128.291 155.102 129.081 153.585 130.315 151.217C132.137 147.722 134.404 143.372 142.938 143.268C143.045 143.274 143.062 143.275 143.15 143.361C143.147 143.386 143.141 143.417 143.137 143.442C143.119 143.547 143.103 143.658 143.103 143.769V147.435V157.601C143.103 157.705 143.112 157.83 143.129 157.97C143.257 159.279 144.067 160.935 146.021 160.935C148.095 160.935 149.103 159.899 149.103 157.768V136.435H80.1027V137.435H80.1007ZM148.068 158.359C148.088 158.173 148.101 157.98 148.101 157.768C148.101 157.985 148.089 158.179 148.068 158.359ZM147.99 158.787C147.993 158.772 147.995 158.758 147.999 158.743C147.996 158.756 147.994 158.773 147.99 158.787Z" fill="#55708F"/>
<path d="M91.4886 241.867C87.0766 242.879 84.2256 244.803 84.2256 246.768C84.2256 249.794 90.6936 252.351 98.3506 252.351C106.844 252.351 112.101 249.455 112.101 246.763C112.101 245.44 111.138 243.044 104.691 241.863L104.101 241.755V242.355V245.935C104.101 246.165 104.085 246.377 104.063 246.583C104.046 246.732 104.022 246.874 103.992 247.009C103.988 247.033 103.983 247.058 103.978 247.081C103.427 249.394 101.069 249.601 98.1006 249.601C94.7016 249.601 92.1006 249.331 92.1006 245.935V241.726L91.4886 241.867Z" fill="#55708F"/>
<path d="M92.0595 276.172C92.0595 272.219 88.8815 269.002 84.9755 269.002C84.7715 269.002 84.5705 269.028 84.3715 269.056L84.1605 269.084C84.1115 269.09 84.0635 269.1 84.0025 269.123L83.9175 269.108L83.8325 269.121C82.2125 269.381 74.0475 271.186 72.4275 281.306C72.3795 281.606 72.4275 281.821 72.5805 281.995C73.3925 282.95 77.5515 283.434 84.9405 283.434H85.0465H85.2855C85.4625 283.434 85.5885 283.351 85.6725 283.268C89.2695 282.915 92.0595 279.835 92.0595 276.172Z" fill="#55708F"/>
<path d="M102.379 276.345C102.379 271.827 106.067 268.005 110.432 268.005C110.643 268.005 110.794 268.003 111.001 268.02L111.199 267.974C111.326 267.987 111.37 267.952 111.372 267.952C111.287 267.927 111.613 269.039 111.613 269.039L112.101 267.434V249.079L111.237 249.999C109.383 251.973 103.982 253.351 98.1006 253.351C92.6076 253.351 88.0396 252.169 84.8906 249.934L84.1006 249.374V250.342V267.434C84.1006 267.619 84.1906 267.743 84.3106 267.852L84.2836 268.141L84.8256 268.148C89.2886 268.203 93.0586 271.96 93.0586 276.351C93.0586 278.496 92.2046 280.484 90.3686 282.607L89.6556 283.434H90.7486H104.724H105.817L105.101 282.604C103.244 280.455 102.379 278.465 102.379 276.345Z" fill="#55708F"/>
<path d="M116.756 271.014L116.611 270.952C116.541 270.933 116.466 270.886 116.391 270.809L116.286 270.727C114.244 269.545 112.338 269.152 111.613 269.038L111.52 269.023L111.306 269.082C111.186 269.068 111.065 269.064 110.944 269.064L110.495 269.071C106.589 269.071 103.411 272.279 103.411 276.221C103.411 279.851 106.195 282.906 109.794 283.264C109.876 283.346 110.003 283.433 110.184 283.433H110.423H110.427H110.531C117.919 283.433 122.077 282.949 122.885 281.998C123.037 281.824 123.093 281.556 123.043 281.243C122.122 275.493 119.116 272.506 116.756 271.014Z" fill="#55708F"/>
<path d="M130.06 276.094C130.06 272.19 126.882 269.014 122.976 269.014C122.701 269.014 122.431 269.035 122.164 269.066L121.928 269.045L121.837 269.061C121.336 269.147 120 269.422 118.433 270.139L117.676 270.486L118.338 270.992C121.426 273.35 123.341 276.725 124.03 281.024C124.105 281.496 124.035 281.918 123.821 282.279L123.251 283.241L124.348 283.024C127.658 282.37 130.06 279.456 130.06 276.094Z" fill="#55708F"/>
<path d="M140.379 276.345C140.379 271.827 144.067 268.005 148.432 268.005C148.643 268.005 148.794 268.003 149.001 268.02L149.183 267.973C149.322 267.986 149.37 267.952 149.372 267.952C149.287 267.927 151.234 268.184 151.234 268.184L150.101 267.434V249.079L149.237 249.999C147.383 251.973 141.982 253.351 136.101 253.351C130.608 253.351 126.04 252.169 122.891 249.934L122.101 249.374V250.342V267.434C122.101 267.619 122.191 267.743 122.311 267.852L122.284 268.141L122.826 268.148C127.289 268.203 131.059 271.96 131.059 276.351C131.059 278.521 130.216 280.45 128.327 282.604L127.599 283.434H128.703H142.723H143.816L143.101 282.604C141.244 280.455 140.379 278.465 140.379 276.345Z" fill="#55708F"/>
<path d="M149.613 269.038L149.52 269.023L149.306 269.082C149.186 269.068 149.065 269.064 148.944 269.064L148.495 269.071C144.589 269.071 141.411 272.279 141.411 276.221C141.411 279.851 144.195 282.906 147.794 283.264C147.876 283.346 148.003 283.433 148.184 283.433H148.423H148.427H148.531C155.919 283.433 160.077 282.949 160.885 281.998C161.131 281.717 161.044 281.122 161.043 281.116C159.436 271.083 151.24 269.295 149.613 269.038Z" fill="#55708F"/>
<path d="M129.489 241.867C125.077 242.879 122.226 244.803 122.226 246.768C122.226 249.794 128.694 252.351 136.351 252.351C144.844 252.351 150.101 249.455 150.101 246.763C150.101 245.44 149.138 243.044 142.691 241.863L142.101 241.755V242.355V245.935C142.101 246.165 142.085 246.377 142.063 246.583C142.046 246.732 142.022 246.874 141.992 247.009C141.988 247.033 141.983 247.058 141.978 247.081C141.427 249.394 139.069 249.601 136.101 249.601C132.702 249.601 130.101 249.331 130.101 245.935V241.726L129.489 241.867Z" fill="#55708F"/>
<path d="M149.101 211.435H148.101C148.101 211.435 148.189 211.414 148.163 211.406C147.848 211.406 147.683 211.054 147.683 210.496C147.683 209.867 147.92 209.435 148.258 209.435H148.26H149.101V198.102C149.101 195.971 148.093 194.935 146.019 194.935C144.065 194.935 143.255 196.591 143.127 197.9C143.109 198.04 143.101 198.166 143.101 198.269V208.435C143.101 218.679 133.972 225.56 125.445 225.56C91.0466 225.56 90.4576 192.187 90.4556 191.852C90.4576 190.367 89.9766 189.065 89.1016 188.186C88.2946 187.378 86.9636 186.934 85.3516 186.934C80.3276 186.934 80.1016 192.213 80.1016 192.267V213.027V223.435C80.1016 226.408 81.0556 228.867 82.9366 230.745C87.4366 235.236 98.2025 235.572 114.113 235.572L123.602 235.56C138.316 235.56 144.625 232.028 147.328 229.064C147.484 228.892 147.6 228.722 147.715 228.553C147.768 228.474 147.821 228.395 147.88 228.317L148.326 227.726L147.611 227.534C145.144 226.869 143.353 224.146 143.353 221.06C143.353 217.363 145.611 214.462 148.504 214.435L149.103 214.641V214.143L149.163 214.072L149.103 213.849V211.435H149.101ZM148.068 197.511C148.089 197.691 148.101 197.885 148.101 198.102C148.101 197.89 148.088 197.697 148.068 197.511ZM147.99 197.083C147.993 197.097 147.995 197.113 147.999 197.127C147.996 197.113 147.993 197.098 147.99 197.083Z" fill="#55708F"/>
<path d="M175.768 34.9346L71.4446 35.4346C68.4976 35.4346 66.1006 37.8316 66.1006 40.7786V41.2786V130.091V130.591C66.1006 133.266 68.2696 135.435 70.9446 135.435H71.4446H174.257H174.757C177.704 135.435 180.101 133.038 180.101 130.091L181.268 41.1006C181.268 38.1536 178.715 34.9346 175.768 34.9346Z" fill="#55708F"/>
<path d="M164.757 45.4346H81.4446C78.4976 45.4346 76.1006 47.8316 76.1006 50.7786V51.2786V120.091V120.591C76.1006 123.266 78.2696 125.435 80.9446 125.435H81.4446H164.257H164.757C167.704 125.435 170.101 123.038 170.101 120.091V50.7786C170.101 47.8316 167.704 45.4346 164.757 45.4346Z" fill="#4AB85F"/>
<path d="M130.967 151.751L130.72 152.23C129.653 154.307 128.731 156.101 126.252 156.101C123.465 156.101 121.768 153.829 119.972 151.422C117.26 147.789 113.884 143.268 105.372 143.268C99.5176 143.268 95.3996 145.456 93.1336 149.771C91.6706 152.559 91.3626 155.212 91.3026 155.982C91.2136 156.073 91.1006 156.22 91.1006 156.435V191.435C91.1006 191.538 91.1006 191.627 91.1246 191.721L91.1006 191.729V191.835C91.1006 192.163 91.8616 224.56 125.455 224.56C132.425 224.56 142.101 218.956 142.101 208.435V144.269L141.568 144.304C135.435 144.711 132.768 148.297 130.967 151.751Z" fill="#4AB85F"/>
<path d="M145.598 5.89603C144.413 3.31603 142.145 1.58203 139.954 1.58203C139.396 1.58203 138.864 1.69703 138.371 1.92303C137.206 2.45903 136.327 3.62303 135.96 5.11703C135.587 6.63803 135.793 8.47704 136.509 10.036L147.599 34.435H147.921H157.824H158.601L145.598 5.89603Z" fill="#4AB85F"/>
<path d="M137.357 21.8896C136.68 21.8896 136.026 22.0327 135.413 22.3137C134.203 22.8697 133.279 23.8907 132.811 25.1877C132.347 26.4777 132.398 27.8557 132.952 29.0607L135.298 34.4357H135.625H145.529H146.302L142.043 24.9586C141.2 23.1226 139.316 21.8896 137.357 21.8896Z" fill="#4AB85F"/>
<path d="M9.06051 1.49707C8.46551 1.49707 7.89751 1.62005 7.37251 1.86105C6.17951 2.40905 5.32251 3.52207 4.96151 4.99307C4.59051 6.50607 4.78551 8.20906 5.51051 9.78806L31.7645 67.0941L32.4185 66.7061C32.5595 66.6261 32.6275 66.5481 32.8355 66.4671L36.1005 64.7691V64.4601C36.1005 64.3381 36.3185 64.1571 36.1005 64.0441V61.4931C36.1005 61.0971 36.1675 58.99 37.5025 56.507L37.6195 56.2891L14.5985 5.61505C13.4675 3.15105 11.2415 1.49707 9.06051 1.49707Z" fill="#4AB85F"/>
<path d="M8.23548 22.0434C6.98948 21.5814 5.61748 21.6323 4.41148 22.1873C3.19748 22.7453 2.27348 23.7413 1.80948 24.9943C1.34548 26.2463 1.39648 27.6043 1.95348 28.8183L24.4895 77.8884C24.5195 77.9544 24.5565 78.0144 24.5955 78.0734L25.2495 79.3024L25.5535 77.9983C26.5715 73.6373 28.3635 70.1073 30.5995 68.0623L30.8685 67.8163L11.0405 24.6443C10.4845 23.4313 9.48848 22.5074 8.23548 22.0434Z" fill="#4AB85F"/>
<path d="M54.4754 169.31C55.7014 174.386 59.6004 196.81 79.3504 211.435L80.1004 213.027L80.0974 196.06C80.0974 196.06 74.6004 192.058 72.1004 186.934C69.6004 181.81 64.7254 166.56 64.9754 162.935C65.2254 159.31 65.3424 147.624 72.4754 136.435L68.1064 134.511L63.6144 132.337C63.6144 132.337 56.7294 142.1 56.3504 147.06C55.9714 152.02 52.4234 160.813 54.4754 169.31Z" fill="#B6B6B4"/>
<path d="M154.101 135.435H166.101C166.101 135.435 173.601 147.935 172.976 160.06C172.351 172.185 172.976 186.435 150.476 209.81L150.101 196.81C150.101 196.81 150.591 194.896 149.101 195.06C147.611 195.224 150.101 192.81 150.101 192.81C150.101 192.81 161.351 179.06 161.851 167.185C162.351 155.31 162.601 148.435 154.101 135.435Z" fill="#B6B6B4"/>
<path d="M93.1005 241.435V235.435L104.101 236.31V244.435C104.101 244.435 105.351 249.601 98.1005 249.601C90.8505 249.601 93.1005 243.935 93.1005 241.435Z" fill="#B6B6B4"/>
<path d="M131.35 241.726C131.35 241.726 129.6 249.08 136.162 249.08C142.724 249.08 142.224 244.9 142.1 242.355C141.976 239.81 142.1 233.435 142.1 233.435C142.1 233.435 131.801 235.083 131.138 235.572C130.475 236.061 131.35 241.726 131.35 241.726Z" fill="#B6B6B4"/>
<path d="M35.1006 67.1016C29.8626 67.1016 25.6006 75.8496 25.6006 86.6016C25.6006 97.3536 29.8626 106.102 35.1006 106.102C40.3386 106.102 44.6006 97.3536 44.6006 86.6016C44.6006 75.8496 40.3386 67.1016 35.1006 67.1016Z" fill="white"/>
<path d="M149.354 223.621C149.337 223.419 149.227 223.301 149.101 223.226V216.125L149.195 216L149.057 215.722L148.849 215.435H148.539C146.223 215.435 144.477 217.853 144.477 221.06C144.477 224.055 146.28 226.515 148.581 226.66L148.939 226.682L149.075 226.35C149.458 225.414 149.554 224.458 149.354 223.621Z" fill="white"/>
<path d="M91.1006 215.435C87.9986 215.435 85.4756 217.958 85.4756 221.06C85.4756 224.162 87.9986 226.685 91.1006 226.685C94.2026 226.685 96.7256 224.162 96.7256 221.06C96.7256 217.958 94.2026 215.435 91.1006 215.435Z" fill="white"/>
<path d="M45.4336 86.6017C45.6306 90.3527 43.9336 105.934 35.1006 106.935C35.1006 106.935 48.9686 114.688 50.4886 114.228C52.0086 113.768 60.3726 108.935 60.7366 86.6017C61.1006 64.2687 49.1996 58.6047 47.7826 59.2697C46.3656 59.9347 36.2676 65.4798 36.2676 65.4798C36.2676 65.4798 44.6006 70.7677 45.4336 86.6017Z" fill="#B6B6B4"/>
<path d="M123.601 248.56C123.601 248.56 125.851 245.935 130.851 246.06L130.601 241.185C130.601 241.185 119.726 243.185 123.601 248.56Z" fill="#2D4462"/>
<path d="M142.976 245.81C142.976 245.81 143.226 252.06 135.976 252.435C135.976 252.435 150.851 252.19 150.851 246.185C150.851 243.81 142.101 241.435 142.101 241.435L142.976 245.81Z" fill="#2D4462"/>
<path d="M85.6008 248.56C85.6008 248.56 87.8508 245.935 92.8508 246.06L92.6008 241.185C92.6008 241.185 81.7258 243.185 85.6008 248.56Z" fill="#2D4462"/>
<path d="M104.976 245.81C104.976 245.81 105.226 252.06 97.9756 252.435C97.9756 252.435 112.851 252.19 112.851 246.185C112.851 243.81 104.101 241.435 104.101 241.435L104.976 245.81Z" fill="#2D4462"/>
<path d="M139.226 252.435C139.226 252.435 135.601 254.81 137.601 256.685C139.601 258.56 142.434 261.643 140.684 264.268C138.934 266.893 134.101 264.685 135.351 270.518C136.229 274.616 132.101 278.602 129.351 270.56C129.351 270.56 132.226 278.56 126.726 282.81L131.351 283.56L146.226 283.185C146.226 283.185 139.101 279.56 141.101 274.435C143.101 269.31 150.351 268.435 150.351 268.435L150.726 249.31C150.726 249.31 141.726 252.685 139.226 252.435Z" fill="#2D4462"/>
<path d="M101.226 252.435C101.226 252.435 97.6006 254.81 99.6006 256.685C101.601 258.56 104.434 261.643 102.684 264.268C100.934 266.893 96.1006 264.685 97.3506 270.518C98.2286 274.616 94.1006 278.602 91.3506 270.56C91.3506 270.56 94.2256 278.56 88.7256 282.81L93.3506 283.56L108.226 283.185C108.226 283.185 101.101 279.56 103.101 274.435C105.101 269.31 112.351 268.435 112.351 268.435L112.726 249.31C112.726 249.31 103.726 252.685 101.226 252.435Z" fill="#2D4462"/>
<path d="M120.768 272.935C120.768 272.935 127.184 273.769 124.351 269.602C124.351 269.602 127.518 268.852 128.768 271.852C130.018 274.852 132.268 280.769 124.018 283.352C124.018 283.352 121.101 274.686 120.435 273.852C119.769 273.018 120.768 272.935 120.768 272.935Z" fill="#2D4462"/>
<path d="M142.101 277.518C142.233 277.289 145.422 278.979 146.768 278.018C147.935 277.185 146.101 275.268 148.268 274.102C150.298 273.01 156.685 274.602 151.018 269.602C151.018 269.602 160.351 271.434 161.518 281.018C161.518 281.018 158.518 284.268 147.018 283.518C147.018 283.518 139.934 281.268 142.101 277.518Z" fill="#2D4462"/>
<path d="M104.018 277.602C104.018 277.602 106.143 280.03 108.101 279.102C109.684 278.352 107.71 275.779 110.101 274.185C112.351 272.685 115.768 277.935 117.351 272.268L118.268 271.685C118.268 271.685 126.518 280.768 123.018 282.268C119.518 283.768 110.601 284.352 108.601 283.185C106.601 282.018 103.185 278.686 104.018 277.602Z" fill="#2D4462"/>
<path d="M86.6836 269.685C86.6836 269.685 91.1836 273.852 85.4336 274.602C82.3466 275.004 86.5936 281.39 79.8506 278.018C77.8506 277.018 74.1836 282.351 73.7676 278.018L72.0176 280.185C72.0176 280.185 72.1016 282.435 72.4346 282.518C72.7676 282.601 81.7676 283.685 81.7676 283.685C81.7676 283.685 90.1016 284.851 91.4346 280.018C92.7676 275.185 92.4336 269.852 86.6836 269.685Z" fill="#2D4462"/>
<path d="M86.7676 232.517C86.7676 232.517 90.3186 233.596 93.1846 232.434C96.2676 231.184 95.5176 233.601 98.6846 233.684C101.852 233.767 105.102 229.017 109.435 229.017C113.768 229.017 112.685 232.85 116.768 232.6C119.514 232.432 120.382 228.764 126.435 228.1C133.268 227.35 138.768 230.267 139.352 226.6C139.812 223.706 134.102 222.85 141.185 216.267C142.271 215.257 143.602 210.185 143.352 205.351C143.102 200.517 143.019 194.101 147.102 194.184C151.185 194.267 150.102 202.017 150.102 202.017L150.685 221.767C150.685 221.767 148.768 231.017 142.435 233.184C136.102 235.351 121.185 236.601 108.185 236.101C95.1846 235.601 87.3506 234.933 86.7676 232.517Z" fill="#2D4462"/>
<path d="M84.1006 187.31C84.1006 187.31 86.3506 188.185 86.7256 190.56C87.1006 192.935 84.6146 193.688 85.2256 195.435C86.1006 197.935 88.7906 197.705 89.6006 200.06C90.2886 202.06 88.8366 204.736 90.6006 207.31C92.9126 210.685 95.1006 208.498 98.4756 213.935C98.4756 213.935 91.3506 201.31 91.2256 192.685C91.2256 192.685 90.6006 184.81 84.1006 187.31Z" fill="#2D4462"/>
<path d="M150.092 138.497C150.097 138.035 150.101 137.768 150.101 137.768L149.785 137.774L148.685 135.185L80.2676 135.268L80.8506 138.768C80.8506 138.768 105.663 138.685 109.289 138.435C109.289 138.435 112.445 138.427 113.185 138.935C116.102 140.935 117.739 138.987 119.935 140.185C121.768 141.185 120.018 145.351 122.852 146.018C126.753 146.936 126.935 149.518 126.269 150.435C125.327 151.731 123.686 152.685 120.352 149.935C118.345 148.279 124.061 156.273 127.227 155.497C130.289 154.747 133.019 148.351 133.019 148.351L141.686 143.435L143.661 144.461C143.491 148.896 142.569 160.462 144.936 160.768C147.519 161.101 149.936 160.935 149.936 156.185C149.936 152.105 150.059 141.454 150.093 138.528L150.102 138.518L150.092 138.497Z" fill="#2D4462"/>
<path d="M81.0386 157.247C81.0386 157.247 81.9136 159.935 84.6006 159.435C87.2876 158.935 84.1486 154.631 87.6006 153.685C91.4756 152.623 87.7256 148.685 91.4756 146.81C95.0116 145.042 97.4756 143.872 97.4756 143.872C97.4756 143.872 91.6636 149.684 91.0376 155.122C90.4116 160.56 88.3496 163.56 84.7256 162.06C81.1016 160.56 81.0386 157.247 81.0386 157.247Z" fill="#2D4462"/>
<path d="M112.934 134.6C112.934 134.6 123.434 134.1 127.601 131.017C130.982 128.515 134.184 128.934 136.684 130.101C139.184 131.268 140.684 133.018 144.351 132.851C148.018 132.684 151.101 128.351 155.601 128.851C160.101 129.351 160.434 132.768 165.601 132.101C170.768 131.434 171.101 128.684 170.768 122.934C170.456 117.544 171.268 49.1012 171.268 49.1012C171.268 49.1012 170.768 44.1012 165.601 44.4342C160.434 44.7672 122.601 44.7672 122.601 44.7672L99.9336 43.9342C99.9336 43.9342 106.049 43.2662 109.934 40.4342C113.934 37.5182 116.934 42.1012 120.601 42.2672C124.268 42.4332 125.435 37.9332 131.768 38.6002C138.101 39.2672 138.268 42.1002 146.601 41.2672C154.934 40.4342 155.601 35.4342 162.101 34.9342C168.601 34.4342 178.601 35.2672 178.601 35.2672L181.268 40.4342L181.601 127.267C181.601 127.267 182.768 135.267 174.934 135.267C167.1 135.267 112.934 134.6 112.934 134.6Z" fill="#2D4462"/>
<path d="M65.1006 39.0176C65.1006 39.0176 61.3506 44.0186 61.6836 47.3516C61.9576 50.0926 63.4336 50.6016 63.5166 53.7686C63.6436 58.6356 59.7666 58.7686 59.8496 62.6856C59.9326 66.6026 63.1826 66.1856 63.0996 70.6026C63.0166 75.0196 60.3496 76.0186 60.1826 79.7686C60.0156 83.5186 58.5156 101.935 59.0156 103.269C59.5156 104.603 62.5686 103.86 62.7656 106.853C63.1826 113.186 56.2656 111.436 57.5986 116.269C59.5546 123.362 58.1816 129.102 41.4316 122.769L51.1816 128.353L68.2646 134.353C68.2646 134.353 67.1806 133.852 66.8476 130.269C66.5146 126.686 66.4306 89.1026 66.4306 89.1026L65.9306 40.6026L65.1006 39.0176Z" fill="#2D4462"/>
<path d="M154.101 135.684C154.101 135.684 164.726 135.184 164.976 136.059C165.226 136.934 168.647 148.847 169.601 158.934C170.476 168.184 166.226 182.809 161.351 189.559C156.804 195.855 155.226 202.809 156.601 203.934C156.601 203.934 149.851 210.184 150.226 210.184C150.601 210.184 150.101 195.184 148.851 195.059C148.851 195.059 153.976 188.684 156.601 183.934C159.226 179.184 161.335 171.191 161.726 163.684C162.351 151.684 157.226 137.684 154.101 135.684Z" fill="#8E8E8E"/>
<path d="M62.8507 134.935C62.8507 134.935 66.6007 136.56 64.3507 141.56C62.1007 146.56 56.7257 163.06 62.9757 178.31C69.2257 193.56 79.9757 201.81 78.9757 210.935C78.9757 210.935 80.9757 219.06 80.4757 200.06L79.9757 195.81C79.9757 195.81 73.4757 190.06 70.9757 184.435C68.4757 178.81 64.2257 169.935 64.7257 162.56C65.2257 155.185 67.6007 144.935 70.1007 140.81C72.6007 136.685 73.8507 135.935 73.8507 135.935L67.1007 134.06L63.7257 132.935L62.8507 134.935Z" fill="#8E8E8E"/>
<path d="M48.4754 60.5591C48.4754 60.5591 66.3504 90.9341 40.6004 104.559C40.6004 104.559 35.4754 106.559 35.6004 106.934C35.7254 107.309 49.1004 113.934 49.1004 113.934C49.1004 113.934 52.2254 115.684 55.8504 108.184C59.4754 100.684 60.8504 91.0591 60.3504 83.4341C59.8504 75.8091 55.8504 58.1841 48.4754 60.5591Z" fill="#8E8E8E"/>
<path d="M148.612 226.161C146.593 226.034 144.976 223.806 144.976 221.06C144.976 218.234 146.686 215.935 148.788 215.935C148.893 215.935 148.996 215.951 149.1 215.962V223.56C149.1 223.591 149.102 223.63 149.105 223.661C149.112 223.726 149.19 224.749 148.612 226.161Z" fill="white"/>
<path d="M96.1006 146.435L100.101 143.935V214.435L96.1006 209.81V146.435Z" fill="white"/>
<path d="M123.279 44.1914L129.39 44.6454L171.64 86.8954L170.851 92.1844L123.279 44.1914Z" fill="white"/>
<path d="M76.0605 95.9735L76.3895 90.6455L110.765 125.021L105.226 125.56L76.0605 95.9735Z" fill="white"/>
<path d="M75.8804 114.155L76.5144 100.521L101.014 125.021L86.3504 125.685L75.8804 114.155Z" fill="white"/>
<path d="M133.851 44.4345L146.64 44.1455L171.265 68.7705L171.351 82.6845L133.851 44.4345Z" fill="white"/>
<path d="M102.101 143.06L104.101 142.81V219.06L102.101 217.56V143.06Z" fill="white"/>
<path d="M138.395 169.89C139.918 168.761 139.536 165.664 137.541 162.974C135.547 160.284 132.695 159.018 131.172 160.148C129.649 161.277 130.031 164.373 132.026 167.064C134.02 169.754 136.872 171.019 138.395 169.89Z" fill="white"/>
<path d="M117.025 216.232C114.672 214.628 112.195 214.166 111.493 215.2C110.791 216.233 112.129 218.372 114.484 219.976C116.838 221.58 119.314 222.041 120.017 221.007C120.717 219.975 119.379 217.837 117.025 216.232Z" fill="white"/>
<path d="M113.895 210.238C112.463 209.485 111.041 209.374 110.721 209.99C110.401 210.607 111.302 211.717 112.736 212.47C114.169 213.222 115.59 213.333 115.911 212.717C116.231 212.102 115.329 210.993 113.895 210.238Z" fill="white"/>
<path d="M136.484 177.095C137.186 176.61 136.961 175.067 135.982 173.648C135.002 172.23 133.638 171.474 132.936 171.959C132.233 172.444 132.458 173.988 133.438 175.406C134.417 176.824 135.781 177.58 136.484 177.095Z" fill="white"/>
<path d="M92.2714 53.463C89.0314 50.28 84.9414 49.188 83.1394 51.024C81.3384 52.86 82.5054 56.931 85.7474 60.116C88.9904 63.3 93.0794 64.391 94.8814 62.555C96.6824 60.72 95.5144 56.649 92.2714 53.463Z" fill="white"/>
<path d="M148.879 113.831C146.067 111.069 142.517 110.121 140.954 111.714C139.391 113.307 140.404 116.841 143.218 119.605C146.032 122.368 149.58 123.315 151.144 121.721C152.706 120.129 151.693 116.596 148.879 113.831Z" fill="white"/>
<path d="M157.468 119.456C158.097 118.815 157.689 117.395 156.557 116.285C155.425 115.175 153.997 114.795 153.369 115.436C152.74 116.077 153.148 117.497 154.28 118.607C155.412 119.717 156.84 120.097 157.468 119.456Z" fill="white"/>
<path d="M93.8585 72.6221C94.697 71.8224 94.0681 69.8019 92.4538 68.1092C90.8394 66.4165 88.851 65.6927 88.0125 66.4924C87.1739 67.2921 87.8028 69.3126 89.4171 71.0053C91.0315 72.698 93.0199 73.4219 93.8585 72.6221Z" fill="white"/>
<path d="M103.356 57.6944C104.195 56.8947 103.566 54.8742 101.952 53.1815C100.338 51.4888 98.3491 50.7649 97.5105 51.5647C96.672 52.3644 97.3009 54.3849 98.9152 56.0776C100.53 57.7703 102.518 58.4941 103.356 57.6944Z" fill="white"/>
<path d="M136.541 157.688C137.33 157.361 137.501 155.967 136.924 154.574C136.346 153.182 135.239 152.317 134.45 152.644C133.661 152.971 133.49 154.365 134.067 155.758C134.645 157.151 135.752 158.015 136.541 157.688Z" fill="white"/>
<path d="M36.4744 84.1766C35.4564 84.1766 34.6315 82.5016 34.6315 80.4346C34.6315 79.7326 34.7335 79.0826 34.8985 78.5216C34.5395 78.3066 34.1624 78.1846 33.7704 78.1846C31.5164 78.1846 29.6895 81.9906 29.6895 86.6846C29.6895 91.3786 31.5164 95.1846 33.7704 95.1846C36.0234 95.1846 37.8504 91.3786 37.8504 86.6846C37.8504 85.5456 37.7415 84.4606 37.5455 83.4676C37.2435 83.9096 36.8754 84.1766 36.4744 84.1766Z" fill="#4AB85F"/>
<path d="M5.43359 21.9344C5.43359 21.9344 28.6006 63.1015 25.1006 77.7685L25.9336 78.1014C25.9336 78.1014 30.1006 68.1004 31.6006 67.4344C33.1006 66.7684 31.6006 66.6014 31.6006 66.6014L28.2676 60.7685C28.2676 60.7685 10.9346 21.9354 8.7676 21.6014C6.6006 21.2674 5.43359 21.9344 5.43359 21.9344Z" fill="white"/>
<path d="M9.43359 1.93441C9.43359 1.93441 30.2666 45.6014 33.1006 54.9344C34.7716 60.4414 33.4336 64.1014 31.6006 66.6014L32.2676 67.4344L37.2676 64.6014C37.2676 64.6014 36.4336 58.2674 38.6006 55.9344L24.4336 25.7674C24.4336 25.7674 14.6006 -2.73259 9.43359 1.93441Z" fill="white"/>
<path d="M138.768 2.10198C138.768 2.10198 141.768 4.436 148.268 19.269C154.768 34.102 154.768 34.102 154.768 34.102L159.435 34.602L145.601 4.268C145.601 4.268 142.101 -0.0650204 138.768 2.10198Z" fill="white"/>
<path d="M137.101 22.2674C137.101 22.2674 143.268 31.2674 141.601 33.6004C139.934 35.9334 142.101 34.4344 142.101 34.4344L147.268 33.7674C147.268 33.7674 141.935 21.9344 140.935 21.9344C139.935 21.9344 137.434 20.7674 137.101 22.2674Z" fill="white"/>
<path d="M91.4818 214.735C92.1798 215.551 92.6018 216.611 92.6018 217.768C92.6018 220.345 90.5128 222.435 87.9348 222.435C86.6448 222.435 85.4768 221.912 84.6328 221.065C84.6328 221.065 85.8518 215.851 87.6018 215.851C89.3518 215.851 91.4818 214.735 91.4818 214.735Z" fill="#4AB85F"/>
<path d="M150.101 217.768C150.101 215.191 150.351 215.684 149.934 215.268C148.11 213.447 145.267 215.191 145.267 217.768C145.267 220.345 147.356 222.435 149.934 222.435C150.934 222.435 150.101 220.345 150.101 217.768Z" fill="#4AB85F"/>
<path d="M97.1316 222.979C96.6116 222.342 95.8206 221.935 94.9336 221.935C93.3686 221.935 92.0996 223.205 92.0996 224.769C92.0996 225.679 92.5296 226.49 93.1976 227.008" fill="#4AB85F"/>
<path d="M165.257 43.4346H81.9446C78.1706 43.4346 75.1006 46.5046 75.1006 50.2786V119.591C75.1006 123.364 78.1706 126.435 81.9446 126.435H165.257C169.031 126.435 172.101 123.365 172.101 119.591V50.2786C172.101 46.5046 169.031 43.4346 165.257 43.4346ZM170.101 119.591C170.101 122.262 167.928 124.435 165.257 124.435H81.9446C79.2736 124.435 77.1006 122.262 77.1006 119.591V50.2786C77.1006 47.6076 79.2736 45.4346 81.9446 45.4346H165.257C167.928 45.4346 170.101 47.6076 170.101 50.2786V119.591Z" fill="black"/>
<path d="M175.257 33.4343H160.025L146.962 4.98729C145.138 1.01529 141.004 -0.999711 137.747 0.496289C136.129 1.23929 134.978 2.70828 134.506 4.63328C134.055 6.47428 134.283 8.52727 135.149 10.4123L139.867 20.6843C138.28 20.0633 136.455 20.0573 134.787 20.8233C133.209 21.5483 132.008 22.8433 131.405 24.4713C130.801 26.0993 130.868 27.8653 131.593 29.4423L133.425 33.4323H71.9455C70.2025 33.4323 68.6145 34.0933 67.4045 35.1693C67.4015 35.1713 67.3985 35.1703 67.3955 35.1723L43.6315 50.3823C41.3355 51.6043 39.7455 52.9783 38.6265 54.3353L15.9615 4.98527C14.1375 1.01327 10.0035 -1.00173 6.74651 0.494275C5.12851 1.23727 3.97752 2.70627 3.50552 4.63127C3.05452 6.47227 3.28251 8.52529 4.14851 10.4103L8.86652 20.6823C7.27952 20.0613 5.45451 20.0553 3.78651 20.8213C0.529514 22.3173 -0.902486 26.1833 0.592514 29.4413L23.1295 78.5133C23.4775 79.2723 23.9625 79.9353 24.5595 80.5023C24.2645 82.4263 24.1015 84.4683 24.1015 86.5983C24.1015 96.3963 27.4515 104.407 32.1275 106.828C32.2245 106.967 32.3435 107.091 32.5075 107.169L36.1015 108.866V113.93C36.1015 123.394 41.7355 125.229 41.8995 125.276L61.9525 133.214C59.6775 136.057 54.1155 144.326 53.1505 158.114C53.1445 158.127 53.1335 158.135 53.1285 158.148C53.0535 158.342 53.0535 158.342 53.1055 158.73C53.0385 159.872 53.0015 161.048 53.0015 162.263C53.0015 164.702 53.1945 167.085 53.5205 169.415C53.5205 169.421 53.5175 169.425 53.5175 169.431C53.5165 169.482 53.5365 169.526 53.5425 169.575C56.9865 193.628 76.2245 211.359 79.1015 213.888V223.434C79.1015 227.035 80.0915 229.773 82.1265 231.805C84.3255 234 87.6265 235.282 92.1015 236.032V240.312C87.0105 241.341 83.7125 243.471 83.1845 246.038C83.1705 246.07 83.1705 246.108 83.1605 246.142C83.1555 246.17 83.1475 246.199 83.1435 246.227C83.1275 246.296 83.1005 246.361 83.1005 246.434V267.434C83.1005 267.519 83.1285 267.594 83.1485 267.672C80.5165 268.239 72.5745 270.777 70.9465 280.943C70.7995 281.861 71.1335 282.482 71.4385 282.841C72.6405 284.253 75.6675 284.666 84.8765 284.681C84.9015 284.683 85.0105 284.683 85.0365 284.683L85.5175 284.685C85.6195 284.685 85.7185 284.667 85.8135 284.636C86.2285 284.596 86.6315 284.517 87.0265 284.419C87.0525 284.421 87.0745 284.434 87.1005 284.434H108.101C108.18 284.434 108.249 284.407 108.323 284.389C108.75 284.501 109.188 284.589 109.638 284.634C109.738 284.667 109.845 284.685 109.952 284.685L110.386 284.68C110.417 284.683 110.463 284.685 110.493 284.685C110.493 284.685 110.53 284.683 110.531 284.683C114.227 284.676 116.919 284.605 118.91 284.434H119.328H123.038L123.515 284.561C123.617 284.561 123.716 284.605 123.811 284.574C124.178 284.538 124.536 284.471 124.888 284.391C124.958 284.407 125.024 284.434 125.099 284.434H146.098C146.177 284.434 146.247 284.407 146.321 284.389C146.748 284.501 147.186 284.589 147.636 284.634C147.736 284.667 147.843 284.685 147.95 284.685L148.383 284.68C148.414 284.683 148.461 284.685 148.491 284.685C148.491 284.685 148.528 284.683 148.529 284.683C157.798 284.666 160.826 284.253 162.028 282.841C162.334 282.482 162.667 281.861 162.52 280.943C161.174 272.536 155.507 269.346 152.098 268.172V246.772C152.098 246.77 152.098 246.769 152.098 246.767C152.098 246.765 152.098 246.763 152.098 246.761V246.434C152.098 246.362 152.072 246.297 152.057 246.23C152.051 246.189 152.04 246.149 152.033 246.109C152.025 246.087 152.026 246.061 152.016 246.04C151.492 243.468 148.196 241.341 143.098 240.311V233.82C145.331 232.789 147.14 231.516 148.503 229.996C151.218 226.966 151.134 224.015 151.098 223.518V215.192C151.099 215.152 151.102 215.114 151.098 215.075V210.982C158.242 203.871 174.098 185.466 174.098 162.267C174.098 161.065 174.05 159.911 173.982 158.78C174.04 158.579 174.052 158.362 173.971 158.151C173.964 158.131 173.948 158.12 173.939 158.101C173.208 147.849 169.915 140.607 167.363 136.434H175.254C179.028 136.434 182.098 133.364 182.098 129.59V40.2783C182.101 36.5043 179.031 33.4343 175.257 33.4343ZM136.965 9.57829C136.287 8.10129 136.103 6.51527 136.447 5.11027C136.771 3.79027 137.529 2.79728 138.581 2.31428C140.835 1.27928 143.781 2.85228 145.145 5.82228L157.825 33.4343H147.922L136.965 9.57829ZM133.41 28.6093C132.374 26.3543 133.366 23.6773 135.62 22.6423C137.874 21.6083 140.553 22.5993 141.588 24.8533L145.528 33.4343H135.624L133.41 28.6093ZM46.0965 86.4343C46.0795 82.1613 45.4265 78.2333 44.3045 74.9633L56.8775 71.1333C58.2905 75.3653 59.2475 80.6243 59.2655 86.4343H46.0965ZM59.2385 88.4343C59.1075 93.4333 58.4425 98.1483 57.3915 102.081L44.4165 97.8813C45.3235 95.1193 45.9025 91.9133 46.0535 88.4343H59.2385ZM43.5815 73.0923C42.0395 69.5453 39.8855 67.0213 37.4005 66.0473L48.4245 60.7223C49.3535 60.5463 50.3435 60.8773 51.3775 61.7013C53.0595 63.0423 54.7875 65.6833 56.1965 69.2483L43.5815 73.0923ZM5.96551 9.57829C5.28751 8.10129 5.10352 6.51527 5.44752 5.11027C5.77152 3.79027 6.52952 2.79728 7.58152 2.31428C9.83452 1.27928 12.7805 2.85228 14.1445 5.82228L37.3125 56.2693C35.9275 58.8463 36.0525 61.0323 36.1005 61.4923V64.4343C36.1005 64.4433 36.1055 64.4503 36.1055 64.4583L32.8645 66.0183C32.5915 66.1223 32.3265 66.2613 32.0615 66.4023L5.96551 9.57829ZM24.9465 77.6823L2.40951 28.6093C1.90851 27.5173 1.86152 26.2953 2.27952 25.1683C2.69652 24.0413 3.52851 23.1443 4.62051 22.6423C5.71151 22.1413 6.93452 22.0943 8.06152 22.5123C9.18852 22.9293 10.0855 23.7613 10.5875 24.8533L30.2635 67.6933C27.9515 69.8083 26.1145 73.4013 25.0685 77.8843C25.0315 77.8153 24.9795 77.7553 24.9465 77.6823ZM35.1005 105.601C30.2225 105.601 26.1005 96.9003 26.1005 86.6013C26.1005 76.3023 30.2225 67.6013 35.1005 67.6013C39.9785 67.6013 44.1005 76.3023 44.1005 86.6013C44.1005 96.9003 39.9785 105.601 35.1005 105.601ZM43.7255 99.7593L56.8305 104.001C55.5845 107.87 53.9355 110.766 52.0505 112.059C50.9025 112.847 49.7275 112.992 48.5285 112.53L37.2605 107.206C39.8845 106.245 42.1455 103.555 43.7255 99.7593ZM42.5695 123.397C42.3875 123.337 38.1005 121.836 38.1005 113.934V109.814L47.7405 114.367C48.4565 114.644 49.1745 114.782 49.8815 114.782C51.0245 114.782 52.1405 114.422 53.1805 113.709C58.7365 109.899 61.2675 96.9863 61.2675 86.6023C61.2675 75.4433 57.5525 64.0663 52.6255 60.1383C51.0755 58.9033 49.4345 58.4373 47.8775 58.7943L38.1005 63.4983V61.4343L38.0915 61.2963C38.0835 61.2433 37.4365 55.9443 44.6395 52.1093L65.2355 38.9303C65.1485 39.3663 65.1005 39.8163 65.1005 40.2773V129.589C65.1005 130.666 65.3575 131.683 65.8035 132.59L63.9915 131.872C63.9895 131.872 63.9885 131.871 63.9865 131.87L42.5695 123.397ZM63.9125 133.993L69.8995 136.363C70.0205 136.411 70.1455 136.433 70.2675 136.433C70.4245 136.433 70.5745 136.386 70.7125 136.317C71.0445 136.378 71.3855 136.413 71.7325 136.423C70.8455 137.467 69.7245 138.994 68.6105 141.083C63.8955 141.554 60.8025 139.112 60.7715 139.087C60.7155 139.041 60.6505 139.022 60.5885 138.99C61.9855 136.44 63.2695 134.762 63.9125 133.993ZM59.6715 140.765C60.3705 141.283 63.1875 143.155 67.3795 143.155C67.4525 143.155 67.5305 143.148 67.6055 143.147C66.8555 144.831 66.1465 146.793 65.5555 149.055C62.0105 150.247 57.1675 147.992 57.1185 147.968C57.0675 147.944 57.0135 147.944 56.9615 147.929C57.7595 145.148 58.7105 142.746 59.6715 140.765ZM56.4385 149.856C57.1875 150.19 60.1305 151.408 63.2305 151.408C63.8345 151.408 64.4425 151.354 65.0435 151.246C64.5875 153.447 64.2475 155.892 64.0855 158.607C64.0795 158.609 64.0735 158.607 64.0665 158.609C61.1865 159.585 56.9215 158.406 55.1955 157.844C55.4275 154.931 55.8585 152.252 56.4385 149.856ZM55.0015 162.267C55.0015 161.455 55.0405 160.684 55.0725 159.906C56.5535 160.358 59.0205 160.976 61.4585 160.976C62.3255 160.976 63.1865 160.895 63.9985 160.703C63.9855 161.217 63.9765 161.735 63.9765 162.267C63.9765 163.664 64.0575 165.035 64.1955 166.381C61.7365 168.126 57.2775 168.422 55.4105 168.462C55.1535 166.438 55.0015 164.374 55.0015 162.267ZM55.6915 170.456C57.6695 170.398 61.6445 170.079 64.4755 168.555C64.8295 170.844 65.3575 173.043 66.0105 175.138C62.5205 177.989 58.2915 178.271 57.6015 178.296C56.7955 175.776 56.1405 173.16 55.6915 170.456ZM61.3665 187.503C60.2205 185.204 59.1665 182.787 58.2625 180.259C59.8005 180.13 63.3995 179.568 66.6845 177.151C67.5775 179.638 68.8155 181.955 69.9245 184.071C66.4125 187.71 62.1015 187.655 62.1015 187.655C62.1015 187.655 61.6005 187.934 61.3665 187.503ZM66.4165 196.165C65.0155 194.076 63.6405 191.818 62.3535 189.416C63.8105 189.333 67.4605 188.821 70.6775 185.807C71.9535 188.059 73.2645 190.039 74.4745 191.708C71.2245 195.724 66.7085 196.098 66.6515 196.102C66.5675 196.108 66.4945 196.141 66.4165 196.165ZM79.1005 211.185C77.8335 209.994 75.9335 208.111 73.7365 205.626C75.0125 205.184 77.2575 204.128 79.1005 201.87V211.185ZM79.1005 197.976C77.0995 202.913 72.5545 203.911 72.3425 203.954C72.3285 203.957 72.3195 203.966 72.3055 203.97C70.8165 202.203 69.2405 200.199 67.6645 197.978C69.2865 197.685 72.8285 196.689 75.7105 193.364C77.2775 195.385 78.5405 196.758 79.0995 197.342V197.976H79.1005ZM79.1005 194.33C77.3505 192.27 74.5295 188.63 71.9455 183.874C71.9195 183.804 71.8855 183.735 71.8365 183.668C68.7135 177.866 65.9755 170.449 65.9755 162.268C65.9755 145.26 73.0695 137.757 74.4805 136.435H79.1005V156.435C79.1005 158.798 80.4585 163.268 85.6005 163.268C87.4885 163.268 88.9925 162.738 90.1005 161.723V186.979C88.9925 185.964 87.4885 185.434 85.6005 185.434C80.4585 185.434 79.1005 189.904 79.1005 192.267V194.33ZM161.126 162.267C161.126 170.394 158.451 177.726 155.37 183.496C155.229 183.644 155.136 183.81 155.111 183.986C152.771 188.271 150.251 191.633 148.488 193.757C147.916 193.544 147.259 193.433 146.52 193.433C145.564 193.433 144.756 193.709 144.102 194.163V161.695C144.757 162.151 145.563 162.432 146.52 162.432C149.432 162.432 151.102 160.731 151.102 157.765V136.434H152.624C154.039 137.748 161.126 145.186 161.126 162.267ZM155.379 136.434H164.995C165.473 137.155 165.993 138.001 166.532 138.983C166.464 139.016 166.392 139.039 166.331 139.087C166.299 139.112 163.205 141.555 158.492 141.084C157.382 139.001 156.266 137.478 155.379 136.434ZM149.101 157.767C149.101 159.636 148.329 160.434 146.519 160.434C144.535 160.434 144.101 158.388 144.101 157.6V147.434V143.767C144.101 143.499 143.994 143.244 143.804 143.056C143.614 142.868 143.386 142.784 143.089 142.767C134.161 142.874 131.695 147.604 129.895 151.057C128.682 153.385 127.969 154.6 126.268 154.6C124.343 154.6 123.149 153.126 121.205 150.523C118.446 146.828 114.666 141.767 105.435 141.767C97.4445 141.767 93.6815 145.74 91.9315 149.072C90.1535 152.458 90.0175 155.875 90.0185 156.878C90.0205 158.253 89.6135 159.419 88.8725 160.162C88.1405 160.895 87.0395 161.267 85.6015 161.267C81.2595 161.267 81.1045 156.926 81.1015 156.434V136.434H149.102V157.767H149.101ZM92.0415 156.143C92.1175 154.908 92.4315 152.42 93.7005 150.002C95.8735 145.864 99.8205 143.767 105.434 143.767C113.663 143.767 116.818 147.992 119.601 151.72C121.475 154.23 123.245 156.6 126.267 156.6C129.26 156.6 130.484 154.252 131.668 151.982C133.33 148.794 135.203 145.201 142.101 144.802V147.434V157.6V208.434C142.101 218.629 132.591 224.059 125.726 224.059C92.7165 224.059 92.0215 192.24 92.0175 191.83C92.0705 191.708 92.1005 191.575 92.1005 191.434V156.434C92.1005 156.33 92.0705 156.237 92.0415 156.143ZM92.1005 242.353V245.934C92.1005 250.1 95.8575 250.1 98.6005 250.1C101.344 250.1 105.101 250.1 105.101 245.934V242.354C109.272 243.27 112.096 245.016 112.101 246.762V246.77C112.096 249.174 106.553 251.85 98.6005 251.85C90.6445 251.85 85.1005 249.171 85.1005 246.767C85.1005 245.026 87.9315 243.27 92.1005 242.353ZM98.6115 240.375C99.9705 240.375 101.494 240.177 103.101 239.643V242.507C99.0195 244.103 95.4195 243.042 94.1005 242.528V239.654C95.1605 240.002 96.7185 240.375 98.6115 240.375ZM94.1005 237.529V236.322C96.7375 236.653 99.7305 236.843 103.101 236.946V237.508C99.0195 239.103 95.4195 238.042 94.1005 237.529ZM98.6115 245.375C99.9705 245.375 101.494 245.177 103.101 244.643V245.934C103.101 247.695 102.26 248.1 98.6005 248.1C94.9415 248.1 94.1005 247.695 94.1005 245.934V244.655C95.1605 245.002 96.7185 245.375 98.6115 245.375ZM121.147 267.663C120.186 267.862 118.521 268.32 116.707 269.327C115.772 268.811 114.878 268.439 114.101 268.172V246.772C114.101 246.77 114.101 246.769 114.101 246.767C114.101 246.765 114.101 246.763 114.101 246.761V246.434C114.101 246.362 114.075 246.297 114.06 246.23C114.054 246.189 114.043 246.149 114.036 246.109C114.028 246.087 114.029 246.061 114.019 246.04C113.495 243.468 110.199 241.341 105.101 240.311V236.998C107.879 237.056 110.886 237.071 114.143 237.071C115.59 237.071 117.088 237.068 118.632 237.065L123.601 237.059C125.906 237.059 128.073 236.976 130.101 236.81V240.312C125.01 241.341 121.712 243.471 121.184 246.038C121.17 246.07 121.17 246.108 121.16 246.142C121.155 246.17 121.147 246.199 121.143 246.227C121.128 246.296 121.101 246.361 121.101 246.434V267.434C121.101 267.516 121.129 267.588 121.147 267.663ZM85.4445 282.536C85.3905 282.539 85.3385 282.434 85.2865 282.434H85.0475C85.0465 282.434 84.9425 282.434 84.9415 282.434C81.3615 282.434 73.9135 282.539 72.9625 281.42C72.9315 281.385 72.8895 281.459 72.9215 281.259C74.4735 271.565 82.2755 269.814 83.9125 269.552C84.0135 269.571 84.1165 269.561 84.2215 269.548C84.4695 269.52 84.7205 269.486 84.9765 269.486C88.6065 269.486 91.5605 272.408 91.5605 276.039C91.5595 279.475 88.8735 282.293 85.4445 282.536ZM90.7475 282.434C92.4765 280.857 93.5595 278.591 93.5595 276.101C93.5595 271.404 89.7665 267.58 85.0825 267.523C85.0855 267.492 85.1005 267.465 85.1005 267.434V250.341C87.7125 252.47 92.6605 253.85 98.6005 253.85C104.541 253.85 109.489 252.47 112.101 250.341V267.626C111.717 267.551 111.485 267.523 111.47 267.522C111.369 267.512 111.267 267.521 111.168 267.546C110.946 267.527 110.722 267.517 110.495 267.517C105.762 267.517 101.911 271.368 101.911 276.101C101.911 278.591 102.994 280.857 104.723 282.434H90.7475ZM122.508 281.42C121.556 282.539 114.108 282.434 110.53 282.434C110.501 282.434 110.451 282.434 110.426 282.434C110.425 282.434 110.423 282.434 110.422 282.434H110.183C110.131 282.434 110.079 282.537 110.025 282.534C106.596 282.292 103.91 279.534 103.91 276.097C103.91 272.466 106.864 269.509 110.494 269.509C110.75 269.509 111.001 269.52 111.249 269.548C111.344 269.56 111.441 269.537 111.535 269.517C112.216 269.624 114.045 270.001 116.035 271.153C116.165 271.285 116.315 271.389 116.489 271.433C119.028 273.038 121.707 275.939 122.549 281.197C122.581 281.397 122.539 281.385 122.508 281.42ZM124.251 282.532C124.47 282.162 124.635 281.638 124.523 280.943C123.692 275.756 121.216 272.559 118.641 270.592C120.12 269.915 121.382 269.644 121.921 269.552C122.019 269.572 122.119 269.574 122.221 269.562C122.469 269.534 122.72 269.513 122.976 269.513C126.606 269.513 129.56 272.462 129.56 276.093C129.56 279.254 127.285 281.933 124.251 282.532ZM128.704 282.434C130.458 280.873 131.56 278.613 131.56 276.101C131.56 271.404 127.767 267.58 123.083 267.523C123.086 267.492 123.101 267.465 123.101 267.434V250.341C125.713 252.47 130.661 253.85 136.601 253.85C142.541 253.85 147.489 252.47 150.101 250.341V267.626C149.717 267.551 149.484 267.523 149.469 267.522C149.369 267.512 149.266 267.521 149.167 267.546C148.945 267.527 148.722 267.517 148.495 267.517C143.762 267.517 139.911 271.368 139.911 276.101C139.911 278.591 140.994 280.857 142.723 282.434H128.704ZM160.549 281.197C160.581 281.397 160.539 281.385 160.508 281.421C159.556 282.54 152.107 282.435 148.529 282.435C148.499 282.435 148.45 282.435 148.426 282.435C148.425 282.435 148.423 282.435 148.422 282.435H148.183C148.131 282.435 148.079 282.538 148.025 282.535C144.596 282.293 141.91 279.535 141.91 276.098C141.91 272.467 144.864 269.51 148.494 269.51C148.75 269.51 149.001 269.521 149.249 269.549C149.344 269.561 149.44 269.538 149.535 269.518C151.126 269.768 158.99 271.46 160.549 281.197ZM150.101 246.762V246.77C150.096 249.174 144.553 251.85 136.601 251.85C128.645 251.85 123.101 249.171 123.101 246.767C123.101 245.026 125.932 243.27 130.101 242.353V245.934C130.101 250.1 133.858 250.1 136.601 250.1C139.344 250.1 143.101 250.1 143.101 245.934V242.354C147.272 243.27 150.096 245.016 150.101 246.762ZM136.611 240.375C137.97 240.375 139.494 240.177 141.101 239.643V242.507C137.02 244.103 133.42 243.043 132.101 242.528V239.654C133.161 240.002 134.718 240.375 136.611 240.375ZM132.101 237.529V236.615C135.554 236.219 138.55 235.554 141.101 234.635V237.508C137.02 239.103 133.42 238.043 132.101 237.529ZM136.611 245.375C137.97 245.375 139.494 245.177 141.101 244.643V245.934C141.101 247.695 140.26 248.1 136.601 248.1C132.942 248.1 132.101 247.695 132.101 245.934V244.655C133.161 245.002 134.718 245.375 136.611 245.375ZM146.956 228.726C144.322 231.615 138.133 235.059 123.601 235.059L118.629 235.065C100.354 235.102 88.2785 235.121 83.5395 230.39C81.8985 228.752 81.1005 226.477 81.1005 223.434V213.026V192.266C81.1005 192.069 81.1515 187.433 85.6005 187.433C87.0385 187.433 88.1395 187.805 88.8715 188.538C89.6125 189.281 90.0195 190.447 90.0175 191.85C90.0175 192.192 90.9895 226.059 125.726 226.059C134.6 226.059 144.101 218.977 144.101 208.434V198.268C144.101 197.48 144.536 195.434 146.519 195.434C148.329 195.434 149.101 196.232 149.101 198.101V202.656C149.101 202.665 149.1 202.674 149.101 202.681V209.065C148.92 208.905 148.706 208.809 148.476 208.809C147.831 208.809 147.308 209.537 147.308 210.434C147.308 211.331 147.831 212.059 148.476 212.059C148.706 212.059 148.92 211.963 149.101 211.803V213.961C148.997 213.954 148.892 213.934 148.788 213.934C145.583 213.934 142.977 217.13 142.977 221.059C142.977 224.463 144.934 227.313 147.542 228.015C147.364 228.249 147.174 228.487 146.956 228.726ZM148.611 226.16C146.592 226.033 144.976 223.805 144.976 221.059C144.976 218.233 146.686 215.934 148.788 215.934C148.893 215.934 148.996 215.95 149.1 215.961V223.559C149.1 223.59 149.102 223.629 149.105 223.66C149.112 223.725 149.189 224.748 148.611 226.16ZM151.101 208.124V204.55C151.987 205.084 152.801 205.429 153.394 205.635C152.584 206.548 151.815 207.378 151.101 208.124ZM154.827 203.982C154.802 203.975 154.783 203.958 154.757 203.953C154.738 203.949 152.953 203.57 151.101 202.118V198.101C151.101 196.771 150.748 195.711 150.115 194.929C150.506 194.455 150.925 193.934 151.377 193.347C154.287 196.715 157.874 197.701 159.479 197.985C157.901 200.208 156.32 202.216 154.827 203.982ZM160.725 196.176C160.636 196.144 160.547 196.108 160.447 196.102C160.4 196.099 155.885 195.757 152.611 191.687C153.814 190.019 155.114 188.041 156.385 185.797C159.644 188.873 163.359 189.351 164.791 189.42C163.504 191.828 162.128 194.086 160.725 196.176ZM165.777 187.513C165.657 187.462 165.525 187.434 165.387 187.434C165.384 187.434 165.381 187.434 165.378 187.434C165.326 187.434 160.931 187.573 157.396 183.934C158.485 181.847 159.509 179.57 160.389 177.13C163.702 179.579 167.344 180.137 168.87 180.261C167.969 182.793 166.919 185.214 165.777 187.513ZM169.531 178.297C168.923 178.277 164.605 178.024 161.067 175.118C161.723 173.023 162.258 170.831 162.616 168.549C165.453 170.081 169.446 170.4 171.422 170.456C170.977 173.162 170.331 175.78 169.531 178.297ZM172.101 162.267C172.101 164.373 171.962 166.441 171.71 168.462C169.851 168.425 165.357 168.135 162.89 166.368C163.029 165.023 163.127 163.661 163.127 162.266C163.127 161.734 163.117 161.215 163.105 160.702C163.917 160.894 164.777 160.975 165.645 160.975C168.094 160.975 170.573 160.351 172.051 159.898C172.082 160.672 172.101 161.46 172.101 162.267ZM171.922 157.841C170.209 158.4 165.935 159.588 163.036 158.609C163.03 158.607 163.023 158.609 163.016 158.607C162.853 155.892 162.515 153.447 162.059 151.246C162.66 151.354 163.268 151.408 163.872 151.408C166.977 151.408 169.927 150.184 170.667 149.854C171.246 152.255 171.692 154.914 171.922 157.841ZM167.443 140.754C168.407 142.739 169.365 145.13 170.162 147.924C170.102 147.94 170.04 147.941 169.982 147.968C169.933 147.992 165.09 150.249 161.546 149.056C160.956 146.793 160.246 144.83 159.495 143.147C159.569 143.148 159.648 143.155 159.722 143.155C163.948 143.155 166.772 141.254 167.443 140.754ZM180.101 129.59C180.101 132.261 177.928 134.434 175.257 134.434H71.9445C69.2735 134.434 67.1005 132.261 67.1005 129.59V40.2783C67.1005 37.6073 69.2735 35.4343 71.9445 35.4343H175.257C177.928 35.4343 180.101 37.6073 180.101 40.2783V129.59Z" fill="black"/>
<path d="M131.913 173.884V187.648L121.958 194.531L112 187.648V173.884L121.958 167L131.913 173.884Z" stroke="black" stroke-width="2" stroke-miterlimit="10" stroke-linejoin="round"/>
<path d="M121.958 173.456V194.531" stroke="black" stroke-width="2" stroke-miterlimit="10" stroke-linecap="round" stroke-linejoin="round"/>
<path d="M127.171 177.224L121.957 180.829" stroke="black" stroke-width="2" stroke-miterlimit="10" stroke-linecap="round" stroke-linejoin="round"/>
<path d="M127.171 183.428L121.957 187.032" stroke="black" stroke-width="2" stroke-miterlimit="10" stroke-linecap="round" stroke-linejoin="round"/>
<path d="M116.742 177.224L121.956 180.829" stroke="black" stroke-width="2" stroke-miterlimit="10" stroke-linecap="round" stroke-linejoin="round"/>
<path d="M116.742 183.428L121.956 187.032" stroke="black" stroke-width="2" stroke-miterlimit="10" stroke-linecap="round" stroke-linejoin="round"/>
<path d="M123.003 58.0723L124.168 58.7462L147.669 72.3132L148.834 72.9871V74.335V101.472V102.817L147.669 103.491L124.168 117.06L123.003 117.733L121.833 117.06L98.334 103.491L97.1671 102.817V101.472V74.335V72.9871L98.334 72.3132L121.833 58.7462L123.003 58.0723Z" fill="#2A3747"/>
<path d="M103.455 75.7759L122.271 64.9127C122.721 64.6541 123.279 64.6541 123.729 64.9127L142.547 75.7759C142.998 76.0372 143.275 76.5182 143.275 77.038V98.7659C143.275 99.287 142.998 99.768 142.547 100.028L123.729 110.891C123.504 111.022 123.253 111.085 123.001 111.085C122.749 111.085 122.497 111.022 122.271 110.891L103.455 100.028C103.003 99.768 102.728 99.2857 102.728 98.7659V77.038C102.728 76.5168 103.003 76.0372 103.455 75.7759Z" fill="#4AB657"/>
<path d="M96.8776 71.8137L122.125 57.2351C122.668 56.9216 123.332 56.9216 123.875 57.2351L149.126 71.8137C149.666 72.1245 150 72.702 150 73.3277V102.485C150 103.11 149.666 103.688 149.126 104.001L123.875 118.577C123.606 118.734 123.301 118.813 123.001 118.813C122.697 118.813 122.396 118.734 122.126 118.577L96.8789 104.001C96.335 103.689 96 103.11 96 102.485V73.3277C95.9987 72.702 96.3336 72.1245 96.8776 71.8137ZM99.4996 101.475L123.001 115.043L146.502 101.475V74.3379L123.001 60.7696L99.4996 74.3379V101.475Z" fill="#4AB657"/>
<path d="M123.782 106C118.638 106 114.467 97.9411 114.467 88C114.467 78.0589 118.638 70 123.782 70C128.927 70 133.098 78.0589 133.098 88C133.098 97.9411 128.927 106 123.782 106Z" stroke="#651150" stroke-width="3.54127"/>
<path d="M123.766 93.8015C118.97 93.8015 115.081 89.277 115.081 83.6957C115.081 78.1144 118.97 73.5898 123.766 73.5898C128.562 73.5898 132.451 78.1144 132.451 83.6957C132.451 89.277 128.562 93.8015 123.766 93.8015Z" fill="#2A3747" fill-opacity="0.0350195" stroke="#A62114" stroke-opacity="0.941176" stroke-width="3"/>
</svg>
