<?xml version="1.0" encoding="UTF-8" standalone="no"?>
<!-- Created with Inkscape (http://www.inkscape.org/) -->

<svg
   xmlns:dc="http://purl.org/dc/elements/1.1/"
   xmlns:cc="http://creativecommons.org/ns#"
   xmlns:rdf="http://www.w3.org/1999/02/22-rdf-syntax-ns#"
   xmlns:svg="http://www.w3.org/2000/svg"
   xmlns="http://www.w3.org/2000/svg"
   xmlns:sodipodi="http://sodipodi.sourceforge.net/DTD/sodipodi-0.dtd"
   xmlns:inkscape="http://www.inkscape.org/namespaces/inkscape"
   width="210mm"
   height="297mm"
   viewBox="0 0 210 297"
   version="1.1"
   id="svg1495"
   sodipodi:docname="keet-logo.svg"
   inkscape:version="0.92.5 (2060ec1f9f, 2020-04-08)">
  <defs
     id="defs1489" />
  <sodipodi:namedview
     id="base"
     pagecolor="#ffffff"
     bordercolor="#666666"
     borderopacity="1.0"
     inkscape:pageopacity="0.0"
     inkscape:pageshadow="2"
     inkscape:zoom="0.58729914"
     inkscape:cx="506.23538"
     inkscape:cy="1236.0369"
     inkscape:document-units="mm"
     inkscape:current-layer="layer1"
     showgrid="false"
     inkscape:window-width="2560"
     inkscape:window-height="1380"
     inkscape:window-x="0"
     inkscape:window-y="0"
     inkscape:window-maximized="1" />
  <metadata
     id="metadata1492">
    <rdf:RDF>
      <cc:Work
         rdf:about="">
        <dc:format>image/svg+xml</dc:format>
        <dc:type
           rdf:resource="http://purl.org/dc/dcmitype/StillImage" />
        <dc:title></dc:title>
      </cc:Work>
    </rdf:RDF>
  </metadata>
  <g
     inkscape:label="Layer 1"
     inkscape:groupmode="layer"
     id="layer1">
    <path
       inkscape:connector-curvature="0"
       style="fill:#2a3747;stroke-width:1.07988012"
       id="path4283"
       d="M 200.26277,203.87629 V 95.287638 L 196.01991,92.8352 110.47613,43.450091 106.22358,40.996626 101.97533,43.450091 16.432723,92.8352 12.189873,95.287638 V 203.87629 l 4.24285,2.45132 85.542607,49.39374 4.24825,2.44048 4.25255,-2.44048 85.54378,-49.39374 z" />
    <path
       inkscape:connector-curvature="0"
       style="fill:#4ab657;stroke-width:1.07988012"
       id="path4285"
       d="M 177.36929,105.44178 108.87683,65.898651 a 5.316249,5.316249 0 0 0 -5.30651,0 L 35.072531,105.44178 a 5.3011308,5.3011308 0 0 0 -2.653263,4.59383 v 79.08953 c 0,1.90057 1.009686,3.64997 2.653263,4.60031 l 68.497789,39.53436 c 0.81853,0.48594 1.73103,0.71273 2.64784,0.71273 0.91791,0 1.83366,-0.22679 2.65867,-0.71273 l 68.49246,-39.53436 a 5.2989711,5.2989711 0 0 0 2.64354,-4.60031 v -79.08953 a 5.291412,5.291412 0 0 0 -2.64354,-4.59383 z" />
    <path
       inkscape:connector-curvature="0"
       style="fill:#4ab657;stroke-width:1.07988012"
       id="path4287"
       d="M 201.31563,91.001579 109.40815,37.934075 a 6.3529341,6.3529341 0 0 0 -6.37023,0 L 11.121872,91.001579 A 6.3615734,6.3615734 0 0 0 7.9416252,96.512241 V 202.64521 a 6.3712924,6.3712924 0 0 0 3.1802468,5.51822 l 91.916048,53.06529 c 0.98053,0.56153 2.08849,0.8531 3.18133,0.8531 1.10688,0 2.20404,-0.29143 3.18349,-0.8531 l 91.90751,-53.06529 a 6.3648131,6.3648131 0 0 0 3.19538,-5.51822 V 96.512241 a 6.3486146,6.3486146 0 0 0 -3.19,-5.510662 z m -9.54399,107.972051 -85.54806,49.38293 -85.542607,-49.38293 v -98.78442 l 85.542607,-49.389425 85.54806,49.389425 z" />
    <g
       id="g1445"
       transform="matrix(1.8864197,0,0,1.8864197,47.114749,88.805719)">
      <g
         id="Layer_1">
        <path
           id="path1436"
           d="M 0,25.6 C 0,16.639 0,12.159 1.744,8.736 3.278,5.726 5.726,3.278 8.736,1.744 12.159,0 16.639,0 25.6,0 h 12.8 c 8.961,0 13.441,0 16.864,1.744 3.01,1.534 5.458,3.982 6.992,6.992 C 64,12.159 64,16.639 64,25.6 v 12.8 c 0,8.961 0,13.441 -1.744,16.864 -1.534,3.01 -3.982,5.458 -6.992,6.992 C 51.841,64 47.361,64 38.4,64 H 25.6 C 16.639,64 12.159,64 8.736,62.256 5.726,60.722 3.278,58.274 1.744,55.264 0,51.841 0,47.361 0,38.4 Z"
           inkscape:connector-curvature="0"
           style="fill:#292e3a" />
        <path
           id="path1438"
           d="m 15.538,9.74 c -0.006,-0.409 -0.009,-0.594 0.046,-0.613 0.045,-0.016 0.131,0.083 0.287,0.264 0.917,1.065 4.276,4.967 16.36,5.113 0.122,-0.003 0.243,-0.004 0.365,-0.004 5.769,0 10.908,2.7 14.221,6.905 -1.665,-0.621 -3.493,-0.495 -5.11,0.168 -2.716,1.115 -4.957,3.79 -4.957,7.134 0,1.22 0.155,2.189 0.449,3.012 0.295,0.828 0.717,1.471 1.202,2.05 0.341,0.408 0.733,0.805 1.125,1.201 v 0 c 0.143,0.145 0.287,0.291 0.428,0.436 0.541,0.56 1.104,1.184 1.667,1.995 1.026,1.476 1.534,2.715 1.621,4.084 0.089,1.391 -0.251,3.001 -1.089,5.232 -0.159,0.423 -0.092,0.849 0.114,1.176 -2.797,1.773 -6.114,2.799 -9.671,2.799 -9.994,0 -18.096,-8.102 -18.096,-18.096 0,-4.031 1.318,-7.753 3.545,-10.761 -1.589,-0.883 -2.862,-1.102 -3.675,-1.242 -0.64,-0.11 -0.995,-0.171 -0.995,-0.468 0,-0.94 5.238,-1.774 5.238,-1.774 0,0 -3.069,-1.204 -3.069,-2.143 0,-0.94 3.512,-0.591 3.512,-0.591 0,0 -3.512,-0.887 -3.512,-5.248 0,-0.251 -0.003,-0.459 -0.006,-0.629 z m 32.244,13.01 c 0,0.001 0,0.001 0,0.001 -4.077,-2.825 -10.282,0.7 -10.282,5.957 v -10e-4 c 0,-5.257 6.205,-8.781 10.282,-5.957 z m -4.927,24.23 c 0.668,-1.78 1.048,-3.228 1.132,-4.517 -0.084,1.289 -0.463,2.737 -1.132,4.517 -0.019,0.051 -0.031,0.102 -0.036,0.151 0.005,-0.049 0.017,-0.1 0.036,-0.151 z"
           inkscape:connector-curvature="0"
           style="fill:#73bed0" />
        <path
           id="path1440"
           d="m 30.132,29.88 c 0.318,0.113 0.477,0.169 0.602,0.15 0.108,-0.017 0.211,-0.071 0.286,-0.151 0.087,-0.091 0.117,-0.205 0.178,-0.431 0.1,-0.368 0.154,-0.765 0.154,-1.179 0,-1.924 -1.17,-3.484 -2.614,-3.484 -1.443,0 -2.613,1.56 -2.613,3.484 0,0.381 0.046,0.748 0.131,1.092 0.056,0.225 0.084,0.338 0.167,0.431 0.072,0.081 0.172,0.137 0.278,0.157 0.123,0.024 0.282,-0.026 0.601,-0.124 0.42,-0.13 0.868,-0.2 1.331,-0.2 0.525,0 1.03,0.09 1.499,0.255 z"
           inkscape:connector-curvature="0"
           style="fill:#292e3a" />
        <path
           id="path1442"
           d="M 42.237,36.973 C 39.856,33.543 37.5,33.331 37.5,28.708 c 0,-5.983 8.036,-9.721 11.826,-4.413 1.627,2.279 2.174,5.795 2.174,8.545 0,6.142 -3.104,11.562 -7.843,14.811 -0.453,0.309 -0.994,-0.158 -0.802,-0.671 1.702,-4.534 1.531,-6.912 -0.618,-10.007 z"
           inkscape:connector-curvature="0"
           style="fill:#ce6469" />
      </g>
    </g>
  </g>
</svg>
